<svg xmlns="http://www.w3.org/2000/svg" xmlns:xlink="http://www.w3.org/1999/xlink" width="11.975" height="7.748" viewBox="0 0 11.975 7.748">
  <defs>
    <clipPath id="clip-path">
      <path id="Path_758" data-name="Path 758" d="M0,7.748H11.975V0H0Z" fill="#e3dbd3"/>
    </clipPath>
  </defs>
  <g id="Group_4455" data-name="Group 4455" transform="translate(11.975 7.748) rotate(180)">
    <g id="Group_305" data-name="Group 305" transform="translate(0 0)" clip-path="url(#clip-path)">
      <g id="Group_304" data-name="Group 304" transform="translate(0 0)">
        <path id="Path_757" data-name="Path 757" d="M.137,1.16l5.3,6.348a.634.634,0,0,0,.542.241h.06a.634.634,0,0,0,.542-.241L11.84,1.16a.734.734,0,0,0,.135-.481A.507.507,0,0,0,11.72.257l-.181-.12A.856.856,0,0,0,11.028,0a.588.588,0,0,0-.451.256L6,5.673,1.43.257A.588.588,0,0,0,.979,0,.856.856,0,0,0,.468.137L.257.257A.507.507,0,0,0,0,.678a.734.734,0,0,0,.135.481" fill="#e3dbd3"/>
      </g>
    </g>
  </g>
</svg>
