<svg id="Kalender_tom_icon" data-name="Kalender tom icon" xmlns="http://www.w3.org/2000/svg" width="22.666" height="23.219" viewBox="0 0 22.666 23.219">
  <path id="Path_750" data-name="Path 750" d="M38.279,18.483h-2.87V20.92c0,.017,0,.033,0,.05s0,.036,0,.054v.064h0a1.937,1.937,0,0,1-3.868,0h0v-.065c0-.018,0-.035,0-.053s0-.033,0-.049V18.483H23.778V20.9c0,.024,0,.047,0,.071s0,.051,0,.077v.041h0a1.937,1.937,0,0,1-3.868,0h0V21c0-.01,0-.02,0-.031s0-.019,0-.028V18.483H16.859a.627.627,0,0,0-.623.626V39.261a.626.626,0,0,0,.623.626h21.42a.626.626,0,0,0,.623-.626V19.109A.627.627,0,0,0,38.279,18.483Zm-1.447,18.7a.626.626,0,0,1-.623.626H18.929a.626.626,0,0,1-.623-.626V24.815a.626.626,0,0,1,.623-.626H36.208a.626.626,0,0,1,.623.626Z" transform="translate(-16.236 -16.668)" fill="#44484c"/>
  <path id="Path_751" data-name="Path 751" d="M47.544,20.537a.968.968,0,0,0,.966-.971v-3.5a.965.965,0,1,0-1.931,0v3.5A.968.968,0,0,0,47.544,20.537Z" transform="translate(-30.309 -15.099)" fill="#44484c"/>
  <path id="Path_752" data-name="Path 752" d="M25.856,20.537a.968.968,0,0,0,.965-.971v-3.5a.965.965,0,1,0-1.931,0v3.5A.968.968,0,0,0,25.856,20.537Z" transform="translate(-20.249 -15.099)" fill="#44484c"/>
</svg>
