<svg xmlns="http://www.w3.org/2000/svg" width="16.313" height="16.313" viewBox="0 0 16.313 16.313">
  <g id="Group_6299" data-name="Group 6299" transform="translate(-807 -129.5)">
    <g id="Path_4629" data-name="Path 4629" transform="translate(807 129.5)" fill="#fff">
      <path d="M 8.156318664550781 15.56263828277588 C 4.072458744049072 15.56263828277588 0.7499986886978149 12.24017906188965 0.7499986886978149 8.156318664550781 C 0.7499986886978149 4.072458744049072 4.072458744049072 0.7499986886978149 8.156318664550781 0.7499986886978149 C 12.24017906188965 0.7499986886978149 15.56263828277588 4.072458744049072 15.56263828277588 8.156318664550781 C 15.56263828277588 12.24017906188965 12.24017906188965 15.56263828277588 8.156318664550781 15.56263828277588 Z" stroke="none"/>
      <path d="M 8.156318664550781 1.499999046325684 C 4.486008644104004 1.499999046325684 1.499999046325684 4.486008644104004 1.499999046325684 8.156318664550781 C 1.499999046325684 11.82662868499756 4.486008644104004 14.81263828277588 8.156318664550781 14.81263828277588 C 11.82662868499756 14.81263828277588 14.81263828277588 11.82662868499756 14.81263828277588 8.156318664550781 C 14.81263828277588 4.486008644104004 11.82662868499756 1.499999046325684 8.156318664550781 1.499999046325684 M 8.156318664550781 -1.9073486328125e-06 C 12.66092872619629 -1.9073486328125e-06 16.3126392364502 3.651708602905273 16.3126392364502 8.156318664550781 C 16.3126392364502 12.66092872619629 12.66092872619629 16.3126392364502 8.156318664550781 16.3126392364502 C 3.651708602905273 16.3126392364502 -1.9073486328125e-06 12.66092872619629 -1.9073486328125e-06 8.156318664550781 C -1.9073486328125e-06 3.651708602905273 3.651708602905273 -1.9073486328125e-06 8.156318664550781 -1.9073486328125e-06 Z" stroke="none" fill="#44484c"/>
    </g>
    <g id="Bocka_av_icon" data-name="Bocka av icon" transform="translate(810.685 134.75)">
      <g id="Group_6297" data-name="Group 6297" transform="translate(-3.685 -4.75)">
        <path id="Path_746" data-name="Path 746" d="M18.994,19.426l-.2-.2a.6.6,0,0,0-.424-.189.687.687,0,0,0-.48.221l-4.378,4.335-1.433-1.483v0l-.454-.459a.617.617,0,0,0-.433-.191.644.644,0,0,0-.448.2l-.2.2a.611.611,0,0,0,.032.906l2.944,2.968,5.1-5.046L19,20.309a.6.6,0,0,0-.006-.883" transform="translate(-6.679 -14.288)" fill="#373b40"/>
      </g>
    </g>
  </g>
</svg>
