<svg xmlns="http://www.w3.org/2000/svg" width="24.696" height="21.499" viewBox="0 0 24.696 21.499">
  <g id="Group_6538" data-name="Group 6538" transform="translate(-169.387 -594.877)">
    <g id="projekt_icon_grey" data-name="projekt icon grey" transform="translate(170.252 595.627)">
      <g id="Polygon_2" data-name="Polygon 2">
        <path id="Path_628" data-name="Path 628" d="M17.644,4.6H6.161L.42,14.6l5.741,10H17.644l5.741-10Z" transform="translate(-0.42 -4.6)" fill="#fcb267" stroke="#ff7000" stroke-width="1.5"/>
      </g>
    </g>
    <g id="Bocka_av_icon" data-name="Bocka av icon" transform="translate(175.641 601.693)">
      <g id="Group_6297" data-name="Group 6297">
        <path id="Path_746" data-name="Path 746" d="M22.222,19.55l-.271-.263a.84.84,0,0,0-.583-.249.962.962,0,0,0-.66.291l-6.015,5.716L12.725,23.09v0l-.624-.6a.865.865,0,0,0-.595-.251.9.9,0,0,0-.615.26l-.271.263a.785.785,0,0,0,.044,1.2l4.045,3.914,7.01-6.655.512-.495a.776.776,0,0,0-.009-1.164" transform="translate(-10.364 -19.038)" fill="#373b40"/>
      </g>
    </g>
  </g>
</svg>
