<svg id="Bocka_av_icon" data-name="Bocka av icon" xmlns="http://www.w3.org/2000/svg" width="15.322" height="11.151" viewBox="0 0 15.322 11.151">
  <g id="Group_6297" data-name="Group 6297">
    <path id="Path_746" data-name="Path 746" d="M25.348,19.684l-.342-.332a1.062,1.062,0,0,0-.737-.314,1.216,1.216,0,0,0-.833.368l-7.6,7.223-2.489-2.471v0l-.789-.764a1.094,1.094,0,0,0-.751-.318,1.141,1.141,0,0,0-.778.328l-.342.332a.991.991,0,0,0,.056,1.51l5.112,4.945,8.858-8.409.647-.625a.981.981,0,0,0-.011-1.471" transform="translate(-10.364 -19.038)" fill="#373b40"/>
  </g>
</svg>
