<svg id="Group_4470" data-name="Group 4470" xmlns="http://www.w3.org/2000/svg" width="16.31" height="16.31" viewBox="0 0 16.31 16.31">
  <path id="Path_1723" data-name="Path 1723" d="M8.155,0A8.155,8.155,0,1,1,0,8.155,8.155,8.155,0,0,1,8.155,0Z" fill="#2b8b46"/>
  <path id="Path_1724" data-name="Path 1724" d="M23.616,20.554l-.15-.151a.4.4,0,0,0-.6.024l-.275.276h0l-4.409,4.441L16.34,23.272h0l-.164-.165-.091-.092h0l-.045-.045a.39.39,0,0,0-.578.006l-.15.15a.4.4,0,0,0,.024.6l.275.277h0L18.2,26.59l5.142-5.17.284-.285A.4.4,0,0,0,23.616,20.554Z" transform="translate(-11.323 -15.065)" fill="#fff" stroke="#fff" stroke-width="0.75"/>
</svg>
