<svg id="Bocka_av_icon" data-name="Bocka av icon" xmlns="http://www.w3.org/2000/svg" xmlns:xlink="http://www.w3.org/1999/xlink" width="16" height="16" viewBox="0 0 16 16">
  <defs>
    <clipPath id="clip-path">
      <rect id="Rectangle_60" data-name="Rectangle 60" width="16" height="16" fill="none"/>
    </clipPath>
  </defs>
  <g id="Group_301" data-name="Group 301" clip-path="url(#clip-path)">
    <path id="Path_745" data-name="Path 745" d="M15.86,7.93A7.933,7.933,0,1,1,7.928,0,7.931,7.931,0,0,1,15.86,7.93" transform="translate(0.073 0.07)" fill="#fff"/>
    <path id="Path_746" data-name="Path 746" d="M20.849,19.509l-.239-.242a.729.729,0,0,0-.515-.229.835.835,0,0,0-.583.268l-5.318,5.266-1.741-1.8v0l-.552-.557a.75.75,0,0,0-.526-.232.783.783,0,0,0-.544.239l-.239.242a.742.742,0,0,0,.039,1.1l3.577,3.605,6.2-6.13.453-.456a.735.735,0,0,0-.008-1.072" transform="translate(-8.104 -14.943)" fill="#373b40"/>
  </g>
</svg>
