<svg xmlns="http://www.w3.org/2000/svg" xmlns:xlink="http://www.w3.org/1999/xlink" width="11.477" height="7.426" viewBox="0 0 11.477 7.426">
  <defs>
    <clipPath id="clip-path">
      <path id="Path_758" data-name="Path 758" d="M0,7.426H11.477V0H0Z" fill="#fff"/>
    </clipPath>
  </defs>
  <g id="Group_4085" data-name="Group 4085" transform="translate(11.477 7.426) rotate(180)">
    <g id="Group_305" data-name="Group 305" transform="translate(0)" clip-path="url(#clip-path)">
      <g id="Group_304" data-name="Group 304" transform="translate(0 0)">
        <path id="Path_757" data-name="Path 757" d="M.131,1.111,5.206,7.2a.607.607,0,0,0,.519.231h.058A.607.607,0,0,0,6.3,7.2l5.046-6.084a.7.7,0,0,0,.13-.461.486.486,0,0,0-.245-.4L11.06.131a.82.82,0,0,0-.49-.13.564.564,0,0,0-.433.245L5.754,5.437,1.371.246A.564.564,0,0,0,.938,0a.82.82,0,0,0-.49.13l-.2.115A.486.486,0,0,0,0,.65a.7.7,0,0,0,.13.461" fill="#fff"/>
      </g>
    </g>
  </g>
</svg>
