<svg xmlns="http://www.w3.org/2000/svg" width="11.5" height="15.663" viewBox="0 0 11.5 15.663">
  <g id="Group_8286" data-name="Group 8286" transform="translate(-1075.292 -308)">
    <g id="projects_kopia" data-name="projects kopia" transform="translate(1074.494 306.913)">
      <path id="Path_630" data-name="Path 630" d="M32.754,18.908v-.029l-.367-.979a1.5,1.5,0,0,0-.583-.71l-1.435-.926a1.469,1.469,0,0,0-.9-.264l-1.048.073h-.034a.617.617,0,0,0-.4.25s-5.2,8.13-5.235,8.189l-.176.269a.387.387,0,0,0-.049.132,1.567,1.567,0,0,0-.127.367.95.95,0,0,1-.024.1s0,.024-.9,4.618v.044h0l-.2.979v.049a.451.451,0,0,0,.2.4l.2.127a.446.446,0,0,0,.24.069.392.392,0,0,0,.2-.049l.813-.593h.093l.279-.2L26.73,28.37a2.037,2.037,0,0,0,.568-.539l.612-.95a.2.2,0,0,0,.024-.044l4.741-7.41A.627.627,0,0,0,32.754,18.908Zm-.764.147-.867.059h-.029a.926.926,0,0,1-.451-.147l-1.435-.931a.979.979,0,0,1-.318-.353.069.069,0,0,0,0-.029l-.294-.8.872-.054h0a.911.911,0,0,1,.446.147l1.435.931a.882.882,0,0,1,.318.353v.029Zm-8.4,10.657h-.049a1.832,1.832,0,0,1-.627-.3,1.675,1.675,0,0,1-.553-.49c.171-.872.622-3.2.661-3.389a1.1,1.1,0,0,0,.024-.108.979.979,0,0,1,.088-.245l1.131-.1H24.3l.162.979a.132.132,0,0,0,0,.059.73.73,0,0,0,.74.49h.059l.979-.269h.029l.377,1.092a1.548,1.548,0,0,1-.3.264Z" transform="translate(-20.481 -14.911)" fill="#858585"/>
    </g>
  </g>
</svg>
