<svg id="Group_4157" data-name="Group 4157" xmlns="http://www.w3.org/2000/svg" width="10.742" height="15.696" viewBox="0 0 10.742 15.696">
  <path id="Path_800" data-name="Path 800" d="M32.707,16.306a.275.275,0,0,0-.279-.27h-2.9V15.39a.275.275,0,0,0-.279-.271h-3.8a.275.275,0,0,0-.279.271v.646H22.252a.275.275,0,0,0-.279.27v.8H32.707Z" transform="translate(-21.973 -15.119)" fill="#373b40"/>
  <path id="Path_801" data-name="Path 801" d="M21.973,23.209,23.286,35.9c.033.187.125.283.279.283h7.557c.154,0,.246-.1.279-.283l1.313-12.693Zm2.465,12.053-.909-9.55h1.212l.486,9.55Zm3.491,0H26.656l-.179-9.55h1.607Zm2.216,0h-.789l.486-9.55h1.212Z" transform="translate(-21.973 -20.489)" fill="#373b40"/>
</svg>
