<svg id="Group_3926" data-name="Group 3926" xmlns="http://www.w3.org/2000/svg" width="15" height="15" viewBox="0 0 15 15">
  <g id="Rectangle_15544" data-name="Rectangle 15544" transform="translate(0 0)" fill="#858585" stroke="#858585" stroke-width="1">
    <rect width="15" height="15" stroke="none"/>
    <rect x="0.5" y="0.5" width="14" height="14" fill="none"/>
  </g>
  <g id="WOP360_logo" data-name="WOP360 logo" transform="translate(2.495 2.168)">
    <g id="Group_3903" data-name="Group 3903">
      <g id="Group_68" data-name="Group 68">
        <path id="Path_66" data-name="Path 66" d="M.8.75l-2-1.134V-2.652l2-1.134,2,1.135V-.383ZM-1.591,4.825l-2-1.134V1.424l2-1.134,2,1.135V3.693Zm4.789,0-2-1.134V1.424L3.2.29l2,1.135,0,2.268Zm-7.571-.692,2.782,1.578,2.4-1.357L3.2,5.712,5.982,4.136l0-3.155L3.591-.376V-3.094L.809-4.671-1.978-3.1V-.374L-4.373.981Z" transform="translate(4.373 4.671)" fill="#44484c"/>
      </g>
    </g>
  </g>
</svg>
