<svg xmlns="http://www.w3.org/2000/svg" width="16.313" height="16.313" viewBox="0 0 16.313 16.313">
  <g id="Path_4622" data-name="Path 4622" fill="#F3CDCD">
    <path d="M 8.156318664550781 15.56263828277588 C 4.072458744049072 15.56263828277588 0.7499986886978149 12.24017906188965 0.7499986886978149 8.156318664550781 C 0.7499986886978149 4.072458744049072 4.072458744049072 0.7499986886978149 8.156318664550781 0.7499986886978149 C 12.24017906188965 0.7499986886978149 15.56263828277588 4.072458744049072 15.56263828277588 8.156318664550781 C 15.56263828277588 12.24017906188965 12.24017906188965 15.56263828277588 8.156318664550781 15.56263828277588 Z" stroke="none"/>
    <path d="M 8.156318664550781 1.499999046325684 C 4.486008644104004 1.499999046325684 1.499999046325684 4.486008644104004 1.499999046325684 8.156318664550781 C 1.499999046325684 11.82662868499756 4.486008644104004 14.81263828277588 8.156318664550781 14.81263828277588 C 11.82662868499756 14.81263828277588 14.81263828277588 11.82662868499756 14.81263828277588 8.156318664550781 C 14.81263828277588 4.486008644104004 11.82662868499756 1.499999046325684 8.156318664550781 1.499999046325684 M 8.156318664550781 -1.9073486328125e-06 C 12.66092872619629 -1.9073486328125e-06 16.3126392364502 3.651708602905273 16.3126392364502 8.156318664550781 C 16.3126392364502 12.66092872619629 12.66092872619629 16.3126392364502 8.156318664550781 16.3126392364502 C 3.651708602905273 16.3126392364502 -1.9073486328125e-06 12.66092872619629 -1.9073486328125e-06 8.156318664550781 C -1.9073486328125e-06 3.651708602905273 3.651708602905273 -1.9073486328125e-06 8.156318664550781 -1.9073486328125e-06 Z" stroke="none" fill="#44484c"/>
  </g>
</svg>
