<svg id="Group_6418" data-name="Group 6418" xmlns="http://www.w3.org/2000/svg" width="26.421" height="26.421" viewBox="0 0 26.421 26.421">
  <g id="Path_4629" data-name="Path 4629" transform="translate(0 0)" fill="#DDD">
    <path d="M 13.21063137054443 25.42126083374023 C 9.949050903320312 25.42126083374023 6.882691383361816 24.15113067626953 4.576411247253418 21.84485054016113 C 2.270131349563599 19.53857231140137 1.000001311302185 16.47221183776855 1.000001311302185 13.21063137054443 C 1.000001311302185 9.949050903320312 2.270131349563599 6.882691383361816 4.576411247253418 4.576411247253418 C 6.882691383361816 2.270131349563599 9.949050903320312 1.000001311302185 13.21063137054443 1.000001311302185 C 16.47221183776855 1.000001311302185 19.53857231140137 2.270131349563599 21.84485054016113 4.576411247253418 C 24.15113067626953 6.882691383361816 25.42126083374023 9.949050903320312 25.42126083374023 13.21063137054443 C 25.42126083374023 16.47221183776855 24.15113067626953 19.53857231140137 21.84485054016113 21.84485054016113 C 19.53857231140137 24.15113067626953 16.47221183776855 25.42126083374023 13.21063137054443 25.42126083374023 Z" stroke="none"/>
    <path d="M 13.21063137054443 2.000001907348633 C 10.21616172790527 2.000001907348633 7.400932312011719 3.166110992431641 5.28352165222168 5.28352165222168 C 3.166110992431641 7.400932312011719 2.000001907348633 10.21616172790527 2.000001907348633 13.21063137054443 C 2.000001907348633 16.20510101318359 3.166110992431641 19.02033233642578 5.28352165222168 21.13774108886719 C 7.400932312011719 23.25515174865723 10.21616172790527 24.42126083374023 13.21063137054443 24.42126083374023 C 16.20510101318359 24.42126083374023 19.02033233642578 23.25515174865723 21.13774108886719 21.13774108886719 C 23.25515174865723 19.02033233642578 24.42126083374023 16.20510101318359 24.42126083374023 13.21063137054443 C 24.42126083374023 10.21616172790527 23.25515174865723 7.400932312011719 21.13774108886719 5.28352165222168 C 19.02033233642578 3.166110992431641 16.20510101318359 2.000001907348633 13.21063137054443 2.000001907348633 M 13.21063137054443 1.9073486328125e-06 C 20.50666046142578 1.9073486328125e-06 26.42126083374023 5.914602279663086 26.42126083374023 13.21063137054443 C 26.42126083374023 20.50666046142578 20.50666046142578 26.42126083374023 13.21063137054443 26.42126083374023 C 5.914602279663086 26.42126083374023 1.9073486328125e-06 20.50666046142578 1.9073486328125e-06 13.21063137054443 C 1.9073486328125e-06 5.914602279663086 5.914602279663086 1.9073486328125e-06 13.21063137054443 1.9073486328125e-06 Z" stroke="none" fill="#44484c"/>
  </g>
  <g id="Bocka_av_icon" data-name="Bocka av icon" transform="translate(5.836 8.634)">
    <g id="Group_6297" data-name="Group 6297">
      <path id="Path_746" data-name="Path 746" d="M24.605,19.652l-.325-.316a1.009,1.009,0,0,0-.7-.3,1.156,1.156,0,0,0-.792.35l-7.224,6.865L13.2,23.9v0l-.75-.726a1.039,1.039,0,0,0-.714-.3,1.085,1.085,0,0,0-.739.312l-.325.316a.942.942,0,0,0,.053,1.436l4.858,4.7L24,21.644l.615-.594a.932.932,0,0,0-.011-1.4" transform="translate(-10.364 -19.038)" fill="#373b40"/>
    </g>
  </g>
</svg>
