<svg id="Group_6464" data-name="Group 6464" xmlns="http://www.w3.org/2000/svg" width="26.421" height="26.421" viewBox="0 0 26.421 26.421">
  <g id="Path_4629" data-name="Path 4629" transform="translate(0 0)" fill="#fff">
    <path d="M 13.21063137054443 25.67126083374023 C 9.882271766662598 25.67126083374023 6.753141403198242 24.37513160705566 4.399631500244141 22.02163124084473 C 2.046131372451782 19.66812133789062 0.7500013709068298 16.53899192810059 0.7500013709068298 13.21063137054443 C 0.7500013709068298 9.882271766662598 2.046131372451782 6.753141403198242 4.399631500244141 4.399631500244141 C 6.753141403198242 2.046131372451782 9.882271766662598 0.7500013709068298 13.21063137054443 0.7500013709068298 C 16.53899192810059 0.7500013709068298 19.66812133789062 2.046131372451782 22.02163124084473 4.399631500244141 C 24.37513160705566 6.753141403198242 25.67126083374023 9.882271766662598 25.67126083374023 13.21063137054443 C 25.67126083374023 16.53899192810059 24.37513160705566 19.66812133789062 22.02163124084473 22.02163124084473 C 19.66812133789062 24.37513160705566 16.53899192810059 25.67126083374023 13.21063137054443 25.67126083374023 Z" stroke="none"/>
    <path d="M 13.21063137054443 1.500001907348633 C 10.08261108398438 1.500001907348633 7.141811370849609 2.718120574951172 4.929962158203125 4.929962158203125 C 2.718120574951172 7.141811370849609 1.500001907348633 10.08261108398438 1.500001907348633 13.21063137054443 C 1.500001907348633 16.33865165710449 2.718120574951172 19.27945137023926 4.929962158203125 21.49130249023438 C 7.141811370849609 23.7031421661377 10.08261108398438 24.92126083374023 13.21063137054443 24.92126083374023 C 16.33865165710449 24.92126083374023 19.27945137023926 23.7031421661377 21.49130249023438 21.49130249023438 C 23.7031421661377 19.27945137023926 24.92126083374023 16.33865165710449 24.92126083374023 13.21063137054443 C 24.92126083374023 10.08261108398438 23.7031421661377 7.141811370849609 21.49130249023438 4.929962158203125 C 19.27945137023926 2.718120574951172 16.33865165710449 1.500001907348633 13.21063137054443 1.500001907348633 M 13.21063137054443 1.9073486328125e-06 C 20.50666046142578 1.9073486328125e-06 26.42126083374023 5.914602279663086 26.42126083374023 13.21063137054443 C 26.42126083374023 20.50666046142578 20.50666046142578 26.42126083374023 13.21063137054443 26.42126083374023 C 5.914602279663086 26.42126083374023 1.9073486328125e-06 20.50666046142578 1.9073486328125e-06 13.21063137054443 C 1.9073486328125e-06 5.914602279663086 5.914602279663086 1.9073486328125e-06 13.21063137054443 1.9073486328125e-06 Z" stroke="none" fill="#44484c"/>
  </g>
</svg>
