<svg xmlns="http://www.w3.org/2000/svg" xmlns:xlink="http://www.w3.org/1999/xlink" width="41.878" height="41.878" viewBox="0 0 41.878 41.878">
  <defs>
    <clipPath id="clip-path">
      <rect id="Rectangle_17198" data-name="Rectangle 17198" width="41.878" height="41.878" fill="none"/>
    </clipPath>
  </defs>
  <g id="Group_6215" data-name="Group 6215" transform="translate(-33.087 -944.241)">
    <g id="Group_6213" data-name="Group 6213" transform="translate(33.087 944.241)">
      <g id="Group_6202" data-name="Group 6202" transform="translate(0 0)" clip-path="url(#clip-path)">
        <path id="Path_4610" data-name="Path 4610" d="M20.939,1.635a19.3,19.3,0,1,1-19.3,19.3,19.326,19.326,0,0,1,19.3-19.3m0-1.635A20.939,20.939,0,1,0,41.878,20.939,20.939,20.939,0,0,0,20.939,0" transform="translate(0 0)" fill="#E6E4E4"/>
        <path id="Path_4611" data-name="Path 4611" d="M38.368,39.24c-.644-5.071-1.209-7.633-3.316-11.132a9.866,9.866,0,0,0-4.722-4.222l-.655-.26.034-.019A7.588,7.588,0,0,0,26.683,9.079l-.035,0-.035,0a7.588,7.588,0,0,0-3.026,14.527l.034.019-.655.26a9.863,9.863,0,0,0-4.722,4.222c-2.107,3.5-2.673,6.061-3.316,11.132l-.013.1L15,39.4l2.325,1.54.223.148.035-.266c.616-4.727,1.437-8.243,3.2-11.17a6.768,6.768,0,0,1,5.865-3.64,7.27,7.27,0,0,1,5.864,3.64c1.763,2.928,2.585,6.443,3.2,11.17l.034.266.222-.148,2.325-1.54.087-.057Zm-7.18-22.575a4.54,4.54,0,1,1-4.54-4.6,4.593,4.593,0,0,1,4.54,4.6" transform="translate(-5.988 -2.55)" fill="#E6E4E4"/>
      </g>
    </g>
  </g>
</svg>
