<svg xmlns="http://www.w3.org/2000/svg" width="14.382" height="14.382" viewBox="0 0 14.382 14.382">
  <g id="Group_7504" data-name="Group 7504" transform="translate(-1398.824 -371.644)">
    <g id="Group_6934" data-name="Group 6934" transform="translate(1398.824 371.644)">
      <path id="Path_1723" data-name="Path 1723" d="M7.191,0A7.191,7.191,0,1,1,0,7.191,7.191,7.191,0,0,1,7.191,0Z" fill="#e67314"/>
      <path id="Path_1724" data-name="Path 1724" d="M22.62,20.521l-.132-.133a.348.348,0,0,0-.526.022l-.243.243h0L17.832,24.57,16.2,22.918h0l-.144-.145-.08-.081h0l-.039-.04a.344.344,0,0,0-.51.005l-.132.133a.353.353,0,0,0,.021.529l.242.244h0l2.278,2.283,4.535-4.559.25-.251A.348.348,0,0,0,22.62,20.521Z" transform="translate(-11.78 -15.681)" fill="#fff" stroke="#fff" stroke-width="0.75"/>
    </g>
  </g>
</svg>
