<svg xmlns="http://www.w3.org/2000/svg" xmlns:xlink="http://www.w3.org/1999/xlink" width="11.975" height="7.748" viewBox="0 0 11.975 7.748">
  <defs>
    <clipPath id="clip-path">
      <path id="Path_758" data-name="Path 758" d="M0,.022H11.975V-7.726H0Z" transform="translate(0 7.726)" fill="#e3dbd3"/>
    </clipPath>
  </defs>
  <g id="Group_4455" data-name="Group 4455" transform="translate(11.976 7.748) rotate(180)">
    <g id="Group_305" data-name="Group 305" transform="translate(11.976 7.748) rotate(180)" clip-path="url(#clip-path)">
      <g id="Group_304" data-name="Group 304" transform="translate(0 0)">
        <path id="Path_757" data-name="Path 757" d="M0,0,5.3,6.351a.634.634,0,0,0,.542.241H5.9a.634.634,0,0,0,.542-.241L11.7,0a.734.734,0,0,0,.135-.481A.507.507,0,0,0,11.583-.9L11.4-1.02a.856.856,0,0,0-.511-.135A.588.588,0,0,0,10.44-.9L5.867,4.516,1.294-.9a.588.588,0,0,0-.451-.256.856.856,0,0,0-.511.135L.121-.9a.507.507,0,0,0-.256.421A.734.734,0,0,0,0,0" transform="translate(0.136 1.156)" fill="#e3dbd3"/>
      </g>
    </g>
  </g>
</svg>
