<svg id="PDF_document_kopia" data-name="PDF document kopia" xmlns="http://www.w3.org/2000/svg" width="30" viewBox="0 0 64 64"><defs><style>.cls-1{fill:#e67314;}</style></defs><polygon class="cls-1" points="33.61 4.3 33.61 20.44 49.66 20.44 33.61 4.3"/><polygon class="cls-1" points="30.32 23.75 30.32 4.29 13.79 4.29 13.79 31.79 47.48 31.79 47.48 51.26 13.79 51.26 13.79 59.29 49.99 59.29 49.99 23.75 30.32 23.75"/><path class="cls-1" d="M15.44,48.26a.89.89,0,0,0,.94-.95V43h1.29a10.14,10.14,0,0,0,2.62-.29A3.66,3.66,0,0,0,23,38.88a3.58,3.58,0,0,0-2.13-3.67,9.34,9.34,0,0,0-3.29-.42H16.05A1.91,1.91,0,0,0,13.93,37V47.31a.88.88,0,0,0,.91.95Zm.94-11.07v-.1h1.29a5.33,5.33,0,0,1,2.06.24c.4.17.77.48.77,1.62a1.54,1.54,0,0,1-.79,1.55,5.33,5.33,0,0,1-1.93.23h-1.4Z"/><path class="cls-1" d="M28.14,48.22a11.06,11.06,0,0,0,3.38-.45c3.18-1.17,3.54-4.21,3.54-6.4,0-3.46-1.17-5.56-3.49-6.23a11.38,11.38,0,0,0-3.29-.35H26.77A1.91,1.91,0,0,0,24.62,37v9.1a1.87,1.87,0,0,0,2.12,2.14Zm-1.07-11s0-.08,0-.1H28.4a6.2,6.2,0,0,1,2.51.36c1.14.54,1.65,1.74,1.65,3.9s-.55,3.57-1.79,4.15a5.86,5.86,0,0,1-2.32.36H27.08s0-.07,0-.13Z"/><path class="cls-1" d="M39.54,37.13h4.69a.85.85,0,0,0,.94-.89V35.7a.86.86,0,0,0-.94-.91h-5c-1.45,0-2.15.73-2.15,2.23V47.31a.86.86,0,0,0,.9.95h.63a.88.88,0,0,0,.92-1V42.83h4a.85.85,0,0,0,.94-.89V41.4a.86.86,0,0,0-.94-.91h-4V37.24A.31.31,0,0,1,39.54,37.13Z"/></svg>
