<svg xmlns="http://www.w3.org/2000/svg" width="18.953" height="17.216" viewBox="0 0 18.953 17.216">
  <g id="Group_4091" data-name="Group 4091" transform="translate(0 0)">
    <g id="Group_3988" data-name="Group 3988" transform="translate(5.984 4.613)">
      <rect id="Rectangle_15585" data-name="Rectangle 15585" width="6.934" height="0.803" transform="translate(0 1.992)" fill="#44484c"/>
      <rect id="Rectangle_15586" data-name="Rectangle 15586" width="6.934" height="0.803" fill="#44484c"/>
    </g>
    <path id="Path_1752" data-name="Path 1752" d="M33.834,19.925a.955.955,0,0,0-.953-.957H15.833a.955.955,0,0,0-.952.957v8.132h3.6v.718l7.369,7.409H30.2V28.1h3.636Zm-17.1,6.567v-3.8H18.48v3.8Zm8.806,7.864L20.3,29.089h5.238Zm1.066.757v-7.1H19.546V22.694h9.587V35.113Zm5.38-8.575H30.2V22.694h1.786Z" transform="translate(-14.881 -18.968)" fill="#44484c"/>
  </g>
</svg>
