
<svg xmlns="http://www.w3.org/2000/svg" width="29.202" height="32.385" viewBox="0 0 29.202 32.385">
  <path id="Path_679" data-name="Path 679" d="M32.955,28.7a.965.965,0,0,0-.662.263l-.036-.021-.113.187a13.581,13.581,0,0,1-11.671,6.7A13.956,13.956,0,0,1,6.743,21.693,13.956,13.956,0,0,1,20.473,7.552a13.593,13.593,0,0,1,11.6,6.585l.11.173L32.2,14.3a.974.974,0,0,0,.717.315,1.012,1.012,0,0,0,1-1.026,1.044,1.044,0,0,0-.088-.42l.028-.043-.111-.115A15.556,15.556,0,0,0,20.473,5.5,15.982,15.982,0,0,0,4.749,21.693,15.982,15.982,0,0,0,20.473,37.885a15.544,15.544,0,0,0,13.292-7.564l.031-.049-.183-.128h0l.184.127,0-.008a1.047,1.047,0,0,0,.149-.536A1.013,1.013,0,0,0,32.955,28.7Z" transform="translate(-4.749 -5.5)" fill="#858585"/>
   <path id="Path_678" data-name="Path 678" d="M31.508,32.864c-.146.1-.535.371-.535.766a.937.937,0,0,0,.3.6l.436.366a1.221,1.221,0,0,0,.828.334,1.4,1.4,0,0,0,.781-.277L41.2,28.461a.756.756,0,0,0,.345-.656.781.781,0,0,0-.37-.695L33.26,20.867a1.142,1.142,0,0,0-1.542.021l-.462.416a.8.8,0,0,0-.308.556.812.812,0,0,0,.368.655c2.087,1.6,3.777,2.881,5.023,3.817l.444.333-.612,0c-2.987-.018-8.516-.018-15.517-.018-.751,0-1.237.353-1.237.9v.482c0,.542.467.921,1.136.921l16.185-.015-.454.333C35.108,30.123,33.5,31.332,31.508,32.864Z" transform="translate(-14.416 -11.85)" fill="#858585"/>
</svg>

