<svg id="_add_ÄTA_kopia" data-name="+ add ÄTA kopia" xmlns="http://www.w3.org/2000/svg"   width="30" viewBox="0 0 64 64"><defs><style>.cls-1{fill:#e67314;}.cls-2{fill:#858585;}.cls-3{fill:#fff;}</style></defs><polygon class="cls-1" points="2.32 37.65 2.32 53.77 16.26 61.84 30.24 53.78 30.24 37.65 16.3 29.58 2.32 37.65"/><polygon class="cls-2" points="45.95 10.36 32.02 2.29 18.04 10.36 18.04 26.48 31.98 34.55 45.95 26.49 45.95 10.36"/><polygon class="cls-2" points="47.73 29.58 33.75 37.65 33.75 53.77 47.69 61.84 61.65 53.78 61.68 37.65 47.73 29.58"/><path class="cls-3" d="M24.59,44.49H17.53V37.3a1,1,0,0,0-1-1H16a1,1,0,0,0-1,1.09v7.11H7.8a1,1,0,0,0-1,1V46a1,1,0,0,0,1.09,1h7.06v7.19a1,1,0,0,0,1,1h.54a1,1,0,0,0,1-1.09V47h7.13a1,1,0,0,0,1-1v-.51A1,1,0,0,0,24.59,44.49Z"/><path class="cls-3" d="M53.06,44.59h-11c-.39,0-.66.39-.66.95V46c0,.56.28.92.71.92h11c.38,0,.65-.39.65-.94v-.49C53.77,45,53.49,44.59,53.06,44.59Z"/><path class="cls-3" d="M37.33,14.72h-11c-.39,0-.66.39-.66.95v.48c0,.56.27.92.71.92h11c.39,0,.66-.39.66-.95v-.48C38,15.08,37.76,14.72,37.33,14.72Z"/><path class="cls-3" d="M37.33,20.05h-11c-.39,0-.66.39-.66,1v.48c0,.56.27.92.71.92h11c.39,0,.66-.39.66-.94V21C38,20.41,37.76,20.05,37.33,20.05Z"/></svg>
