<svg id="enabled" xmlns="http://www.w3.org/2000/svg" width="35" viewBox="0 0 75 75"><defs><style>.cls-1{fill:#009B4E; stroke: #009B4E;}</style></defs><path class="cls-1" d="M64.21,20.09a1.69,1.69,0,0,0-1.68-.8L10.37,25.14a1.74,1.74,0,0,0-1,2.95l10.51,8.3L54.31,25,23.19,40.82,20,52.24a1.76,1.76,0,0,0-.11,1,1.69,1.69,0,0,0,.51.93,1.47,1.47,0,0,0,.5.34,1.58,1.58,0,0,0,1.48,0l7.51-6.61L38.5,58.79a1.83,1.83,0,0,0,.54.39,1.76,1.76,0,0,0,.87.14,1.73,1.73,0,0,0,1.29-.78L64.18,22A1.73,1.73,0,0,0,64.21,20.09Z"/></svg>
