<svg id="Polygon_2_kopia_2" data-name="Polygon 2 kopia 2" xmlns="http://www.w3.org/2000/svg" viewBox="0 0 150 150"><defs><style>.cls-1{fill:#D17C69;}</style></defs><g id="röd"><path class="cls-1" d="M110.18,13.7,145.39,75l-35.21,61.3H39.82L4.61,75,39.82,13.7h70.36m2.32-4h-75L0,75l37.5,65.3h75L150,75,112.5,9.7Z"/></g><polygon class="cls-1" points="63.38 56.21 63.38 48.98 108.32 48.98 108.32 56.21 63.38 56.21 63.38 56.21"/><polygon class="cls-1" points="63.38 78.28 63.38 71.05 108.32 71.05 108.32 78.28 63.38 78.28 63.38 78.28"/><polygon class="cls-1" points="63.38 100.34 63.38 93.11 108.32 93.11 108.32 100.34 63.38 100.34 63.38 100.34"/><path class="cls-1" d="M48.19,88.75c-3.93,0-6.26,2-6.26,5.37h4.33c0-1.33.65-2.09,1.93-2.09,1.07,0,1.68.58,1.68,1.45S49.06,95,47.74,95h-.52v3.19h.39c1.65,0,2.39.54,2.39,1.62,0,.9-.67,1.48-1.77,1.48-1.32,0-2.06-.74-2.06-2.2H41.71c0,3.55,2.32,5.48,6.54,5.48,3.76,0,6.17-1.79,6.17-4.65,0-1.82-.85-2.92-2.79-3.55v0c1.83-.68,2.59-1.67,2.59-3.33,0-2.61-2.28-4.29-6-4.29"/><path class="cls-1" d="M48.23,67c-3.86,0-6.12,1.93-6.14,5.39h4.4c0-1.4.69-2.11,1.79-2.11a1.3,1.3,0,0,1,1.43,1.35c0,1.28-1.39,2-3.49,3.1-3.33,1.73-4.34,3.66-4.34,6.9,0,.31,0,.62,0,.87H54.62V79H47.05c.09-.72.53-1.24,3.13-2.43,2.37-1,4-2.29,4-4.9S52,67,48.23,67"/><path class="cls-1" d="M51.27,60V44.88h-4c-.3,1.89-1.48,2.68-4.14,2.68v3.19h3.67V60Z"/></svg>
