<svg id="Polygon_2_kopia_2" data-name="Polygon 2 kopia 2" xmlns="http://www.w3.org/2000/svg" viewBox="0 0 150 150"><defs><style>.cls-1{fill:#bfe29c;}</style></defs><g id="grön"><path class="cls-1" d="M110.18,13.7,145.39,75l-35.21,61.3H39.82L4.61,75,39.82,13.7h70.36m2.32-4h-75L0,75l37.5,65.3h75L150,75,112.5,9.7Z"/></g><path class="cls-1" d="M102.69,52.63a35,35,0,0,0-61.86,19,35.08,35.08,0,0,0,7.82,25.75A34.71,34.71,0,0,0,72.31,110c1.14.11,2.29.17,3.43.17a34.63,34.63,0,0,0,22.19-8,35.35,35.35,0,0,0,4.76-49.53Zm2,25.18A29.07,29.07,0,0,1,53.2,93.61a29.41,29.41,0,0,1,4-41.2,28.79,28.79,0,0,1,18.46-6.68c.94,0,1.9.05,2.85.14a29.22,29.22,0,0,1,26.18,31.94Z"/><path class="cls-1" d="M93.83,84.54l-.67-3.13a.41.41,0,0,0-.21-.27L77.8,73.36V52.72a.37.37,0,0,0-.14-.3l-2.5-2.08a.39.39,0,0,0-.49,0L72.12,52.4a.38.38,0,0,0-.15.3v24a.38.38,0,0,0,.21.34l18.18,9.34a.39.39,0,0,0,.18,0,.33.33,0,0,0,.17,0L93.62,85A.4.4,0,0,0,93.83,84.54Z"/></svg>
