<svg id="Sopptunna_vit" data-name="Sopptunna vit" xmlns="http://www.w3.org/2000/svg" width="12" height="17.534" viewBox="0 0 12 17.534">
  <path id="Path_800" data-name="Path 800" d="M33.961,16.858a.362.362,0,0,0-.312-.4H30.414v-.947a.362.362,0,0,0-.312-.4H25.859a.362.362,0,0,0-.312.4v.947H22.285a.362.362,0,0,0-.312.4v1.165H33.961Z" transform="translate(-21.973 -15.119)" fill="#858585"/>
  <path id="Path_801" data-name="Path 801" d="M21.973,23.209,23.44,36.462c.037.2.14.3.312.3h8.443c.172,0,.275-.1.312-.3l1.467-13.253Zm2.754,12.585-1.015-9.971h1.354l.543,9.971Zm3.9,0H27.2L27,25.823h1.8Zm2.476,0H30.22l.543-9.971h1.354Z" transform="translate(-21.973 -19.224)" fill="#858585"/>
</svg>
