<svg xmlns="http://www.w3.org/2000/svg" width="24" height="24" viewBox="0 0 41.762 33.786">
  <g id="Group_448" data-name="Group 448" transform="translate(-12.551 -17.384)">
    <path id="Path_868" data-name="Path 868" d="M50.323,24.342l-6.345,11.05h4.048A12.248,12.248,0,0,1,35.811,47.672a12.112,12.112,0,0,1-6.184-1.688c-.028-.017-.054-.035-.081-.052l-2.294,3.995.1.063a16.656,16.656,0,0,0,8.46,2.294,16.847,16.847,0,0,0,16.8-16.893h4.052Z" transform="translate(-2.356 -1.115)" fill="#444"/>
    <path id="Path_869" data-name="Path 869" d="M21.194,34.277A12.248,12.248,0,0,1,33.408,22a12.107,12.107,0,0,1,6.183,1.688c.027.016.051.034.077.049l2.293-3.994-.1-.06a16.651,16.651,0,0,0-8.459-2.3A16.847,16.847,0,0,0,16.6,34.277H12.551L18.9,45.326l6.344-11.05Z" fill="#444"/>
  </g>
</svg>
