<svg id="Polygon_2_kopia_2" data-name="Polygon 2 kopia 2" xmlns="http://www.w3.org/2000/svg" viewBox="0 0 150 150"><defs><style>.cls-1{fill:#82a7e2;}</style></defs><g id="blå"><path class="cls-1" d="M110.18,13.7,145.39,75l-35.21,61.3H39.82L4.61,75,39.82,13.7h70.36m2.32-4h-75L0,75l37.5,65.3h75L150,75,112.5,9.7Z"/></g><path class="cls-1" d="M102.93,52.75a.88.88,0,0,0-.05-.15l-1.65-4.48a6.84,6.84,0,0,0-2.64-3.21l-6.47-4.19a6.66,6.66,0,0,0-4-1.09L83.39,40l-.16,0a2.71,2.71,0,0,0-1.79,1.12c-.06.08-23.54,36.68-23.7,36.94L57,79.27a1.75,1.75,0,0,0-.22.59,7.83,7.83,0,0,0-.57,1.67c0,.14-.07.28-.11.44s0,.11-4.06,20.85a.89.89,0,0,0,0,.22v0l-.91,4.4,0,.24a2,2,0,0,0,.92,1.79l.87.57a2,2,0,0,0,1.09.31,1.88,1.88,0,0,0,.91-.22l3.68-2.67.21-.09a1.22,1.22,0,0,0,.19-.12l1.28-.91L75.74,95.28a9.71,9.71,0,0,0,2.56-2.45l2.77-4.3a1.18,1.18,0,0,0,.11-.19L102.58,55A2.79,2.79,0,0,0,102.93,52.75Zm-3.44.65-3.92.26-.14,0a4.07,4.07,0,0,1-2-.65l-6.49-4.21a4.13,4.13,0,0,1-1.43-1.59s0-.09,0-.13L84.1,43.5,88,43.22h.14a4.07,4.07,0,0,1,2,.65l6.49,4.21a4,4,0,0,1,1.43,1.59.93.93,0,0,0,0,.13ZM61.6,101.58h-.07l-.16,0a8.36,8.36,0,0,1-2.82-1.36,7.43,7.43,0,0,1-2.5-2.15c.76-3.94,2.81-14.47,3-15.3,0-.18.09-.35.13-.5a4.57,4.57,0,0,1,.38-1.11l5.12-.46a.34.34,0,0,1,.16.08l.72,4.53a1.34,1.34,0,0,0,.07.27,3.32,3.32,0,0,0,3.33,2.17l.28,0,4.4-1.21s.12.06.13.09l1.7,4.93a7.36,7.36,0,0,1-1.37,1.19Z"/></svg>
