<svg xmlns="http://www.w3.org/2000/svg" width="4" height="7.333" viewBox="0 0 4 7.333">
  <g id="Group_7650" data-name="Group 7650" transform="translate(252 300.083) rotate(180)">
    <g id="Group_7594" data-name="Group 7594" transform="translate(252 292.75) rotate(90)">
      <path id="Path_757" data-name="Path 757" d="M.084.6,3.326,3.876A.421.421,0,0,0,3.657,4h.037a.421.421,0,0,0,.332-.124L7.25.6A.337.337,0,0,0,7.332.35.26.26,0,0,0,7.176.133L7.065.071A.6.6,0,0,0,6.752,0a.38.38,0,0,0-.276.132l-2.8,2.8L.876.133A.38.38,0,0,0,.6,0a.6.6,0,0,0-.313.07L.157.133A.26.26,0,0,0,0,.35.337.337,0,0,0,.084.6" transform="translate(0 0)" fill="#fcf4ec"/>
    </g>
  </g>
</svg>
