<!-- <svg viewBox="0 0 95.272 102.47" xmlns="http://www.w3.org/2000/svg">
<g transform="matrix(12.513 0 0 12.513 -2323.5 -4553.3)">
<clipPath>
<path transform="matrix(1 0 0 -1 0 595.28)" d="m186.3 224.27h6.399v6.385h-6.399z"/>
</clipPath>
<g clip-path="url(#cp13)">
<path transform="matrix(1 0 0 -1 188.82 369.02)" d="m0 0c-1.036 7e-3 -1.873 0.855-1.866 1.89 7e-3 1.029 0.849 1.866 1.878 1.866h0.012c0.502-3e-3 0.972-0.201 1.325-0.558 0.352-0.357 0.544-0.83 0.541-1.332-3e-3 -0.499-0.2-0.968-0.554-1.32-0.355-0.352-0.824-0.546-1.324-0.546zm3.765-0.958-0.038 0.039-1.534 1.534c0.213 0.367 0.337 0.792 0.34 1.247 9e-3 1.393-1.112 2.528-2.505 2.537h-0.016c-1.385 0-2.512-1.118-2.521-2.505-9e-3 -1.392 1.113-2.528 2.505-2.537h0.016c0.463 0 0.897 0.125 1.27 0.343l1.532-1.532 0.039-0.038c0.116-0.116 0.304-0.116 0.419 0l0.493 0.493c0.116 0.115 0.116 0.303 0 0.419" fill="#ea7928"/>
</g>
</g>
</svg> -->


<svg xmlns="http://www.w3.org/2000/svg" viewBox="0 0 64 64"><defs><style>.cls-1{fill:#858585;}.cls-2{fill:#e67314;}</style></defs><g id="Polygon_Grey" data-name="Polygon Grey"><g id="röd"><path class="cls-1" d="M47.18,5.56,62.36,32,47.18,58.44H16.82L1.64,32,16.82,5.56H47.18m.72-1.25H16.1L.2,32,16.1,59.69H47.9L63.8,32,47.9,4.31Z"/></g></g><g id="analysis"><path class="cls-2" d="M45.88,41.3l-.16-.17h0l-6.51-6.54A10.77,10.77,0,0,0,30,18.44H30A10.76,10.76,0,0,0,29.88,40H30a10.58,10.58,0,0,0,5.39-1.46L41.84,45h0l.16.16a1.24,1.24,0,0,0,1.78,0l2.09-2.1A1.27,1.27,0,0,0,45.88,41.3Zm-16-4.09a8,8,0,0,1,.05-16H30a7.88,7.88,0,0,1,5.62,2.38A8,8,0,0,1,30,37.21Z"/></g></svg>
