<?xml version="1.0" encoding="utf-8"?>
<!-- Generator: Adobe Illustrator 26.0.3, SVG Export Plug-In . SVG Version: 6.00 Build 0)  -->
<svg version="1.1" id="Polygon_2_kopia_2" xmlns="http://www.w3.org/2000/svg" xmlns:xlink="http://www.w3.org/1999/xlink" x="0px"
	 y="0px" viewBox="0 0 75 75" style="enable-background:new 0 0 75 75;" xml:space="preserve">
<style type="text/css">
	.st0{fill:#E67314;}
  .st1{fill:#7a7e7f;}
</style>
<g id="blå">
	<path class="st1" d="M55.1,6.8l17.6,30.6L55.1,68.2H19.9L2.3,37.5L19.9,6.8H55.1 M56.2,4.8H18.8L0,37.5l18.8,32.7h37.5L75,37.5
		L56.2,4.8z"/>
</g>
<g>
	<path class="st0" d="M56.1,50.5l-0.2-0.2l0,0L46.6,41c4.2-7.4,1.7-16.8-5.7-21c-2.3-1.3-4.8-2-7.4-2h-0.1
		c-8.5,0.2-15.2,7.2-15,15.7c0.2,8.2,6.7,14.8,14.9,15h0.1c2.7,0,5.4-0.7,7.7-2.1l9.3,9.3l0,0l0.2,0.2c0.7,0.7,1.8,0.7,2.5,0l0,0
		l3-3C56.8,52.4,56.9,51.3,56.1,50.5L56.1,50.5z M33.3,44.7c-6.3,0-11.4-5.2-11.4-11.5s5.2-11.4,11.5-11.4l0,0h0.1
		c3,0,5.9,1.2,8,3.4c4.4,4.5,4.4,11.7-0.1,16.2C39.2,43.5,36.4,44.7,33.3,44.7L33.3,44.7z"/>
	<ellipse class="st0" cx="33.4" cy="33.2" rx="4.5" ry="4.5"/>
</g>
</svg>