<svg xmlns="http://www.w3.org/2000/svg" viewBox="0 0 64 64"><defs><style>.cls-1{fill:#858585;}.cls-2{fill:#858585;}</style></defs><g id="Polygon_Grey" data-name="Polygon Grey"><g id="röd"><path class="cls-1" d="M47.18,5.56,62.36,32,47.18,58.44H16.82L1.64,32,16.82,5.56H47.18m.72-1.25H16.1L.2,32,16.1,59.69H47.9L63.8,32,47.9,4.31Z"/></g></g><g id="customers_kopia" data-name="customers kopia"><path class="cls-2" d="M48.8,42.33a24,24,0,0,0-3.1-9.67,7.62,7.62,0,0,0-3.64-3.26l-.5-.2.47-.26a5.8,5.8,0,1,0-4.93.35l.49.19-.46.27a6.79,6.79,0,0,0-3,5l-.81,5.93a1.4,1.4,0,0,1-.3.8,1.24,1.24,0,0,1-1,.38,1.13,1.13,0,0,1-1-.35,1.4,1.4,0,0,1-.3-.8l-.81-5.93a6.75,6.75,0,0,0-3-5l-.46-.27.49-.19a5.89,5.89,0,0,0,3.71-5.45A5.81,5.81,0,1,0,22,29l.47.26-.5.2a7.65,7.65,0,0,0-3.64,3.25,24.07,24.07,0,0,0-3.1,9.68v.08l.06.05L17,43.67l.17.12,0-.21a27.52,27.52,0,0,1,3-9.7,4.68,4.68,0,0,1,3.82-2.56,3.49,3.49,0,0,1,.65.06c1.54.32,2.62,1.7,2.91,3.69L28.45,41a3.14,3.14,0,0,0,1.67,2.61,4.67,4.67,0,0,0,3.76,0A3.14,3.14,0,0,0,35.55,41s.81-5.94.81-5.94c.29-2,1.37-3.37,2.91-3.69a3.49,3.49,0,0,1,.65-.06,4.68,4.68,0,0,1,3.82,2.56,27.52,27.52,0,0,1,3,9.7l0,.21.17-.12,1.79-1.18.06-.05ZM21.28,23.87a3.53,3.53,0,1,1,3.52,3.54A3.54,3.54,0,0,1,21.28,23.87ZM39.2,27.39a3.55,3.55,0,1,1,3.52-3.55A3.55,3.55,0,0,1,39.2,27.39Z"/></g></svg>
