
<svg xmlns="http://www.w3.org/2000/svg" viewBox="0 0 64 64"><defs><style>.cls-1{fill:#858585;}.cls-2{fill:#858585;}</style></defs><g id="Polygon_Grey" data-name="Polygon Grey"><g id="röd"><path class="cls-1" d="M47.18,5.56,62.36,32,47.18,58.44H16.82L1.64,32,16.82,5.56H47.18m.72-1.25H16.1L.2,32,16.1,59.69H47.9L63.8,32,47.9,4.31Z"/></g></g><g id="help"><path class="cls-2" d="M30.74,42.71a2.86,2.86,0,0,0-3,3.19,2.8,2.8,0,0,0,3,3.1,2.79,2.79,0,0,0,3.08-3.1C33.82,43.75,32.81,42.71,30.74,42.71Z"/><path class="cls-2" d="M39,17.2c-1.45-1.48-3.73-2.2-7-2.2a21.28,21.28,0,0,0-6.79,1.05l0,0a1.45,1.45,0,0,0-1,1.38,6.8,6.8,0,0,0,.31,1.5,1.21,1.21,0,0,0,1.2.9,4.54,4.54,0,0,0,1-.16,17.75,17.75,0,0,1,4.92-.59c3.21,0,4.7,1.3,4.7,4.07s-1,4.23-3.77,6.12-3.75,3.6-3.75,6.82c0,.66,0,1.35.05,2.43,0,.72.56,1.18,1.41,1.18h1a1.27,1.27,0,0,0,1.32-1.18c0-.27,0-.51,0-.76,0-.47,0-1,.1-1.69.12-2.18.73-3.09,3.23-4.87,3.85-2.69,4.85-4.44,4.85-8.51A7.49,7.49,0,0,0,39,17.2Z"/></g></svg>
