<!--  <svg viewBox="0 0 95.272 102.47" xmlns="http://www.w3.org/2000/svg">
<g transform="translate(-58.953 -83.327)">
<g transform="matrix(13.489 0 0 13.489 -2449.6 -2537.3)">
<clipPath>
<path transform="matrix(1 0 0 -1 0 595.28)" d="m185.97 393.39h7.063v7.609h-7.063z"/>
</clipPath>
<g clip-path="url(#cp17)">
<path transform="matrix(1 0 0 -1 193.03 200.44)" d="m0 0v3.916l-2.117 1.394c-0.125 0.043-2.371 0.85-2.441 0.846-0.085-6e-3 -0.143-0.032-0.198-0.092-0.021-0.024-2.308-2.227-2.308-2.227l6e-3 -3.324s-2e-3 -0.052 0-0.133c1e-3 -0.055 0.076-0.079 0.1-0.1 0.057-0.049 2.839-1.69 2.896-1.704 0.025-7e-3 0.029-0.024 0.084-0.012zm-3.925 2.91 1.754 1.812 1.645-1.053-5e-3 -3.295-3.385-1.177z" fill="#ea7928"/>
</g>
</g>
</g>
</svg> -->

 <svg xmlns="http://www.w3.org/2000/svg" viewBox="0 0 64 64"><defs><style>.cls-1{fill:#858585;}.cls-2{fill:#e67314;}</style></defs><g id="Polygon_Grey" data-name="Polygon Grey"><g id="röd"><path class="cls-1" d="M47.18,5.56,62.36,32,47.18,58.44H16.82L1.64,32,16.82,5.56H47.18m.72-1.25H16.1L.2,32,16.1,59.69H47.9L63.8,32,47.9,4.31Z"/></g></g><g id="home"><path class="cls-2" d="M30.49,44.48l13.3-4.64,0-13-6.46-4.16-6.9,7.16ZM30.25,47c-.22.05-.23,0-.33,0S18.76,40.4,18.54,40.21s-.39-.18-.39-.4,0-.52,0-.52l0-13.13s9-8.7,9.06-8.8A1.08,1.08,0,0,1,28,17c.27,0,9.1,3.17,9.59,3.34l8.31,5.51V41.31Z"/></g></svg>




