 <svg xmlns="http://www.w3.org/2000/svg" viewBox="0 0 64 64"><defs><style>.cls-1{fill:#858585;}.cls-2{fill:#858585;}</style></defs><g id="Polygon_Grey" data-name="Polygon Grey"><g id="röd"><path class="cls-1" d="M47.18,5.56,62.36,32,47.18,58.44H16.82L1.64,32,16.82,5.56H47.18m.72-1.25H16.1L.2,32,16.1,59.69H47.9L63.8,32,47.9,4.31Z"/></g></g><g id="home"><path class="cls-2" d="M30.49,44.48l13.3-4.64,0-13-6.46-4.16-6.9,7.16ZM30.25,47c-.22.05-.23,0-.33,0S18.76,40.4,18.54,40.21s-.39-.18-.39-.4,0-.52,0-.52l0-13.13s9-8.7,9.06-8.8A1.08,1.08,0,0,1,28,17c.27,0,9.1,3.17,9.59,3.34l8.31,5.51V41.31Z"/></g></svg>
