<svg xmlns="http://www.w3.org/2000/svg" viewBox="0 0 64 64"><defs><style>.cls-1{fill:#858585;}.cls-2{fill:#858585;}</style></defs><g id="Polygon_Grey" data-name="Polygon Grey"><g id="röd"><path class="cls-1" d="M47.18,5.56,62.36,32,47.18,58.44H16.82L1.64,32,16.82,5.56H47.18m.72-1.25H16.1L.2,32,16.1,59.69H47.9L63.8,32,47.9,4.31Z"/></g></g><g id="invoice"><polygon class="cls-2" points="33.44 17 33.44 25.81 42.19 25.81 33.44 17"/><path class="cls-2" d="M36,42.42a10.42,10.42,0,0,1-3,.36c-2.86,0-4.21-1.17-4.5-3.9H27.29c-.28,0-.43-.13-.43-.38v-.17c0-.17.08-.37.43-.37H28.4v-.32c0-.25,0-.5,0-.73H27.29c-.11,0-.43,0-.43-.35v-.19c0-.17.08-.37.43-.37h1.2c.34-2.71,1.78-3.83,4.94-3.83a14.09,14.09,0,0,1,2.29.17c.14,0,.45.09.45.39a2.56,2.56,0,0,1-.15.59.39.39,0,0,1-.35.2l-.4,0-.22,0a11.32,11.32,0,0,0-1.81-.08c-2.52,0-3.06,1.31-3.23,2.63h3.83c.36,0,.44.2.44.37v.19c0,.35-.32.35-.44.35h-3.9V38h3.9c.36,0,.44.2.44.37v.17c0,.25-.15.38-.44.38H30c.15,1.36.67,2.71,3.07,2.71a9.4,9.4,0,0,0,2.28-.22,2.41,2.41,0,0,1,.56-.11.42.42,0,0,1,.37.23,1.68,1.68,0,0,1,.15.55C36.42,42.28,36.18,42.37,36,42.42Z"/><path class="cls-2" d="M31.64,27.61V17h-9V47H42.37V27.61Zm.86,17.65a7.78,7.78,0,1,1,7.73-7.77A7.76,7.76,0,0,1,32.5,45.26Z"/></g></svg>
