<svg id="logout_grey" data-name="logout grey" xmlns="http://www.w3.org/2000/svg" width="25.202" height="28.385" viewBox="0 0 25.202 28.385">
  <path id="Path_678" data-name="Path 678" d="M29.322,29.44c-.12.073-.438.267-.438.552a.652.652,0,0,0,.248.434l.357.264a1.074,1.074,0,0,0,.678.241,1.244,1.244,0,0,0,.64-.2l6.453-4.467a.53.53,0,0,0,.282-.473.542.542,0,0,0-.3-.5l-6.482-4.5a1.032,1.032,0,0,0-1.264.015l-.378.3a.567.567,0,0,0-.253.4.576.576,0,0,0,.3.472c1.71,1.152,3.094,2.078,4.115,2.753l.363.24-.5,0c-2.447-.013-6.976-.013-12.712-.013-.616,0-1.014.255-1.014.65v.348c0,.391.383.664.931.664L33.606,26.6l-.372.24C32.271,27.463,30.957,28.335,29.322,29.44Z" transform="translate(-14.893 -11.562)" fill="#858585"/>
  <path id="Path_679" data-name="Path 679" d="M29.091,25.835a.826.826,0,0,0-.572.23l-.031-.019-.1.164a11.687,11.687,0,0,1-10.072,5.876c-6.534,0-11.85-5.56-11.85-12.394S11.785,7.3,18.319,7.3A11.7,11.7,0,0,1,28.329,13.07l.095.151.015-.008a.835.835,0,0,0,.619.276.881.881,0,0,0,.859-.9.927.927,0,0,0-.076-.368l.024-.037-.1-.1A13.384,13.384,0,0,0,18.319,5.5c-7.482,0-13.57,6.367-13.57,14.193s6.088,14.193,13.57,14.193a13.374,13.374,0,0,0,11.471-6.63l.027-.043L29.66,27.1h0l.159.111,0-.007a.929.929,0,0,0,.129-.47A.881.881,0,0,0,29.091,25.835Z" transform="translate(-4.749 -5.5)" fill="#858585"/>
</svg>
