<svg id="logout_grey" data-name="logout grey" xmlns="http://www.w3.org/2000/svg" width="38.112" height="42" viewBox="0 0 38.112 42">
  <path id="Path_678" data-name="Path 678" d="M35.521,37.675a1.458,1.458,0,0,0-.712,1.065,1.325,1.325,0,0,0,.4.838l.581.51a1.59,1.59,0,0,0,1.1.465,1.811,1.811,0,0,0,1.04-.386l10.491-8.619a1.066,1.066,0,0,0,.459-.913,1.105,1.105,0,0,0-.493-.967L37.855,20.981a1.474,1.474,0,0,0-2.054.029l-.615.58a1.128,1.128,0,0,0-.411.773,1.141,1.141,0,0,0,.491.911c2.78,2.222,5.03,4.009,6.69,5.312l.591.463-.815,0c-3.978-.025-11.342-.025-20.667-.025-1,0-1.648.492-1.648,1.254v.67a1.35,1.35,0,0,0,1.514,1.282L42.486,32.2l-.605.463C40.316,33.861,38.179,35.544,35.521,37.675Z" transform="translate(-13.892 -9.566)" fill="#e67314"/>
  <path id="Path_679" data-name="Path 679" d="M41.561,35.589a1.264,1.264,0,0,0-.864.341L40.65,35.9l-.147.242a17.747,17.747,0,0,1-15.232,8.694A18.154,18.154,0,0,1,7.351,26.5,18.154,18.154,0,0,1,25.271,8.162,17.764,17.764,0,0,1,40.408,16.7l.143.224.023-.011a1.275,1.275,0,0,0,.936.409,1.316,1.316,0,0,0,1.3-1.33,1.346,1.346,0,0,0-.115-.545l.036-.055-.145-.149A20.33,20.33,0,0,0,25.271,5.5a20.789,20.789,0,0,0-20.522,21,20.789,20.789,0,0,0,20.522,21,20.313,20.313,0,0,0,17.348-9.81l.041-.064-.239-.166h0l.24.164.005-.01a1.352,1.352,0,0,0,.195-.695A1.317,1.317,0,0,0,41.561,35.589Z" transform="translate(-4.749 -5.5)" fill="#e67314"/>
</svg>
