<svg xmlns="http://www.w3.org/2000/svg" xmlns:xlink="http://www.w3.org/1999/xlink" width="215.602" height="251.346" viewBox="0 0 215.602 251.346">
  <defs>
    <clipPath id="clip-path">
      <rect id="Rectangle_17198" data-name="Rectangle 17198" width="215.602" height="251.346" fill="none"/>
    </clipPath>
  </defs>
  <g id="Group_6189" data-name="Group 6189" clip-path="url(#clip-path)">
    <path id="Path_4610" data-name="Path 4610" d="M103.119,181.233a90.617,90.617,0,1,1,90.616-90.617,90.719,90.719,0,0,1-90.616,90.617m0-172.04a81.424,81.424,0,1,0,81.424,81.423A81.515,81.515,0,0,0,103.119,9.193" fill="#e67314"/>
    <path id="Path_4611" data-name="Path 4611" d="M48.324,125.547l29.439,17.025,25.342-14.637,25.308,14.637,29.456-17.01.046-34.041L132.574,76.878V47.54L103.148,30.522,73.661,47.536l0,29.365L48.327,91.518Zm80.089,7.458-21.153-12.24V96.3l21.207-12.236,21.165,12.241-.048,24.475Zm-50.652,0-21.152-12.24V96.3L77.815,84.066,98.957,96.307v24.475ZM103.1,89.023,81.943,76.784V52.32L103.15,40.083l21.141,12.242V76.8Z" fill="#e67314"/>
    <path id="Path_4612" data-name="Path 4612" d="M61.534,195.951a13.952,13.952,0,0,0-1.916-.1c-.658,0-2.528.023-3.036.08a4.511,4.511,0,0,0-1.223.278,1.475,1.475,0,0,0-.85.818c-.083.206-.167.447-.26.762l-9.938,42.357-7.209-35.8a3.536,3.536,0,0,0-.361-.877,1.756,1.756,0,0,0-.889-.722,9.286,9.286,0,0,0-1.7-.214c-.278-.022-.522-.042-.665-.059-.477-.057-2.337-.082-2.963-.082a18.791,18.791,0,0,0-1.932.081,4.9,4.9,0,0,0-1.271.274,1.753,1.753,0,0,0-.889.721,3.5,3.5,0,0,0-.365.892L17.272,240.38,9.493,212.688a3.27,3.27,0,0,0-.273-.872,1.6,1.6,0,0,0-.845-.742,4.283,4.283,0,0,0-1.262-.261c-.488-.04-2.3-.058-3.112-.058-.836,0-1.517.026-2.025.078a2.636,2.636,0,0,0-1.417.5A1.551,1.551,0,0,0,0,212.648a7.542,7.542,0,0,0,.283,1.56l11.6,34.278a2.545,2.545,0,0,0,.559,1.169,2.49,2.49,0,0,0,1.128.694,7.144,7.144,0,0,0,1.526.278c.57.052,1.3.079,2.169.079.721,0,2.682-.022,3.256-.079a6.37,6.37,0,0,0,1.44-.282,2.352,2.352,0,0,0,1.071-.708,2.607,2.607,0,0,0,.521-1.131l7.773-34.683,7.389,34.707a2.986,2.986,0,0,0,.55,1.1,2.32,2.32,0,0,0,1.125.715,7.08,7.08,0,0,0,1.506.278,1.09,1.09,0,0,1,.259.039,1.966,1.966,0,0,0,.636.04c.729,0,3.8-.024,4.359-.079a7.2,7.2,0,0,0,1.463-.277,2.635,2.635,0,0,0,1.133-.678,2.745,2.745,0,0,0,.622-1.146L63.161,200.1a19.5,19.5,0,0,0,.227-2.318h0a1.576,1.576,0,0,0-.523-1.305,2.512,2.512,0,0,0-1.331-.525" fill="#e67314"/>
    <path id="Path_4613" data-name="Path 4613" d="M205.663,209.829a4.566,4.566,0,0,0,4.2,2.721c3.442,0,5.734-1.2,5.734-7.027a16.116,16.116,0,0,0-.777-4.971c-.163-.535-.393-1.106-1.075-1.106a3.2,3.2,0,0,0-1.006.293l-.126.05a.886.886,0,0,0-.576.89,2.394,2.394,0,0,0,.17.747c.046.132.1.278.136.434a12.28,12.28,0,0,1,.418,3.188c0,3.5-.972,4.117-3.014,4.117-1.456,0-2.811-.546-2.869-4.521a1.44,1.44,0,0,0-1.476-1.62c-1.271,0-1.418.938-1.418,1.633-.066,3.273-.612,5.046-3.3,5.046-2.147,0-3.478-.794-3.478-4.75a12.2,12.2,0,0,1,.3-3.123c.025-.1.051-.19.075-.278a3.591,3.591,0,0,0,.175-.9,1.017,1.017,0,0,0-.546-.959l-.051-.024a4.387,4.387,0,0,0-1.2-.314c-.677,0-.938.559-1.109,1.12a16.825,16.825,0,0,0-.48,4.515c0,5.431,2.094,8.071,6.4,8.071a4.8,4.8,0,0,0,4.891-3.227" fill="#e67314"/>
    <path id="Path_4614" data-name="Path 4614" d="M207.954,224.9a10.358,10.358,0,0,0-1.221-5.207c4.354.457,6.031,1.382,6.031,6.109a16.393,16.393,0,0,1-.194,2.508l-.005.038c-.01.084-.026.184-.043.287a4.355,4.355,0,0,0-.076.678.943.943,0,0,0,.58.864l.188.057a5.178,5.178,0,0,0,1.055.238.942.942,0,0,0,.9-.721,15.378,15.378,0,0,0,.435-4.045c0-8.767-5.853-9.5-11.847-9.5-6.4,0-9.384,2.487-9.384,7.826,0,5.1,2.4,7.794,6.951,7.794,4.587,0,6.633-2.136,6.633-6.925m-10.776-.708c0-2.575,1.118-3.969,3.52-4.388l.011,0a12.143,12.143,0,0,1,1.974-.153,1.768,1.768,0,0,1,.978.217c.93.683,1.485,2.443,1.485,4.712,0,2.719-1.162,3.931-3.767,3.931-2.945,0-4.2-1.291-4.2-4.317" fill="#e67314"/>
    <path id="Path_4615" data-name="Path 4615" d="M213.594,248.911c1.764-1.465,2.007-3.766,2.007-6.035,0-5.892-3.088-8.3-10.659-8.3-7.805,0-10.571,2.1-10.571,8.006,0,6.03,2.827,8.167,10.8,8.167,4.289,0,6.886-.569,8.42-1.843m-16.387-6.292c0-2.778.542-4.6,7.793-4.6,7.18,0,7.764,2.142,7.764,4.729,0,3.1-.748,4.567-7.59,4.567-7.431,0-7.967-1.774-7.967-4.7" fill="#e67314"/>
    <path id="Path_4616" data-name="Path 4616" d="M125.292,199.339c-10.21,0-21.928,2.922-21.928,25.711,0,18.884,5.99,26.242,21.366,26.242,15.982,0,21.924-7.13,21.924-26.31,0-21.556-7.508-25.643-21.362-25.643m12.726,25.776c0,17.258-5.206,18.549-13.148,18.549-7.774,0-12.87-1.295-12.87-18.614,0-15.284,4.4-18.08,13.079-18.08,9.195,0,12.939,1.64,12.939,18.145" fill="#e67314"/>
    <path id="Path_4617" data-name="Path 4617" d="M81.035,212.782c-11.406,0-16.951,6.342-16.951,19.387,0,13.62,4.952,19.177,17.092,19.177a31.869,31.869,0,0,0,11.43-1.814,2.463,2.463,0,0,0,1.8-2.261,8.586,8.586,0,0,0-.627-2.533l-.051-.114a2.119,2.119,0,0,0-1.958-1.289,7.635,7.635,0,0,0-2.118.388,27.734,27.734,0,0,1-7.916,1c-6.487,0-9.92-1.6-10.243-10.142H92.258a3.2,3.2,0,0,0,2.1-.665c.828-.677.892-1.64.892-2.927,0-9.96-1.069-18.206-14.212-18.206M71.524,228.3c.465-6.349,3.177-8.964,9.159-8.964,6.274,0,7.463,2.927,7.463,8.328,0,.237,0,.444,0,.636Z" fill="#e67314"/>
    <path id="Path_4618" data-name="Path 4618" d="M184.308,218.123c-1.364-3.495-4.485-4.921-10.773-4.921-4.654,0-11.682.965-16.082,3.07-1.9.832-2.832,2.475-2.832,5.022v27.09a2.256,2.256,0,0,0,2.428,2.482h2.314a2.237,2.237,0,0,0,2.431-2.482V223.51a3.744,3.744,0,0,1,.213-1.439,2.545,2.545,0,0,1,.871-.671,24.068,24.068,0,0,1,9.256-1.506c4.235,0,4.916.9,5.266,1.865a19.265,19.265,0,0,1,.44,4.454v22.171a2.258,2.258,0,0,0,2.431,2.482h2.315a2.22,2.22,0,0,0,2.427-2.482V225.313a24.063,24.063,0,0,0-.705-7.19" fill="#e67314"/>
  </g>
</svg>