<svg id="användare_icon" data-name="användare icon" xmlns="http://www.w3.org/2000/svg" width="42.572" height="37.07" viewBox="0 0 42.572 37.07">
      <path id="Path_658" data-name="Path 658" d="M31.647,5.147l10.161,17.7-10.161,17.7H11.325L1.164,22.845l10.161-17.7H31.647m.482-.837H10.843L.2,22.845,10.843,41.38H32.129L42.772,22.845Z" transform="translate(-0.2 -4.31)" fill="#858585"/>   
    <path id="Path_4610" data-name="Path 4610" d="M13.357,1.043A12.314,12.314,0,1,1,1.043,13.357,12.328,12.328,0,0,1,13.357,1.043m0-1.043A13.357,13.357,0,1,0,26.714,13.357,13.357,13.357,0,0,0,13.357,0" transform="translate(8 5.8)" fill="#e67314"/>
    <path id="Path_4611" data-name="Path 4611" d="M29.875,28.319c-.411-3.235-.771-4.869-2.115-7.1a6.294,6.294,0,0,0-3.012-2.693l-.418-.166.022-.012a4.84,4.84,0,0,0-1.93-9.267h-.045a4.84,4.84,0,0,0-1.93,9.267l.021.012-.418.166a6.292,6.292,0,0,0-3.012,2.693c-1.344,2.232-1.705,3.866-2.115,7.1l-.008.067.055.036,1.483.983.142.094.022-.17A18.007,18.007,0,0,1,18.658,22.2,4.317,4.317,0,0,1,22.4,19.881a4.637,4.637,0,0,1,3.74,2.322,18.006,18.006,0,0,1,2.042,7.125l.022.17.142-.094,1.483-.983.055-.036Zm-4.58-14.4a2.9,2.9,0,1,1-2.9-2.933,2.93,2.93,0,0,1,2.9,2.933" transform="translate(-1 1)" fill="#e67314"/>
</svg>
