<svg viewBox="0 0 95.272 102.47" xmlns="http://www.w3.org/2000/svg">
<path class="cls-1" d="m42.7 12.052a16.363 16.363 0 0 1 5.9501 31.595l-1.3884 0.53524 1.2892 0.75367a18.882 18.882 0 0 1 8.4889 13.884l2.261 16.581a3.9668 3.9668 0 0 0 0.85285 2.2412l0.15891 0.17841h0.43628a4.9188 4.9188 0 0 0 2.499-0.95202l15.867-9.9169 0.31709-0.19865 0.17841 0.29759 3.0346 4.8394 0.19865 0.29759-0.31709 0.19866-15.867 10.016a11.147 11.147 0 0 1-5.9502 1.9834 7.4774 7.4774 0 0 1-3.0941-0.67465 8.7269 8.7269 0 0 1-4.6807-7.279l-2.2809-16.641c-0.77353-5.5733-3.828-9.4211-8.1319-10.314a9.3219 9.3219 0 0 0-1.8247-0.1784c-3.9668 0-7.9335 2.6775-10.69 7.16-3.8279 6.1882-7.1203 16.898-8.4492 27.093v0.57496l-0.476-0.31709-5.0973-3.3123-0.17841-0.13868v-0.21815a67.237 67.237 0 0 1 8.6872-27.073 21.381 21.381 0 0 1 10.175-9.1037l1.428-0.55548-1.3289-0.75368a16.363 16.363 0 0 1 7.9336-30.604m0 26.26a9.9169 9.9169 0 1 0-9.9169-9.9169 9.9169 9.9169 0 0 0 9.9169 9.9169" fill="#EA7928" stroke-width="1.9834"/>
</svg>
