<!-- <svg viewBox="0 0 95.272 102.47" xmlns="http://www.w3.org/2000/svg">
<g transform="matrix(11.81 0 0 11.81 -2190.6 -4118.8)">
<clipPath>
<path transform="matrix(1 0 0 -1 0 595.28)" d="m186.32 239.02h6.365v6.775h-6.365z"/>
</clipPath>
<g clip-path="url(#cp12)">
<path transform="matrix(1 0 0 -1 188.54 355.09)" d="m0 0c0.173-0.378 0.545-0.619 0.964-0.619 0.418 0 0.79 0.241 0.963 0.619zm-2.177 0.946c0.45 0 0.724 0.156 0.916 0.522 0.224 0.427 0.329 1.142 0.329 2.25 0 1.046 0.85 1.896 1.896 1.896 1.045 0 1.896-0.85 1.896-1.896 0-1.108 0.104-1.823 0.328-2.25 0.192-0.366 0.466-0.522 0.916-0.522h0.042v-0.946h-1.643c-0.196-0.685-0.825-1.161-1.539-1.161-0.715 0-1.343 0.476-1.54 1.161h-1.643v0.946z" fill="#ea7928"/>
</g>
</g>
</svg> -->
<svg xmlns="http://www.w3.org/2000/svg" viewBox="0 0 64 64"><defs><style>.cls-1{fill:#858585;}.cls-2{fill:#e67314;}</style></defs><g id="Polygon_Grey" data-name="Polygon Grey"><g id="röd"><path class="cls-1" d="M47.18,5.56,62.36,32,47.18,58.44H16.82L1.64,32,16.82,5.56H47.18m.72-1.25H16.1L.2,32,16.1,59.69H47.9L63.8,32,47.9,4.31Z"/></g></g><g id="notification"><path class="cls-2" d="M44.91,36.29a3.76,3.76,0,0,1-3.77-2.15c-.92-1.77-1.35-4.72-1.35-9.3a7.79,7.79,0,1,0-15.58,0c0,4.58-.43,7.53-1.35,9.3a3.76,3.76,0,0,1-3.77,2.15h-.17V40.2h6.75a6.57,6.57,0,0,0,12.66,0h6.75V36.29ZM36,40.2a4.34,4.34,0,0,1-7.92,0Z"/></g></svg>
