<svg xmlns="http://www.w3.org/2000/svg" viewBox="0 0 64 64"><defs><style>.cls-1{fill:#858585;}.cls-2{fill:#444;}</style></defs><g id="Polygon_2" data-name="Polygon 2"><polygon class="cls-1" points="47.79 4.6 16.21 4.6 0.42 32.1 16.21 59.6 47.79 59.6 63.58 32.1 47.79 4.6"/></g><g id="Polygon_Grey" data-name="Polygon Grey"><g id="röd"><path class="cls-1" d="M47.18,5.56,62.36,32,47.18,58.44H16.82L1.64,32,16.82,5.56H47.18m.72-1.25H16.1L.2,32,16.1,59.69H47.9L63.8,32,47.9,4.31Z"/></g></g><g id="planing_123_kopia_2" data-name="planing 123 kopia 2"><polygon class="cls-2" points="27.13 24.24 27.13 21.22 45.94 21.22 45.94 24.24 27.13 24.24 27.13 24.24"/><polygon class="cls-2" points="27.13 33.48 27.13 30.45 45.94 30.45 45.94 33.48 27.13 33.48 27.13 33.48"/><polygon class="cls-2" points="27.13 42.71 27.13 39.69 45.94 39.69 45.94 42.71 27.13 42.71 27.13 42.71"/><path class="cls-2" d="M20.77,37.86c-1.64,0-2.62.84-2.62,2.25H20c0-.56.27-.88.8-.88s.7.25.7.61-.34.65-.89.65h-.21v1.34h.16c.69,0,1,.22,1,.67s-.28.63-.74.63-.86-.31-.86-.92H18.06c0,1.48,1,2.29,2.74,2.29,1.57,0,2.58-.75,2.58-2a1.42,1.42,0,0,0-1.17-1.48v0a1.38,1.38,0,0,0,1.09-1.39c0-1.1-1-1.8-2.53-1.8"/><path class="cls-2" d="M20.79,28.76c-1.62,0-2.56.8-2.57,2.25h1.84c0-.58.29-.88.75-.88a.55.55,0,0,1,.6.56c0,.54-.58.85-1.46,1.3a2.84,2.84,0,0,0-1.82,2.89c0,.13,0,.26,0,.36h5.32V33.78H20.29c0-.3.23-.52,1.32-1s1.68-1,1.68-2-.95-1.95-2.5-1.95"/><path class="cls-2" d="M22.06,25.84V19.5H20.4c-.13.79-.62,1.12-1.73,1.12V22H20.2v3.88Z"/></g></svg>
