<svg xmlns="http://www.w3.org/2000/svg" viewBox="0 0 64 64"><defs><style>.cls-1{fill:#858585;}.cls-2{fill:#444;}</style></defs><g id="Polygon_2" data-name="Polygon 2"><polygon class="cls-1" points="47.79 4.6 16.21 4.6 0.42 32.1 16.21 59.6 47.79 59.6 63.58 32.1 47.79 4.6"/></g><g id="Polygon_Grey" data-name="Polygon Grey"><g id="röd"><path class="cls-1" d="M47.18,5.56,62.36,32,47.18,58.44H16.82L1.64,32,16.82,5.56H47.18m.72-1.25H16.1L.2,32,16.1,59.69H47.9L63.8,32,47.9,4.31Z"/></g></g><g id="projects_kopia" data-name="projects kopia"><path class="cls-2" d="M44.71,21.94s0,0,0-.06l-.75-2a3.07,3.07,0,0,0-1.19-1.45l-2.93-1.89A3,3,0,0,0,38,16l-2.14.15h-.07a1.26,1.26,0,0,0-.81.51S24.36,33.26,24.29,33.38l-.36.55a.79.79,0,0,0-.1.27,3.2,3.2,0,0,0-.26.75,1.94,1.94,0,0,1-.05.2s0,.05-1.83,9.43c0,0,0,.06,0,.09v0l-.41,2v.1a.92.92,0,0,0,.41.81l.4.26a.91.91,0,0,0,.49.14.8.8,0,0,0,.41-.1l1.66-1.21.1,0,.09,0,.57-.41,7-5a4.16,4.16,0,0,0,1.16-1.1l1.25-1.94a.41.41,0,0,0,.05-.09L44.55,23A1.28,1.28,0,0,0,44.71,21.94Zm-1.56.3-1.77.12h-.06a1.89,1.89,0,0,1-.92-.3l-2.93-1.9a2,2,0,0,1-.65-.72.14.14,0,0,0,0-.06l-.6-1.63L38,17.64H38a1.86,1.86,0,0,1,.91.3l2.93,1.9a1.8,1.8,0,0,1,.65.72s0,0,0,.06ZM26,44h-.1a3.74,3.74,0,0,1-1.28-.61,3.42,3.42,0,0,1-1.13-1c.35-1.78,1.27-6.54,1.35-6.92a2.25,2.25,0,0,0,.05-.22,2,2,0,0,1,.18-.5l2.31-.21.07,0,.33,2a.27.27,0,0,0,0,.12,1.49,1.49,0,0,0,1.51,1l.12,0,2-.55.06,0,.77,2.23a3.16,3.16,0,0,1-.62.54Z"/></g></svg>
