<!-- <svg viewBox="0 0 95.272 102.47" xmlns="http://www.w3.org/2000/svg">
<g transform="matrix(11.602 0 0 11.602 -2151.8 -2590.7)">
<clipPath>
<path transform="matrix(1 0 0 -1 0 595.28)" d="m186.88 363.89h5.645v7.64h-5.645z"/>
</clipPath>
<g clip-path="url(#cp19)">
<path transform="matrix(1 0 0 -1 188.03 230.44)" d="m0 0h-8e-3c-3e-3 0-8e-3 0-0.017 2e-3 -0.032 5e-3 -0.126 0.031-0.305 0.146-0.211 0.136-0.262 0.215-0.271 0.232 0.083 0.424 0.304 1.558 0.322 1.647 5e-3 0.02 0.01 0.037 0.014 0.055 0.01 0.04 0.017 0.07 0.041 0.118l0.554 0.051c4e-3 -1e-3 0.012-5e-3 0.017-0.01l0.078-0.487c2e-3 -0.01 4e-3 -0.02 8e-3 -0.03 0.051-0.145 0.207-0.246 0.361-0.232 0.01 0 0.02 2e-3 0.03 5e-3l0.476 0.13c6e-3 -2e-3 0.013-7e-3 0.015-0.01l0.184-0.531c-0.041-0.045-0.099-0.096-0.149-0.128-5e-3 -3e-3 -0.021-0.015-1.35-0.958m4.102 5.188-0.424-0.029c-5e-3 0-0.01-1e-3 -0.015-2e-3 -0.03-5e-3 -0.139 0.019-0.22 0.071l-0.703 0.453c-0.081 0.052-0.147 0.142-0.155 0.171-1e-3 5e-3 -3e-3 0.01-4e-3 0.015l-0.145 0.387 0.425 0.029c5e-3 1e-3 9e-3 1e-3 0.015 2e-3 0.029 5e-3 0.138-0.018 0.219-0.07l0.703-0.453c0.081-0.052 0.147-0.142 0.154-0.171 2e-3 -5e-3 3e-3 -0.01 5e-3 -0.015zm0.372 0.07c-1e-3 6e-3 -3e-3 0.011-5e-3 0.016l-0.179 0.482c-0.039 0.131-0.172 0.273-0.285 0.345l-0.701 0.452c-0.113 0.073-0.298 0.137-0.433 0.117l-0.512-0.035c-6e-3 0-0.011-1e-3 -0.017-2e-3 -0.08-0.014-0.149-0.057-0.194-0.121-6e-3 -9e-3 -2.548-3.95-2.566-3.978l-0.085-0.132c-0.012-0.019-0.02-0.041-0.024-0.064-0.037-0.077-0.05-0.131-0.062-0.179-4e-3 -0.015-7e-3 -0.031-0.012-0.048-3e-3 -8e-3 -4e-3 -0.012-0.44-2.245l-3e-3 -0.024v-5e-3l-0.098-0.474-3e-3 -0.025c-4e-3 -0.076 0.035-0.152 0.099-0.194l0.094-0.06c0.034-0.022 0.076-0.034 0.118-0.034 0.035 0 0.069 8e-3 0.099 0.023l0.398 0.288c8e-3 3e-3 0.016 6e-3 0.023 0.01s0.014 8e-3 0.021 0.013l0.138 0.098c0.405 0.287 1.637 1.162 1.686 1.197 0.09 0.058 0.209 0.161 0.276 0.262l0.301 0.464c5e-3 6e-3 8e-3 0.013 0.011 0.02l2.318 3.594c0.045 0.07 0.059 0.157 0.037 0.239" fill="#ea7928"/>
</g>
</g>
</svg> -->

<svg xmlns="http://www.w3.org/2000/svg" viewBox="0 0 64 64"><defs><style>.cls-1{fill:#858585;}.cls-2{fill:#e67314;}</style></defs><g id="Polygon_Grey" data-name="Polygon Grey"><g id="röd"><path class="cls-1" d="M47.18,5.56,62.36,32,47.18,58.44H16.82L1.64,32,16.82,5.56H47.18m.72-1.25H16.1L.2,32,16.1,59.69H47.9L63.8,32,47.9,4.31Z"/></g></g><g id="projects"><path class="cls-2" d="M44.71,21.94s0,0,0-.06l-.75-2a3.07,3.07,0,0,0-1.19-1.45l-2.93-1.89A3,3,0,0,0,38,16l-2.14.15h-.07a1.26,1.26,0,0,0-.81.51S24.36,33.26,24.29,33.38l-.36.55a.79.79,0,0,0-.1.27,3.2,3.2,0,0,0-.26.75,1.94,1.94,0,0,1-.05.2s0,.05-1.83,9.43c0,0,0,.06,0,.09v0l-.41,2v.1a.92.92,0,0,0,.41.81l.4.26a.91.91,0,0,0,.49.14.8.8,0,0,0,.41-.1l1.66-1.21.1,0,.09,0,.57-.41,7-5a4.16,4.16,0,0,0,1.16-1.1l1.25-1.94a.41.41,0,0,0,.05-.09L44.55,23A1.28,1.28,0,0,0,44.71,21.94Zm-1.56.3-1.77.12h-.06a1.89,1.89,0,0,1-.92-.3l-2.93-1.9a2,2,0,0,1-.65-.72.14.14,0,0,0,0-.06l-.6-1.63L38,17.64H38a1.86,1.86,0,0,1,.91.3l2.93,1.9a1.8,1.8,0,0,1,.65.72s0,0,0,.06ZM26,44h-.1a3.74,3.74,0,0,1-1.28-.61,3.42,3.42,0,0,1-1.13-1c.35-1.78,1.27-6.54,1.35-6.92a2.25,2.25,0,0,0,.05-.22,2,2,0,0,1,.18-.5l2.31-.21.07,0,.33,2a.27.27,0,0,0,0,.12,1.49,1.49,0,0,0,1.51,1l.12,0,2-.55.06,0,.77,2.23a3.16,3.16,0,0,1-.62.54Z"/></g></svg>
