<svg id="projekt_icon_grey" data-name="projekt icon grey" xmlns="http://www.w3.org/2000/svg" width="42.572" height="37.07" viewBox="0 0 42.572 37.07">
  <g id="Polygon_2" data-name="Polygon 2" transform="translate(0.18 0.237)">
    <path id="Path_628" data-name="Path 628" d="M32.079,4.6H10.973L.42,22.979,10.973,41.358H32.079L42.631,22.979Z" transform="translate(-0.42 -4.6)" fill="#858585" stroke="#858585"/>
  </g>
  <g id="Polygon_Grey" data-name="Polygon Grey">
<g id="Group_4122" data-name="Group 4122" transform="translate(9 4.753)">
    <g id="Component_74_36" data-name="Component 74 – 36" transform="translate(0)">
      <g id="Group_3957" data-name="Group 3957" transform="translate(0 10.806)">
        <path id="Path_875" data-name="Path 875" d="M0,1.747V8.463l5.805,3.36,5.82-3.356V1.749L5.82-1.613Z" transform="translate(0 1.613)" fill="#444" stroke="#858585" stroke-width="2"/>
      </g>
      <g id="Group_3958" data-name="Group 3958" transform="translate(6.269 0.002)">
        <path id="Path_876" data-name="Path 876" d="M3.026,0l-5.82,3.358v6.716l5.805,3.36,5.818-3.356V3.36Z" transform="translate(2.794)" fill="#444" stroke="#858585" stroke-width="2"/>
      </g>
      <g id="Group_3959" data-name="Group 3959" transform="translate(12.531 10.806)">
        <path id="Path_877" data-name="Path 877" d="M0,1.747V8.463l5.805,3.36,5.812-3.356.015-6.718L5.82-1.613Z" transform="translate(0 1.613)" fill="#444" stroke="#858585" stroke-width="2"/>
      </g>
    </g>
  </g>
  </g>
</svg>
