<svg id="projekt_icon_grey" data-name="projekt icon grey" xmlns="http://www.w3.org/2000/svg" width="42.572" height="37.07" viewBox="0 0 42.572 37.07">
  <g id="Polygon_2" data-name="Polygon 2" transform="translate(0.18 0.237)">
    <path id="Path_628" data-name="Path 628" d="M32.079,4.6H10.973L.42,22.979,10.973,41.358H32.079L42.631,22.979Z" transform="translate(-0.42 -4.6)" fill="#373b40"/>
  </g>
  <g id="Polygon_Grey" data-name="Polygon Grey">
    <g id="röd">
      <path id="Path_629" data-name="Path 629" d="M31.647,5.147l10.161,17.7-10.161,17.7H11.325L1.164,22.845l10.161-17.7H31.647m.482-.837H10.843L.2,22.845,10.843,41.38H32.129L42.772,22.845Z" transform="translate(-0.2 -4.31)" fill="#858585"/>
      
  <path id="Path_3412" data-name="Path 3412" d="M34.706,37.678,29.57,34.7V28.754l5.153-2.973,5.137,2.973V34.7Zm-12.27,0L17.3,34.7V28.754l5.148-2.973,5.137,2.973V34.7Zm6.135-10.691-5.137-2.973V18.063l5.148-2.973,5.137,2.973v5.951Z" transform="translate(-7.3 -8.09)" fill="#e67314"/>

    </g>
  </g>
</svg>
