<svg id="Polygon_Grey" data-name="Polygon Grey" xmlns="http://www.w3.org/2000/svg" width="42.572" height="37.448" viewBox="0 0 42.572 37.448">
  <g id="röd">
    <path id="Path_636" data-name="Path 636" d="M31.647,5.155,41.808,23.034,31.647,40.913H11.325L1.164,23.034,11.325,5.155H31.647m.482-.845H10.843L.2,23.034,10.843,41.758H32.129L42.772,23.034Z" transform="translate(-0.2 -4.31)" fill="#858585"/>
    
  <circle id="Ellipse_651" data-name="Ellipse 651" cx="11.208" cy="10.208" r="2.208" transform="translate(9.619 9.619)" fill="#e67314"/>
  <path id="Path_637" data-name="Path 637" d="M20.553,27.327A6.774,6.774,0,1,1,27.327,34.1a6.774,6.774,0,0,1-6.774-6.774ZM28.359,15.5H26.295l-.674,3.018a8.867,8.867,0,0,0-3.312,1.376l-2.6-1.656-1.434,1.434,1.613,2.638a9.117,9.117,0,0,0-1.376,3.326L15.5,26.3v2.064l3.018.674a8.867,8.867,0,0,0,1.376,3.3l-1.656,2.6,1.434,1.434,2.638-1.613a9.117,9.117,0,0,0,3.326,1.376l.667,3.01h2.064l.674-3.018a8.867,8.867,0,0,0,3.3-1.376l2.6,1.656,1.434-1.434-1.613-2.638a9.117,9.117,0,0,0,1.376-3.326l3.01-.667V26.295l-3.018-.674a8.866,8.866,0,0,0-1.376-3.312l1.656-2.6-1.434-1.434-2.638,1.613a9.117,9.117,0,0,0-3.326-1.376Z" transform="translate(-6.5 -7.8)" fill="#e67314"/>


  </g>
</svg>