<svg xmlns="http://www.w3.org/2000/svg" xmlns:xlink="http://www.w3.org/1999/xlink" width="566.531" height="43.744" viewBox="0 0 566.531 43.744">
  <defs>
    <clipPath id="clip-path">
      <rect id="Rectangle_17485" data-name="Rectangle 17485" width="566.531" height="43.744" fill="none"/>
    </clipPath>
  </defs>
  <g id="Group_6853" data-name="Group 6853" transform="translate(0 0)">
    <g id="Group_6852" data-name="Group 6852" transform="translate(0 0)" clip-path="url(#clip-path)">
      <path id="Path_4952" data-name="Path 4952" d="M14.093,15.412v0l-3.937-1.163c-4.727-1.4-5.1-3.027-5.1-5.011,0-3.074,1.107-5.12,6.509-5.12a30.325,30.325,0,0,1,6.006.7l.326.078a4.28,4.28,0,0,0,.912.159,1.347,1.347,0,0,0,1.337-1.008,5.966,5.966,0,0,0,.34-1.652A1.461,1.461,0,0,0,19.289.921,26.644,26.644,0,0,0,11.83,0C4.2,0,.492,3.124.492,9.55c0,4.409,2.337,7.408,6.755,8.678l4.338,1.252c5.592,1.637,5.592,3.374,5.592,5.055s0,5.167-6.956,5.167a18.777,18.777,0,0,1-6.934-1.181l-.266-.092a3.9,3.9,0,0,0-1.165-.3A1.425,1.425,0,0,0,.443,29.246,5.7,5.7,0,0,0,0,30.93a1.6,1.6,0,0,0,1.263,1.511,27.136,27.136,0,0,0,8.957,1.42c7.75,0,11.517-3.184,11.517-9.731,0-5.422-2.688-7.249-7.645-8.718" transform="translate(0 -0.001)" fill="gray"/>
      <path id="Path_4953" data-name="Path 4953" d="M24.138,27.6l-.018,0c-2.708-.13-3.987-.543-4.564-1.48a7.521,7.521,0,0,1-.631-3.776V11.763h4.45a1.35,1.35,0,0,0,1.5-1.409V9.191a1.35,1.35,0,0,0-1.5-1.409h-4.45V3.242C18.926,1.9,18.1,1.7,17.6,1.7h-1.52c-.282,0-1.212.107-1.317,1.52-.089,2.426-.121,3.855-.132,4.561H12.328a1.369,1.369,0,0,0-1.409,1.453V10.4a1.27,1.27,0,0,0,1.319,1.364h2.35v10.4c0,3.665.42,5.554,1.561,6.978,1.693,2,4.094,2.392,7.674,2.392.921,0,1.424-.4,1.5-1.169.045-.423.092-1.031.092-1.4A1.24,1.24,0,0,0,24.138,27.6" transform="translate(13.495 2.101)" fill="gray"/>
      <path id="Path_4954" data-name="Path 4954" d="M30.7,4.377,30.66,4.37a14.889,14.889,0,0,0-2.29-.188c-3.126,0-6.972,1.252-8.2,2.33A3.3,3.3,0,0,0,19,9.481V26.747A1.3,1.3,0,0,0,20.406,28.2h1.478a1.293,1.293,0,0,0,1.409-1.451V10.733a2.191,2.191,0,0,1,.165-1.046A1.193,1.193,0,0,1,24,9.2a9.455,9.455,0,0,1,4.367-.9c.266,0,.7.027,1.1.051.335.02.637.038.783.038a1.3,1.3,0,0,0,1.31-1.04A12.271,12.271,0,0,0,31.7,5.588,1.189,1.189,0,0,0,30.7,4.377" transform="translate(23.483 5.168)" fill="gray"/>
      <path id="Path_4955" data-name="Path 4955" d="M44.05,4.381H42.574a1.326,1.326,0,0,0-1.411,1.5V22.251a3.2,3.2,0,0,1-.161,1.1,1.314,1.314,0,0,1-.6.434,15.336,15.336,0,0,1-5.342.677c-3.032,0-3.745-.751-4.054-1.509a10.2,10.2,0,0,1-.351-3.211V5.879a1.338,1.338,0,0,0-1.411-1.5H27.768c-.642,0-1.409.259-1.409,1.5V20.1a16.006,16.006,0,0,0,.577,5.08c.865,2.2,3.3,3.262,7.452,3.262,4.022,0,7.168-.5,9.364-1.487a3.116,3.116,0,0,0,1.706-3.188V5.879a1.312,1.312,0,0,0-1.409-1.5" transform="translate(32.578 5.413)" fill="gray"/>
      <path id="Path_4956" data-name="Path 4956" d="M53.494,24a3.872,3.872,0,0,0-.865.141c-.13.034-.266.067-.438.1a18.326,18.326,0,0,1-4.78.521c-4.845,0-5.793-3.074-5.793-8.387,0-5.2,1.037-8.208,6.332-8.208a18.017,18.017,0,0,1,3.64.333,5.368,5.368,0,0,0,1.368.248,1.183,1.183,0,0,0,1.192-.9A7.379,7.379,0,0,0,54.5,6.131a1.37,1.37,0,0,0-1.185-1.393,22.6,22.6,0,0,0-5.234-.6c-7.571,0-10.8,3.792-10.8,12.68,0,8.244,3.057,11.92,9.907,11.92a20.169,20.169,0,0,0,6.665-.97A1.364,1.364,0,0,0,54.9,26.348a6.135,6.135,0,0,0-.34-1.52A1.074,1.074,0,0,0,53.494,24" transform="translate(46.074 5.117)" fill="gray"/>
      <path id="Path_4957" data-name="Path 4957" d="M59.238,27.6l-.018,0c-2.708-.13-3.987-.543-4.564-1.48a7.521,7.521,0,0,1-.631-3.776V11.763h4.45a1.35,1.35,0,0,0,1.5-1.409V9.191a1.35,1.35,0,0,0-1.5-1.409h-4.45V3.242C54.026,1.9,53.2,1.7,52.7,1.7h-1.52c-.282,0-1.212.107-1.317,1.52-.089,2.426-.121,3.855-.132,4.561H47.428a1.369,1.369,0,0,0-1.409,1.453V10.4a1.27,1.27,0,0,0,1.319,1.364h2.35v10.4c0,3.665.42,5.554,1.561,6.978,1.693,2,4.094,2.392,7.674,2.392.921,0,1.424-.4,1.5-1.169.045-.423.092-1.031.092-1.4A1.24,1.24,0,0,0,59.238,27.6" transform="translate(56.876 2.101)" fill="gray"/>
      <path id="Path_4958" data-name="Path 4958" d="M71.591,4.381H70.113a1.325,1.325,0,0,0-1.409,1.5V22.251a3.17,3.17,0,0,1-.163,1.1,1.308,1.308,0,0,1-.6.434,15.353,15.353,0,0,1-5.342.677c-3.034,0-3.747-.751-4.056-1.509a10.266,10.266,0,0,1-.351-3.211V5.879a1.338,1.338,0,0,0-1.411-1.5H55.307c-.639,0-1.409.259-1.409,1.5V20.1a16.006,16.006,0,0,0,.577,5.08c.865,2.2,3.3,3.262,7.452,3.262,4.022,0,7.168-.5,9.364-1.487A3.116,3.116,0,0,0,73,23.769V5.879a1.311,1.311,0,0,0-1.406-1.5" transform="translate(66.614 5.413)" fill="gray"/>
      <path id="Path_4959" data-name="Path 4959" d="M77.135,4.377,77.1,4.37a14.889,14.889,0,0,0-2.29-.188c-3.126,0-6.972,1.252-8.2,2.33a3.3,3.3,0,0,0-1.174,2.969V26.747A1.3,1.3,0,0,0,66.845,28.2h1.478a1.293,1.293,0,0,0,1.409-1.451V10.733A2.191,2.191,0,0,1,69.9,9.687a1.193,1.193,0,0,1,.546-.487,9.455,9.455,0,0,1,4.367-.9c.266,0,.7.027,1.1.051.335.02.637.038.783.038A1.3,1.3,0,0,0,78,7.346a12.269,12.269,0,0,0,.143-1.757,1.189,1.189,0,0,0-1.006-1.212" transform="translate(80.878 5.168)" fill="gray"/>
      <path id="Path_4960" data-name="Path 4960" d="M82.566,4.141c-7.18,0-10.668,4.045-10.668,12.367,0,8.691,3.117,12.233,10.757,12.233a19.942,19.942,0,0,0,7.238-1.163,1.417,1.417,0,0,0,1.058-1.319,5.635,5.635,0,0,0-.416-1.637c-.425-.847-1.073-.919-2.442-.512a17.52,17.52,0,0,1-5.08.651c-4.17,0-6.5-1.109-6.677-6.844H89.721a1.9,1.9,0,0,0,1.252-.4c.478-.4.514-.984.514-1.771,0-6.35-.671-11.607-8.921-11.607m4.673,9.46c0,.21,0,.391,0,.559H76.352c.266-4.311,2.035-6.084,5.99-6.084,4.116,0,4.9,1.941,4.9,5.525" transform="translate(88.861 5.117)" fill="gray"/>
      <path id="Path_4961" data-name="Path 4961" d="M104.575,1.287l-.009,0A24.076,24.076,0,0,0,96.4.261h-3.98c-4,0-4.541,2.386-4.541,4.718V31.546a1.338,1.338,0,0,0,1.411,1.5h1.565a1.377,1.377,0,0,0,1.5-1.5V19.537h4.271a25.57,25.57,0,0,0,6.5-.691c4.157-1.183,6.355-4.291,6.355-8.991,0-4.4-1.605-7.2-4.906-8.568M96.89,15.557H92.351V5.515c0-1.138.3-1.185.959-1.185h3.311A16.706,16.706,0,0,1,102.308,5c1.2.5,2.565,1.527,2.565,5.031,0,2.379-.95,4.148-2.612,4.85a14.733,14.733,0,0,1-5.371.673" transform="translate(108.61 0.321)" fill="gray"/>
      <path id="Path_4962" data-name="Path 4962" d="M111.054,4.377l-.036-.007a14.889,14.889,0,0,0-2.29-.188c-3.126,0-6.972,1.252-8.2,2.33a3.3,3.3,0,0,0-1.174,2.969V26.747a1.3,1.3,0,0,0,1.406,1.451h1.478a1.293,1.293,0,0,0,1.409-1.451V10.733a2.19,2.19,0,0,1,.165-1.046,1.193,1.193,0,0,1,.546-.487,9.455,9.455,0,0,1,4.367-.9c.266,0,.7.027,1.1.051.335.02.637.038.783.038a1.3,1.3,0,0,0,1.31-1.04,12.269,12.269,0,0,0,.143-1.757,1.189,1.189,0,0,0-1.006-1.212" transform="translate(122.8 5.168)" fill="gray"/>
      <path id="Path_4963" data-name="Path 4963" d="M116.348,4.141c-5.187,0-10.491,1.458-10.491,12.277,0,9.1,2.663,12.322,10.176,12.322,7.745,0,10.489-3.26,10.489-12.456,0-10.328-3.28-12.143-10.173-12.143m-.226,20.62c-4.029,0-5.925-.836-5.925-8.476,0-6.824,2.129-8.119,6.062-8.119,4.177,0,5.878.751,5.878,8.3,0,7.9-2.285,8.3-6.015,8.3" transform="translate(130.832 5.117)" fill="gray"/>
      <path id="Path_4964" data-name="Path 4964" d="M123.655,4.381h-1.52c-.642,0-1.409.268-1.409,1.543V29.537c0,1.787-.362,3.03-1.029,3.58a7.526,7.526,0,0,1-3.542,1.279,1.473,1.473,0,0,0-1.38,1.541,6.859,6.859,0,0,0,.15,1.33,1.26,1.26,0,0,0,1.4,1.062c2.1,0,5.319-1.008,6.835-2.625,1.375-1.375,1.909-3.115,1.909-6.209V5.879a1.338,1.338,0,0,0-1.411-1.5" transform="translate(141.855 5.413)" fill="gray"/>
      <path id="Path_4965" data-name="Path 4965" d="M119.878.14c-1.69,0-2.661,1.035-2.661,2.842a2.377,2.377,0,0,0,2.661,2.7c1.71,0,2.616-.95,2.616-2.75,0-1.854-.881-2.795-2.616-2.795" transform="translate(144.872 0.172)" fill="gray"/>
      <path id="Path_4966" data-name="Path 4966" d="M132.386,4.141c-7.18,0-10.668,4.045-10.668,12.367,0,8.691,3.117,12.233,10.757,12.233a19.942,19.942,0,0,0,7.238-1.163,1.418,1.418,0,0,0,1.058-1.319,5.634,5.634,0,0,0-.416-1.637c-.425-.847-1.073-.919-2.442-.512a17.52,17.52,0,0,1-5.08.651c-4.17,0-6.5-1.109-6.676-6.844h13.384a1.9,1.9,0,0,0,1.252-.4c.479-.4.514-.984.514-1.771,0-6.35-.671-11.607-8.921-11.607m4.673,9.46c0,.21,0,.391,0,.559H126.172c.266-4.311,2.035-6.084,5.99-6.084,4.116,0,4.9,1.941,4.9,5.525" transform="translate(150.435 5.117)" fill="gray"/>
      <path id="Path_4967" data-name="Path 4967" d="M148.372,24a3.872,3.872,0,0,0-.865.141c-.13.034-.266.067-.438.1a18.327,18.327,0,0,1-4.78.521c-4.845,0-5.793-3.074-5.793-8.387,0-5.2,1.038-8.208,6.332-8.208a18.017,18.017,0,0,1,3.64.333,5.368,5.368,0,0,0,1.368.248,1.183,1.183,0,0,0,1.192-.9,7.378,7.378,0,0,0,.351-1.717,1.369,1.369,0,0,0-1.185-1.393,22.6,22.6,0,0,0-5.234-.6c-7.571,0-10.8,3.792-10.8,12.68,0,8.244,3.057,11.92,9.907,11.92a20.169,20.169,0,0,0,6.665-.97,1.364,1.364,0,0,0,1.051-1.422,5.976,5.976,0,0,0-.342-1.516A1.065,1.065,0,0,0,148.372,24" transform="translate(163.337 5.117)" fill="gray"/>
      <path id="Path_4968" data-name="Path 4968" d="M154.116,27.6l-.018,0c-2.708-.13-3.987-.543-4.564-1.48a7.521,7.521,0,0,1-.631-3.776V11.763h4.45a1.35,1.35,0,0,0,1.5-1.409V9.191a1.35,1.35,0,0,0-1.5-1.409H148.9V3.242c0-1.342-.827-1.541-1.321-1.541h-1.52c-.282,0-1.212.107-1.317,1.52-.089,2.426-.121,3.855-.132,4.561h-2.308A1.369,1.369,0,0,0,140.9,9.236V10.4a1.27,1.27,0,0,0,1.319,1.364h2.35v10.4c0,3.665.42,5.554,1.561,6.978,1.693,2,4.094,2.392,7.674,2.392.921,0,1.424-.4,1.5-1.169.045-.423.092-1.031.092-1.4a1.24,1.24,0,0,0-1.272-1.359" transform="translate(174.139 2.101)" fill="gray"/>
      <path id="Path_4969" data-name="Path 4969" d="M166.729,15.412v0l-3.937-1.163c-4.727-1.4-5.1-3.027-5.1-5.011,0-3.074,1.107-5.12,6.509-5.12a30.325,30.325,0,0,1,6.006.7l.326.078a4.279,4.279,0,0,0,.912.159,1.347,1.347,0,0,0,1.337-1.008,5.965,5.965,0,0,0,.34-1.652A1.461,1.461,0,0,0,171.925.921,26.644,26.644,0,0,0,164.466,0c-7.629,0-11.338,3.124-11.338,9.55,0,4.409,2.337,7.408,6.755,8.678l4.338,1.252c5.592,1.637,5.592,3.374,5.592,5.055s0,5.167-6.956,5.167a18.777,18.777,0,0,1-6.934-1.181l-.266-.092a3.9,3.9,0,0,0-1.165-.3,1.425,1.425,0,0,0-1.413,1.111,5.7,5.7,0,0,0-.443,1.684,1.6,1.6,0,0,0,1.263,1.511,27.136,27.136,0,0,0,8.957,1.42c7.75,0,11.517-3.184,11.517-9.731,0-5.422-2.688-7.249-7.645-8.718" transform="translate(188.648 -0.001)" fill="gray"/>
      <path id="Path_4970" data-name="Path 4970" d="M181.808,4.381h-1.476a1.326,1.326,0,0,0-1.411,1.5V21.935a2.431,2.431,0,0,1-.161.973,1.828,1.828,0,0,1-.657.456c-1.046.548-2.453,1.053-5.6,1.053-2.969,0-3.506-.718-3.77-1.373a10.45,10.45,0,0,1-.322-2.942V5.879A1.338,1.338,0,0,0,167,4.381h-1.476c-.642,0-1.409.259-1.409,1.5V20.638a13,13,0,0,0,.572,4.581c.825,2.2,3.01,3.224,6.875,3.224a18.728,18.728,0,0,0,7.269-1.3v.34a9.37,9.37,0,0,1-.579,3.624c-.689,1.579-1.979,3.007-10.091,3.2a1.423,1.423,0,0,0-1.406,1.5,7.25,7.25,0,0,0,.1,1.389c.19,1.14,1.19,1.14,1.67,1.14,8.13,0,12.709-1.988,13.995-6.068a17.66,17.66,0,0,0,.7-5.628V5.879a1.312,1.312,0,0,0-1.409-1.5" transform="translate(202.837 5.413)" fill="gray"/>
      <path id="Path_4971" data-name="Path 4971" d="M186.061,15.012l-3.135-.986c-3.226-.977-3.495-1.977-3.495-3,0-1.418.338-2.929,4.36-2.929a20.091,20.091,0,0,1,4.74.575l.273.049a3.77,3.77,0,0,0,.624.092,1.2,1.2,0,0,0,1.156-.874,6.3,6.3,0,0,0,.434-1.7,1.4,1.4,0,0,0-1.223-1.435,26.361,26.361,0,0,0-5.956-.646c-5.773,0-8.7,2.386-8.7,7.088,0,3.267,1.807,5.449,5.362,6.486l3.531,1.071c3.414,1.051,3.586,1.773,3.586,2.866,0,1.071,0,3.065-4.628,3.065A16.876,16.876,0,0,1,177.573,24l-.177-.06a3.13,3.13,0,0,0-.939-.235,1.342,1.342,0,0,0-1.274.968,4.114,4.114,0,0,0-.447,1.6,1.355,1.355,0,0,0,.952,1.315,20.376,20.376,0,0,0,7.211,1.125c7.412,0,8.968-3.879,8.968-7.137,0-3.978-2.223-5.465-5.807-6.569" transform="translate(215.962 5.142)" fill="gray"/>
      <path id="Path_4972" data-name="Path 4972" d="M196.455,27.6l-.02,0c-2.708-.13-3.984-.543-4.564-1.48a7.546,7.546,0,0,1-.631-3.776V11.763h4.452a1.351,1.351,0,0,0,1.5-1.409V9.191a1.351,1.351,0,0,0-1.5-1.409h-4.452V3.242c0-1.342-.825-1.541-1.321-1.541H188.4c-.284,0-1.214.107-1.319,1.52-.087,2.426-.121,3.855-.13,4.561h-2.31a1.369,1.369,0,0,0-1.406,1.453V10.4a1.27,1.27,0,0,0,1.319,1.364H186.9v10.4c0,3.665.42,5.554,1.561,6.978,1.693,2,4.1,2.392,7.676,2.392.921,0,1.422-.4,1.5-1.169.042-.423.089-1.031.089-1.4a1.24,1.24,0,0,0-1.27-1.359" transform="translate(226.467 2.101)" fill="gray"/>
      <path id="Path_4973" data-name="Path 4973" d="M201.124,4.141c-7.18,0-10.668,4.045-10.668,12.367,0,8.691,3.117,12.233,10.757,12.233a19.942,19.942,0,0,0,7.238-1.163,1.417,1.417,0,0,0,1.058-1.319,5.636,5.636,0,0,0-.416-1.637c-.425-.847-1.073-.919-2.442-.512a17.52,17.52,0,0,1-5.08.651c-4.17,0-6.5-1.109-6.676-6.844h13.384a1.9,1.9,0,0,0,1.252-.4c.478-.4.514-.984.514-1.771,0-6.35-.671-11.607-8.921-11.607M205.8,13.6c0,.21,0,.391,0,.559H194.91c.266-4.311,2.035-6.084,5.99-6.084,4.116,0,4.9,1.941,4.9,5.525" transform="translate(235.391 5.117)" fill="gray"/>
      <path id="Path_4974" data-name="Path 4974" d="M227.347,4.181c-1.818,0-6.133.2-8.729,1.994-1.075-1.357-2.871-1.994-5.583-1.994a25.6,25.6,0,0,0-9.865,1.983,3,3,0,0,0-1.655,3.048V26.746a1.3,1.3,0,0,0,1.409,1.453H204.4a1.294,1.294,0,0,0,1.411-1.453V10.822c0-.874.13-1.062.194-1.152a1.733,1.733,0,0,1,.64-.485,12.828,12.828,0,0,1,5.583-.979c2.7,0,2.949.626,3.238,1.342a9.4,9.4,0,0,1,.275,2.708V26.746a1.3,1.3,0,0,0,1.406,1.453h1.523a1.293,1.293,0,0,0,1.409-1.453v-14.4c0-.195-.013-.624-.025-1.024-.009-.335-.02-.644-.02-.767a1.759,1.759,0,0,1,.121-.749,1.713,1.713,0,0,1,.624-.485,13.537,13.537,0,0,1,5.585-1.113c2.6,0,2.987.528,3.28,1.344a10.632,10.632,0,0,1,.275,2.884V26.746a1.3,1.3,0,0,0,1.409,1.453h1.52c.622,0,1.364-.253,1.364-1.453V11.85a13.894,13.894,0,0,0-.438-4.584c-.843-2.191-2.7-3.086-6.426-3.086" transform="translate(249.059 5.166)" fill="gray"/>
      <path id="Path_4975" data-name="Path 4975" d="M236.03,15.837a6.984,6.984,0,0,0,4.083-6.518c0-5.221-1.661-8.7-9.771-8.7a20.831,20.831,0,0,0-6.976,1.192c-.738.244-1.456.561-1.456,1.514a5.077,5.077,0,0,0,.4,1.473l.078.224c.268.8,1.12.9,2.115.53.19-.069.4-.15.624-.212a16.122,16.122,0,0,1,4.546-.651c5.049,0,5.972,1.619,5.972,4.809,0,2.328-.789,4.492-6.533,4.584-.919.042-2.144.309-2.144,2.124s1.16,2.035,2.16,2.035c6.086.134,7.278,2.028,7.278,5.257,0,3.316-1.167,5.523-6.864,5.523a20.56,20.56,0,0,1-5.035-.514l-.4-.119c-1.259-.376-2.021-.373-2.475.557a7.165,7.165,0,0,0-.436,1.8c0,.944.7,1.308,1.471,1.563a25.928,25.928,0,0,0,6.914.787c7.571,0,11.249-3.184,11.249-9.731,0-3.837-1.755-6.522-4.8-7.526" transform="translate(273.382 0.766)" fill="gray"/>
      <path id="Path_4976" data-name="Path 4976" d="M244.374,12.429a12.713,12.713,0,0,0-7.414,2.05c.633-7.074,1.869-9.789,8.669-9.789A20.806,20.806,0,0,1,249.181,5c.121.016.262.04.409.067a5.6,5.6,0,0,0,.912.116,1.182,1.182,0,0,0,1.078-.87l.04-.154a9.255,9.255,0,0,0,.335-1.637,1.281,1.281,0,0,0-.9-1.239,19.047,19.047,0,0,0-5.565-.662c-10.855,0-13.038,6.938-13.038,18.136,0,9.782,3.405,14.337,10.712,14.337,6.981,0,10.67-3.658,10.67-10.58,0-6.974-2.918-10.084-9.462-10.084m-.984,16.638c-3.616,0-5.657-1.82-6.247-5.579a21.682,21.682,0,0,1-.217-3.077,3.081,3.081,0,0,1,.315-1.574c.968-1.494,3.466-2.386,6.685-2.386,3.884,0,5.614,1.845,5.614,5.972,0,4.655-1.84,6.643-6.151,6.643" transform="translate(287.297 0.766)" fill="gray"/>
      <path id="Path_4977" data-name="Path 4977" d="M254.839.62c-5.912,0-11.385,1.977-11.385,16.3,0,11.94,2.875,16.17,10.981,16.17,8.378,0,11.2-4.17,11.2-16.526,0-13.561-3.481-15.947-10.8-15.947m-.358,28.4c-3.96,0-6.554-.85-6.554-12.188,0-10.209,2.366-12.146,6.732-12.146,4.423,0,6.507,1.172,6.507,11.877,0,11.618-2.527,12.456-6.685,12.456" transform="translate(300.892 0.765)" fill="gray"/>
    </g>
  </g>
</svg>
