<svg id="Group_7372" data-name="Group 7372" xmlns="http://www.w3.org/2000/svg" xmlns:xlink="http://www.w3.org/1999/xlink" width="56.511" height="70.467" viewBox="0 0 56.511 70.467">
  <defs>
    <clipPath id="clip-path">
      <rect id="Rectangle_17487" data-name="Rectangle 17487" width="56.511" height="70.467" fill="none"/>
    </clipPath>
  </defs>
  <g id="Group_7364" data-name="Group 7364">
    <g id="Group_7363" data-name="Group 7363" clip-path="url(#clip-path)">
      <path id="Path_5028" data-name="Path 5028" d="M183.6,180.2a1.4,1.4,0,0,0,1.284.812c1.051,0,1.751-.357,1.751-2.1a4.709,4.709,0,0,0-.237-1.484c-.05-.16-.12-.33-.329-.33a.994.994,0,0,0-.307.087l-.039.015a.264.264,0,0,0-.176.266.7.7,0,0,0,.052.223c.014.04.029.083.042.13a3.591,3.591,0,0,1,.128.951c0,1.045-.3,1.229-.92,1.229-.445,0-.859-.163-.877-1.349a.433.433,0,0,0-.451-.484c-.388,0-.433.28-.433.487h0c-.02.977-.187,1.506-1.009,1.506-.656,0-1.062-.237-1.062-1.417a3.558,3.558,0,0,1,.091-.932c.008-.029.016-.057.023-.083a1.052,1.052,0,0,0,.053-.27.3.3,0,0,0-.167-.286l-.016-.007a1.361,1.361,0,0,0-.366-.094c-.206,0-.286.167-.339.334a4.921,4.921,0,0,0-.147,1.347c0,1.621.639,2.408,1.955,2.408a1.466,1.466,0,0,0,1.494-.963" transform="translate(-130.157 -127.934)" fill="#e67314"/>
      <path id="Path_5029" data-name="Path 5029" d="M183.6,180.2a1.4,1.4,0,0,0,1.284.812c1.051,0,1.751-.357,1.751-2.1a4.709,4.709,0,0,0-.237-1.484c-.05-.16-.12-.33-.329-.33a.994.994,0,0,0-.307.087l-.039.015a.264.264,0,0,0-.176.266.7.7,0,0,0,.052.223c.014.04.029.083.042.13a3.591,3.591,0,0,1,.128.951c0,1.045-.3,1.229-.92,1.229-.445,0-.859-.163-.877-1.349a.433.433,0,0,0-.451-.484c-.388,0-.433.28-.433.487h0c-.02.977-.187,1.506-1.009,1.506-.656,0-1.062-.237-1.062-1.417a3.558,3.558,0,0,1,.091-.932c.008-.029.016-.057.023-.083a1.052,1.052,0,0,0,.053-.27.3.3,0,0,0-.167-.286l-.016-.007a1.361,1.361,0,0,0-.366-.094c-.206,0-.286.167-.339.334a4.921,4.921,0,0,0-.147,1.347c0,1.621.639,2.408,1.955,2.408A1.466,1.466,0,0,0,183.6,180.2Z" transform="translate(-130.157 -127.934)" fill="none" stroke="#e67314" stroke-miterlimit="10" stroke-width="0.25"/>
      <path id="Path_5030" data-name="Path 5030" d="M184.3,200.98a3.034,3.034,0,0,0-.373-1.554c1.33.136,1.842.412,1.842,1.823a4.8,4.8,0,0,1-.059.748l0,.011c0,.025-.008.055-.013.086a1.289,1.289,0,0,0-.023.2.282.282,0,0,0,.177.258l.057.017a1.621,1.621,0,0,0,.322.071.286.286,0,0,0,.274-.215,4.48,4.48,0,0,0,.133-1.207c0-2.616-1.788-2.835-3.618-2.835-1.955,0-2.866.742-2.866,2.335,0,1.521.734,2.325,2.123,2.325s2.026-.637,2.026-2.066m-3.291-.211a1.164,1.164,0,0,1,1.075-1.31h0a3.811,3.811,0,0,1,.6-.046.551.551,0,0,1,.3.065,1.775,1.775,0,0,1,.453,1.406c0,.811-.355,1.173-1.151,1.173-.9,0-1.283-.385-1.283-1.288" transform="translate(-130.157 -143.333)" fill="#e67314"/>
      <path id="Path_5031" data-name="Path 5031" d="M184.3,200.98a3.034,3.034,0,0,0-.373-1.554c1.33.136,1.842.412,1.842,1.823a4.8,4.8,0,0,1-.059.748l0,.011c0,.025-.008.055-.013.086a1.289,1.289,0,0,0-.023.2.282.282,0,0,0,.177.258l.057.017a1.621,1.621,0,0,0,.322.071.286.286,0,0,0,.274-.215,4.48,4.48,0,0,0,.133-1.207c0-2.616-1.788-2.835-3.618-2.835-1.955,0-2.866.742-2.866,2.335,0,1.521.734,2.325,2.123,2.325S184.3,202.409,184.3,200.98Zm-3.291-.211a1.164,1.164,0,0,1,1.075-1.31h0a3.811,3.811,0,0,1,.6-.046.551.551,0,0,1,.3.065,1.775,1.775,0,0,1,.453,1.406c0,.811-.355,1.173-1.151,1.173C181.389,202.056,181.005,201.671,181.005,200.768Z" transform="translate(-130.157 -143.333)" fill="none" stroke="#e67314" stroke-miterlimit="10" stroke-width="0.25"/>
      <path id="Path_5032" data-name="Path 5032" d="M186.019,225.61a2.163,2.163,0,0,0,.613-1.8c0-1.758-.943-2.475-3.255-2.475-2.384,0-3.229.625-3.229,2.389,0,1.8.864,2.437,3.3,2.437a4.132,4.132,0,0,0,2.572-.55m-5.005-1.878c0-.829.166-1.373,2.38-1.373,2.193,0,2.372.639,2.372,1.411,0,.926-.229,1.363-2.318,1.363-2.27,0-2.433-.529-2.433-1.4" transform="translate(-130.157 -159.913)" fill="#e67314"/>
      <path id="Path_5033" data-name="Path 5033" d="M186.019,225.61a2.163,2.163,0,0,0,.613-1.8c0-1.758-.943-2.475-3.255-2.475-2.384,0-3.229.625-3.229,2.389,0,1.8.864,2.437,3.3,2.437A4.132,4.132,0,0,0,186.019,225.61Zm-5.005-1.878c0-.829.166-1.373,2.38-1.373,2.193,0,2.372.639,2.372,1.411,0,.926-.229,1.363-2.318,1.363C181.178,225.134,181.014,224.6,181.014,223.732Z" transform="translate(-130.157 -159.913)" fill="none" stroke="#e67314" stroke-miterlimit="10" stroke-width="0.25"/>
      <path id="Path_5034" data-name="Path 5034" d="M9.5,184.709l-2.61-.717c-2.945-.779-3.468-1.666-3.468-2.507,0-1.285.766-2.473,4.308-2.473a19.479,19.479,0,0,1,4.017.423c.075.011.158.026.241.04a1.082,1.082,0,0,0,1.324-.858,1.015,1.015,0,0,0-.683-1.338,24.216,24.216,0,0,0-4.862-.459c-4.547,0-6.853,1.624-6.853,4.827,0,2.243,1.371,3.683,4.19,4.4l2.944.782c2.812.757,3.544,1.33,3.544,2.41,0,.769-.278,2.57-4.532,2.57a20.569,20.569,0,0,1-5.2-.829l-.154-.047a1.066,1.066,0,0,0-1.485.659c-.238.733-.016,1.243.364,1.376a21.841,21.841,0,0,0,6.4,1.065c3.228,0,7.077-.843,7.077-4.86,0-2.705-1.673-3.686-4.562-4.467" transform="translate(-0.091 -127.752)" fill="#e67314"/>
      <path id="Path_5035" data-name="Path 5035" d="M129.466,184.585l-2.611-.717c-3.033-.8-3.442-1.7-3.442-2.473,0-1.664,1.358-2.438,4.273-2.438a19.49,19.49,0,0,1,4.017.424c.062.009.135.021.209.034l.026,0a1.116,1.116,0,0,0,1.364-.884,1.226,1.226,0,0,0-.11-.953.948.948,0,0,0-.6-.428,24.251,24.251,0,0,0-4.869-.46c-4.571,0-6.888,1.636-6.888,4.862,0,2.261,1.379,3.712,4.215,4.435l2.944.782c2.992.8,3.518,1.407,3.518,2.376,0,2.1-2.446,2.536-4.5,2.536a20.542,20.542,0,0,1-5.187-.827l-.153-.047c-.781-.241-1.3-.01-1.529.682-.257.792.018,1.29.382,1.418a21.906,21.906,0,0,0,6.413,1.068c3.244,0,7.112-.849,7.112-4.894,0-2.727-1.682-3.715-4.587-4.5" transform="translate(-86.734 -127.662)" fill="#e67314"/>
      <path id="Path_5036" data-name="Path 5036" d="M9.419,184.585l-2.611-.717c-3.033-.8-3.442-1.7-3.442-2.473,0-1.664,1.358-2.438,4.273-2.438a19.49,19.49,0,0,1,4.017.424c.062.009.135.021.209.034l.026,0a1.117,1.117,0,0,0,1.364-.884,1.226,1.226,0,0,0-.11-.953.948.948,0,0,0-.6-.428,24.251,24.251,0,0,0-4.869-.46c-4.571,0-6.888,1.636-6.888,4.862,0,2.261,1.379,3.712,4.215,4.435l2.944.782c2.992.8,3.518,1.407,3.518,2.376,0,2.1-2.446,2.536-4.5,2.536a20.542,20.542,0,0,1-5.187-.827l-.153-.047c-.781-.241-1.3-.01-1.529.682-.257.792.018,1.29.382,1.418a21.906,21.906,0,0,0,6.413,1.068c3.244,0,7.112-.849,7.112-4.894,0-2.727-1.682-3.715-4.587-4.5" transform="translate(0 -127.662)" fill="#e67314"/>
    </g>
  </g>
  <g id="Group_7366" data-name="Group 7366">
    <g id="Group_7365" data-name="Group 7365" clip-path="url(#clip-path)">
      <path id="Path_5037" data-name="Path 5037" d="M64.095,175.7a1.2,1.2,0,0,0-.714.229.871.871,0,0,0-.32.756v16.362a.579.579,0,0,0,.066.271l.023.034c.083.124.334.5,1.2.5a1.321,1.321,0,0,0,1.186-.493l.026-.033a.529.529,0,0,0,.077-.276v-4.124h4.928a10.14,10.14,0,0,0,2.952-.382c1.443-.445,3.863-1.873,3.863-6.43,0-5.775-4.756-6.325-5.3-6.368-.367-.029-.754-.045-1.148-.045Zm6.585,10.787H65.638v-8.614h5.1a9.6,9.6,0,0,1,1.271.087c.73.1,2.815,1.059,2.815,4.092,0,3.417-1.711,3.982-2.274,4.167l-.062.021a5.632,5.632,0,0,1-1.806.247" transform="translate(-45.561 -126.942)" fill="#e67314"/>
    </g>
  </g>
  <g id="Group_7368" data-name="Group 7368">
    <g id="Group_7367" data-name="Group 7367" clip-path="url(#clip-path)">
      <path id="Path_5038" data-name="Path 5038" d="M28.921,45.624A22.812,22.812,0,1,1,51.733,22.812,22.838,22.838,0,0,1,28.921,45.624m0-43.31a20.5,20.5,0,1,0,20.5,20.5,20.521,20.521,0,0,0-20.5-20.5" transform="translate(-4.414)" fill="#e67314"/>
      <path id="Path_5039" data-name="Path 5039" d="M38.6,51.61,46.016,55.9l6.38-3.685L58.767,55.9l7.415-4.282.012-8.57-6.379-3.686V31.972l-7.408-4.284-7.423,4.283v7.392l-6.377,3.68Zm20.162,1.877-5.325-3.081V44.247l5.338-3.08,5.328,3.082L64.1,50.41Zm-12.751,0-5.325-3.081V44.247l5.339-3.08,5.322,3.082V50.41Zm6.378-11.072-5.325-3.081V33.175l5.339-3.08,5.322,3.082v6.161Z" transform="translate(-27.892 -20.005)" fill="#e67314"/>
    </g>
  </g>
</svg>
