<!-- <svg viewBox="0 0 95.272 102.47" xmlns="http://www.w3.org/2000/svg">
<g transform="matrix(10.811 0 0 10.811 -2001.4 -4401)">
<clipPath>
<path transform="matrix(1 0 0 -1 0 595.28)" d="m185.93 179.24h7.147v8.024h-7.147z"/>
</clipPath>
<g clip-path="url(#cp16)">
<path transform="matrix(1 0 0 -1 190.32 411.68)" d="m0 0c-0.352-0.25-0.403-0.348-0.418-0.606v-4e-3c-9e-3 -0.107 0.015-0.097 0.012-0.166-2e-3 -0.036-4e-3 -0.073-6e-3 -0.114-5e-3 -0.182-0.165-0.329-0.359-0.329h-0.153c-0.217 0-0.37 0.136-0.373 0.331-7e-3 0.163-0.034 0.187-0.034 0.288 0 0.532 0.173 0.844 0.636 1.153 0.379 0.253 0.494 0.435 0.494 0.78 0 0.269-0.093 0.448-0.546 0.448-0.276 0-0.478-0.024-0.698-0.082l-1e-3 -1e-3h-1e-3c-0.037-9e-3 -0.113-0.028-0.19-0.028-0.158 0-0.283 0.091-0.334 0.243v3e-3l-1e-3 2e-3c-0.016 0.052-0.052 0.184-0.052 0.271 0 0.156 0.088 0.284 0.243 0.353l2e-3 1e-3 3e-3 1e-3 5e-3 2e-3 6e-3 2e-3c0.291 0.105 0.693 0.167 1.074 0.167 0.533 0 0.914-0.123 1.164-0.376 0.217-0.221 0.323-0.527 0.323-0.936 0-0.659-0.179-0.974-0.796-1.403m-0.395-2.574c-0.109-0.109-0.267-0.167-0.457-0.167-0.38 0-0.617 0.239-0.617 0.624 0 0.387 0.242 0.637 0.617 0.637 0.402 0 0.624-0.226 0.624-0.637 0-0.19-0.058-0.348-0.167-0.457m-0.419 6.243c-1.973 0-3.573-1.6-3.573-3.573 0-1.974 1.6-3.574 3.573-3.574 0.486 0 0.949 0.098 1.371 0.273l-0.024-1.156 1.326 2.086c0.56 0.631 0.901 1.461 0.901 2.371 0 1.973-1.6 3.573-3.574 3.573" fill="#ea7928"/>
</g>
</g>
</svg>
 -->
<svg xmlns="http://www.w3.org/2000/svg" viewBox="0 0 64 64"><defs><style>.cls-1{fill:#858585;}.cls-2{fill:#e67314;}</style></defs><g id="Polygon_Grey" data-name="Polygon Grey"><g id="röd"><path class="cls-1" d="M47.18,5.56,62.36,32,47.18,58.44H16.82L1.64,32,16.82,5.56H47.18m.72-1.25H16.1L.2,32,16.1,59.69H47.9L63.8,32,47.9,4.31Z"/></g></g><g id="support"><path class="cls-2" d="M32,16.05a15.09,15.09,0,1,0,5.76,29L37.65,50l5.57-8.81A15.1,15.1,0,0,0,32,16.05ZM33.76,42.4a2.64,2.64,0,0,1-1.92.71,2.42,2.42,0,0,1-2.59-2.63,2.48,2.48,0,0,1,2.59-2.7,2.4,2.4,0,0,1,2.62,2.7A2.67,2.67,0,0,1,33.76,42.4Zm1.66-10.86c-1.48,1.05-1.7,1.47-1.76,2.56h0c0,.46.06.42.05.7s0,.31,0,.49a1.49,1.49,0,0,1-1.51,1.39h-.64A1.44,1.44,0,0,1,30,35.29c0-.69-.14-.79-.14-1.22a5.15,5.15,0,0,1,2.67-4.86c1.59-1.07,2.07-1.84,2.07-3.3,0-1.13-.39-1.89-2.29-1.89a10.51,10.51,0,0,0-2.93.35h0a3.22,3.22,0,0,1-.8.12,1.43,1.43,0,0,1-1.4-1h0a4.79,4.79,0,0,1-.22-1.15,1.6,1.6,0,0,1,1-1.49H28a14.09,14.09,0,0,1,4.51-.7c2.23,0,3.83.52,4.88,1.59a5.37,5.37,0,0,1,1.36,3.95C38.76,28.4,38,29.73,35.42,31.54Z"/></g></svg>
