<svg xmlns="http://www.w3.org/2000/svg" viewBox="0 0 64 64"><defs><style>.cls-1{fill:#858585;}.cls-2{fill:#444;}</style></defs><g id="Polygon_2" data-name="Polygon 2"><polygon class="cls-1" points="47.79 4.6 16.21 4.6 0.42 32.1 16.21 59.6 47.79 59.6 63.58 32.1 47.79 4.6"/></g><g id="Polygon_Grey" data-name="Polygon Grey"><g id="röd"><path class="cls-1" d="M47.18,5.56,62.36,32,47.18,58.44H16.82L1.64,32,16.82,5.56H47.18m.72-1.25H16.1L.2,32,16.1,59.69H47.9L63.8,32,47.9,4.31Z"/></g></g><g id="support_kopia" data-name="support kopia"><path class="cls-2" d="M32,16.05a15.09,15.09,0,1,0,5.76,29L37.65,50l5.57-8.81A15.1,15.1,0,0,0,32,16.05ZM33.76,42.4a2.64,2.64,0,0,1-1.92.71,2.42,2.42,0,0,1-2.59-2.63,2.48,2.48,0,0,1,2.59-2.7,2.4,2.4,0,0,1,2.62,2.7A2.67,2.67,0,0,1,33.76,42.4Zm1.66-10.86c-1.48,1.05-1.7,1.47-1.76,2.56h0c0,.46.06.42.05.7s0,.31,0,.49a1.49,1.49,0,0,1-1.51,1.39h-.64A1.44,1.44,0,0,1,30,35.29c0-.69-.14-.79-.14-1.22a5.15,5.15,0,0,1,2.67-4.86c1.59-1.07,2.07-1.84,2.07-3.3,0-1.13-.39-1.89-2.29-1.89a10.51,10.51,0,0,0-2.93.35h0a3.22,3.22,0,0,1-.8.12,1.43,1.43,0,0,1-1.4-1h0a4.79,4.79,0,0,1-.22-1.15,1.6,1.6,0,0,1,1-1.49H28a14.09,14.09,0,0,1,4.51-.7c2.23,0,3.83.52,4.88,1.59a5.37,5.37,0,0,1,1.36,3.95C38.76,28.4,38,29.73,35.42,31.54Z"/></g></svg>
