<svg xmlns="http://www.w3.org/2000/svg" width="42.572" height="37.448" viewBox="0 0 42.572 37.448">
  <g id="Group_5562" data-name="Group 5562" transform="translate(-16.188 -930.5)">
    <g id="Group_5561" data-name="Group 5561">
      <g id="support_icon" data-name="support icon" transform="translate(16.188 930.5)">
        <g id="Polygon_Grey" data-name="Polygon Grey">
          <g id="röd">
            <path id="Path_641" data-name="Path 641" d="M31.647,5.155,41.808,23.034,31.647,40.913H11.325L1.164,23.034,11.325,5.155H31.647m.482-.845H10.843L.2,23.034,10.843,41.758H32.129L42.772,23.034Z" transform="translate(0.0 -4.31)" fill="#858585"/>

  <path id="ge-respons-feedback_1x" data-name="ge-respons-feedback@1x" d="M22.215,10.24a10.465,10.465,0,1,0,0,20.93,10.267,10.267,0,0,0,3.988-.79l-.039,3.365,3.862-6.113a10.481,10.481,0,0,0-7.811-17.376ZM16.3,22.75a2.061,2.061,0,1,1,2.053-2.069h0A2.069,2.069,0,0,1,16.3,22.75Zm5.923,0a2.061,2.061,0,1,1,2.046-2.077h0a2.061,2.061,0,0,1-2.053,2.077Zm5.923,0a2.061,2.061,0,1,1,2.046-2.069h0a2.069,2.069,0,0,1-2.046,2.069Z" transform="translate(-1 -1.94)" fill="#858585"/>


          </g>
        </g>
      </g>
    </g>
  </g>
</svg>
