<svg xmlns="http://www.w3.org/2000/svg" viewBox="0 0 64 64"><defs><style>.cls-1{fill:#858585;}.cls-2{fill:#444;}</style></defs><g id="Polygon_2" data-name="Polygon 2"><polygon class="cls-1" points="47.79 4.6 16.21 4.6 0.42 32.1 16.21 59.6 47.79 59.6 63.58 32.1 47.79 4.6"/></g><g id="Polygon_Grey" data-name="Polygon Grey"><g id="röd"><path class="cls-1" d="M47.18,5.56,62.36,32,47.18,58.44H16.82L1.64,32,16.82,5.56H47.18m.72-1.25H16.1L.2,32,16.1,59.69H47.9L63.8,32,47.9,4.31Z"/></g></g><g id="transport_2_kopia" data-name="transport 2 kopia"><path class="cls-2" d="M42.61,24.58H37.74V20.64H17V40.33h2.62a4.5,4.5,0,0,0,4.46,4A4.43,4.43,0,0,0,27.25,43a4.49,4.49,0,0,0,1.29-2.71h7.93a4.5,4.5,0,0,0,4.46,4A4.45,4.45,0,0,0,44.1,43a4.54,4.54,0,0,0,1.29-2.71H48V30.06A5.51,5.51,0,0,0,42.61,24.58ZM25.94,41.79a2.7,2.7,0,0,1-1.93.8,2.74,2.74,0,0,1-1.93-4.67,2.72,2.72,0,0,1,4.65,1.93A2.74,2.74,0,0,1,25.94,41.79Zm10-8.51H18.54v-11H35.93Zm6.93,8.51a2.7,2.7,0,0,1-1.93.8A2.74,2.74,0,0,1,39,37.92a2.72,2.72,0,0,1,4.65,1.93A2.74,2.74,0,0,1,42.86,41.79Zm2.75-8.51h-7.8V26.94h5.11a2.72,2.72,0,0,1,2.69,2.74Z"/></g></svg>
