<!-- <svg viewBox="0 0 95.272 102.47" xmlns="http://www.w3.org/2000/svg">
<g transform="matrix(10.833 0 0 10.833 -2005.9 -2574.5)">
<clipPath>
<path transform="matrix(1 0 0 -1 0 595.28)" d="m185.67 349.14h7.659v7.583h-7.659z"/>
</clipPath>
<g fill="#ea7928">
<path transform="matrix(1 0 0 -1 192.61 242.68)" d="m0 0c-0.08-0.83-0.479-1.579-1.122-2.108-0.643-0.53-1.454-0.778-2.284-0.698s-1.579 0.479-2.108 1.122c-1.095 1.328-0.904 3.299 0.424 4.393 0.564 0.464 1.257 0.712 1.978 0.712 0.102 0 0.204-5e-3 0.306-0.015 0.83-0.08 1.578-0.478 2.108-1.122 0.53-0.643 0.778-1.454 0.698-2.284m-0.21 2.685c-0.638 0.774-1.538 1.253-2.535 1.349-0.998 0.097-1.973-0.201-2.746-0.838-0.774-0.638-1.253-1.538-1.349-2.535-0.097-0.998 0.201-1.973 0.838-2.746 0.638-0.774 1.538-1.253 2.535-1.349 0.123-0.012 0.246-0.018 0.368-0.018 0.867 0 1.7 0.298 2.378 0.857 0.773 0.636 1.251 1.536 1.347 2.534 0.097 0.999-0.2 1.974-0.836 2.746"/>
<path transform="matrix(1 0 0 -1 191.45 243.4)" d="m0 0-0.072 0.334c-3e-3 0.013-0.011 0.023-0.022 0.029l-1.624 0.83v2.2c0 0.013-6e-3 0.024-0.015 0.032l-0.268 0.222c-0.016 0.013-0.038 0.013-0.053 0l-0.273-0.22c-0.01-8e-3 -0.016-0.019-0.016-0.032v-2.563c0-0.015 9e-3 -0.03 0.023-0.037l1.948-0.995c6e-3 -3e-3 0.012-4e-3 0.019-4e-3 6e-3 0 0.012 1e-3 0.018 4e-3l0.313 0.154c0.017 8e-3 0.026 0.027 0.022 0.046"/>
</g>
</g>
</svg> -->
<svg xmlns="http://www.w3.org/2000/svg" viewBox="0 0 64 64"><defs><style>.cls-1{fill:#858585;}.cls-2{fill:#858585;}</style></defs><g id="Polygon_Grey" data-name="Polygon Grey"><g id="röd"><path class="cls-1" d="M47.18,5.56,62.36,32,47.18,58.44H16.82L1.64,32,16.82,5.56H47.18m.72-1.25H16.1L.2,32,16.1,59.69H47.9L63.8,32,47.9,4.31Z"/></g></g><g id="timeraports"><path class="cls-2" d="M43.58,22.46a15,15,0,1,0-13,24.47A14.46,14.46,0,0,0,32,47,15,15,0,0,0,43.58,22.46Zm.84,10.74A12.47,12.47,0,1,1,32,19.52c.41,0,.81,0,1.22.06A12.49,12.49,0,0,1,44.42,33.2Z"/><path class="cls-2" d="M39.79,36.07l-.29-1.34a.17.17,0,0,0-.09-.11L32.92,31.3V22.5a.19.19,0,0,0-.07-.13l-1.07-.88a.17.17,0,0,0-.21,0l-1.09.88a.16.16,0,0,0-.06.13V32.74a.16.16,0,0,0,.09.15l7.79,4,.07,0,.08,0,1.25-.62A.17.17,0,0,0,39.79,36.07Z"/></g></svg>
