<svg xmlns="http://www.w3.org/2000/svg" xmlns:xlink="http://www.w3.org/1999/xlink" width="687.24" height="44.546" viewBox="0 0 687.24 44.546">
  <defs>
    <clipPath id="clip-path">
      <path id="Path_4619" data-name="Path 4619" d="M0,0H687.24V44.546H0Z" transform="translate(-2.502)" fill="none"/>
    </clipPath>
  </defs>
  <g id="Mask_Group_1" data-name="Mask Group 1" transform="translate(2.502)" clip-path="url(#clip-path)">
    <path id="Path_4514" data-name="Path 4514" d="M27.353,31.41,17.305,3.15C16.676,1.445,16.118.686,14.478.686h-.7c-1.829,0-2.444.794-3.059,2.464L.343,31.458l-.067.192A3.619,3.619,0,0,0,0,32.783a.855.855,0,0,0,.682.907,17.252,17.252,0,0,0,2.253.142c.847,0,1.1-.542,1.38-1.369l3.206-8.918H20.176l3.2,8.915c.255.751.539,1.372,1.425,1.372a9.953,9.953,0,0,0,2.3-.157.9.9,0,0,0,.587-.891,3.634,3.634,0,0,0-.343-1.372M19.047,19.936H8.652c3.136-8.678,4.295-12.079,5.265-14.964l.33.992c.919,2.756,2.059,6.173,4.8,13.972" transform="translate(0 0.382)" fill="gray"/>
    <path id="Path_4515" data-name="Path 4515" d="M27.149,40.426H25.712c-.628,0-.808-.224-.808-.9V11.8a4.921,4.921,0,0,1,.226-1.885A2.757,2.757,0,0,1,26.476,8.7,23.012,23.012,0,0,1,35.092,7.04c6.058,0,8.661,2.826,8.661,11.263,0,9.873-3.41,12.205-10.591,12.205a13.6,13.6,0,0,1-5.069-.9v9.917c0,.629-.316.9-.944.9m1.706-13.462a11.741,11.741,0,0,0,4.173.673c6.013,0,7.494-2.154,7.494-9.155,0-5.834-.988-8.526-5.834-8.526a16.052,16.052,0,0,0-5.564.941,1.465,1.465,0,0,0-.854.765,3.593,3.593,0,0,0-.178,1.391V25.347c0,1.078.223,1.391.762,1.617" transform="translate(13.891 3.926)" fill="gray"/>
    <path id="Path_4516" data-name="Path 4516" d="M27.149,40.426H25.712c-.628,0-.808-.224-.808-.9V11.8a4.921,4.921,0,0,1,.226-1.885A2.757,2.757,0,0,1,26.476,8.7,23.012,23.012,0,0,1,35.092,7.04c6.058,0,8.661,2.826,8.661,11.263,0,9.873-3.41,12.205-10.591,12.205a13.6,13.6,0,0,1-5.069-.9v9.917C28.093,40.157,27.777,40.426,27.149,40.426Zm1.706-13.462a11.741,11.741,0,0,0,4.173.673c6.013,0,7.494-2.154,7.494-9.155,0-5.834-.988-8.526-5.834-8.526a16.052,16.052,0,0,0-5.564.941,1.465,1.465,0,0,0-.854.765,3.593,3.593,0,0,0-.178,1.391V25.347C28.093,26.425,28.316,26.738,28.855,26.964Z" transform="translate(13.891 3.926)" fill="none" stroke="gray" stroke-miterlimit="10" stroke-width="0.25"/>
    <path id="Path_4517" data-name="Path 4517" d="M43.049,30.016H41.567c-.626,0-.852-.315-.852-.9V11.8A2.749,2.749,0,0,1,41.7,9.236c1.122-.985,4.891-2.2,7.853-2.2a14.608,14.608,0,0,1,2.2.179.646.646,0,0,1,.584.673A11.641,11.641,0,0,1,52.2,9.553a.735.735,0,0,1-.763.583c-.313,0-1.391-.09-1.883-.09a10.042,10.042,0,0,0-4.669.989,1.642,1.642,0,0,0-.762.718,2.545,2.545,0,0,0-.224,1.3V29.117c0,.539-.179.9-.854.9" transform="translate(22.71 3.926)" fill="gray"/>
    <path id="Path_4518" data-name="Path 4518" d="M43.049,30.016H41.567c-.626,0-.852-.315-.852-.9V11.8A2.749,2.749,0,0,1,41.7,9.236c1.122-.985,4.891-2.2,7.853-2.2a14.608,14.608,0,0,1,2.2.179.646.646,0,0,1,.584.673A11.641,11.641,0,0,1,52.2,9.553a.735.735,0,0,1-.763.583c-.313,0-1.391-.09-1.883-.09a10.042,10.042,0,0,0-4.669.989,1.642,1.642,0,0,0-.762.718,2.545,2.545,0,0,0-.224,1.3V29.117C43.9,29.656,43.723,30.016,43.049,30.016Z" transform="translate(22.71 3.926)" fill="none" stroke="gray" stroke-miterlimit="10" stroke-width="0.25"/>
    <path id="Path_4519" data-name="Path 4519" d="M59.289,30.54c-6.686,0-9.647-2.332-9.647-11.8,0-9.738,4.13-11.758,9.964-11.758,6.6,0,9.647,1.572,9.647,11.623,0,9.423-3.008,11.936-9.964,11.936M59.515,9.9c-4.218,0-6.642,1.438-6.642,8.706,0,7.762,1.93,9.065,6.507,9.065,4.352,0,6.6-.988,6.6-8.886,0-7.585-1.657-8.886-6.46-8.886" transform="translate(27.689 3.894)" fill="gray"/>
    <path id="Path_4520" data-name="Path 4520" d="M59.289,30.54c-6.686,0-9.647-2.332-9.647-11.8,0-9.738,4.13-11.758,9.964-11.758,6.6,0,9.647,1.572,9.647,11.623C69.253,28.028,66.245,30.54,59.289,30.54ZM59.515,9.9c-4.218,0-6.642,1.438-6.642,8.706,0,7.762,1.93,9.065,6.507,9.065,4.352,0,6.6-.988,6.6-8.886C65.975,11.2,64.318,9.9,59.515,9.9Z" transform="translate(27.689 3.894)" fill="none" stroke="gray" stroke-miterlimit="10" stroke-width="0.25"/>
    <path id="Path_4521" data-name="Path 4521" d="M76.553,33.873H75.026c-.537,0-.852-.226-.852-.942V14.307H71.3c-.583,0-.805-.268-.805-.807V12.332c0-.539.223-.9.852-.9h2.826V9.146c0-3.591,1.031-5.474,2.288-6.6C78.034,1.113,80.143.125,86.156.125a21.926,21.926,0,0,1,3.276.226c.671.09.988.313.988,1.078V27.59A4.492,4.492,0,0,0,91,30.237a3.49,3.49,0,0,0,2.422,1.076.673.673,0,0,1,.718.763,5.418,5.418,0,0,1-.179,1.347c-.09.358-.358.539-.9.539-3.052,0-4.443-1.033-5.163-2.246a7.675,7.675,0,0,1-.671-3.723V3.088C86.694,3.043,85.572,3,84.9,3c-3.86,0-5.295.675-6.283,1.8-.629.718-1.212,1.974-1.212,4.352v2.29h5.161a.713.713,0,0,1,.808.805v1.3c0,.449-.179.763-.808.763H77.4V32.974a.791.791,0,0,1-.852.9" transform="translate(39.322 0.069)" fill="gray"/>
    <path id="Path_4522" data-name="Path 4522" d="M76.553,33.873H75.026c-.537,0-.852-.226-.852-.942V14.307H71.3c-.583,0-.805-.268-.805-.807V12.332c0-.539.223-.9.852-.9h2.826V9.146c0-3.591,1.031-5.474,2.288-6.6C78.034,1.113,80.143.125,86.156.125a21.926,21.926,0,0,1,3.276.226c.671.09.988.313.988,1.078V27.59A4.492,4.492,0,0,0,91,30.237a3.49,3.49,0,0,0,2.422,1.076.673.673,0,0,1,.718.763,5.418,5.418,0,0,1-.179,1.347c-.09.358-.358.539-.9.539-3.052,0-4.443-1.033-5.163-2.246a7.675,7.675,0,0,1-.671-3.723V3.088C86.694,3.043,85.572,3,84.9,3c-3.86,0-5.295.675-6.283,1.8-.629.718-1.212,1.974-1.212,4.352v2.29h5.161a.713.713,0,0,1,.808.805v1.3c0,.449-.179.763-.808.763H77.4V32.974A.791.791,0,0,1,76.553,33.873Z" transform="translate(39.322 0.069)" fill="none" stroke="gray" stroke-miterlimit="10" stroke-width="0.25"/>
    <path id="Path_4523" data-name="Path 4523" d="M97.163,30.54c-6.686,0-9.647-2.332-9.647-11.8,0-9.738,4.13-11.758,9.964-11.758,6.6,0,9.647,1.572,9.647,11.623,0,9.423-3.008,11.936-9.964,11.936M97.389,9.9c-4.22,0-6.642,1.438-6.642,8.706,0,7.762,1.93,9.065,6.507,9.065,4.352,0,6.6-.988,6.6-8.886,0-7.585-1.657-8.886-6.46-8.886" transform="translate(48.815 3.894)" fill="gray"/>
    <path id="Path_4524" data-name="Path 4524" d="M97.163,30.54c-6.686,0-9.647-2.332-9.647-11.8,0-9.738,4.13-11.758,9.964-11.758,6.6,0,9.647,1.572,9.647,11.623C107.127,28.028,104.119,30.54,97.163,30.54ZM97.389,9.9c-4.22,0-6.642,1.438-6.642,8.706,0,7.762,1.93,9.065,6.507,9.065,4.352,0,6.6-.988,6.6-8.886C103.849,11.2,102.192,9.9,97.389,9.9Z" transform="translate(48.815 3.894)" fill="none" stroke="gray" stroke-miterlimit="10" stroke-width="0.25"/>
    <path id="Path_4525" data-name="Path 4525" d="M112.494,28.255a1.94,1.94,0,0,1-2.156,1.661h-.673A1.9,1.9,0,0,1,107.6,28.3L102.082,9.228a5.068,5.068,0,0,1-.223-1.076.656.656,0,0,1,.626-.717,14.92,14.92,0,0,1,1.93-.137c.494,0,.718.226.944,1.033,3.454,12.3,4.127,14.855,4.979,18.22.9-3.142,1.527-5.564,5.029-16.29.447-1.391.941-1.84,1.974-1.84h.492c1.031,0,1.527.315,2.02,1.749,3.723,10.859,4.486,13.193,5.384,16.38.763-3.231,1.481-6.194,4.667-18.084.226-.808.405-1.168.988-1.168a9.612,9.612,0,0,1,1.84.137.62.62,0,0,1,.539.626A7.2,7.2,0,0,1,133,9.318l-5.2,18.846c-.316,1.078-.855,1.751-2.066,1.751h-.763c-1.3,0-1.749-.583-2.109-1.661-4.262-12.743-4.756-14.181-5.295-16.064-.492,1.883-1.031,3.41-5.069,16.064" transform="translate(56.815 4.07)" fill="gray"/>
    <path id="Path_4526" data-name="Path 4526" d="M112.494,28.255a1.94,1.94,0,0,1-2.156,1.661h-.673A1.9,1.9,0,0,1,107.6,28.3L102.082,9.228a5.068,5.068,0,0,1-.223-1.076.656.656,0,0,1,.626-.717,14.92,14.92,0,0,1,1.93-.137c.494,0,.718.226.944,1.033,3.454,12.3,4.127,14.855,4.979,18.22.9-3.142,1.527-5.564,5.029-16.29.447-1.391.941-1.84,1.974-1.84h.492c1.031,0,1.527.315,2.02,1.749,3.723,10.859,4.486,13.193,5.384,16.38.763-3.231,1.481-6.194,4.667-18.084.226-.808.405-1.168.988-1.168a9.612,9.612,0,0,1,1.84.137.62.62,0,0,1,.539.626A7.2,7.2,0,0,1,133,9.318l-5.2,18.846c-.316,1.078-.855,1.751-2.066,1.751h-.763c-1.3,0-1.749-.583-2.109-1.661-4.262-12.743-4.756-14.181-5.295-16.064C117.071,14.074,116.532,15.6,112.494,28.255Z" transform="translate(56.815 4.07)" fill="none" stroke="gray" stroke-miterlimit="10" stroke-width="0.25"/>
    <path id="Path_4527" data-name="Path 4527" d="M133.166,30.016h-1.481c-.626,0-.852-.315-.852-.9V11.526A2.434,2.434,0,0,1,132.18,8.97a25.135,25.135,0,0,1,9.647-1.93c3.365,0,4.756,1.031,5.476,2.243,1.84-1.57,5.43-2.243,8.886-2.243,3.857,0,5.25.986,5.923,2.735a13.68,13.68,0,0,1,.4,4.4V29.117c0,.539-.134.9-.808.9h-1.525c-.628,0-.852-.315-.852-.9V14.757a11.016,11.016,0,0,0-.315-3.1c-.4-1.122-1.076-1.706-3.815-1.706a14,14,0,0,0-5.834,1.167,2.273,2.273,0,0,0-.852.673,2.163,2.163,0,0,0-.223,1.078c0,.269.044,1.435.044,1.795V29.117c0,.539-.179.9-.852.9h-1.527c-.626,0-.852-.315-.852-.9V14.578a9.958,9.958,0,0,0-.313-2.916c-.45-1.122-1.078-1.706-3.77-1.706a13.4,13.4,0,0,0-5.834,1.031,2.3,2.3,0,0,0-.9.718,2.5,2.5,0,0,0-.268,1.438V29.117c0,.539-.179.9-.854.9" transform="translate(72.976 3.926)" fill="gray"/>
    <path id="Path_4528" data-name="Path 4528" d="M133.166,30.016h-1.481c-.626,0-.852-.315-.852-.9V11.526A2.434,2.434,0,0,1,132.18,8.97a25.135,25.135,0,0,1,9.647-1.93c3.365,0,4.756,1.031,5.476,2.243,1.84-1.57,5.43-2.243,8.886-2.243,3.857,0,5.25.986,5.923,2.735a13.68,13.68,0,0,1,.4,4.4V29.117c0,.539-.134.9-.808.9h-1.525c-.628,0-.852-.315-.852-.9V14.757a11.016,11.016,0,0,0-.315-3.1c-.4-1.122-1.076-1.706-3.815-1.706a14,14,0,0,0-5.834,1.167,2.273,2.273,0,0,0-.852.673,2.163,2.163,0,0,0-.223,1.078c0,.269.044,1.435.044,1.795V29.117c0,.539-.179.9-.852.9h-1.527c-.626,0-.852-.315-.852-.9V14.578a9.958,9.958,0,0,0-.313-2.916c-.45-1.122-1.078-1.706-3.77-1.706a13.4,13.4,0,0,0-5.834,1.031,2.3,2.3,0,0,0-.9.718,2.5,2.5,0,0,0-.268,1.438V29.117C134.019,29.656,133.84,30.016,133.166,30.016Z" transform="translate(72.976 3.926)" fill="none" stroke="gray" stroke-miterlimit="10" stroke-width="0.25"/>
    <path id="Path_4529" data-name="Path 4529" d="M172,28.071a2.8,2.8,0,0,1-1.21,1.034,20.6,20.6,0,0,1-8.211,1.435c-6.463,0-7.811-3.365-7.811-7.135,0-2.693.852-4.264,2.6-5.295a15.191,15.191,0,0,1,6.912-1.259,41.55,41.55,0,0,1,4.935.226v-2.2a9.01,9.01,0,0,0-.358-3.1c-.4-1.034-1.3-1.886-4.756-1.886a24.516,24.516,0,0,0-4.846.586,14.033,14.033,0,0,1-1.8.357.623.623,0,0,1-.626-.536,5.219,5.219,0,0,1-.269-1.391.863.863,0,0,1,.715-.855,26.559,26.559,0,0,1,7.362-1.075c3.365,0,5.2.449,6.326,1.614,1.167,1.168,1.436,2.961,1.436,5.834V26.188a3.527,3.527,0,0,1-.4,1.883m-7.4-8.616c-2.735,0-4.4.269-5.474.944-.809.537-1.212,1.435-1.212,2.961,0,2.558.852,4.486,5.161,4.486a14.34,14.34,0,0,0,5.025-.762,1.558,1.558,0,0,0,.9-.762,3.928,3.928,0,0,0,.223-1.527V19.634c-1.031-.089-3-.179-4.622-.179" transform="translate(86.325 3.894)" fill="gray"/>
    <path id="Path_4530" data-name="Path 4530" d="M172,28.071a2.8,2.8,0,0,1-1.21,1.034,20.6,20.6,0,0,1-8.211,1.435c-6.463,0-7.811-3.365-7.811-7.135,0-2.693.852-4.264,2.6-5.295a15.191,15.191,0,0,1,6.912-1.259,41.55,41.55,0,0,1,4.935.226v-2.2a9.01,9.01,0,0,0-.358-3.1c-.4-1.034-1.3-1.886-4.756-1.886a24.516,24.516,0,0,0-4.846.586,14.033,14.033,0,0,1-1.8.357.623.623,0,0,1-.626-.536,5.219,5.219,0,0,1-.269-1.391.863.863,0,0,1,.715-.855,26.559,26.559,0,0,1,7.362-1.075c3.365,0,5.2.449,6.326,1.614,1.167,1.168,1.436,2.961,1.436,5.834V26.188A3.527,3.527,0,0,1,172,28.071Zm-7.4-8.616c-2.735,0-4.4.269-5.474.944-.809.537-1.212,1.435-1.212,2.961,0,2.558.852,4.486,5.161,4.486a14.34,14.34,0,0,0,5.025-.762,1.558,1.558,0,0,0,.9-.762,3.928,3.928,0,0,0,.223-1.527V19.634C168.183,19.546,166.209,19.455,164.592,19.455Z" transform="translate(86.325 3.894)" fill="none" stroke="gray" stroke-miterlimit="10" stroke-width="0.25"/>
    <path id="Path_4531" data-name="Path 4531" d="M202.987,28.071a2.8,2.8,0,0,1-1.21,1.034,20.6,20.6,0,0,1-8.211,1.435c-6.463,0-7.811-3.365-7.811-7.135,0-2.693.852-4.264,2.6-5.295a15.191,15.191,0,0,1,6.912-1.259,41.551,41.551,0,0,1,4.935.226v-2.2a9.009,9.009,0,0,0-.358-3.1c-.4-1.034-1.3-1.886-4.756-1.886a24.516,24.516,0,0,0-4.846.586,14.032,14.032,0,0,1-1.8.357.623.623,0,0,1-.626-.536,5.219,5.219,0,0,1-.27-1.391.863.863,0,0,1,.715-.855,26.559,26.559,0,0,1,7.362-1.075c3.365,0,5.2.449,6.326,1.614,1.167,1.168,1.436,2.961,1.436,5.834V26.188a3.527,3.527,0,0,1-.4,1.883m-7.4-8.616c-2.735,0-4.4.269-5.474.944-.808.537-1.212,1.435-1.212,2.961,0,2.558.852,4.486,5.161,4.486a14.34,14.34,0,0,0,5.025-.762,1.558,1.558,0,0,0,.9-.762,3.928,3.928,0,0,0,.223-1.527V19.634c-1.031-.089-3-.179-4.622-.179" transform="translate(103.611 3.894)" fill="gray"/>
    <path id="Path_4532" data-name="Path 4532" d="M202.987,28.071a2.8,2.8,0,0,1-1.21,1.034,20.6,20.6,0,0,1-8.211,1.435c-6.463,0-7.811-3.365-7.811-7.135,0-2.693.852-4.264,2.6-5.295a15.191,15.191,0,0,1,6.912-1.259,41.551,41.551,0,0,1,4.935.226v-2.2a9.009,9.009,0,0,0-.358-3.1c-.4-1.034-1.3-1.886-4.756-1.886a24.516,24.516,0,0,0-4.846.586,14.032,14.032,0,0,1-1.8.357.623.623,0,0,1-.626-.536,5.219,5.219,0,0,1-.27-1.391.863.863,0,0,1,.715-.855,26.559,26.559,0,0,1,7.362-1.075c3.365,0,5.2.449,6.326,1.614,1.167,1.168,1.436,2.961,1.436,5.834V26.188A3.527,3.527,0,0,1,202.987,28.071Zm-7.4-8.616c-2.735,0-4.4.269-5.474.944-.808.537-1.212,1.435-1.212,2.961,0,2.558.852,4.486,5.161,4.486a14.34,14.34,0,0,0,5.025-.762,1.558,1.558,0,0,0,.9-.762,3.928,3.928,0,0,0,.223-1.527V19.634C199.174,19.546,197.2,19.455,195.583,19.455Z" transform="translate(103.611 3.894)" fill="none" stroke="gray" stroke-miterlimit="10" stroke-width="0.25"/>
    <path id="Path_4533" data-name="Path 4533" d="M172.967,30.016h-1.481c-.626,0-.852-.315-.852-.9V11.573c0-1.572.583-2.246,1.391-2.6a26.249,26.249,0,0,1,10.007-1.93c4.084,0,5.564.986,6.239,2.735a15.1,15.1,0,0,1,.4,4.4V29.117c0,.539-.136.9-.852.9H186.34c-.628,0-.852-.315-.852-.9V14.757a13.111,13.111,0,0,0-.315-3.1c-.4-1.122-1.3-1.706-4.038-1.706a15.785,15.785,0,0,0-6.194,1.031,2.393,2.393,0,0,0-.854.675,2.766,2.766,0,0,0-.268,1.346V29.117c0,.539-.179.9-.854.9" transform="translate(95.176 3.926)" fill="gray"/>
    <path id="Path_4534" data-name="Path 4534" d="M172.967,30.016h-1.481c-.626,0-.852-.315-.852-.9V11.573c0-1.572.583-2.246,1.391-2.6a26.249,26.249,0,0,1,10.007-1.93c4.084,0,5.564.986,6.239,2.735a15.1,15.1,0,0,1,.4,4.4V29.117c0,.539-.136.9-.852.9H186.34c-.628,0-.852-.315-.852-.9V14.757a13.111,13.111,0,0,0-.315-3.1c-.4-1.122-1.3-1.706-4.038-1.706a15.785,15.785,0,0,0-6.194,1.031,2.393,2.393,0,0,0-.854.675,2.766,2.766,0,0,0-.268,1.346V29.117C173.82,29.656,173.641,30.016,172.967,30.016Z" transform="translate(95.176 3.926)" fill="none" stroke="gray" stroke-miterlimit="10" stroke-width="0.25"/>
    <path id="Path_4535" data-name="Path 4535" d="M210,30.481c-6.192,0-9.065-2.827-9.065-11.221,0-9.467,3.231-12.249,10.367-12.249a25.489,25.489,0,0,1,7.044.852A1.675,1.675,0,0,1,219.7,9.7V29.089a18.964,18.964,0,0,1-.675,5.61c-1.3,4.128-6.507,5.744-13.821,5.744-.72,0-1.033-.134-1.122-.629-.044-.4-.044-.986-.044-1.3,0-.539.266-.942.805-.942,7.63-.223,9.828-1.48,10.816-3.454a8.435,8.435,0,0,0,.718-3.9v-.989c-1.347.9-3.591,1.257-6.373,1.257m6.507-18.712c0-.854-.27-1.168-.762-1.347a16.006,16.006,0,0,0-4.443-.492c-5.968,0-7.136,2.692-7.136,9.108,0,5.79,1.259,8.616,5.968,8.616a14.89,14.89,0,0,0,5.3-.808,1.575,1.575,0,0,0,.941-.805A3.015,3.015,0,0,0,216.511,25Z" transform="translate(112.08 3.91)" fill="gray"/>
    <path id="Path_4536" data-name="Path 4536" d="M210,30.481c-6.192,0-9.065-2.827-9.065-11.221,0-9.467,3.231-12.249,10.367-12.249a25.489,25.489,0,0,1,7.044.852A1.675,1.675,0,0,1,219.7,9.7V29.089a18.964,18.964,0,0,1-.675,5.61c-1.3,4.128-6.507,5.744-13.821,5.744-.72,0-1.033-.134-1.122-.629-.044-.4-.044-.986-.044-1.3,0-.539.266-.942.805-.942,7.63-.223,9.828-1.48,10.816-3.454a8.435,8.435,0,0,0,.718-3.9v-.989C215.029,30.122,212.786,30.481,210,30.481Zm6.507-18.712c0-.854-.27-1.168-.762-1.347a16.006,16.006,0,0,0-4.443-.492c-5.968,0-7.136,2.692-7.136,9.108,0,5.79,1.259,8.616,5.968,8.616a14.89,14.89,0,0,0,5.3-.808,1.575,1.575,0,0,0,.941-.805A3.015,3.015,0,0,0,216.511,25Z" transform="translate(112.08 3.91)" fill="none" stroke="gray" stroke-miterlimit="10" stroke-width="0.25"/>
    <path id="Path_4537" data-name="Path 4537" d="M227.225,27.668a18.226,18.226,0,0,0,5.25-.671,4.363,4.363,0,0,1,1.168-.226.679.679,0,0,1,.629.449,5.4,5.4,0,0,1,.357,1.391c0,.36-.181.586-.717.808a19.51,19.51,0,0,1-7.046,1.122c-7.54,0-10.232-3.544-10.232-11.711,0-8.482,3.544-11.847,10.143-11.847,7.627,0,8.39,4.533,8.39,11.082,0,.765-.044,1.125-.313,1.347a1.338,1.338,0,0,1-.9.269h-14c.045,6.6,2.648,7.987,7.269,7.987m4.757-10.635a8.909,8.909,0,0,0,.044-1.122c0-3.725-.9-6.1-5.474-6.1-5.025,0-6.463,2.873-6.6,7.225Z" transform="translate(120.835 3.894)" fill="gray"/>
    <path id="Path_4538" data-name="Path 4538" d="M227.225,27.668a18.226,18.226,0,0,0,5.25-.671,4.363,4.363,0,0,1,1.168-.226.679.679,0,0,1,.629.449,5.4,5.4,0,0,1,.357,1.391c0,.36-.181.586-.717.808a19.51,19.51,0,0,1-7.046,1.122c-7.54,0-10.232-3.544-10.232-11.711,0-8.482,3.544-11.847,10.143-11.847,7.627,0,8.39,4.533,8.39,11.082,0,.765-.044,1.125-.313,1.347a1.338,1.338,0,0,1-.9.269h-14C220,26.278,222.6,27.668,227.225,27.668Zm4.757-10.635a8.909,8.909,0,0,0,.044-1.122c0-3.725-.9-6.1-5.474-6.1-5.025,0-6.463,2.873-6.6,7.225Z" transform="translate(120.835 3.894)" fill="none" stroke="gray" stroke-miterlimit="10" stroke-width="0.25"/>
    <path id="Path_4539" data-name="Path 4539" d="M234.464,30.016h-1.481c-.626,0-.852-.315-.852-.9V11.526a2.434,2.434,0,0,1,1.347-2.556,25.136,25.136,0,0,1,9.647-1.93c3.365,0,4.756,1.031,5.476,2.243,1.84-1.57,5.43-2.243,8.886-2.243,3.857,0,5.25.986,5.923,2.735a13.68,13.68,0,0,1,.4,4.4V29.117c0,.539-.134.9-.808.9h-1.525c-.628,0-.852-.315-.852-.9V14.757a11.016,11.016,0,0,0-.315-3.1c-.4-1.122-1.076-1.706-3.815-1.706a14,14,0,0,0-5.834,1.167,2.273,2.273,0,0,0-.852.673,2.163,2.163,0,0,0-.223,1.078c0,.269.044,1.435.044,1.795V29.117c0,.539-.179.9-.852.9h-1.527c-.626,0-.852-.315-.852-.9V14.578a9.958,9.958,0,0,0-.313-2.916c-.45-1.122-1.078-1.706-3.77-1.706a13.4,13.4,0,0,0-5.834,1.031,2.3,2.3,0,0,0-.9.718,2.5,2.5,0,0,0-.268,1.438V29.117c0,.539-.179.9-.854.9" transform="translate(129.478 3.926)" fill="gray"/>
    <path id="Path_4540" data-name="Path 4540" d="M234.464,30.016h-1.481c-.626,0-.852-.315-.852-.9V11.526a2.434,2.434,0,0,1,1.347-2.556,25.136,25.136,0,0,1,9.647-1.93c3.365,0,4.756,1.031,5.476,2.243,1.84-1.57,5.43-2.243,8.886-2.243,3.857,0,5.25.986,5.923,2.735a13.68,13.68,0,0,1,.4,4.4V29.117c0,.539-.134.9-.808.9h-1.525c-.628,0-.852-.315-.852-.9V14.757a11.016,11.016,0,0,0-.315-3.1c-.4-1.122-1.076-1.706-3.815-1.706a14,14,0,0,0-5.834,1.167,2.273,2.273,0,0,0-.852.673,2.163,2.163,0,0,0-.223,1.078c0,.269.044,1.435.044,1.795V29.117c0,.539-.179.9-.852.9h-1.527c-.626,0-.852-.315-.852-.9V14.578a9.958,9.958,0,0,0-.313-2.916c-.45-1.122-1.078-1.706-3.77-1.706a13.4,13.4,0,0,0-5.834,1.031,2.3,2.3,0,0,0-.9.718,2.5,2.5,0,0,0-.268,1.438V29.117C235.317,29.656,235.138,30.016,234.464,30.016Z" transform="translate(129.478 3.926)" fill="none" stroke="gray" stroke-miterlimit="10" stroke-width="0.25"/>
    <path id="Path_4541" data-name="Path 4541" d="M266.711,27.668a18.226,18.226,0,0,0,5.25-.671,4.363,4.363,0,0,1,1.168-.226.679.679,0,0,1,.629.449,5.4,5.4,0,0,1,.357,1.391c0,.36-.181.586-.717.808a19.51,19.51,0,0,1-7.046,1.122c-7.54,0-10.232-3.544-10.232-11.711,0-8.482,3.544-11.847,10.143-11.847,7.627,0,8.39,4.533,8.39,11.082,0,.765-.044,1.125-.313,1.347a1.338,1.338,0,0,1-.9.269h-14c.045,6.6,2.648,7.987,7.269,7.987m4.757-10.635a8.9,8.9,0,0,0,.044-1.122c0-3.725-.9-6.1-5.474-6.1-5.025,0-6.463,2.873-6.6,7.225Z" transform="translate(142.86 3.894)" fill="gray"/>
    <path id="Path_4542" data-name="Path 4542" d="M266.711,27.668a18.226,18.226,0,0,0,5.25-.671,4.363,4.363,0,0,1,1.168-.226.679.679,0,0,1,.629.449,5.4,5.4,0,0,1,.357,1.391c0,.36-.181.586-.717.808a19.51,19.51,0,0,1-7.046,1.122c-7.54,0-10.232-3.544-10.232-11.711,0-8.482,3.544-11.847,10.143-11.847,7.627,0,8.39,4.533,8.39,11.082,0,.765-.044,1.125-.313,1.347a1.338,1.338,0,0,1-.9.269h-14C259.487,26.278,262.09,27.668,266.711,27.668Zm4.757-10.635a8.9,8.9,0,0,0,.044-1.122c0-3.725-.9-6.1-5.474-6.1-5.025,0-6.463,2.873-6.6,7.225Z" transform="translate(142.86 3.894)" fill="none" stroke="gray" stroke-miterlimit="10" stroke-width="0.25"/>
    <path id="Path_4543" data-name="Path 4543" d="M375.492,27.668a18.226,18.226,0,0,0,5.25-.671,4.363,4.363,0,0,1,1.168-.226.679.679,0,0,1,.629.449,5.4,5.4,0,0,1,.357,1.391c0,.36-.181.586-.717.808a19.51,19.51,0,0,1-7.046,1.122c-7.54,0-10.232-3.544-10.232-11.711,0-8.482,3.544-11.847,10.143-11.847,7.627,0,8.39,4.533,8.39,11.082,0,.765-.044,1.125-.313,1.347a1.338,1.338,0,0,1-.9.269h-14c.045,6.6,2.648,7.987,7.269,7.987m4.757-10.635a8.9,8.9,0,0,0,.044-1.122c0-3.725-.9-6.1-5.474-6.1-5.025,0-6.463,2.873-6.6,7.225Z" transform="translate(203.536 3.894)" fill="gray"/>
    <path id="Path_4544" data-name="Path 4544" d="M375.492,27.668a18.226,18.226,0,0,0,5.25-.671,4.363,4.363,0,0,1,1.168-.226.679.679,0,0,1,.629.449,5.4,5.4,0,0,1,.357,1.391c0,.36-.181.586-.717.808a19.51,19.51,0,0,1-7.046,1.122c-7.54,0-10.232-3.544-10.232-11.711,0-8.482,3.544-11.847,10.143-11.847,7.627,0,8.39,4.533,8.39,11.082,0,.765-.044,1.125-.313,1.347a1.338,1.338,0,0,1-.9.269h-14C368.268,26.278,370.871,27.668,375.492,27.668Zm4.757-10.635a8.9,8.9,0,0,0,.044-1.122c0-3.725-.9-6.1-5.474-6.1-5.025,0-6.463,2.873-6.6,7.225Z" transform="translate(203.536 3.894)" fill="none" stroke="gray" stroke-miterlimit="10" stroke-width="0.25"/>
    <path id="Path_4545" data-name="Path 4545" d="M273.949,30.016h-1.482c-.626,0-.852-.315-.852-.9V11.573c0-1.572.583-2.246,1.391-2.6a26.249,26.249,0,0,1,10.007-1.93c4.085,0,5.564.986,6.239,2.735a15.1,15.1,0,0,1,.4,4.4V29.117c0,.539-.136.9-.852.9h-1.481c-.628,0-.854-.315-.854-.9V14.757a13.124,13.124,0,0,0-.313-3.1c-.4-1.122-1.3-1.706-4.038-1.706a15.785,15.785,0,0,0-6.194,1.031,2.393,2.393,0,0,0-.854.675,2.766,2.766,0,0,0-.268,1.346V29.117c0,.539-.179.9-.854.9" transform="translate(151.502 3.926)" fill="gray"/>
    <path id="Path_4546" data-name="Path 4546" d="M273.949,30.016h-1.482c-.626,0-.852-.315-.852-.9V11.573c0-1.572.583-2.246,1.391-2.6a26.249,26.249,0,0,1,10.007-1.93c4.085,0,5.564.986,6.239,2.735a15.1,15.1,0,0,1,.4,4.4V29.117c0,.539-.136.9-.852.9h-1.481c-.628,0-.854-.315-.854-.9V14.757a13.124,13.124,0,0,0-.313-3.1c-.4-1.122-1.3-1.706-4.038-1.706a15.785,15.785,0,0,0-6.194,1.031,2.393,2.393,0,0,0-.854.675,2.766,2.766,0,0,0-.268,1.346V29.117C274.8,29.656,274.623,30.016,273.949,30.016Z" transform="translate(151.502 3.926)" fill="none" stroke="gray" stroke-miterlimit="10" stroke-width="0.25"/>
    <path id="Path_4547" data-name="Path 4547" d="M401.821,30.016h-1.481c-.626,0-.852-.315-.852-.9V11.573c0-1.572.583-2.246,1.391-2.6a26.249,26.249,0,0,1,10.007-1.93c4.085,0,5.564.986,6.239,2.735a15.1,15.1,0,0,1,.4,4.4V29.117c0,.539-.136.9-.852.9h-1.481c-.628,0-.854-.315-.854-.9V14.757a13.126,13.126,0,0,0-.313-3.1c-.4-1.122-1.3-1.706-4.038-1.706a15.784,15.784,0,0,0-6.194,1.031,2.379,2.379,0,0,0-.854.675,2.766,2.766,0,0,0-.268,1.346V29.117c0,.539-.179.9-.854.9" transform="translate(222.827 3.926)" fill="gray"/>
    <path id="Path_4548" data-name="Path 4548" d="M401.821,30.016h-1.481c-.626,0-.852-.315-.852-.9V11.573c0-1.572.583-2.246,1.391-2.6a26.249,26.249,0,0,1,10.007-1.93c4.085,0,5.564.986,6.239,2.735a15.1,15.1,0,0,1,.4,4.4V29.117c0,.539-.136.9-.852.9h-1.481c-.628,0-.854-.315-.854-.9V14.757a13.126,13.126,0,0,0-.313-3.1c-.4-1.122-1.3-1.706-4.038-1.706a15.784,15.784,0,0,0-6.194,1.031,2.379,2.379,0,0,0-.854.675,2.766,2.766,0,0,0-.268,1.346V29.117C402.674,29.656,402.5,30.016,401.821,30.016Z" transform="translate(222.827 3.926)" fill="none" stroke="gray" stroke-miterlimit="10" stroke-width="0.25"/>
    <path id="Path_4549" data-name="Path 4549" d="M293.757,27.7c.718,1.168,2.2,1.617,5.027,1.751.537.045.763.269.763.808,0,.358-.047.941-.09,1.344-.045.5-.313.675-.942.675-3.679,0-5.789-.449-7.27-2.2-1.075-1.347-1.435-3.231-1.435-6.642V12.444h-2.918a.721.721,0,0,1-.763-.808V10.467a.812.812,0,0,1,.852-.9h2.873s0-1.391.135-5.117c.044-.583.27-.986.763-.986h1.524c.539,0,.765.313.765.986V9.571h5.025c.583,0,.942.268.942.852v1.165c0,.629-.4.855-.942.855h-5.025V23.616c0,2.243.27,3.365.717,4.083" transform="translate(159.598 1.934)" fill="gray"/>
    <path id="Path_4550" data-name="Path 4550" d="M293.757,27.7c.718,1.168,2.2,1.617,5.027,1.751.537.045.763.269.763.808,0,.358-.047.941-.09,1.344-.045.5-.313.675-.942.675-3.679,0-5.789-.449-7.27-2.2-1.075-1.347-1.435-3.231-1.435-6.642V12.444h-2.918a.721.721,0,0,1-.763-.808V10.467a.812.812,0,0,1,.852-.9h2.873s0-1.391.135-5.117c.044-.583.27-.986.763-.986h1.524c.539,0,.765.313.765.986V9.571h5.025c.583,0,.942.268.942.852v1.165c0,.629-.4.855-.942.855h-5.025V23.616C293.041,25.86,293.31,26.981,293.757,27.7Z" transform="translate(159.598 1.934)" fill="none" stroke="gray" stroke-miterlimit="10" stroke-width="0.25"/>
    <path id="Path_4551" data-name="Path 4551" d="M303.21,1.126c0-.584.27-.944.852-.944h1.528c.671,0,.807.316.807.944V12.884c1.659-1.347,4.756-2.02,7.853-2.02,5.34,0,7.809,3.276,7.809,11.442,0,9.873-3.5,12.028-10.637,12.028a21.1,21.1,0,0,1-6.371-.9,2.524,2.524,0,0,1-1.525-1.122,4.228,4.228,0,0,1-.316-1.974Zm3.455,29.347a1.542,1.542,0,0,0,.988.584,17.824,17.824,0,0,0,3.86.45c6.194,0,7.269-2.379,7.269-8.886,0-5.834-.673-8.8-5.653-8.8-1.795,0-4.577.313-5.924,1.21a1.542,1.542,0,0,0-.673.629,2.916,2.916,0,0,0-.134.986V29.308a2.046,2.046,0,0,0,.268,1.165" transform="translate(169.126 0.101)" fill="gray"/>
    <path id="Path_4552" data-name="Path 4552" d="M303.21,1.126c0-.584.27-.944.852-.944h1.528c.671,0,.807.316.807.944V12.884c1.659-1.347,4.756-2.02,7.853-2.02,5.34,0,7.809,3.276,7.809,11.442,0,9.873-3.5,12.028-10.637,12.028a21.1,21.1,0,0,1-6.371-.9,2.524,2.524,0,0,1-1.525-1.122,4.228,4.228,0,0,1-.316-1.974Zm3.455,29.347a1.542,1.542,0,0,0,.988.584,17.824,17.824,0,0,0,3.86.45c6.194,0,7.269-2.379,7.269-8.886,0-5.834-.673-8.8-5.653-8.8-1.795,0-4.577.313-5.924,1.21a1.542,1.542,0,0,0-.673.629,2.916,2.916,0,0,0-.134.986V29.308A2.046,2.046,0,0,0,306.665,30.473Z" transform="translate(169.126 0.101)" fill="none" stroke="gray" stroke-miterlimit="10" stroke-width="0.25"/>
    <path id="Path_4553" data-name="Path 4553" d="M318.993,8.27c0-.539.135-.942.852-.942h1.481c.628,0,.854.358.854.942V22.541a10.785,10.785,0,0,0,.357,3.14c.45,1.122,1.481,1.751,4.31,1.751,3.365,0,4.845-.586,5.878-1.125a2.205,2.205,0,0,0,.854-.626,2.7,2.7,0,0,0,.268-1.3V8.27c0-.539.179-.942.854-.942h1.482c.626,0,.852.313.852.942V29.09a16.986,16.986,0,0,1-.673,5.477c-1.3,4.127-6.149,5.7-13.508,5.7-.718,0-1.031-.134-1.122-.673a6.751,6.751,0,0,1-.09-1.3.872.872,0,0,1,.852-.942c7.808-.179,9.738-1.481,10.637-3.547a9.929,9.929,0,0,0,.628-3.857V28.688c-1.975,1.167-5.161,1.661-7.853,1.661-3.9,0-5.7-1.078-6.373-2.873a12.835,12.835,0,0,1-.539-4.4Z" transform="translate(177.929 4.087)" fill="gray"/>
    <path id="Path_4554" data-name="Path 4554" d="M318.993,8.27c0-.539.135-.942.852-.942h1.481c.628,0,.854.358.854.942V22.541a10.785,10.785,0,0,0,.357,3.14c.45,1.122,1.481,1.751,4.31,1.751,3.365,0,4.845-.586,5.878-1.125a2.205,2.205,0,0,0,.854-.626,2.7,2.7,0,0,0,.268-1.3V8.27c0-.539.179-.942.854-.942h1.482c.626,0,.852.313.852.942V29.09a16.986,16.986,0,0,1-.673,5.477c-1.3,4.127-6.149,5.7-13.508,5.7-.718,0-1.031-.134-1.122-.673a6.751,6.751,0,0,1-.09-1.3.872.872,0,0,1,.852-.942c7.808-.179,9.738-1.481,10.637-3.547a9.929,9.929,0,0,0,.628-3.857V28.688c-1.975,1.167-5.161,1.661-7.853,1.661-3.9,0-5.7-1.078-6.373-2.873a12.835,12.835,0,0,1-.539-4.4Z" transform="translate(177.929 4.087)" fill="none" stroke="gray" stroke-miterlimit="10" stroke-width="0.25"/>
    <path id="Path_4555" data-name="Path 4555" d="M351.51,31.507a2.119,2.119,0,0,1-2.29,1.751h-.9a2.041,2.041,0,0,1-2.108-1.751L339.3,3.372a5.247,5.247,0,0,1-.179-1.257.673.673,0,0,1,.583-.673,13.354,13.354,0,0,1,1.975-.136c.583,0,.852.315.986.9,4.8,19.834,5.611,23.245,6.42,27.1.941-3.636,1.838-6.731,7.448-25.041.36-1.122.852-1.749,2.02-1.749h.762c1.212,0,1.614.539,1.974,1.706,5.564,18.533,6.418,21.5,7.315,25.13.718-3.725,1.615-7.269,6.418-26.926.178-.762.447-1.122.986-1.122a11.726,11.726,0,0,1,1.975.136.688.688,0,0,1,.494.673,6.009,6.009,0,0,1-.226,1.3l-7.046,28.048a2.04,2.04,0,0,1-2.153,1.795H368.2a2.1,2.1,0,0,1-2.243-1.795c-4.938-16.872-6.013-20.644-7.135-24.949-1.078,4.173-2.29,8.347-7.315,24.993" transform="translate(189.158 0.728)" fill="gray"/>
    <path id="Path_4556" data-name="Path 4556" d="M351.51,31.507a2.119,2.119,0,0,1-2.29,1.751h-.9a2.041,2.041,0,0,1-2.108-1.751L339.3,3.372a5.247,5.247,0,0,1-.179-1.257.673.673,0,0,1,.583-.673,13.354,13.354,0,0,1,1.975-.136c.583,0,.852.315.986.9,4.8,19.834,5.611,23.245,6.42,27.1.941-3.636,1.838-6.731,7.448-25.041.36-1.122.852-1.749,2.02-1.749h.762c1.212,0,1.614.539,1.974,1.706,5.564,18.533,6.418,21.5,7.315,25.13.718-3.725,1.615-7.269,6.418-26.926.178-.762.447-1.122.986-1.122a11.726,11.726,0,0,1,1.975.136.688.688,0,0,1,.494.673,6.009,6.009,0,0,1-.226,1.3l-7.046,28.048a2.04,2.04,0,0,1-2.153,1.795H368.2a2.1,2.1,0,0,1-2.243-1.795c-4.938-16.872-6.013-20.644-7.135-24.949C357.747,10.687,356.535,14.86,351.51,31.507Z" transform="translate(189.158 0.728)" fill="none" stroke="gray" stroke-miterlimit="10" stroke-width="0.25"/>
    <path id="Path_4557" data-name="Path 4557" d="M392.688,33.867c-8.527,0-12.657-3.41-12.657-16.6,0-13.417,5.564-16.246,13.015-16.246,8.526,0,12.654,2.379,12.654,16.2,0,13.148-4.128,16.648-13.012,16.648m.223-29.841c-6.013,0-9.378,2.243-9.378,13.238,0,11.623,3.184,13.6,9.244,13.6,5.924,0,9.423-1.751,9.423-13.554,0-11.352-2.556-13.282-9.289-13.282" transform="translate(211.975 0.567)" fill="gray"/>
    <path id="Path_4558" data-name="Path 4558" d="M392.688,33.867c-8.527,0-12.657-3.41-12.657-16.6,0-13.417,5.564-16.246,13.015-16.246,8.526,0,12.654,2.379,12.654,16.2C405.7,30.367,401.572,33.867,392.688,33.867Zm.223-29.841c-6.013,0-9.378,2.243-9.378,13.238,0,11.623,3.184,13.6,9.244,13.6,5.924,0,9.423-1.751,9.423-13.554C402.2,5.956,399.644,4.026,392.911,4.026Z" transform="translate(211.975 0.567)" fill="none" stroke="gray" stroke-miterlimit="10" stroke-width="0.25"/>
    <path id="Path_4559" data-name="Path 4559" d="M425.219,14c0,3.363-1.852,4.994-5.824,4.994a14.017,14.017,0,0,1-3.678-.413c-.439-.146-.584-.293-.584-.561a3.752,3.752,0,0,1,.218-.879.387.387,0,0,1,.391-.243,3.765,3.765,0,0,1,.8.195,11.441,11.441,0,0,0,2.826.293c3.412,0,4.044-1.461,4.044-3.313,0-2.072-.95-3.1-4.262-3.169-.586,0-.879-.146-.879-.8,0-.682.365-.829.879-.854C422.222,9.2,423,8.052,423,6.445c0-2.1-.829-2.926-3.558-2.926a9.128,9.128,0,0,0-2.559.368,4.558,4.558,0,0,1-.8.243.3.3,0,0,1-.316-.22,3.54,3.54,0,0,1-.245-.829c0-.268.146-.389.586-.536a11.107,11.107,0,0,1,3.7-.632c4.044,0,5.019,1.534,5.019,4.433a3.605,3.605,0,0,1-3.12,3.631c2.12.146,3.51,1.511,3.51,4.021" transform="translate(231.554 1.066)" fill="gray"/>
    <path id="Path_4560" data-name="Path 4560" d="M425.219,14c0,3.363-1.852,4.994-5.824,4.994a14.017,14.017,0,0,1-3.678-.413c-.439-.146-.584-.293-.584-.561a3.752,3.752,0,0,1,.218-.879.387.387,0,0,1,.391-.243,3.765,3.765,0,0,1,.8.195,11.441,11.441,0,0,0,2.826.293c3.412,0,4.044-1.461,4.044-3.313,0-2.072-.95-3.1-4.262-3.169-.586,0-.879-.146-.879-.8,0-.682.365-.829.879-.854C422.222,9.2,423,8.052,423,6.445c0-2.1-.829-2.926-3.558-2.926a9.128,9.128,0,0,0-2.559.368,4.558,4.558,0,0,1-.8.243.3.3,0,0,1-.316-.22,3.54,3.54,0,0,1-.245-.829c0-.268.146-.389.586-.536a11.107,11.107,0,0,1,3.7-.632c4.044,0,5.019,1.534,5.019,4.433a3.605,3.605,0,0,1-3.12,3.631C423.829,10.124,425.219,11.489,425.219,14Z" transform="translate(231.554 1.066)" fill="none" stroke="gray" stroke-miterlimit="10" stroke-width="0.25"/>
    <path id="Path_4561" data-name="Path 4561" d="M429.889,8.345c3.338,0,4.851,1.486,4.851,5.191,0,3.41-1.682,5.458-5.508,5.458-3.362,0-5.532-1.779-5.532-7.505,0-5.848.975-9.576,6.8-9.576a10.014,10.014,0,0,1,2.924.34.4.4,0,0,1,.293.391,6.867,6.867,0,0,1-.195.9.34.34,0,0,1-.293.243,6.453,6.453,0,0,1-.681-.1,11.624,11.624,0,0,0-1.974-.171c-4.338,0-4.776,2.195-5.094,6.434.611-.852,2.242-1.608,4.41-1.608M425.65,14.12c.268,1.706,1.145,3.29,3.7,3.29,2.51,0,3.656-1.243,3.656-3.922,0-2.17-.854-3.558-3.363-3.558-1.876,0-3.313.536-3.9,1.436a1.984,1.984,0,0,0-.221,1.025,11.84,11.84,0,0,0,.123,1.729" transform="translate(236.333 1.066)" fill="gray"/>
    <path id="Path_4562" data-name="Path 4562" d="M429.889,8.345c3.338,0,4.851,1.486,4.851,5.191,0,3.41-1.682,5.458-5.508,5.458-3.362,0-5.532-1.779-5.532-7.505,0-5.848.975-9.576,6.8-9.576a10.014,10.014,0,0,1,2.924.34.4.4,0,0,1,.293.391,6.867,6.867,0,0,1-.195.9.34.34,0,0,1-.293.243,6.453,6.453,0,0,1-.681-.1,11.624,11.624,0,0,0-1.974-.171c-4.338,0-4.776,2.195-5.094,6.434C426.09,9.1,427.721,8.345,429.889,8.345ZM425.65,14.12c.268,1.706,1.145,3.29,3.7,3.29,2.51,0,3.656-1.243,3.656-3.922,0-2.17-.854-3.558-3.363-3.558-1.876,0-3.313.536-3.9,1.436a1.984,1.984,0,0,0-.221,1.025A11.84,11.84,0,0,0,425.65,14.12Z" transform="translate(236.333 1.066)" fill="none" stroke="gray" stroke-miterlimit="10" stroke-width="0.25"/>
    <path id="Path_4563" data-name="Path 4563" d="M437.744,18.993c-3.874,0-5.677-1.681-5.677-8.5,0-7.163,2.461-8.577,5.9-8.577,3.923,0,5.578,1.291,5.578,8.382,0,6.945-1.729,8.7-5.8,8.7m.123-15.473c-2.608,0-3.972,1.243-3.972,6.921,0,5.9,1.268,6.945,3.874,6.945,2.729,0,3.947-1.023,3.947-7.091,0-5.6-1.023-6.775-3.849-6.775" transform="translate(241 1.066)" fill="gray"/>
    <path id="Path_4564" data-name="Path 4564" d="M437.744,18.993c-3.874,0-5.677-1.681-5.677-8.5,0-7.163,2.461-8.577,5.9-8.577,3.923,0,5.578,1.291,5.578,8.382C443.543,17.239,441.814,18.993,437.744,18.993Zm.123-15.473c-2.608,0-3.972,1.243-3.972,6.921,0,5.9,1.268,6.945,3.874,6.945,2.729,0,3.947-1.023,3.947-7.091C441.716,4.69,440.692,3.52,437.867,3.52Z" transform="translate(241 1.066)" fill="none" stroke="gray" stroke-miterlimit="10" stroke-width="0.25"/>
  </g>
</svg>
