<svg id="Group_4021" data-name="Group 4021" xmlns="http://www.w3.org/2000/svg" width="17" height="17" viewBox="0 0 17 17">
  <g id="Anteckning_information_låst" data-name="Anteckning/information låst" transform="translate(0 0)">
    <g id="Group_325" data-name="Group 325">
      <circle id="Ellipse_658" data-name="Ellipse 658" cx="8.5" cy="8.5" r="8.5" fill="#ff7000"/>
    </g>
    <g id="Group_346" data-name="Group 346" transform="translate(7.216 2.537)">
      <path id="Path_784" data-name="Path 784" d="M33.183,12.455a1.18,1.18,0,0,0,.871-.345,1.159,1.159,0,0,0,.345-.854,1.18,1.18,0,0,0-.345-.871,1.16,1.16,0,0,0-.854-.345,1.146,1.146,0,0,0-.854.353,1.188,1.188,0,0,0-.345.863,1.16,1.16,0,0,0,.345.854A1.14,1.14,0,0,0,33.183,12.455Z" transform="translate(-32 -10.04)" fill="#fff"/>
      <path id="Path_785" data-name="Path 785" d="M34.833,26.988a.491.491,0,0,0-.361-.148H33.59a.505.505,0,0,0-.509.509v7.295a.505.505,0,0,0,.509.509h.881a.5.5,0,0,0,.509-.509V27.349A.491.491,0,0,0,34.833,26.988Z" transform="translate(-32.845 -23.057)" fill="#fff"/>
    </g>
  </g>
</svg>
