<svg id="Group_4829" data-name="Group 4829" xmlns="http://www.w3.org/2000/svg" width="17" height="17" viewBox="0 0 17 17">
  <g id="Path_792" data-name="Path 792" fill="#03d156">
    <path d="M 8.5 16 C 4.364490032196045 16 1 12.63551044464111 1 8.5 C 1 4.364490032196045 4.364490032196045 1 8.5 1 C 12.63551044464111 1 16 4.364490032196045 16 8.5 C 16 12.63551044464111 12.63551044464111 16 8.5 16 Z" stroke="none"/>
    <path d="M 8.5 2 C 4.915889739990234 2 2 4.915889739990234 2 8.5 C 2 12.08411026000977 4.915889739990234 15 8.5 15 C 12.08411026000977 15 15 12.08411026000977 15 8.5 C 15 4.915889739990234 12.08411026000977 2 8.5 2 M 8.5 0 C 13.19441986083984 0 17 3.805580139160156 17 8.5 C 17 13.19441986083984 13.19441986083984 17 8.5 17 C 3.805580139160156 17 0 13.19441986083984 0 8.5 C 0 3.805580139160156 3.805580139160156 0 8.5 0 Z" stroke="none" fill="#03d156"/>
  </g>
  <path id="Path_793" data-name="Path 793" d="M23.96,20.565l-.156-.157a.411.411,0,0,0-.621.025l-.286.287h0l-4.589,4.622-1.922-1.95h0l-.17-.172-.095-.1h0l-.047-.047a.406.406,0,0,0-.6.006l-.156.157a.416.416,0,0,0,.025.625l.286.288h0l2.689,2.694,5.352-5.382.3-.3A.411.411,0,0,0,23.96,20.565Z" transform="translate(-11.317 -14.817)" fill="#44484c" stroke="#44484c" stroke-width="0.75"/>
</svg>
