<?xml version="1.0" encoding="UTF-8"?>
<svg xmlns="http://www.w3.org/2000/svg" xmlns:xlink="http://www.w3.org/1999/xlink" width="25px" height="25px" viewBox="0 0 25 25" version="1.1">
<g id="surface1">
<path style=" stroke:none;fill-rule:nonzero;fill:rgb(0%,0%,0%);fill-opacity:1;" d="M 13.832031 5.078125 C 13.753906 5.117188 13.6875 5.199219 13.632812 5.296875 L 13.550781 5.453125 L 13.726562 6.3125 C 13.824219 6.777344 13.910156 7.199219 13.917969 7.238281 L 13.9375 7.308594 L 11 7.320312 L 8.0625 7.335938 L 7.8125 7.40625 C 7.054688 7.640625 6.441406 8.195312 6.15625 8.910156 C 6.003906 9.285156 5.980469 9.488281 5.980469 10.640625 C 5.980469 11.6875 5.984375 11.730469 6.050781 11.8125 C 6.128906 11.910156 6.3125 11.957031 6.410156 11.902344 C 6.445312 11.886719 6.695312 11.617188 6.960938 11.308594 C 7.445312 10.753906 7.59375 10.621094 7.878906 10.472656 C 8.207031 10.304688 8.175781 10.304688 11.148438 10.304688 C 12.675781 10.304688 13.929688 10.308594 13.929688 10.316406 C 13.929688 10.324219 13.84375 10.734375 13.746094 11.234375 C 13.636719 11.78125 13.574219 12.179688 13.589844 12.230469 C 13.617188 12.355469 13.71875 12.492188 13.832031 12.550781 C 13.960938 12.621094 14.191406 12.613281 14.3125 12.539062 C 14.371094 12.503906 15.226562 11.871094 16.222656 11.132812 C 17.21875 10.390625 18.234375 9.644531 18.472656 9.464844 C 19.015625 9.066406 19.09375 8.929688 18.96875 8.628906 C 18.917969 8.503906 18.84375 8.441406 18.1875 7.953125 C 17.917969 7.753906 16.949219 7.039062 16.027344 6.351562 C 15.109375 5.671875 14.316406 5.089844 14.265625 5.066406 C 14.144531 5.003906 13.964844 5.007812 13.832031 5.078125 Z M 13.832031 5.078125 "/>
<path style=" stroke:none;fill-rule:nonzero;fill:rgb(0%,0%,0%);fill-opacity:1;" d="M 10.777344 11.984375 C 10.703125 12.007812 10.59375 12.054688 10.546875 12.085938 C 10.21875 12.300781 6.273438 15.261719 6.15625 15.382812 C 5.898438 15.65625 5.851562 16.050781 6.035156 16.390625 C 6.125 16.546875 6.308594 16.691406 8.308594 18.179688 C 9.507812 19.066406 10.554688 19.832031 10.632812 19.871094 C 10.832031 19.96875 11.15625 19.972656 11.367188 19.878906 C 11.664062 19.746094 11.859375 19.480469 11.890625 19.167969 C 11.902344 19.023438 11.800781 18.382812 11.679688 17.863281 L 11.660156 17.789062 L 14.167969 17.777344 C 16.894531 17.761719 16.835938 17.765625 17.332031 17.570312 C 17.976562 17.308594 18.582031 16.714844 18.839844 16.085938 C 19.035156 15.601562 19.050781 15.480469 19.050781 14.253906 C 19.050781 13.015625 19.046875 13.003906 18.847656 12.808594 C 18.710938 12.671875 18.4375 12.585938 18.253906 12.617188 C 18.042969 12.652344 17.90625 12.769531 17.449219 13.300781 C 17.207031 13.582031 16.941406 13.859375 16.863281 13.917969 C 16.582031 14.132812 16.625 14.128906 14.023438 14.128906 C 12.726562 14.128906 11.667969 14.125 11.667969 14.121094 C 11.667969 14.113281 11.722656 13.84375 11.785156 13.53125 C 11.847656 13.214844 11.902344 12.886719 11.902344 12.804688 C 11.902344 12.507812 11.644531 12.136719 11.355469 12.019531 C 11.1875 11.945312 10.9375 11.933594 10.777344 11.984375 Z M 10.871094 13.746094 C 10.769531 14.242188 10.710938 14.625 10.722656 14.671875 C 10.753906 14.777344 10.871094 14.894531 10.996094 14.945312 C 11.164062 15.019531 16.222656 15.015625 16.578125 14.945312 C 17.089844 14.832031 17.382812 14.644531 17.859375 14.105469 L 18.199219 13.71875 L 18.210938 14.492188 C 18.222656 15.355469 18.195312 15.511719 18.007812 15.894531 C 17.863281 16.1875 17.472656 16.578125 17.1875 16.71875 C 16.722656 16.945312 16.890625 16.929688 13.792969 16.953125 C 11 16.96875 10.972656 16.96875 10.878906 17.042969 C 10.832031 17.078125 10.765625 17.164062 10.746094 17.238281 C 10.710938 17.351562 10.71875 17.445312 10.875 18.21875 C 10.972656 18.6875 11.042969 19.089844 11.03125 19.101562 C 11.003906 19.125 6.8125 16.03125 6.792969 15.972656 C 6.785156 15.953125 7.054688 15.734375 7.386719 15.484375 C 10.667969 13.050781 11.019531 12.792969 11.03125 12.84375 C 11.039062 12.871094 10.960938 13.277344 10.871094 13.746094 Z M 10.871094 13.746094 "/>
</g>
</svg>
