<?xml version="1.0" encoding="UTF-8"?>
<svg xmlns="http://www.w3.org/2000/svg" xmlns:xlink="http://www.w3.org/1999/xlink" width="27px" height="27px" viewBox="0 0 27 27" version="1.1">
<g id="surface1">
<path style=" stroke:none;fill-rule:nonzero;fill:rgb(0%,0%,0%);fill-opacity:1;" d="M 14.9375 5.484375 C 14.855469 5.527344 14.78125 5.613281 14.722656 5.722656 L 14.636719 5.890625 L 14.824219 6.816406 C 14.929688 7.320312 15.023438 7.773438 15.03125 7.816406 L 15.050781 7.894531 L 11.878906 7.90625 L 8.707031 7.921875 L 8.4375 8 C 7.617188 8.25 6.957031 8.851562 6.648438 9.621094 C 6.484375 10.027344 6.460938 10.246094 6.460938 11.492188 C 6.460938 12.621094 6.464844 12.667969 6.535156 12.757812 C 6.621094 12.863281 6.816406 12.914062 6.921875 12.855469 C 6.960938 12.835938 7.230469 12.546875 7.519531 12.214844 C 8.039062 11.613281 8.199219 11.46875 8.507812 11.308594 C 8.863281 11.128906 8.828125 11.128906 12.039062 11.128906 C 13.691406 11.128906 15.042969 11.132812 15.042969 11.140625 C 15.042969 11.148438 14.953125 11.59375 14.847656 12.132812 C 14.726562 12.722656 14.660156 13.152344 14.675781 13.210938 C 14.707031 13.34375 14.816406 13.492188 14.9375 13.554688 C 15.078125 13.628906 15.328125 13.621094 15.457031 13.542969 C 15.519531 13.503906 16.445312 12.820312 17.519531 12.023438 C 18.597656 11.222656 19.691406 10.414062 19.949219 10.222656 C 20.535156 9.792969 20.621094 9.644531 20.488281 9.320312 C 20.429688 9.183594 20.351562 9.117188 19.640625 8.589844 C 19.351562 8.375 18.304688 7.601562 17.308594 6.859375 C 16.316406 6.125 15.460938 5.496094 15.40625 5.472656 C 15.277344 5.402344 15.082031 5.410156 14.9375 5.484375 Z M 14.9375 5.484375 "/>
<path style=" stroke:none;fill-rule:nonzero;fill:rgb(0%,0%,0%);fill-opacity:1;" d="M 11.640625 12.941406 C 11.558594 12.96875 11.441406 13.019531 11.390625 13.054688 C 11.035156 13.285156 6.773438 16.484375 6.648438 16.613281 C 6.371094 16.910156 6.320312 17.335938 6.519531 17.703125 C 6.613281 17.871094 6.8125 18.027344 8.972656 19.632812 C 10.269531 20.59375 11.398438 21.417969 11.484375 21.460938 C 11.699219 21.566406 12.050781 21.570312 12.277344 21.46875 C 12.597656 21.324219 12.808594 21.039062 12.84375 20.703125 C 12.855469 20.546875 12.746094 19.851562 12.613281 19.292969 L 12.59375 19.210938 L 15.300781 19.199219 C 18.246094 19.183594 18.183594 19.1875 18.71875 18.976562 C 19.414062 18.695312 20.070312 18.050781 20.347656 17.371094 C 20.558594 16.847656 20.574219 16.71875 20.574219 15.394531 C 20.574219 14.058594 20.570312 14.042969 20.355469 13.832031 C 20.207031 13.6875 19.914062 13.59375 19.714844 13.625 C 19.484375 13.664062 19.339844 13.789062 18.84375 14.363281 C 18.582031 14.667969 18.296875 14.96875 18.210938 15.03125 C 17.910156 15.261719 17.953125 15.257812 15.144531 15.257812 C 13.746094 15.257812 12.601562 15.253906 12.601562 15.25 C 12.601562 15.242188 12.660156 14.953125 12.726562 14.613281 C 12.796875 14.273438 12.855469 13.917969 12.855469 13.828125 C 12.855469 13.507812 12.574219 13.109375 12.265625 12.980469 C 12.082031 12.902344 11.8125 12.886719 11.640625 12.941406 Z M 11.742188 14.847656 C 11.632812 15.382812 11.566406 15.796875 11.582031 15.84375 C 11.613281 15.960938 11.742188 16.085938 11.875 16.140625 C 12.058594 16.222656 17.519531 16.214844 17.902344 16.140625 C 18.457031 16.019531 18.773438 15.816406 19.289062 15.234375 L 19.65625 14.816406 L 19.667969 15.652344 C 19.679688 16.585938 19.652344 16.753906 19.449219 17.164062 C 19.292969 17.484375 18.871094 17.90625 18.5625 18.054688 C 18.058594 18.300781 18.242188 18.285156 14.894531 18.308594 C 11.878906 18.328125 11.851562 18.328125 11.75 18.40625 C 11.699219 18.445312 11.628906 18.539062 11.605469 18.617188 C 11.566406 18.738281 11.578125 18.839844 11.746094 19.675781 C 11.851562 20.183594 11.925781 20.617188 11.914062 20.628906 C 11.882812 20.65625 7.355469 17.3125 7.335938 17.25 C 7.328125 17.230469 7.617188 16.992188 7.976562 16.722656 C 11.523438 14.09375 11.902344 13.816406 11.914062 13.871094 C 11.921875 13.902344 11.839844 14.339844 11.742188 14.847656 Z M 11.742188 14.847656 "/>
</g>
</svg>
