<?xml version="1.0" standalone="no"?>
<!DOCTYPE svg PUBLIC "-//W3C//DTD SVG 1.0//EN" "http://www.w3.org/TR/2001/REC-SVG-20010904/DTD/svg10.dtd">
<svg xmlns="http://www.w3.org/2000/svg" xmlns:xlink="http://www.w3.org/1999/xlink" id="body_1" width="30" height="30">

<g transform="matrix(0.03989362 0 0 0.03989362 0 0)">
	<g transform="matrix(0.1 0 -0 -0.1 0 752)">
        <path d="M4160 5992C 4137 5980 4117 5957 4101 5926L4101 5926L4077 5879L4129 5622C 4158 5481 4184 5355 4187 5343L4187 5343L4192 5321L3308 5318L2425 5314L2350 5292C 2122 5222 1938 5055 1852 4840C 1806 4727 1800 4666 1800 4319C 1800 4005 1801 3992 1820 3967C 1844 3937 1898 3923 1928 3939C 1939 3945 2014 4025 2094 4118C 2239 4286 2284 4326 2370 4370C 2469 4420 2459 4420 3353 4420C 3813 4420 4190 4419 4190 4417C 4190 4415 4165 4291 4135 4141C 4102 3977 4083 3857 4087 3841C 4096 3803 4127 3762 4160 3745C 4200 3724 4269 3726 4305 3748C 4322 3759 4580 3949 4880 4171C 5180 4394 5484 4619 5556 4673C 5719 4793 5743 4834 5706 4924C 5690 4962 5668 4981 5470 5128C 5390 5187 5098 5403 4821 5609C 4544 5814 4306 5989 4291 5996C 4255 6015 4201 6013 4160 5992z" stroke="none" fill="#000000" fill-rule="nonzero" />
        <path d="M3242 3916C 3219 3908 3187 3894 3172 3884C 3073 3820 1887 2929 1852 2893C 1774 2810 1760 2692 1816 2589C 1842 2543 1897 2499 2499 2052C 2860 1784 3175 1555 3199 1543C 3258 1513 3356 1512 3420 1541C 3509 1581 3567 1660 3577 1754C 3581 1797 3550 1991 3513 2147L3513 2147L3508 2169L4262 2173C 5082 2177 5064 2176 5213 2235C 5407 2313 5590 2493 5667 2682C 5726 2828 5730 2864 5730 3232C 5730 3604 5729 3609 5669 3668C 5628 3708 5546 3734 5491 3725C 5427 3714 5386 3680 5248 3520C 5175 3435 5096 3351 5072 3333C 4988 3269 5000 3270 4218 3270C 3829 3270 3510 3271 3510 3273C 3510 3275 3526 3355 3545 3450C 3564 3545 3580 3644 3580 3669C 3580 3758 3502 3869 3416 3905C 3365 3927 3290 3931 3242 3916zM3270 3385C 3240 3236 3222 3120 3226 3107C 3235 3075 3270 3040 3307 3024C 3358 3002 4880 3004 4986 3025C 5141 3058 5229 3115 5372 3277L5372 3277L5475 3393L5478 3160C 5481 2900 5474 2854 5417 2740C 5373 2650 5256 2533 5170 2491C 5030 2423 5081 2427 4148 2421C 3309 2415 3301 2415 3273 2394C 3258 2383 3239 2356 3232 2335C 3221 2301 3225 2273 3272 2040C 3301 1898 3322 1778 3318 1775C 3310 1767 2049 2698 2043 2716C 2041 2721 2122 2787 2222 2862C 3210 3595 3315 3672 3318 3657C 3320 3648 3298 3526 3270 3385z" stroke="none" fill="#000000" fill-rule="nonzero" />
	</g>
</g>
</svg>