<?xml version="1.0" standalone="no"?>
<!DOCTYPE svg PUBLIC "-//W3C//DTD SVG 20010904//EN"
 "http://www.w3.org/TR/2001/REC-SVG-20010904/DTD/svg10.dtd">
<svg version="1.0" xmlns="http://www.w3.org/2000/svg"
 width="25px" height="25px" viewBox="0 0 25 25"
 preserveAspectRatio="xMidYMid meet">

<g transform="translate(0.000000,752.000000) scale(0.100000,-0.100000)"
fill="#000000" stroke="none">
<path d="M4160 5992 c-23 -12 -43 -35 -59 -66 l-24 -47 52 -257 c29 -141 55
-267 58 -279 l5 -22 -884 -3 -883 -4 -75 -22 c-228 -70 -412 -237 -498 -452
-46 -113 -52 -174 -52 -521 0 -314 1 -327 20 -352 24 -30 78 -44 108 -28 11 6
86 86 166 179 145 168 190 208 276 252 99 50 89 50 983 50 460 0 837 -1 837
-3 0 -2 -25 -126 -55 -276 -33 -164 -52 -284 -48 -300 9 -38 40 -79 73 -96 40
-21 109 -19 145 3 17 11 275 201 575 423 300 223 604 448 676 502 163 120 187
161 150 251 -16 38 -38 57 -236 204 -80 59 -372 275 -649 481 -277 205 -515
380 -530 387 -36 19 -90 17 -131 -4z"/>
<path d="M3242 3916 c-23 -8 -55 -22 -70 -32 -99 -64 -1285 -955 -1320 -991
-78 -83 -92 -201 -36 -304 26 -46 81 -90 683 -537 361 -268 676 -497 700 -509
59 -30 157 -31 221 -2 89 40 147 119 157 213 4 43 -27 237 -64 393 l-5 22 754
4 c820 4 802 3 951 62 194 78 377 258 454 447 59 146 63 182 63 550 0 372 -1
377 -61 436 -41 40 -123 66 -178 57 -64 -11 -105 -45 -243 -205 -73 -85 -152
-169 -176 -187 -84 -64 -72 -63 -854 -63 -389 0 -708 1 -708 3 0 2 16 82 35
177 19 95 35 194 35 219 0 89 -78 200 -164 236 -51 22 -126 26 -174 11z m28
-531 c-30 -149 -48 -265 -44 -278 9 -32 44 -67 81 -83 51 -22 1573 -20 1679 1
155 33 243 90 386 252 l103 116 3 -233 c3 -260 -4 -306 -61 -420 -44 -90 -161
-207 -247 -249 -140 -68 -89 -64 -1022 -70 -839 -6 -847 -6 -875 -27 -15 -11
-34 -38 -41 -59 -11 -34 -7 -62 40 -295 29 -142 50 -262 46 -265 -8 -8 -1269
923 -1275 941 -2 5 79 71 179 146 988 733 1093 810 1096 795 2 -9 -20 -131
-48 -272z"/>
</g>
</svg>
