<?xml version="1.0" standalone="no"?>
<!DOCTYPE svg PUBLIC "-//W3C//DTD SVG 1.0//EN" "http://www.w3.org/TR/2001/REC-SVG-20010904/DTD/svg10.dtd">
<svg xmlns="http://www.w3.org/2000/svg" xmlns:xlink="http://www.w3.org/1999/xlink" id="body_1" width="20" height="20">

<g transform="matrix(0.078125 0 0 0.078125 0 0)">
	<g transform="matrix(0.1 0 -0 -0.1 0 256)">
        <path d="M1916 2544C 1689 2489 1519 2272 1520 2036C 1521 1805 1694 1589 1921 1535C 2197 1470 2479 1645 2545 1921C 2586 2097 2535 2276 2405 2405C 2275 2535 2093 2587 1916 2544zM2145 2466C 2306 2423 2423 2306 2466 2145C 2529 1913 2372 1662 2132 1611C 1859 1553 1600 1762 1600 2040C 1600 2321 1877 2538 2145 2466z" stroke="none" fill="#000000" fill-rule="nonzero" />
        <path d="M1960 2215L1896 2150L1922 2123L1949 2096L1975 2120L2000 2143L2000 1972L2000 1800L2040 1800L2080 1800L2080 2028C 2080 2262 2077 2280 2040 2280C 2032 2280 1995 2251 1960 2215z" stroke="none" fill="#000000" fill-rule="nonzero" />
        <path d="M500 2304C 266 2254 64 2050 15 1815C -6 1714 -6 1006 15 905C 53 723 185 553 350 471C 483 406 526 400 908 400L908 400L1240 400L1240 212C 1240 20 1244 0 1280 0C 1288 0 1385 90 1495 200L1495 200L1695 400L1840 400C 1928 400 2012 406 2055 415C 2237 453 2407 585 2489 750C 2553 882 2560 928 2560 1288L2560 1288L2560 1600L2520 1600L2480 1600L2480 1293C 2480 943 2473 892 2414 778C 2340 639 2193 527 2043 495C 2001 486 1916 480 1820 480L1820 480L1665 480L1493 308L1320 135L1320 296C 1320 407 1316 460 1308 468C 1299 477 1203 480 940 480C 538 480 494 486 378 546C 239 620 127 767 95 917C 73 1017 74 1718 95 1809C 131 1958 242 2102 378 2174C 498 2236 530 2240 1033 2240L1033 2240L1480 2240L1480 2280L1480 2320L1023 2319C 671 2319 550 2315 500 2304z" stroke="none" fill="#000000" fill-rule="nonzero" />
        <path d="M480 1880L480 1840L520 1840L560 1840L560 1880L560 1920L520 1920L480 1920L480 1880z" stroke="none" fill="#000000" fill-rule="nonzero" />
        <path d="M640 1880L640 1840L680 1840L720 1840L720 1880L720 1920L680 1920L640 1920L640 1880z" stroke="none" fill="#000000" fill-rule="nonzero" />
        <path d="M800 1880L800 1840L1120 1840L1440 1840L1440 1880L1440 1920L1120 1920L800 1920L800 1880z" stroke="none" fill="#000000" fill-rule="nonzero" />
        <path d="M480 1560L480 1520L1000 1520L1520 1520L1520 1560L1520 1600L1000 1600L480 1600L480 1560z" stroke="none" fill="#000000" fill-rule="nonzero" />
        <path d="M480 1240L480 1200L1320 1200L2160 1200L2160 1240L2160 1280L1320 1280L480 1280L480 1240z" stroke="none" fill="#000000" fill-rule="nonzero" />
        <path d="M480 920L480 880L1240 880L2000 880L2000 920L2000 960L1240 960L480 960L480 920z" stroke="none" fill="#000000" fill-rule="nonzero" />
	</g>
</g>
</svg>