<?xml version="1.0" standalone="no"?>
<!DOCTYPE svg PUBLIC "-//W3C//DTD SVG 20010904//EN"
 "http://www.w3.org/TR/2001/REC-SVG-20010904/DTD/svg10.dtd">
<svg version="1.0" xmlns="http://www.w3.org/2000/svg"
 width="25px" height="25px" viewBox="0 0 25 25"
 preserveAspectRatio="xMidYMid meet">

<g transform="translate(0.000000,256.000000) scale(0.100000,-0.100000)"
fill="#000000" stroke="none">
<path d="M1916 2544 c-227 -55 -397 -272 -396 -508 1 -231 174 -447 401 -501
276 -65 558 110 624 386 41 176 -10 355 -140 484 -130 130 -312 182 -489 139z
m229 -78 c161 -43 278 -160 321 -321 63 -232 -94 -483 -334 -534 -273 -58
-532 151 -532 429 0 281 277 498 545 426z"/>
<path d="M1960 2215 l-64 -65 26 -27 27 -27 26 24 25 23 0 -171 0 -172 40 0
40 0 0 228 c0 234 -3 252 -40 252 -8 0 -45 -29 -80 -65z"/>
<path d="M500 2304 c-234 -50 -436 -254 -485 -489 -21 -101 -21 -809 0 -910
38 -182 170 -352 335 -434 133 -65 176 -71 558 -71 l332 0 0 -188 c0 -192 4
-212 40 -212 8 0 105 90 215 200 l200 200 145 0 c88 0 172 6 215 15 182 38
352 170 434 335 64 132 71 178 71 538 l0 312 -40 0 -40 0 0 -307 c0 -350 -7
-401 -66 -515 -74 -139 -221 -251 -371 -283 -42 -9 -127 -15 -223 -15 l-155 0
-172 -172 -173 -173 0 161 c0 111 -4 164 -12 172 -9 9 -105 12 -368 12 -402 0
-446 6 -562 66 -139 74 -251 221 -283 371 -22 100 -21 801 0 892 36 149 147
293 283 365 120 62 152 66 655 66 l447 0 0 40 0 40 -457 -1 c-352 0 -473 -4
-523 -15z"/>
<path d="M480 1880 l0 -40 40 0 40 0 0 40 0 40 -40 0 -40 0 0 -40z"/>
<path d="M640 1880 l0 -40 40 0 40 0 0 40 0 40 -40 0 -40 0 0 -40z"/>
<path d="M800 1880 l0 -40 320 0 320 0 0 40 0 40 -320 0 -320 0 0 -40z"/>
<path d="M480 1560 l0 -40 520 0 520 0 0 40 0 40 -520 0 -520 0 0 -40z"/>
<path d="M480 1240 l0 -40 840 0 840 0 0 40 0 40 -840 0 -840 0 0 -40z"/>
<path d="M480 920 l0 -40 760 0 760 0 0 40 0 40 -760 0 -760 0 0 -40z"/>
</g>
</svg>
