<svg xmlns="http://www.w3.org/2000/svg" width="17" height="17" viewBox="0 0 17 17">
  <g id="Group_4831" data-name="Group 4831" transform="translate(16.235 17.16) rotate(180)">
    <g id="Group_4021" data-name="Group 4021" transform="translate(-0.765 0.16)">
      <g id="Anteckning_information_låst" data-name="Anteckning/information låst" transform="translate(0 0)">
        <g id="Group_325" data-name="Group 325">
          <circle id="Ellipse_658" data-name="Ellipse 658" cx="8.5" cy="8.5" r="8.5" fill="#ff5454"/>
        </g>
        <g id="Group_346" data-name="Group 346" transform="translate(6.365 2.355)">
          <path id="Path_785" data-name="Path 785" d="M2.464.222A.669.669,0,0,0,1.956,0H.716A.669.669,0,0,0,.208.222.764.764,0,0,0,0,.765V11.728a.764.764,0,0,0,.208.543.668.668,0,0,0,.508.222h1.24a.668.668,0,0,0,.508-.222.764.764,0,0,0,.208-.543V.765A.764.764,0,0,0,2.464.222Z" transform="translate(8.299 4.99) rotate(90)" fill="#fff"/>
        </g>
      </g>
    </g>
  </g>
</svg>
