<svg id="arrow_plain_left" data-name="arrow plain left" xmlns="http://www.w3.org/2000/svg" viewBox="0 0 64 64"><defs><style>.cls-1{fill:#858585;}</style></defs><path class="cls-1" d="M63,1.7V62.3H10.1A8.31,8.31,0,0,1,1.8,54V10a8.31,8.31,0,0,1,8.3-8.3H63M64.71,0H10.1A10,10,0,0,0,.1,10V54a10,10,0,0,0,10,10H64.71V0Z"/><path class="cls-1" d="M24,30.59l13-13a1.67,1.67,0,0,1,2.6,0l.79.9a1.93,1.93,0,0,1,.53,1.23,1.9,1.9,0,0,1-.61,1.41c-6.7,6.49-9.09,8.74-10,9.59L28.9,32.1l1.41,1.36c1.95,1.73,5.19,4.8,9.63,9.12a2.19,2.19,0,0,1,.88,1.63,2.16,2.16,0,0,1-.44,1.22l-.07.09-.71.75a1.94,1.94,0,0,1-1.43.73,2,2,0,0,1-1.29-.56l-13-12.92a1.75,1.75,0,0,1-.59-1.41A1.87,1.87,0,0,1,24,30.59Z"/></svg>
