<svg id="arrow_plain_right" data-name="arrow plain right" xmlns="http://www.w3.org/2000/svg" viewBox="0 0 64 64"><defs><style>.cls-1{fill:#858585;}</style></defs><path class="cls-1" d="M54,1.7A8.31,8.31,0,0,1,62.3,10V54A8.31,8.31,0,0,1,54,62.3H1.08V1.7H54M54,0H-.61V64H54A10,10,0,0,0,64,54V10A10,10,0,0,0,54,0Z"/><path class="cls-1" d="M40.12,30.59l-13-13a1.67,1.67,0,0,0-2.6,0l-.79.9a1.93,1.93,0,0,0-.53,1.23,1.9,1.9,0,0,0,.61,1.41c6.7,6.49,9.09,8.74,10,9.59L35.2,32.1l-1.41,1.36c-1.95,1.73-5.19,4.8-9.63,9.12a2.19,2.19,0,0,0-.89,1.63,2.16,2.16,0,0,0,.45,1.22l.07.09.71.75a1.94,1.94,0,0,0,1.43.73,2,2,0,0,0,1.29-.56l13-12.92a1.78,1.78,0,0,0,.58-1.41A1.85,1.85,0,0,0,40.12,30.59Z"/></svg>
