<svg id="Polygon_2_kopia_2" data-name="Polygon 2 kopia 2" xmlns="http://www.w3.org/2000/svg" xmlns:xlink="http://www.w3.org/1999/xlink" viewBox="0 0 64 64"><defs><style>.cls-1{fill:none;}.cls-2{fill:#D17C69;}.cls-3{clip-path:url(#clip-path);}</style><clipPath id="clip-path"><rect class="cls-1" x="19.6" y="15.05" width="24.8" height="33.89"/></clipPath></defs><g id="röd"><path class="cls-2" d="M46.92,6,61.84,32,46.92,58H17.08L2.16,32,17.08,6H46.92m1-1.7H16.1L.2,32,16.1,59.69H47.9L63.8,32,47.9,4.31Z"/></g><g id="PROJEKTPLANERING"><rect class="cls-2" x="30.85" y="26.78" width="9.08" height="1.71"/><rect class="cls-2" x="30.85" y="33.42" width="9.08" height="1.7"/><rect class="cls-2" x="30.85" y="40.06" width="9.08" height="1.7"/><g class="cls-3"><path class="cls-2" d="M29,25.25l-.08-.09a.5.5,0,0,0-.38-.19.52.52,0,0,0-.4.2L26,27.71l-.89-1a.5.5,0,0,0-.38-.19.54.54,0,0,0-.39.19l-.08.09a.67.67,0,0,0,0,.89l.34.4h0L26,29.65,29,26.13a.67.67,0,0,0,0-.88"/><path class="cls-2" d="M29,32l-.08-.09a.49.49,0,0,0-.38-.18.52.52,0,0,0-.4.2L26,34.47l-.89-1a.49.49,0,0,0-.38-.18.51.51,0,0,0-.39.19l-.08.09a.67.67,0,0,0,0,.89l.34.4h0L26,36.41,29,32.88A.67.67,0,0,0,29,32"/><path class="cls-2" d="M29,38.67l-.08-.09a.5.5,0,0,0-.38-.19.52.52,0,0,0-.4.2L26,41.13l-.89-1a.5.5,0,0,0-.38-.19.54.54,0,0,0-.39.19l-.08.09a.67.67,0,0,0,0,.89l.34.4h0L26,43.07,29,39.55a.67.67,0,0,0,0-.88"/></g><path class="cls-2" d="M19.6,15.05V49H44.4V15.05ZM43,47.53H21V17.29h5.73v2.47H37.28V17.29H43Z"/></g></svg>
