<svg id="Polygon_2_kopia_2" data-name="Polygon 2 kopia 2" xmlns="http://www.w3.org/2000/svg" viewBox="0 0 64 64"><defs><style>.cls-1{fill:#D17C69;}</style></defs><g id="röd"><path class="cls-1" d="M46.92,6,61.84,32,46.92,58H17.08L2.16,32,17.08,6H46.92m1-1.7H16.1L.2,32,16.1,59.69H47.9L63.8,32,47.9,4.31Z"/></g><g id="RESURSPLANERING"><path class="cls-1" d="M19.51,14.92V49.08h25V14.92ZM43.06,47.65H20.94V17.18h5.78v2.49h10.6V17.18h5.74Z"/><path class="cls-1" d="M30.14,31.15a2.57,2.57,0,1,0-2.55-2.57,2.57,2.57,0,0,0,2.55,2.57m0-6.79a4.21,4.21,0,0,1,4.2,4.22,4.26,4.26,0,0,1-2.68,3.94l-.36.14.33.2a4.84,4.84,0,0,1,2.19,3.59l.59,4.28a1,1,0,0,0,.22.58l0,0h.11a1.24,1.24,0,0,0,.65-.25l4.09-2.58.08,0,0,.08.79,1.25,0,.07L40.4,40l-4.09,2.58a2.91,2.91,0,0,1-1.52.5,1.91,1.91,0,0,1-.8-.17A2.24,2.24,0,0,1,32.78,41s-.59-4.3-.59-4.3A2.88,2.88,0,0,0,30.09,34a2,2,0,0,0-.48-.05,3.4,3.4,0,0,0-2.76,1.85,19.83,19.83,0,0,0-2.18,7l0,.14-.12-.08L23.23,42l0,0V42a17.3,17.3,0,0,1,2.25-7,5.39,5.39,0,0,1,2.63-2.35l.36-.15-.34-.19a4.22,4.22,0,0,1,2.05-7.91"/><path class="cls-1" d="M40.86,30.88l-.09-.11a.56.56,0,0,0-.44-.21h0a.61.61,0,0,0-.46.23l-2.56,3-1-1.19a.59.59,0,0,0-.44-.22.63.63,0,0,0-.46.22l-.09.11a.78.78,0,0,0,0,1l.4.47h0L37.31,36l3.56-4.09a.78.78,0,0,0,0-1"/></g></svg>
