<svg id="Group_414" data-name="Group 414" xmlns="http://www.w3.org/2000/svg" width="46" height="46.001" viewBox="0 0 46 46.001">
  <g id="Group_359" data-name="Group 359" transform="translate(37.087 5.064)">
    <path id="Path_806" data-name="Path 806" d="M57.735,21.6a1.919,1.919,0,1,0,1.919,1.919A1.922,1.922,0,0,0,57.735,21.6Z" transform="translate(-55.815 -21.603)" fill="#858585"/>
  </g>
  <g id="Group_360" data-name="Group 360" transform="translate(37.087 9.459)">
    <path id="Path_807" data-name="Path 807" d="M57.735,26.473a1.919,1.919,0,1,0,1.919,1.919A1.921,1.921,0,0,0,57.735,26.473Z" transform="translate(-55.815 -26.473)" fill="#858585"/>
  </g>
  <g id="Group_361" data-name="Group 361" transform="translate(37.087 14.096)">
    <path id="Path_808" data-name="Path 808" d="M57.735,31.343a1.919,1.919,0,1,0,1.919,1.92A1.922,1.922,0,0,0,57.735,31.343Z" transform="translate(-55.815 -31.343)" fill="#858585"/>
  </g>
  <g id="Group_362" data-name="Group 362" transform="translate(37.087 18.734)">
    <path id="Path_809" data-name="Path 809" d="M57.735,36.214a1.92,1.92,0,1,0,1.919,1.919A1.922,1.922,0,0,0,57.735,36.214Z" transform="translate(-55.815 -36.214)" fill="#858585"/>
  </g>
  <g id="Group_363" data-name="Group 363" transform="translate(37.087 23.372)">
    <path id="Path_810" data-name="Path 810" d="M57.735,41.085A1.919,1.919,0,1,0,59.654,43,1.921,1.921,0,0,0,57.735,41.085Z" transform="translate(-55.815 -41.085)" fill="#858585"/>
  </g>
  <g id="Group_364" data-name="Group 364" transform="translate(37.087 28.01)">
    <path id="Path_811" data-name="Path 811" d="M57.735,45.955a1.919,1.919,0,1,0,1.919,1.919A1.921,1.921,0,0,0,57.735,45.955Z" transform="translate(-55.815 -45.955)" fill="#858585"/>
  </g>
  <g id="Group_365" data-name="Group 365" transform="translate(37.087 32.647)">
    <path id="Path_812" data-name="Path 812" d="M57.735,50.825a1.92,1.92,0,1,0,1.919,1.919A1.921,1.921,0,0,0,57.735,50.825Z" transform="translate(-55.815 -50.825)" fill="#858585"/>
  </g>
  <g id="Group_366" data-name="Group 366" transform="translate(37.087 37.04)">
    <path id="Path_813" data-name="Path 813" d="M57.735,55.7a1.919,1.919,0,1,0,1.919,1.919A1.922,1.922,0,0,0,57.735,55.7Z" transform="translate(-55.815 -55.696)" fill="#858585"/>
  </g>
  <g id="Group_367" data-name="Group 367" transform="translate(32.89 9.669)">
    <path id="Path_814" data-name="Path 814" d="M52.858,26.689a1.721,1.721,0,1,0,1.721,1.721A1.723,1.723,0,0,0,52.858,26.689Z" transform="translate(-51.137 -26.689)" fill="#858585"/>
  </g>
  <g id="Group_368" data-name="Group 368" transform="translate(32.89 14.314)">
    <path id="Path_815" data-name="Path 815" d="M52.858,31.565a1.721,1.721,0,1,0,1.721,1.721A1.723,1.723,0,0,0,52.858,31.565Z" transform="translate(-51.137 -31.565)" fill="#858585"/>
  </g>
  <g id="Group_369" data-name="Group 369" transform="translate(32.89 18.96)">
    <path id="Path_816" data-name="Path 816" d="M52.858,36.442a1.721,1.721,0,1,0,1.721,1.721A1.723,1.723,0,0,0,52.858,36.442Z" transform="translate(-51.137 -36.442)" fill="#858585"/>
  </g>
  <g id="Group_370" data-name="Group 370" transform="translate(32.89 23.605)">
    <path id="Path_817" data-name="Path 817" d="M52.858,41.318a1.721,1.721,0,1,0,1.721,1.721A1.723,1.723,0,0,0,52.858,41.318Z" transform="translate(-51.137 -41.318)" fill="#858585"/>
  </g>
  <g id="Group_371" data-name="Group 371" transform="translate(32.89 28.25)">
    <path id="Path_818" data-name="Path 818" d="M52.858,46.194a1.722,1.722,0,1,0,1.721,1.721A1.723,1.723,0,0,0,52.858,46.194Z" transform="translate(-51.137 -46.194)" fill="#858585"/>
  </g>
  <g id="Group_372" data-name="Group 372" transform="translate(32.89 32.896)">
    <path id="Path_819" data-name="Path 819" d="M52.858,51.071a1.721,1.721,0,1,0,1.721,1.721A1.723,1.723,0,0,0,52.858,51.071Z" transform="translate(-51.137 -51.071)" fill="#858585"/>
  </g>
  <g id="Group_373" data-name="Group 373" transform="translate(28.447 14.494)">
    <path id="Path_820" data-name="Path 820" d="M47.983,31.747a1.523,1.523,0,1,0,1.522,1.523A1.525,1.525,0,0,0,47.983,31.747Z" transform="translate(-46.46 -31.747)" fill="#858585"/>
  </g>
  <g id="Group_374" data-name="Group 374" transform="translate(28.447 19.139)">
    <path id="Path_821" data-name="Path 821" d="M47.983,36.621a1.523,1.523,0,1,0,1.522,1.522A1.524,1.524,0,0,0,47.983,36.621Z" transform="translate(-46.46 -36.621)" fill="#858585"/>
  </g>
  <g id="Group_375" data-name="Group 375" transform="translate(28.447 23.782)">
    <path id="Path_822" data-name="Path 822" d="M47.983,41.493a1.522,1.522,0,1,0,1.522,1.523A1.524,1.524,0,0,0,47.983,41.493Z" transform="translate(-46.46 -41.493)" fill="#858585"/>
  </g>
  <g id="Group_376" data-name="Group 376" transform="translate(28.447 28.425)">
    <path id="Path_823" data-name="Path 823" d="M47.983,46.365a1.522,1.522,0,1,0,1.522,1.523A1.524,1.524,0,0,0,47.983,46.365Z" transform="translate(-46.46 -46.365)" fill="#858585"/>
  </g>
  <g id="Group_377" data-name="Group 377" transform="translate(24 19.358)">
    <path id="Path_824" data-name="Path 824" d="M43.107,36.842a1.325,1.325,0,1,0,1.324,1.325A1.325,1.325,0,0,0,43.107,36.842Z" transform="translate(-41.783 -36.842)" fill="#858585"/>
  </g>
  <g id="Group_378" data-name="Group 378" transform="translate(24 24.009)">
    <path id="Path_825" data-name="Path 825" d="M43.107,41.72a1.324,1.324,0,1,0,1.324,1.324A1.324,1.324,0,0,0,43.107,41.72Z" transform="translate(-41.783 -41.72)" fill="#858585"/>
  </g>
  <g id="Group_379" data-name="Group 379" transform="translate(32.687 37.045)">
    <path id="Path_826" data-name="Path 826" d="M52.859,55.7a1.92,1.92,0,1,0,1.919,1.919A1.921,1.921,0,0,0,52.859,55.7Z" transform="translate(-50.939 -55.701)" fill="#858585"/>
  </g>
  <g id="Group_380" data-name="Group 380" transform="translate(28.044 37.051)">
    <path id="Path_827" data-name="Path 827" d="M47.983,55.707A1.919,1.919,0,1,0,49.9,57.626,1.921,1.921,0,0,0,47.983,55.707Z" transform="translate(-46.063 -55.707)" fill="#858585"/>
  </g>
  <g id="Group_381" data-name="Group 381" transform="translate(23.402 37.056)">
    <path id="Path_828" data-name="Path 828" d="M43.107,55.712a1.919,1.919,0,1,0,1.92,1.919A1.92,1.92,0,0,0,43.107,55.712Z" transform="translate(-41.188 -55.712)" fill="#858585"/>
  </g>
  <g id="Group_382" data-name="Group 382" transform="translate(18.759 37.062)">
    <path id="Path_829" data-name="Path 829" d="M38.231,55.718a1.919,1.919,0,1,0,1.92,1.919A1.921,1.921,0,0,0,38.231,55.718Z" transform="translate(-36.312 -55.718)" fill="#858585"/>
  </g>
  <g id="Group_383" data-name="Group 383" transform="translate(14.116 37.067)">
    <path id="Path_830" data-name="Path 830" d="M33.355,55.723a1.919,1.919,0,1,0,1.919,1.919A1.921,1.921,0,0,0,33.355,55.723Z" transform="translate(-31.436 -55.723)" fill="#858585"/>
  </g>
  <g id="Group_384" data-name="Group 384" transform="translate(9.473 37.072)">
    <path id="Path_831" data-name="Path 831" d="M28.479,55.728A1.919,1.919,0,1,0,30.4,57.647,1.921,1.921,0,0,0,28.479,55.728Z" transform="translate(-26.56 -55.728)" fill="#858585"/>
  </g>
  <g id="Group_385" data-name="Group 385" transform="translate(5.073 37.077)">
    <path id="Path_832" data-name="Path 832" d="M23.6,55.733a1.919,1.919,0,1,0,1.919,1.919A1.922,1.922,0,0,0,23.6,55.733Z" transform="translate(-21.684 -55.733)" fill="#858585"/>
  </g>
  <g id="Group_386" data-name="Group 386" transform="translate(28.245 32.895)">
    <path id="Path_833" data-name="Path 833" d="M47.983,51.07A1.722,1.722,0,1,0,49.7,52.791,1.724,1.724,0,0,0,47.983,51.07Z" transform="translate(-46.261 -51.07)" fill="#858585"/>
  </g>
  <g id="Group_387" data-name="Group 387" transform="translate(23.601 32.895)">
    <path id="Path_834" data-name="Path 834" d="M43.107,51.07a1.721,1.721,0,1,0,1.721,1.721A1.723,1.723,0,0,0,43.107,51.07Z" transform="translate(-41.386 -51.07)" fill="#858585"/>
  </g>
  <g id="Group_388" data-name="Group 388" transform="translate(18.956 32.894)">
    <path id="Path_835" data-name="Path 835" d="M38.231,51.069a1.722,1.722,0,1,0,1.721,1.721A1.723,1.723,0,0,0,38.231,51.069Z" transform="translate(-36.51 -51.069)" fill="#858585"/>
  </g>
  <g id="Group_389" data-name="Group 389" transform="translate(14.311 32.894)">
    <path id="Path_836" data-name="Path 836" d="M33.355,51.069a1.721,1.721,0,1,0,1.721,1.721A1.723,1.723,0,0,0,33.355,51.069Z" transform="translate(-31.634 -51.069)" fill="#858585"/>
  </g>
  <g id="Group_390" data-name="Group 390" transform="translate(9.666 32.893)">
    <path id="Path_837" data-name="Path 837" d="M28.479,51.068A1.722,1.722,0,1,0,30.2,52.789,1.723,1.723,0,0,0,28.479,51.068Z" transform="translate(-26.758 -51.068)" fill="#858585"/>
  </g>
  <g id="Group_391" data-name="Group 391" transform="translate(23.8 28.428)">
    <path id="Path_838" data-name="Path 838" d="M43.107,46.368a1.523,1.523,0,1,0,1.522,1.524A1.525,1.525,0,0,0,43.107,46.368Z" transform="translate(-41.584 -46.368)" fill="#858585"/>
  </g>
  <g id="Group_392" data-name="Group 392" transform="translate(19.154 28.432)">
    <path id="Path_839" data-name="Path 839" d="M38.232,46.372a1.522,1.522,0,1,0,1.522,1.522A1.524,1.524,0,0,0,38.232,46.372Z" transform="translate(-36.709 -46.372)" fill="#858585"/>
  </g>
  <g id="Group_393" data-name="Group 393" transform="translate(14.506 28.435)">
    <path id="Path_840" data-name="Path 840" d="M33.355,46.375A1.523,1.523,0,1,0,34.878,47.9,1.526,1.526,0,0,0,33.355,46.375Z" transform="translate(-31.832 -46.375)" fill="#858585"/>
  </g>
  <g id="Group_394" data-name="Group 394" transform="translate(19.351 24.008)">
    <path id="Path_841" data-name="Path 841" d="M38.231,41.719a1.324,1.324,0,1,0,1.324,1.324A1.325,1.325,0,0,0,38.231,41.719Z" transform="translate(-36.907 -41.719)" fill="#858585"/>
  </g>
  <g id="Group_395" data-name="Group 395" transform="translate(0 41.766)">
    <path id="Path_842" data-name="Path 842" d="M18.728,60.422a2.117,2.117,0,1,0,2.118,2.118A2.119,2.119,0,0,0,18.728,60.422Z" transform="translate(-16.611 -60.422)" fill="#858585"/>
  </g>
  <g id="Group_396" data-name="Group 396" transform="translate(4.876 41.766)">
    <path id="Path_843" data-name="Path 843" d="M23.6,60.422a2.117,2.117,0,1,0,2.118,2.118A2.119,2.119,0,0,0,23.6,60.422Z" transform="translate(-21.487 -60.422)" fill="#858585"/>
  </g>
  <g id="Group_397" data-name="Group 397" transform="translate(9.281 41.766)">
    <path id="Path_844" data-name="Path 844" d="M28.48,60.422A2.117,2.117,0,1,0,30.6,62.54,2.12,2.12,0,0,0,28.48,60.422Z" transform="translate(-26.362 -60.422)" fill="#858585"/>
  </g>
  <g id="Group_398" data-name="Group 398" transform="translate(13.921 41.766)">
    <path id="Path_845" data-name="Path 845" d="M33.356,60.422a2.117,2.117,0,1,0,2.117,2.118A2.12,2.12,0,0,0,33.356,60.422Z" transform="translate(-31.238 -60.422)" fill="#858585"/>
  </g>
  <g id="Group_399" data-name="Group 399" transform="translate(18.562 41.766)">
    <path id="Path_846" data-name="Path 846" d="M38.231,60.422a2.117,2.117,0,1,0,2.118,2.118A2.119,2.119,0,0,0,38.231,60.422Z" transform="translate(-36.114 -60.422)" fill="#858585"/>
  </g>
  <g id="Group_400" data-name="Group 400" transform="translate(23.203 41.766)">
    <path id="Path_847" data-name="Path 847" d="M43.108,60.422a2.117,2.117,0,1,0,2.117,2.118A2.12,2.12,0,0,0,43.108,60.422Z" transform="translate(-40.99 -60.422)" fill="#858585"/>
  </g>
  <g id="Group_401" data-name="Group 401" transform="translate(27.844 41.766)">
    <path id="Path_848" data-name="Path 848" d="M47.983,60.422A2.117,2.117,0,1,0,50.1,62.54,2.12,2.12,0,0,0,47.983,60.422Z" transform="translate(-45.866 -60.422)" fill="#858585"/>
  </g>
  <g id="Group_402" data-name="Group 402" transform="translate(32.484 41.766)">
    <path id="Path_849" data-name="Path 849" d="M52.859,60.422a2.117,2.117,0,1,0,2.118,2.118A2.12,2.12,0,0,0,52.859,60.422Z" transform="translate(-50.742 -60.422)" fill="#858585"/>
  </g>
  <g id="Group_403" data-name="Group 403" transform="translate(36.889 41.766)">
    <path id="Path_850" data-name="Path 850" d="M57.735,60.422a2.117,2.117,0,1,0,2.117,2.118A2.12,2.12,0,0,0,57.735,60.422Z" transform="translate(-55.617 -60.422)" fill="#858585"/>
  </g>
  <g id="Group_404" data-name="Group 404" transform="translate(41.766)">
    <path id="Path_851" data-name="Path 851" d="M62.611,16.539a2.118,2.118,0,1,0,2.117,2.118A2.12,2.12,0,0,0,62.611,16.539Z" transform="translate(-60.494 -16.539)" fill="#858585"/>
  </g>
  <g id="Group_405" data-name="Group 405" transform="translate(41.766 4.876)">
    <path id="Path_852" data-name="Path 852" d="M62.611,21.415a2.117,2.117,0,1,0,2.117,2.118A2.121,2.121,0,0,0,62.611,21.415Z" transform="translate(-60.494 -21.415)" fill="#858585"/>
  </g>
  <g id="Group_406" data-name="Group 406" transform="translate(41.766 9.282)">
    <path id="Path_853" data-name="Path 853" d="M62.611,26.291a2.117,2.117,0,1,0,2.117,2.118A2.12,2.12,0,0,0,62.611,26.291Z" transform="translate(-60.494 -26.291)" fill="#858585"/>
  </g>
  <g id="Group_407" data-name="Group 407" transform="translate(41.766 13.922)">
    <path id="Path_854" data-name="Path 854" d="M62.611,31.167a2.118,2.118,0,1,0,2.117,2.118A2.12,2.12,0,0,0,62.611,31.167Z" transform="translate(-60.494 -31.167)" fill="#858585"/>
  </g>
  <g id="Group_408" data-name="Group 408" transform="translate(41.766 18.562)">
    <path id="Path_855" data-name="Path 855" d="M62.611,36.042a2.118,2.118,0,1,0,2.117,2.118A2.121,2.121,0,0,0,62.611,36.042Z" transform="translate(-60.494 -36.042)" fill="#858585"/>
  </g>
  <g id="Group_409" data-name="Group 409" transform="translate(41.766 23.204)">
    <path id="Path_856" data-name="Path 856" d="M62.611,40.919a2.117,2.117,0,1,0,2.117,2.117A2.12,2.12,0,0,0,62.611,40.919Z" transform="translate(-60.494 -40.919)" fill="#858585"/>
  </g>
  <g id="Group_410" data-name="Group 410" transform="translate(41.766 27.844)">
    <path id="Path_857" data-name="Path 857" d="M62.611,45.794a2.118,2.118,0,1,0,2.117,2.118A2.12,2.12,0,0,0,62.611,45.794Z" transform="translate(-60.494 -45.794)" fill="#858585"/>
  </g>
  <g id="Group_411" data-name="Group 411" transform="translate(41.766 32.485)">
    <path id="Path_858" data-name="Path 858" d="M62.611,50.671a2.117,2.117,0,1,0,2.117,2.117A2.12,2.12,0,0,0,62.611,50.671Z" transform="translate(-60.494 -50.671)" fill="#858585"/>
  </g>
  <g id="Group_412" data-name="Group 412" transform="translate(41.766 36.89)">
    <path id="Path_859" data-name="Path 859" d="M62.611,55.546a2.117,2.117,0,1,0,2.117,2.117A2.12,2.12,0,0,0,62.611,55.546Z" transform="translate(-60.494 -55.546)" fill="#858585"/>
  </g>
  <g id="Group_413" data-name="Group 413" transform="translate(41.766 41.766)">
    <path id="Path_860" data-name="Path 860" d="M62.611,60.422a2.117,2.117,0,1,0,2.117,2.118A2.12,2.12,0,0,0,62.611,60.422Z" transform="translate(-60.494 -60.422)" fill="#858585"/>
  </g>
</svg>
