<svg id="Anteckning_information_låst" data-name="Anteckning/information låst" xmlns="http://www.w3.org/2000/svg" width="13" height="13" viewBox="0 0 17 17">
  <g id="Group_325" data-name="Group 325">
    <circle id="Ellipse_658" data-name="Ellipse 658" cx="8.5" cy="8.5" r="8.5" transform="translate(0)" fill="#b63418"/>
  </g>
  <g id="Group_346" data-name="Group 346" transform="translate(7.27 2.33)">
    <path id="Path_784" data-name="Path 784" d="M33.259,12.61a1.255,1.255,0,0,0,.927-.367,1.233,1.233,0,0,0,.367-.909,1.255,1.255,0,0,0-.367-.927,1.234,1.234,0,0,0-.909-.367,1.219,1.219,0,0,0-.909.376,1.264,1.264,0,0,0-.367.918,1.234,1.234,0,0,0,.367.909A1.213,1.213,0,0,0,33.259,12.61Z" transform="translate(-32 -10.04)" fill="#fff"/>
    <path id="Path_785" data-name="Path 785" d="M34.946,27a.523.523,0,0,0-.385-.157h-.938a.538.538,0,0,0-.542.542v7.763a.538.538,0,0,0,.542.542h.938a.537.537,0,0,0,.542-.542V27.382A.522.522,0,0,0,34.946,27Z" transform="translate(-32.83 -23.253)" fill="#fff"/>
  </g>
</svg>
