<svg id="Group_4690" data-name="Group 4690" xmlns="http://www.w3.org/2000/svg" width="16.43" height="16.43" viewBox="0 0 16.43 16.43">
  <g id="Group_325" data-name="Group 325" transform="translate(0 0)">
    <ellipse id="Ellipse_658" data-name="Ellipse 658" cx="8.215" cy="8.215" rx="8.215" ry="8.215" transform="translate(0)" fill="#e67314"/>
  </g>
  <g id="Group_439" data-name="Group 439" transform="translate(7.048 2.211)">
    <path id="Path_866" data-name="Path 866" d="M33.195,12.479a1.191,1.191,0,0,0,.879-.348,1.17,1.17,0,0,0,.349-.863,1.191,1.191,0,0,0-.349-.879,1.171,1.171,0,0,0-.863-.348,1.157,1.157,0,0,0-.863.357,1.2,1.2,0,0,0-.349.871,1.171,1.171,0,0,0,.349.863A1.151,1.151,0,0,0,33.195,12.479Z" transform="translate(-32 -10.04)" fill="#fff"/>
    <path id="Path_867" data-name="Path 867" d="M34.851,26.989a.5.5,0,0,0-.365-.149H33.6a.51.51,0,0,0-.514.514v7.367a.51.51,0,0,0,.514.514h.89A.51.51,0,0,0,35,34.721V27.354A.5.5,0,0,0,34.851,26.989Z" transform="translate(-32.843 -23.14)" fill="#fff"/>
  </g>
</svg>
