<svg id="Anteckning_information_låst" data-name="Anteckning/information låst" xmlns="http://www.w3.org/2000/svg" width="11.215" height="11.215" viewBox="0 0 11.215 11.215">
  <g id="Group_325" data-name="Group 325">
    <ellipse id="Ellipse_658" data-name="Ellipse 658" cx="5.608" cy="5.608" rx="5.608" ry="5.608" fill="#017a32"/>
  </g>
  <g id="Group_346" data-name="Group 346" transform="translate(4.796 1.537)">
    <path id="Path_784" data-name="Path 784" d="M32.83,11.735a.828.828,0,0,0,.611-.242.814.814,0,0,0,.242-.6.828.828,0,0,0-.242-.611.814.814,0,0,0-.6-.242.8.8,0,0,0-.6.248.834.834,0,0,0-.242.606.814.814,0,0,0,.242.6A.8.8,0,0,0,32.83,11.735Z" transform="translate(-32 -10.04)" fill="#fff"/>
    <path id="Path_785" data-name="Path 785" d="M34.311,26.944a.345.345,0,0,0-.254-.1h-.619a.355.355,0,0,0-.358.357v5.121a.355.355,0,0,0,.358.357h.619a.354.354,0,0,0,.357-.357V27.2A.344.344,0,0,0,34.311,26.944Z" transform="translate(-32.915 -24.474)" fill="#fff"/>
  </g>
</svg>
