<svg xmlns="http://www.w3.org/2000/svg" width="10.4" height="13.86" viewBox="0 0 10.4 13.86"><defs><style>.a{fill:#4d4d4d;}</style></defs><g transform="translate(-36.548)"><path class="a" d="M46.7,6.576a.8.8,0,0,0-.614-.276h-.289V4.41A4.442,4.442,0,0,0,44.6,1.3a3.781,3.781,0,0,0-5.706,0A4.442,4.442,0,0,0,37.7,4.41V6.3h-.289a.8.8,0,0,0-.614.276.954.954,0,0,0-.253.669v5.67a.955.955,0,0,0,.253.669.8.8,0,0,0,.614.276h8.667a.8.8,0,0,0,.614-.276.956.956,0,0,0,.253-.669V7.245A.954.954,0,0,0,46.7,6.576ZM44.059,6.3H39.437V4.41a2.542,2.542,0,0,1,.677-1.782,2.178,2.178,0,0,1,3.268,0,2.543,2.543,0,0,1,.677,1.782Z" transform="translate(0 0)"/></g></svg>