<svg id="X_icon" data-name="X icon" xmlns="http://www.w3.org/2000/svg" xmlns:xlink="http://www.w3.org/1999/xlink" width="14.589" height="14.589" viewBox="0 0 14.589 14.589">
  <defs>
    <clipPath id="clip-path">
      <path id="Path_736" data-name="Path 736" d="M0,8.54H14.589V-6.049H0Z" transform="translate(0 6.049)" fill="none"/>
    </clipPath>
  </defs>
  <g id="Group_291" data-name="Group 291" clip-path="url(#clip-path)">
    <g id="Group_289" data-name="Group 289" transform="translate(-0.001 0.002)">
      <path id="Path_734" data-name="Path 734" d="M8.54,4.269A7.294,7.294,0,1,1,1.246-3.024,7.293,7.293,0,0,1,8.54,4.269" transform="translate(6.049 3.024)" fill="#b63418"/>
    </g>
    <g id="Group_290" data-name="Group 290" transform="translate(3.02 3.032)">
      <path id="Path_735" data-name="Path 735" d="M4.874,4.231,1.886,1.243l2.993-3a.574.574,0,0,0,0-.842l-.215-.215a.574.574,0,0,0-.863.048L.84.2-2.182-2.816a.584.584,0,0,0-.859.014l-.224.222a.585.585,0,0,0,.029.883L-.248,1.286S-3.142,4.195-3.241,4.291a.574.574,0,0,0,0,.842l.215.215A.574.574,0,0,0-2.168,5.3L.8,2.333,3.82,5.35a.585.585,0,0,0,.861-.014l.224-.222a.583.583,0,0,0-.031-.883" transform="translate(3.453 2.997)" fill="#fcf4ec"/>
    </g>
  </g>
</svg>
