<svg id="NY_map_orange_NY" data-name="NY map orange NY" xmlns="http://www.w3.org/2000/svg" viewBox="0 0 44.83 34.74"><defs><style>.cls-1{fill:#fff;}.cls-2{fill:#e4b075;opacity:0.6;}.cls-3{fill:#e67314;}</style></defs><path class="cls-1" d="M57,23,36.5,23,34,20.37a1.58,1.58,0,0,0-1.34-.74H19.68c-2.59,0-4.69,1.65-4.69,4.26V51.63a2.74,2.74,0,0,0,2.73,2.74H57a2.74,2.74,0,0,0,2.72-2.74V25.74A2.74,2.74,0,0,0,57,23Z" transform="translate(-14.92 -19.63)"/><path class="cls-2" d="M57,23,36.5,23,34,20.37a1.58,1.58,0,0,0-1.34-.74H19.68c-2.59,0-4.69,1.65-4.69,4.26V51.63a2.74,2.74,0,0,0,2.73,2.74H57a2.74,2.74,0,0,0,2.72-2.74V25.74A2.74,2.74,0,0,0,57,23Z" transform="translate(-14.92 -19.63)"/><path class="cls-3" d="M57,26.54H17.64a2.72,2.72,0,0,0-2.72,2.7L15,49.74a2.63,2.63,0,0,0,.21,1,2.68,2.68,0,0,0,1,1.19,2.73,2.73,0,0,0,1.52.46H57a2.71,2.71,0,0,0,2.72-2.7l-.06-20.5A2.72,2.72,0,0,0,57,26.54Z" transform="translate(-14.92 -19.63)"/></svg>
