<svg id="NY_map_grund_kopia" data-name="NY map grund kopia" xmlns="http://www.w3.org/2000/svg" viewBox="0 0 44.76 34.74"><defs><style>.cls-1{fill:#858585;}</style></defs><path class="cls-1" d="M57,23,36.5,23,34,20.37c-.52-.55-.75-.74-1.34-.74H19.68c-2.59,0-4.69,1.65-4.69,4.26V51.63a2.74,2.74,0,0,0,2.73,2.74H57a2.74,2.74,0,0,0,2.72-2.74V25.74A2.74,2.74,0,0,0,57,23ZM19.68,20.88H32.62s.07,0,.05,0a2.77,2.77,0,0,1,.4.38l2.53,2.57a1.27,1.27,0,0,0,.89.38L57,24.25a1.48,1.48,0,0,1,1.47,1.49v2.43H16.24V23.89C16.24,21.82,18,20.88,19.68,20.88ZM16.24,51.57V29.42H58.5V51.57Z" transform="translate(-14.99 -19.63)"/></svg>
