<svg xmlns="http://www.w3.org/2000/svg" width="10.398" height="13.866" viewBox="0 0 10.398 13.866"><defs><style>.a{fill:#4d4d4d;}</style></defs><path class="a" d="M64.962,7.184a.835.835,0,0,0-.614-.253H57.706V4.043a2.226,2.226,0,0,1,.677-1.634,2.31,2.31,0,0,1,3.267,0,2.226,2.226,0,0,1,.677,1.634.585.585,0,0,0,.577.578h.578a.585.585,0,0,0,.577-.578,3.894,3.894,0,0,0-1.187-2.856,4.031,4.031,0,0,0-5.713,0,3.894,3.894,0,0,0-1.187,2.856V6.931h-.289a.863.863,0,0,0-.866.866V13a.863.863,0,0,0,.866.866h8.664A.863.863,0,0,0,65.215,13V7.8a.835.835,0,0,0-.253-.616Z" transform="translate(-54.817 0)"/></svg>