<svg xmlns="http://www.w3.org/2000/svg" width="16.863" height="10.24" viewBox="0 0 16.863 10.24">
  <path id="Path_4494" data-name="Path 4494" d="M47.628,24.233l7.114-4.63a.382.382,0,0,0,.232-.369.368.368,0,0,0-.219-.346L47.683,14.3a1.022,1.022,0,0,0-.492-.15.878.878,0,0,0-.532.19l-.387.268-.014.011a.478.478,0,0,0-.177.3c0,.18.2.317.379.422,3.189,2.018,4.582,2.849,5.271,3.248-2.174-.011-4.926-.011-12.9-.011-.433,0-.724.2-.724.489v.357c0,.3.3.474.814.474,7.728,0,10.69,0,12.83-.022-.655.4-2,1.228-5.456,3.41-.148.1-.241.189-.241.346,0,.124.116.215.21.289l.417.309a.823.823,0,0,0,.483.158.85.85,0,0,0,.46-.158" transform="translate(-38.111 -14.151)" fill="white"/>
</svg>
