<svg id="Group_6017" data-name="Group 6017" xmlns="http://www.w3.org/2000/svg" xmlns:xlink="http://www.w3.org/1999/xlink" width="13.374" height="12.789" viewBox="0 0 13.374 12.789">
  <defs>
    <clipPath id="clip-path">
      <rect id="Rectangle_16560" data-name="Rectangle 16560" width="13.374" height="12.789" fill="none"/>
    </clipPath>
  </defs>
  <g id="Group_6016" data-name="Group 6016" clip-path="url(#clip-path)">
    <path id="Path_4479" data-name="Path 4479" d="M7.186,2.544V1.915a1.915,1.915,0,0,0-3.831,0V3.8L.568,6.588a1.946,1.946,0,0,0,0,2.749L3.451,12.22a1.944,1.944,0,0,0,2.749,0L10.55,7.87v4.813h.8V11.92h.776v-.764H12.9s1.056-4.258,0-5.566C11.228,3.515,7.186,2.544,7.186,2.544M6.82,5.526a.438.438,0,1,1-.31.128.435.435,0,0,1,.31-.128M4.127,1.915a1.143,1.143,0,0,1,2.278-.142l-.238-.238-.273-.273-.273.273L4.127,3.029Zm1.527,9.759a1.174,1.174,0,0,1-1.658,0L1.114,8.792a1.174,1.174,0,0,1,0-1.658l4.78-4.78.521.521V5.032a1.022,1.022,0,1,0,.772-.015V3.646l3.248,3.248Z" transform="translate(0 0)" fill="#fff"/>
  </g>
</svg>
