<svg id="Kalender_tom_icon" data-name="Kalender tom icon" xmlns="http://www.w3.org/2000/svg" width="9.591" height="9.355" viewBox="0 0 9.591 9.355">
  <path id="Path_750" data-name="Path 750" d="M25.564,18.483H24.349v1c0,.007,0,.014,0,.021s0,.015,0,.022v.026h0a.821.821,0,0,1-1.637,0h0v-.027c0-.007,0-.014,0-.022s0-.013,0-.02v-1H19.427v.989c0,.01,0,.019,0,.029s0,.021,0,.032v.017h0a.821.821,0,0,1-1.637,0h0v-.036s0-.008,0-.013,0-.008,0-.012V18.483H16.5a.261.261,0,0,0-.264.256v8.246a.261.261,0,0,0,.264.256h9.064a.261.261,0,0,0,.264-.256V18.739A.261.261,0,0,0,25.564,18.483Zm-.612,7.65a.261.261,0,0,1-.264.256H17.376a.261.261,0,0,1-.264-.256V21.074a.261.261,0,0,1,.264-.256h7.312a.261.261,0,0,1,.264.256Z" transform="translate(-16.236 -17.886)" fill="#fff"/>
  <path id="Path_751" data-name="Path 751" d="M47.128,17.189c.3,0,.55-.167.55-.373V15.472c0-.206-.246-.373-.55-.373s-.549.167-.549.373v1.344C46.579,17.022,46.825,17.189,47.128,17.189Z" transform="translate(-39.839 -15.099)" fill="#fbfdff"/>
  <path id="Path_752" data-name="Path 752" d="M25.482,17.189c.327,0,.592-.167.592-.373V15.472c0-.206-.265-.373-.592-.373s-.592.167-.592.373v1.344C24.89,17.022,25.155,17.189,25.482,17.189Z" transform="translate(-23.104 -15.099)" fill="#fff"/>
</svg>
