<svg xmlns="http://www.w3.org/2000/svg" xmlns:xlink="http://www.w3.org/1999/xlink" width="22" height="9" viewBox="0 0 22 9">
  <defs>
    <clipPath id="clip-path">
      <rect id="Rectangle_17189" data-name="Rectangle 17189" width="22" height="9" transform="translate(0 0)" fill="none"/>
    </clipPath>
  </defs>
  <g id="Group_6147" data-name="Group 6147" transform="translate(0 0)">
    <g id="Group_6146" data-name="Group 6146" transform="translate(0 0.001)" clip-path="url(#clip-path)">
      <path id="Path_4488" data-name="Path 4488" d="M33.249,3.222a3.81,3.81,0,0,0-.647-1.2,6.734,6.734,0,0,0-.76-.781A4.617,4.617,0,0,0,30.462.5,4.351,4.351,0,0,0,29.312.272c-.4-.023-4.415-.061-5-.047A2.237,2.237,0,0,0,23.609.3a.719.719,0,0,0,.119.092A5.255,5.255,0,0,1,25.21,2.03l.147.244,1.759.026a9.806,9.806,0,0,1,2.6.138A2.314,2.314,0,0,1,31.239,3.99a2.654,2.654,0,0,1,.085.744,2.027,2.027,0,0,1-.448,1.375,4.341,4.341,0,0,1-.784.69,2.009,2.009,0,0,1-1.025.253c-1.126.026-4.436-.015-4.927-.062A2.264,2.264,0,0,1,23.1,6.6a2.7,2.7,0,0,1-.622-.659,2.092,2.092,0,0,1-.357-1.084,2.472,2.472,0,0,0-.094-.5.59.59,0,0,0-.178-.3.991.991,0,0,0-.808-.347,1.007,1.007,0,0,0-.811.332,1.09,1.09,0,0,0-.252.816,4.16,4.16,0,0,0,1.1,2.742,4.673,4.673,0,0,0,2.974,1.48c.408.031,2.249.06,3.457.055a8.038,8.038,0,0,0,2.7-.167,4.9,4.9,0,0,0,1.251-.55,5.459,5.459,0,0,0,1.364-1.34,4.6,4.6,0,0,0,.43-3.851" transform="translate(-11.486 -0.132)" fill="#fff"/>
      <path id="Path_4489" data-name="Path 4489" d="M9.615,8.641A5.541,5.541,0,0,1,8.273,7.1c-.066-.114-.127-.215-.136-.223s-.67-.023-1.469-.033a14.568,14.568,0,0,1-2.9-.134,2.021,2.021,0,0,1-.894-.568,2.025,2.025,0,0,1-.715-1.67A2.267,2.267,0,0,1,3.676,2.216c.371-.141.542-.149,2.955-.132,2.471.018,2.8.035,3.16.161a2.281,2.281,0,0,1,1.422,1.328,2.136,2.136,0,0,1,.158.719,1.241,1.241,0,0,0,.258.787,1.065,1.065,0,0,0,.458.306,1.469,1.469,0,0,0,.691.014,1.071,1.071,0,0,0,.583-.427,2.067,2.067,0,0,0,.069-1.447,3.861,3.861,0,0,0-.813-1.731,6.115,6.115,0,0,0-.764-.8A4.672,4.672,0,0,0,10.466.279,3.289,3.289,0,0,0,9.616.085c-.93-.061-4.593-.11-5.41-.072A4.567,4.567,0,0,0,1.853.832a5.709,5.709,0,0,0-.906.852A4.364,4.364,0,0,0,.024,3.878a6.007,6.007,0,0,0-.007.982A4.659,4.659,0,0,0,.632,6.744,5.121,5.121,0,0,0,1.943,8.1a5.087,5.087,0,0,0,1.251.582,4.771,4.771,0,0,0,1.575.2c1.373.049,3.81.052,4.685.005a1.069,1.069,0,0,0,.39-.054,2.474,2.474,0,0,0-.229-.2" transform="translate(0 0)" fill="#fff"/>
    </g>
  </g>
</svg>
