<svg xmlns="http://www.w3.org/2000/svg" xmlns:xlink="http://www.w3.org/1999/xlink" width="21" height="17" viewBox="0 0 21 17">
  <defs>
    <clipPath id="clip-path">
      <rect id="Rectangle_17188" data-name="Rectangle 17188" width="21" height="17" transform="translate(-0.158 -0.113)" fill="none"/>
    </clipPath>
  </defs>
  <g id="Group_6145" data-name="Group 6145" transform="translate(0.158 0.114)">
    <g id="Group_6144" data-name="Group 6144" transform="translate(0 0)" clip-path="url(#clip-path)">
      <path id="Path_4482" data-name="Path 4482" d="M5.846,17.673l-.357-.005-.72-.013H4.7l-.114,0-.095,0-.09,0-.085,0-.08,0-.071,0-.07,0-.061,0-.057,0-.052,0-.049,0-.046,0-.04,0-.039,0-.034,0L3.685,17.6l-.028,0-.031-.006L3.6,17.584l-.031-.008-.019-.005-.031-.009L3.5,17.556l-.048-.016a2.186,2.186,0,0,1-.535-.275,4.337,4.337,0,0,1-.54-.537,1.939,1.939,0,0,1-.32-.675,2.5,2.5,0,0,1-.065-.386c0-.06-.009-.121-.011-.186,0-.028,0-.057,0-.085s0-.036,0-.055A3.046,3.046,0,0,1,2,15.006c.005-.046.012-.091.021-.135,0-.017.007-.033.011-.05.009-.041.017-.082.028-.124a1.966,1.966,0,0,1,.076-.227l.019-.045c.025-.057.053-.114.083-.169a2.025,2.025,0,0,1,.151-.231,4.408,4.408,0,0,1,.575-.556,2.2,2.2,0,0,1,.5-.246,8.645,8.645,0,0,1,2.393-.112l5.043-.01h0L9.2,11.13c-.464,0-.784,0-.835,0l-.13,0H6.755c-.438,0-.883-.007-1.262-.005a7.09,7.09,0,0,0-2.483.16,4.43,4.43,0,0,0-1.149.527c-.061.042-.123.089-.187.14-.047.035-.1.069-.141.1-.087.072-.221.2-.353.341a4.143,4.143,0,0,0-.571.7c-.042.069-.076.142-.113.214-.014.025-.028.052-.041.077-.033.066-.066.132-.095.2-.037.087-.073.178-.107.274a4.515,4.515,0,0,0-.128.44A4.62,4.62,0,0,0,0,15.4H0c0,.135.007.269.019.4,0,.032.007.065.011.1.011.1.025.2.044.3.007.04.014.079.022.119.02.1.043.191.068.284.01.037.019.075.03.111.039.127.08.252.13.375l.005.014a4.072,4.072,0,0,0,.259.535,4.359,4.359,0,0,0,.636.773c.108.112.211.214.283.274.033.028.072.054.108.082.073.06.145.116.215.166a4.415,4.415,0,0,0,1.144.537,7.088,7.088,0,0,0,2.482.182h.034c.371,0,.8.006,1.23.005.261,0,.938,0,1.735,0L6.728,17.677Z" transform="translate(0 -6.787)" fill="#fff"/>
      <path id="Path_4483" data-name="Path 4483" d="M35.918,15.9a4.7,4.7,0,0,0,.028-.5,4.572,4.572,0,0,0-.323-1.694l-.005-.013a3.955,3.955,0,0,0-.259-.535,4.346,4.346,0,0,0-.636-.773c-.108-.112-.211-.214-.283-.274-.034-.028-.073-.054-.108-.082-.073-.059-.145-.116-.215-.165a4.409,4.409,0,0,0-1.144-.537,7.085,7.085,0,0,0-2.482-.182c-.378,0-.824-.006-1.263-.005-.261,0-.939,0-1.736,0l1.725,1.984.883,0a8.645,8.645,0,0,1,2.392.132,2.2,2.2,0,0,1,.534.275,4.309,4.309,0,0,1,.54.536,1.937,1.937,0,0,1,.32.676,2.442,2.442,0,0,1,.065.386c0,.06.009.121.011.186,0,.028,0,.057,0,.086s0,.036,0,.055a3.057,3.057,0,0,1-.022.335c-.006.046-.012.091-.021.135,0,.018-.008.034-.011.051-.009.041-.017.082-.028.123a1.939,1.939,0,0,1-.076.227l-.019.045c-.025.058-.053.114-.083.169a1.978,1.978,0,0,1-.151.232,4.382,4.382,0,0,1-.575.556,2.182,2.182,0,0,1-.5.246,8.622,8.622,0,0,1-2.393.112l-2.233,0-2.81.005h0l1.713,1.971c.464,0,.784,0,.835,0l.13,0h1.476c.438,0,.884.007,1.262.005a7.1,7.1,0,0,0,2.483-.16,4.411,4.411,0,0,0,1.149-.527c.061-.043.124-.09.187-.14.047-.035.1-.069.141-.1a4.883,4.883,0,0,0,.353-.341,4.147,4.147,0,0,0,.572-.7c.042-.068.075-.142.113-.214l.041-.077c.033-.066.065-.132.094-.2.038-.086.073-.178.107-.273a4.407,4.407,0,0,0,.128-.44,4.535,4.535,0,0,0,.087-.49c0-.033.008-.065.012-.1" transform="translate(-15.268 -6.789)" fill="#fff"/>
      <path id="Path_4484" data-name="Path 4484" d="M17.745,3.558,15.411,1.334,14,1.219l3.037,2.894Z" transform="translate(-8.535 -0.743)" fill="#ff8787"/>
      <rect id="Rectangle_17186" data-name="Rectangle 17186" width="0.959" height="3.054" transform="translate(10.25)" fill="#ff8787"/>
      <path id="Path_4485" data-name="Path 4485" d="M35.122,1.189l-1.4.122L31.4,3.547l.715.552Z" transform="translate(-19.151 -0.725)" fill="#ff8787"/>
      <path id="Path_4486" data-name="Path 4486" d="M29.325,35.815l2.334,1.98,1.414.1-3.037-2.576Z" transform="translate(-17.882 -21.539)" fill="#ff8787"/>
      <rect id="Rectangle_17187" data-name="Rectangle 17187" width="0.959" height="2.761" transform="translate(9.443 14.021)" fill="#ff8787"/>
      <path id="Path_4487" data-name="Path 4487" d="M12,37.9l1.4-.109,2.32-1.99L15,35.313Z" transform="translate(-7.316 -21.533)" fill="#ff8787"/>
    </g>
  </g>
</svg>
