<svg xmlns="http://www.w3.org/2000/svg" xmlns:xlink="http://www.w3.org/1999/xlink" width="16" height="16" viewBox="0 0 16 16">
  <defs>
    <clipPath id="clip-path">
      <rect id="Rectangle_17189" data-name="Rectangle 17189" width="10.83" height="4.431" fill="none"/>
    </clipPath>
  </defs>
  <g id="Group_6170" data-name="Group 6170" transform="translate(-3924.927 -9443.926)">
    <g id="Path_4619" data-name="Path 4619" transform="translate(3924.927 9443.926)" fill="#fff">
      <path d="M 8 15.5 C 3.864490032196045 15.5 0.5 12.13551044464111 0.5 8 C 0.5 3.864490032196045 3.864490032196045 0.5 8 0.5 C 12.13551044464111 0.5 15.5 3.864490032196045 15.5 8 C 15.5 12.13551044464111 12.13551044464111 15.5 8 15.5 Z" stroke="none"/>
      <path d="M 8 1 C 4.140190124511719 1 1 4.140190124511719 1 8 C 1 11.85980987548828 4.140190124511719 15 8 15 C 11.85980987548828 15 15 11.85980987548828 15 8 C 15 4.140190124511719 11.85980987548828 1 8 1 M 8 0 C 12.41827964782715 0 16 3.581720352172852 16 8 C 16 12.41827964782715 12.41827964782715 16 8 16 C 3.581720352172852 16 0 12.41827964782715 0 8 C 0 3.581720352172852 3.581720352172852 0 8 0 Z" stroke="none" fill="#000"/>
    </g>
    <g id="Group_6167" data-name="Group 6167" transform="matrix(0.839, -0.545, 0.545, 0.839, 3927.178, 9453.019)">
      <g id="Mask_Group_6146" data-name="Mask Group 6146" transform="translate(0 0)" clip-path="url(#clip-path)">
        <path id="Path_4488" data-name="Path 4488" d="M6.536,1.477a1.876,1.876,0,0,0-.319-.59A3.315,3.315,0,0,0,5.843.5,2.273,2.273,0,0,0,5.164.139,2.142,2.142,0,0,0,4.6.025C4.4.013,2.425-.005,2.139,0a1.1,1.1,0,0,0-.348.037.354.354,0,0,0,.059.045A2.587,2.587,0,0,1,2.579.89l.072.12.866.013A4.827,4.827,0,0,1,4.8,1.091a1.139,1.139,0,0,1,.748.764,1.306,1.306,0,0,1,.042.366,1,1,0,0,1-.221.677,2.137,2.137,0,0,1-.386.34.989.989,0,0,1-.5.125c-.555.013-2.184-.007-2.426-.03a1.115,1.115,0,0,1-.514-.193,1.33,1.33,0,0,1-.306-.325,1.03,1.03,0,0,1-.176-.534,1.217,1.217,0,0,0-.046-.245.29.29,0,0,0-.088-.15.488.488,0,0,0-.4-.171.5.5,0,0,0-.4.163A.537.537,0,0,0,0,2.28,2.048,2.048,0,0,0,.54,3.63,2.3,2.3,0,0,0,2,4.359c.2.015,1.107.029,1.7.027A3.957,3.957,0,0,0,5.037,4.3a2.413,2.413,0,0,0,.616-.271,2.688,2.688,0,0,0,.671-.66,2.266,2.266,0,0,0,.212-1.9" transform="translate(4.178 0.044)"/>
        <path id="Path_4489" data-name="Path 4489" d="M4.733,4.254a2.728,2.728,0,0,1-.661-.761c-.032-.056-.063-.106-.067-.11s-.33-.011-.723-.016A7.172,7.172,0,0,1,1.856,3.3a1,1,0,0,1-.44-.279A1,1,0,0,1,1.064,2.2,1.116,1.116,0,0,1,1.81,1.091c.183-.07.267-.073,1.455-.065a5.755,5.755,0,0,1,1.556.079,1.123,1.123,0,0,1,.7.654,1.052,1.052,0,0,1,.078.354.611.611,0,0,0,.127.388.524.524,0,0,0,.225.151.723.723,0,0,0,.34.007.527.527,0,0,0,.287-.21,1.018,1.018,0,0,0,.034-.712,1.9,1.9,0,0,0-.4-.852A3.01,3.01,0,0,0,5.835.491,2.3,2.3,0,0,0,5.152.137a1.619,1.619,0,0,0-.418-.1C4.276.012,2.473-.012,2.07.007A2.248,2.248,0,0,0,.912.41,2.81,2.81,0,0,0,.466.829a2.148,2.148,0,0,0-.454,1.08,2.957,2.957,0,0,0,0,.483,2.294,2.294,0,0,0,.3.928,2.521,2.521,0,0,0,.645.669,2.5,2.5,0,0,0,.616.286,2.349,2.349,0,0,0,.775.1c.676.024,1.876.026,2.307,0a.526.526,0,0,0,.192-.026,1.218,1.218,0,0,0-.113-.1" transform="translate(0 0)"/>
      </g>
    </g>
  </g>
</svg>
