<svg xmlns="http://www.w3.org/2000/svg" xmlns:xlink="http://www.w3.org/1999/xlink" width="16.789" height="16.789" viewBox="0 0 16.789 16.789">
  <defs>
    <clipPath id="clip-path">
      <rect id="Rectangle_17189" data-name="Rectangle 17189" width="11.324" height="4.633" transform="translate(0 0)" fill="none"/>
    </clipPath>
  </defs>
  <g id="Group_6485" data-name="Group 6485" transform="translate(-1730.605 -754.581)">
    <g id="Group_6173" data-name="Group 6173" transform="translate(-2193.927 -8688.95)">
      <g id="Path_4512" data-name="Path 4512" transform="translate(3924.532 9443.531)" fill="#22da40">
        <path d="M 8.39453125 16.28906059265137 C 4.041471481323242 16.28906059265137 0.5000012516975403 12.74759101867676 0.5000012516975403 8.39453125 C 0.5000012516975403 4.041471481323242 4.041471481323242 0.5000012516975403 8.39453125 0.5000012516975403 C 12.74759101867676 0.5000012516975403 16.28906059265137 4.041471481323242 16.28906059265137 8.39453125 C 16.28906059265137 12.74759101867676 12.74759101867676 16.28906059265137 8.39453125 16.28906059265137 Z" stroke="none"/>
        <path d="M 8.39453125 1.000000953674316 C 4.317171096801758 1.000000953674316 1.000000953674316 4.317171096801758 1.000000953674316 8.39453125 C 1.000000953674316 12.47189140319824 4.317171096801758 15.78906154632568 8.39453125 15.78906154632568 C 12.47189140319824 15.78906154632568 15.78906154632568 12.47189140319824 15.78906154632568 8.39453125 C 15.78906154632568 4.317171096801758 12.47189140319824 1.000000953674316 8.39453125 1.000000953674316 M 8.39453125 1.9073486328125e-06 C 13.03070068359375 1.9073486328125e-06 16.78906059265137 3.758360862731934 16.78906059265137 8.39453125 C 16.78906059265137 13.03070068359375 13.03070068359375 16.78906059265137 8.39453125 16.78906059265137 C 3.758360862731934 16.78906059265137 1.9073486328125e-06 13.03070068359375 1.9073486328125e-06 8.39453125 C 1.9073486328125e-06 3.758360862731934 3.758360862731934 1.9073486328125e-06 8.39453125 1.9073486328125e-06 Z" stroke="none" fill="#000"/>
      </g>
      <g id="Group_6167" data-name="Group 6167" transform="matrix(0.839, -0.545, 0.545, 0.839, 3926.298, 9453.186)">
        <g id="Mask_Group_6146" data-name="Mask Group 6146" transform="translate(0.583 0.239)" clip-path="url(#clip-path)">
          <path id="Path_4488" data-name="Path 4488" d="M6.834,1.544A1.961,1.961,0,0,0,6.5.927a3.466,3.466,0,0,0-.391-.4A2.376,2.376,0,0,0,5.4.145,2.239,2.239,0,0,0,4.808.026C4.6.014,2.535-.006,2.236,0A1.151,1.151,0,0,0,1.872.04a.37.37,0,0,0,.061.047A2.7,2.7,0,0,1,2.7.93l.076.125.905.013a5.047,5.047,0,0,1,1.341.071,1.191,1.191,0,0,1,.782.8,1.366,1.366,0,0,1,.044.383,1.044,1.044,0,0,1-.231.708,2.234,2.234,0,0,1-.4.355,1.034,1.034,0,0,1-.528.13c-.58.014-2.283-.008-2.536-.032a1.165,1.165,0,0,1-.538-.2,1.391,1.391,0,0,1-.32-.339A1.077,1.077,0,0,1,1.1,2.385a1.272,1.272,0,0,0-.049-.256.3.3,0,0,0-.092-.157.51.51,0,0,0-.416-.178.518.518,0,0,0-.418.171.561.561,0,0,0-.13.42A2.141,2.141,0,0,0,.564,3.8,2.4,2.4,0,0,0,2.1,4.557c.21.016,1.158.031,1.78.028A4.137,4.137,0,0,0,5.267,4.5a2.523,2.523,0,0,0,.644-.283,2.81,2.81,0,0,0,.7-.69,2.369,2.369,0,0,0,.222-1.982" transform="translate(4.368 0.047)"/>
          <path id="Path_4489" data-name="Path 4489" d="M4.949,4.447a2.852,2.852,0,0,1-.691-.8c-.034-.059-.066-.111-.07-.115s-.345-.012-.756-.017a7.5,7.5,0,0,1-1.491-.069,1.04,1.04,0,0,1-.46-.292A1.042,1.042,0,0,1,1.113,2.3,1.167,1.167,0,0,1,1.892,1.14c.191-.073.279-.077,1.521-.068a6.017,6.017,0,0,1,1.627.083,1.174,1.174,0,0,1,.732.683,1.1,1.1,0,0,1,.081.37.639.639,0,0,0,.133.405.548.548,0,0,0,.236.158.756.756,0,0,0,.356.007.551.551,0,0,0,.3-.22,1.064,1.064,0,0,0,.035-.745A1.987,1.987,0,0,0,6.494.923,3.148,3.148,0,0,0,6.1.514a2.4,2.4,0,0,0-.714-.37,1.693,1.693,0,0,0-.437-.1C4.471.012,2.586-.013,2.165.007A2.351,2.351,0,0,0,.954.428,2.938,2.938,0,0,0,.487.867,2.246,2.246,0,0,0,.012,2a3.092,3.092,0,0,0,0,.505,2.4,2.4,0,0,0,.317.97,2.636,2.636,0,0,0,.674.7,2.619,2.619,0,0,0,.644.3,2.456,2.456,0,0,0,.811.1c.707.025,1.961.027,2.412,0a.55.55,0,0,0,.2-.028,1.274,1.274,0,0,0-.118-.1" transform="translate(0 0)"/>
        </g>
      </g>
    </g>
  </g>
</svg>
