<svg xmlns="http://www.w3.org/2000/svg" width="19.864" height="15.291" viewBox="0 0 19.864 15.291">
  <g id="Group_8677" data-name="Group 8677" transform="translate(-726.553 -253.5)">
    <rect id="Rectangle_23319" data-name="Rectangle 23319" width="13.894" height="1.297" transform="translate(732.524 253.5)" fill="#fff"/>
    <rect id="Rectangle_23320" data-name="Rectangle 23320" width="8.911" height="1.297" transform="translate(737.507 263.734)" fill="#fff"/>
    <rect id="Rectangle_23321" data-name="Rectangle 23321" width="8.911" height="1.297" transform="translate(737.507 260.32)" fill="#fff"/>
    <rect id="Rectangle_23322" data-name="Rectangle 23322" width="13.894" height="1.297" transform="translate(732.524 256.906)" fill="#fff"/>
    <path id="Path_5085" data-name="Path 5085" d="M38.142,14.809c3.442,0,4.767,0,5.769.011-.326-.3-.856-.793-2.05-1.937a.557.557,0,0,1-.187-.423.567.567,0,0,1,.161-.368l.229-.255a.508.508,0,0,1,.786,0l3.3,3.259a.552.552,0,0,1,.2.453.525.525,0,0,1-.176.424l-3.3,3.249a.619.619,0,0,1-.391.167.584.584,0,0,1-.43-.217l-.226-.241a.648.648,0,0,1-.134-.364.666.666,0,0,1,.262-.486c1.092-1.049,1.608-1.521,1.936-1.81-1,.006-2.286.006-5.789.006a.572.572,0,0,1-.587-.6v-.284a.578.578,0,0,1,.635-.585" transform="translate(689.046 249.404)" fill="#ff8787"/>
  </g>
</svg>
