<!-- <svg xmlns="http://www.w3.org/2000/svg" xmlns:xlink="http://www.w3.org/1999/xlink" width="24.144" height="15" viewBox="0 0 24.144 15">
  <defs>
    <clipPath id="clip-path">
      <rect width="24.144" height="15" fill="none"/>
    </clipPath>
    <clipPath id="clip-path-2">
      <rect id="Rectangle_23605" data-name="Rectangle 23605" width="15" height="15" rx="2"/>
    </clipPath>
  </defs>
  <g id="Repeat_Grid_73" data-name="Repeat Grid 73" clip-path="url(#clip-path)">
    <g transform="translate(-813 -793)">
      <g id="a" transform="translate(813 793)" clip-path="url(#clip-path-2)">
        <path id="Path_5937" data-name="Path 5937" d="M0,0H15V15H0Z" fill="none"/>
        <path id="Path_5822" data-name="Path 5822" d="M.265,18.265l-.53-.53,18-18,.53.53Z" transform="translate(-1.5 -1.5)"/>
        <path id="Path_5823" data-name="Path 5823" d="M.265,18.265l-.53-.53,18-18,.53.53Z" transform="translate(-1.5 -7.5)"/>
        <path id="Path_5824" data-name="Path 5824" d="M.265,18.265l-.53-.53,18-18,.53.53Z" transform="translate(-4.5 -10.5)"/>
        <path id="Path_5825" data-name="Path 5825" d="M.265,18.265l-.53-.53,18-18,.53.53Z" transform="translate(1.5 1.5)"/>
        <path id="Path_5826" data-name="Path 5826" d="M.265,18.265l-.53-.53,18-18,.53.53Z" transform="translate(1.5 7.5)"/>
      </g>
    </g>
    <g transform="translate(-801 -793)">
      <g id="a-2" data-name="a" transform="translate(813 793)" clip-path="url(#clip-path-2)">
        <path id="Path_5937-2" data-name="Path 5937" d="M0,0H15V15H0Z" fill="none"/>
        <path id="Path_5822-2" data-name="Path 5822" d="M.265,18.265l-.53-.53,18-18,.53.53Z" transform="translate(-1.5 -1.5)"/>
        <path id="Path_5823-2" data-name="Path 5823" d="M.265,18.265l-.53-.53,18-18,.53.53Z" transform="translate(-1.5 -7.5)"/>
        <path id="Path_5824-2" data-name="Path 5824" d="M.265,18.265l-.53-.53,18-18,.53.53Z" transform="translate(-4.5 -10.5)"/>
        <path id="Path_5825-2" data-name="Path 5825" d="M.265,18.265l-.53-.53,18-18,.53.53Z" transform="translate(1.5 1.5)"/>
        <path id="Path_5826-2" data-name="Path 5826" d="M.265,18.265l-.53-.53,18-18,.53.53Z" transform="translate(1.5 7.5)"/>
      </g>
    </g>
    <g transform="translate(-789 -793)">
      <g id="a-3" data-name="a" transform="translate(813 793)" clip-path="url(#clip-path-2)">
        <path id="Path_5937-3" data-name="Path 5937" d="M0,0H15V15H0Z" fill="none"/>
        <path id="Path_5822-3" data-name="Path 5822" d="M.265,18.265l-.53-.53,18-18,.53.53Z" transform="translate(-1.5 -1.5)"/>
        <path id="Path_5823-3" data-name="Path 5823" d="M.265,18.265l-.53-.53,18-18,.53.53Z" transform="translate(-1.5 -7.5)"/>
        <path id="Path_5824-3" data-name="Path 5824" d="M.265,18.265l-.53-.53,18-18,.53.53Z" transform="translate(-4.5 -10.5)"/>
        <path id="Path_5825-3" data-name="Path 5825" d="M.265,18.265l-.53-.53,18-18,.53.53Z" transform="translate(1.5 1.5)"/>
        <path id="Path_5826-3" data-name="Path 5826" d="M.265,18.265l-.53-.53,18-18,.53.53Z" transform="translate(1.5 7.5)"/>
      </g>
    </g>
  </g>
</svg> -->

<svg xmlns="http://www.w3.org/2000/svg" width="15" height="13" viewBox="0 0 15 13">
  <path id="Path_5944" data-name="Path 5944" d="M3.318,5.168A2.734,2.734,0,0,1,6.1,2.481,2.734,2.734,0,0,1,8.876,5.168,2.734,2.734,0,0,1,6.1,7.855,2.734,2.734,0,0,1,3.318,5.168M3.292,0a.494.494,0,0,0-.245.063A.464.464,0,0,0,2.87.235l-2.8,4.7A.453.453,0,0,0,0,5.167.445.445,0,0,0,.065,5.4l2.8,4.7a.472.472,0,0,0,.179.173.484.484,0,0,0,.242.063H8.9a.492.492,0,0,0,.245-.063.464.464,0,0,0,.178-.171l2.8-4.7a.451.451,0,0,0,.066-.237.442.442,0,0,0-.065-.234l-2.8-4.7A.472.472,0,0,0,9.143.063.486.486,0,0,0,8.9,0Z" transform="translate(1.5 1.5)" fill="#fff"/>
</svg>

