<!-- <svg xmlns="http://www.w3.org/2000/svg" width="24" height="20.685" viewBox="0 0 24 20.685">
  <g id="Group_9516" data-name="Group 9516" transform="translate(-230.316 -97.872)">
    <path id="Path_5387" data-name="Path 5387" d="M275.5,155.74l.858.954L274.77,158.6l-2.445.953-.859-.954,1.583-1.907Zm.663-.8-.511.2-2.447.954-.512.2-.332.4-1.583,1.907-.331.4.18.2.859.954.18.2.511-.2,2.445-.953.512-.2.332-.4,1.584-1.907.331-.4-.179-.2-.858-.954Z" transform="translate(-34.774 -49.455)" fill="#1c1c1b"/>
    <path id="Path_5388" data-name="Path 5388" d="M245.531,155.74l.858.954-1.584,1.907-2.445.953-.859-.954,1.583-1.907Zm.663-.8-.511.2-2.447.954-.512.2-.332.4L240.81,158.6l-.331.4.18.2.859.954.18.2.511-.2,2.445-.953.512-.2.332-.4,1.584-1.907.331-.4-.179-.2-.858-.954Z" transform="translate(-8.807 -49.455)" fill="#1c1c1b"/>
    <path id="Path_5389" data-name="Path 5389" d="M281.957,129.811l.858.954-1.584,1.907-2.445.953-.859-.954,1.583-1.907Zm.663-.8-.511.2-2.447.954-.511.2-.332.4-1.583,1.907-.331.4.18.2.859.954.18.2.511-.2,2.445-.953.512-.2.332-.4,1.584-1.907.331-.4-.179-.2-.858-.954Z" transform="translate(-40.373 -26.986)" fill="#1c1c1b"/>
    <path id="Path_5390" data-name="Path 5390" d="M238.966,181.589l.858.954-1.584,1.907-2.445.953-.859-.954,1.583-1.907Zm.663-.8-.511.2-2.447.954-.512.2-.332.4-1.583,1.907-.331.4.18.2.859.954.18.2.511-.2,2.445-.953.512-.2.332-.4,1.584-1.907.331-.4-.179-.2-.858-.954Z" transform="translate(-3.118 -71.855)" fill="#1c1c1b"/>
    <path id="Path_5391" data-name="Path 5391" d="M305.462,155.74l.858.954-1.584,1.907-2.445.953-.859-.954,1.583-1.907Zm.663-.8-.511.2-2.447.954-.512.2-.332.4-1.583,1.907-.331.4.18.2.859.954.18.2.511-.2,2.445-.953.512-.2.332-.4,1.584-1.907.331-.4-.179-.2-.858-.954Z" transform="translate(-60.741 -49.455)" fill="#1c1c1b"/>
    <path id="Path_5392" data-name="Path 5392" d="M312.028,129.812l.858.954-1.584,1.907-2.445.953-.859-.954,1.583-1.907Zm.663-.8-.511.2-2.447.954-.512.2-.332.4-1.583,1.907-.331.4.18.2.859.954.18.2.511-.2,2.445-.953.512-.2.332-.4,1.584-1.907.331-.4-.179-.2-.858-.954Z" transform="translate(-66.431 -26.987)" fill="#1c1c1b"/>
    <path id="Path_5393" data-name="Path 5393" d="M269.039,181.589l.858.954-1.584,1.907-2.445.953-.859-.954,1.583-1.907Zm.663-.8-.511.2-2.447.954-.512.2-.332.4-1.583,1.907-.331.4.18.2.859.954.18.2.511-.2,2.445-.953.512-.2.332-.4,1.584-1.907.331-.4-.179-.2-.858-.954Z" transform="translate(-29.178 -71.855)" fill="#1c1c1b"/>
    <path id="Path_5394" data-name="Path 5394" d="M230.951,210.431l1.583-1.907,2.447-.954.858.954-1.584,1.907-2.445.952Zm4.182-3.459-2.447.954-.512.2-.332.4-1.526,1.839v.9l.651.723.179.2.511-.2,2.445-.953.512-.2.332-.4,1.583-1.907.331-.4-.179-.2-.858-.954-.18-.2Z" transform="translate(-0.001 -94.37)" fill="#1c1c1b"/>
    <path id="Path_5395" data-name="Path 5395" d="M231.134,206.972l-.818.319v.539l.666-.26.858.954-1.524,1.835v.588l.3-.117.332-.4,1.584-1.907.331-.4-.179-.2-.858-.954-.18-.2Z" transform="translate(0 -94.37)" fill="#1c1c1b"/>
    <path id="Path_5396" data-name="Path 5396" d="M238.923,181.642l.858.954L238.2,184.5l-2.445.953-.859-.954,1.583-1.907Zm.663-.8-.511.2-2.447.954-.512.2-.332.4L234.2,184.5l-.331.4.18.2.859.954.18.2.511-.2,2.445-.953.512-.2.332-.4,1.584-1.907.331-.4-.179-.2-.858-.954Z" transform="translate(-3.081 -71.901)" fill="#1c1c1b"/>
    <path id="Path_5397" data-name="Path 5397" d="M230.316,232.8v.855l.648.721-.648.78v.173h.548l.791-.953.331-.4-.179-.2-.858-.954-.179-.2Z" transform="translate(0 -116.769)" fill="#1c1c1b"/>
    <path id="Path_5398" data-name="Path 5398" d="M262.428,207.571l.858.954-1.584,1.907-2.445.953-.859-.954,1.583-1.907Zm.663-.8-.511.2-2.447.954-.512.2-.332.4-1.583,1.907-.331.4.18.2.859.954.18.2.511-.2,2.445-.953.512-.2.332-.4,1.584-1.907.331-.4-.18-.2-.858-.954Z" transform="translate(-23.449 -94.37)" fill="#1c1c1b"/>
    <path id="Path_5399" data-name="Path 5399" d="M269,181.642l.858.954-1.584,1.907-2.445.953-.859-.954,1.583-1.907Zm.663-.8-.511.2L266.7,182l-.512.2-.332.4-1.583,1.907-.331.4.18.2.859.954.18.2.511-.2,2.445-.953.512-.2.332-.4,1.584-1.907.331-.4-.179-.2-.858-.954Z" transform="translate(-29.14 -71.901)" fill="#1c1c1b"/>
    <path id="Path_5400" data-name="Path 5400" d="M234.271,232.821l-2.447.954-.512.2-.332.4-.665.8v.153h.564l.791-.953,2.447-.954.858.954-.791.953h.691l.791-.953.331-.4-.179-.2-.858-.954-.18-.2Z" transform="translate(0 -116.77)" fill="#1c1c1b"/>
    <path id="Path_5401" data-name="Path 5401" d="M318.183,104.327l.858.954-1.584,1.907-2.445.953-.859-.954,1.583-1.907Zm.663-.8-.511.2-2.447.954-.512.2-.332.4-1.583,1.907-.331.4.18.2.859.954.18.2.511-.2,2.445-.953.512-.2.332-.4,1.584-1.907.331-.4-.18-.2-.858-.954Z" transform="translate(-71.765 -4.902)" fill="#1c1c1b"/>
    <path id="Path_5402" data-name="Path 5402" d="M288.217,104.327l.858.954-1.584,1.907-2.445.953-.859-.954,1.583-1.907Zm.663-.8-.511.2-2.447.954-.512.2-.332.4-1.583,1.907-.331.4.18.2.859.954.18.2.511-.2,2.445-.953.512-.2.332-.4,1.584-1.907.331-.4-.18-.2-.858-.954Z" transform="translate(-45.797 -4.902)" fill="#1c1c1b"/>
    <path id="Path_5403" data-name="Path 5403" d="M324.71,97.872l-.792.954-2.445.953-.859-.954.792-.953h-.691l-.792.953-.331.4.18.2.859.954.179.2.511-.2,2.445-.953.512-.2.332-.4.792-.954Z" transform="translate(-77.363)" fill="#1c1c1b"/>
    <path id="Path_5404" data-name="Path 5404" d="M281.653,130.177l.858.954-1.584,1.907-2.445.953-.859-.954,1.583-1.907Zm.663-.8-.511.2-2.447.954-.512.2-.332.4-1.583,1.907-.331.4.18.2.859.954.18.2.511-.2,2.445-.953.512-.2.332-.4,1.584-1.907.331-.4-.179-.2-.858-.954Z" transform="translate(-40.109 -27.303)" fill="#1c1c1b"/>
    <path id="Path_5405" data-name="Path 5405" d="M348.149,104.327l.858.954-1.584,1.907-2.445.953-.859-.954,1.583-1.907Zm.663-.8-.511.2-2.447.954-.512.2-.332.4-1.583,1.907-.331.4.18.2.859.954.18.2.511-.2,2.445-.953.512-.2.332-.4,1.584-1.907.331-.4-.179-.2-.858-.954Z" transform="translate(-97.732 -4.902)" fill="#1c1c1b"/>
    <path id="Path_5406" data-name="Path 5406" d="M354.782,97.872l-.793.955-2.445.953-.859-.954.792-.953h-.691l-.792.953-.331.4.18.2.859.954.18.2.511-.2,2.445-.953.512-.2.332-.4.793-.955Z" transform="translate(-103.422)" fill="#1c1c1b"/>
    <path id="Path_5407" data-name="Path 5407" d="M311.726,130.177l.858.954L311,133.038l-2.445.953-.859-.954,1.583-1.907Zm.663-.8-.511.2-2.447.954-.512.2-.332.4-1.583,1.907-.331.4.18.2.859.954.18.2.511-.2,2.445-.953.512-.2.332-.4,1.584-1.907.331-.4-.179-.2-.858-.954Z" transform="translate(-66.169 -27.303)" fill="#1c1c1b"/>
    <path id="Path_5408" data-name="Path 5408" d="M335.428,155.74l.858.954L334.7,158.6l-2.445.953-.859-.954,1.583-1.907Zm.663-.8-.511.2-2.447.954-.512.2-.332.4-1.583,1.907-.331.4.18.2.859.954.18.2.511-.2,2.445-.953.512-.2.332-.4,1.584-1.907.331-.4-.179-.2-.858-.954Z" transform="translate(-86.709 -49.455)" fill="#1c1c1b"/>
    <path id="Path_5409" data-name="Path 5409" d="M305.462,155.74l.858.954-1.584,1.907-2.445.953-.859-.954,1.583-1.907Zm.663-.8-.511.2-2.447.954-.512.2-.332.4-1.583,1.907-.331.4.18.2.859.954.18.2.511-.2,2.445-.953.512-.2.332-.4,1.584-1.907.331-.4-.179-.2-.858-.954Z" transform="translate(-60.741 -49.455)" fill="#1c1c1b"/>
    <path id="Path_5410" data-name="Path 5410" d="M341.888,129.811l.858.954-1.584,1.907-2.445.953-.859-.954,1.583-1.907Zm.663-.8-.511.2-2.447.954-.512.2-.332.4-1.583,1.907-.331.4.18.2.859.954.18.2.511-.2,2.445-.953.512-.2.332-.4,1.584-1.907.331-.4-.179-.2-.858-.954Z" transform="translate(-92.307 -26.986)" fill="#1c1c1b"/>
    <path id="Path_5411" data-name="Path 5411" d="M298.9,181.589l.858.954-1.584,1.907-2.445.953-.859-.954,1.583-1.907Zm.663-.8-.511.2-2.447.954-.512.2-.332.4-1.583,1.907-.331.4.18.2.859.954.18.2.511-.2,2.445-.953.512-.2.332-.4,1.584-1.907.331-.4-.179-.2-.858-.954Z" transform="translate(-55.053 -71.855)" fill="#1c1c1b"/>
    <path id="Path_5412" data-name="Path 5412" d="M361.364,158.6l1.583-1.907,2.447-.954.858.954-1.584,1.907-2.445.953Zm4.182-3.459-2.447.954-.512.2-.332.4-1.583,1.907-.331.4.18.2.859.954.18.2.511-.2,2.445-.953.512-.2.332-.4,1.584-1.907.049-.059v-.653l-.755-.84-.18-.2Z" transform="translate(-112.676 -49.455)" fill="#1c1c1b"/>
    <path id="Path_5413" data-name="Path 5413" d="M372.113,129.213l-2.447.954-.512.2-.332.4-1.583,1.907-.331.4.18.2.859.954.179.2.511-.2,2.445-.953.512-.2.332-.4.757-.911v-.832l-1.448,1.744-2.445.953-.859-.954,1.583-1.907,2.447-.954.722.8v-1.536l-.059-.065Z" transform="translate(-118.367 -26.987)" fill="#1c1c1b"/>
    <path id="Path_5414" data-name="Path 5414" d="M328.97,181.589l.858.954-1.584,1.907-2.445.953-.859-.954,1.583-1.907Zm.663-.8-.511.2-2.447.954-.512.2-.332.4-1.583,1.907-.331.4.18.2.859.954.18.2.511-.2,2.445-.953.512-.2.332-.4,1.584-1.907.331-.4-.179-.2-.858-.954Z" transform="translate(-81.112 -71.855)" fill="#1c1c1b"/>
    <path id="Path_5415" data-name="Path 5415" d="M292.394,207.571l.858.954-1.584,1.907-2.445.953-.859-.954,1.583-1.907Zm.663-.8-.511.2-2.447.954-.512.2-.332.4-1.583,1.907-.331.4.18.2.859.954.18.2.511-.2,2.445-.953.512-.2.332-.4,1.584-1.907.331-.4-.18-.2-.858-.954Z" transform="translate(-49.417 -94.37)" fill="#1c1c1b"/>
    <path id="Path_5416" data-name="Path 5416" d="M262.428,207.571l.858.954-1.584,1.907-2.445.953-.859-.954,1.583-1.907Zm.663-.8-.511.2-2.447.954-.512.2-.332.4-1.583,1.907-.331.4.18.2.859.954.18.2.511-.2,2.445-.953.512-.2.332-.4,1.584-1.907.331-.4-.18-.2-.858-.954Z" transform="translate(-23.449 -94.37)" fill="#1c1c1b"/>
    <path id="Path_5417" data-name="Path 5417" d="M298.854,181.642l.858.954-1.584,1.907-2.445.953-.859-.954,1.583-1.907Zm.663-.8-.511.2-2.447.954-.512.2-.332.4-1.583,1.907-.331.4.18.2.859.954.18.2.511-.2,2.445-.953.512-.2.332-.4L300.4,182.6l.331-.4-.179-.2-.858-.954Z" transform="translate(-55.015 -71.901)" fill="#1c1c1b"/>
    <path id="Path_5418" data-name="Path 5418" d="M263.308,232.821l-2.447.954-.512.2-.331.4-.792.953h.691l.792-.953,2.447-.954.858.954-.791.953h.691l.791-.953.331-.4-.179-.2-.858-.954-.179-.2Z" transform="translate(-25.053 -116.77)" fill="#1c1c1b"/>
    <path id="Path_5419" data-name="Path 5419" d="M322.36,207.571l.858.954-1.584,1.907-2.445.953-.859-.954,1.583-1.907Zm.663-.8-.511.2-2.447.954-.512.2-.332.4-1.583,1.907-.331.4.18.2.859.954.18.2.511-.2,2.445-.953.512-.2.332-.4,1.584-1.907.331-.4-.18-.2-.858-.954Z" transform="translate(-75.384 -94.37)" fill="#1c1c1b"/>
    <path id="Path_5420" data-name="Path 5420" d="M328.926,181.642l.858.954L328.2,184.5l-2.445.953-.859-.954,1.583-1.907Zm.663-.8-.511.2-2.447.954-.512.2-.332.4-1.583,1.907-.331.4.18.2.859.954.18.2.511-.2,2.445-.953.512-.2.332-.4,1.584-1.907.331-.4-.18-.2-.858-.954Z" transform="translate(-81.074 -71.901)" fill="#1c1c1b"/>
    <path id="Path_5421" data-name="Path 5421" d="M293.38,232.821l-2.447.954-.512.2-.331.4-.792.953h.691l.792-.953,2.447-.954.858.954-.791.953h.691l.791-.953.331-.4-.179-.2-.858-.954-.18-.2Z" transform="translate(-51.113 -116.77)" fill="#1c1c1b"/>
    <path id="Path_5422" data-name="Path 5422" d="M375.821,106.612l-.512.2-.332.4-1.583,1.907-.331.4.18.2.859.954.18.2.511-.2,2.445-.953.512-.2.267-.322v-.832l-.626.754-2.445.953-.859-.954,1.583-1.907,2.347-.915v-.539Z" transform="translate(-123.7 -6.832)" fill="#1c1c1b"/>
    <path id="Path_5423" data-name="Path 5423" d="M348.149,104.327l.858.954-1.584,1.907-2.445.953-.859-.954,1.583-1.907Zm.663-.8-.511.2-2.447.954-.512.2-.332.4-1.583,1.907-.331.4.18.2.859.954.18.2.511-.2,2.445-.953.512-.2.332-.4,1.584-1.907.331-.4-.179-.2-.858-.954Z" transform="translate(-97.732 -4.902)" fill="#1c1c1b"/>
    <path id="Path_5424" data-name="Path 5424" d="M380.646,97.872l-.792.953-.331.4.18.2.859.954.18.2.511-.2,2.362-.92v-.54l-2.21.861-.859-.954.791-.953Z" transform="translate(-129.299)" fill="#1c1c1b"/>
    <path id="Path_5425" data-name="Path 5425" d="M341.585,130.177l.858.954-1.584,1.907-2.445.953-.859-.954,1.583-1.907Zm.663-.8-.511.2-2.447.954-.512.2-.332.4-1.583,1.907-.331.4.18.2.859.954.18.2.511-.2,2.445-.953.512-.2.332-.4,1.584-1.907.331-.4-.179-.2-.858-.954Z" transform="translate(-92.044 -27.303)" fill="#1c1c1b"/>
    <path id="Path_5426" data-name="Path 5426" d="M403.36,126.072l-.331.4.18.2.774.86v-2.209Z" transform="translate(-149.668 -23.787)" fill="#1c1c1b"/>
    <path id="Path_5427" data-name="Path 5427" d="M409.6,107.4l.078.087V107.3Z" transform="translate(-155.358 -8.172)" fill="#1c1c1b"/>
    <path id="Path_5428" data-name="Path 5428" d="M371.811,129.578l-2.447.954-.512.2-.332.4-1.583,1.907-.331.4.179.2.859.954.179.2.511-.2,2.445-.953.512-.2.332-.4.8-.96v-.832l-1.488,1.792-2.445.953-.859-.954,1.583-1.907,2.447-.954.762.848v-1.535l-.1-.11Z" transform="translate(-118.105 -27.302)" fill="#1c1c1b"/>
    <path id="Path_5429" data-name="Path 5429" d="M232.854,155.322l-2.447.954-.091.035v.539l2.385-.93.858.954-1.584,1.907-1.659.646v.539l1.507-.587.512-.2.332-.4,1.584-1.907.331-.4-.179-.2-.858-.954-.18-.2Z" transform="translate(0 -49.612)" fill="#1c1c1b"/>
    <path id="Path_5430" data-name="Path 5430" d="M230.316,163.66l.267-.321-.179-.2-.087-.1Z" transform="translate(0 -56.475)" fill="#1c1c1b"/>
    <path id="Path_5431" data-name="Path 5431" d="M233.716,129.394l-2.447.954-.512.2-.332.4-.109.132v.832l.8-.964,2.447-.954.858.954-1.584,1.907-2.445.952-.076-.084v.654l2.369-.923.512-.2.332-.4,1.584-1.907.331-.4-.179-.2-.858-.954-.18-.2Z" transform="translate(-0.001 -27.143)" fill="#1c1c1b"/>
    <path id="Path_5432" data-name="Path 5432" d="M245.348,155.921l.858.954-1.584,1.907-2.445.953-.859-.954,1.583-1.907Zm.663-.8-.511.2-2.447.954-.512.2-.332.4-1.583,1.907-.331.4.18.2.859.954.18.2.511-.2,2.445-.953.512-.2.332-.4,1.584-1.907.331-.4-.179-.2-.858-.954Z" transform="translate(-8.648 -49.612)" fill="#1c1c1b"/>
    <path id="Path_5433" data-name="Path 5433" d="M251.914,129.993l.858.954-1.584,1.907-2.445.953-.859-.954,1.583-1.907Zm.663-.8-.511.2-2.447.954-.512.2-.332.4-1.583,1.907-.331.4.18.2.859.954.18.2.511-.2,2.445-.953.512-.2.332-.4,1.584-1.907.331-.4-.179-.2-.858-.954Z" transform="translate(-14.338 -27.144)" fill="#1c1c1b"/>
    <path id="Path_5434" data-name="Path 5434" d="M231.992,181.172l-1.676.653v.539l1.524-.594.858.954-1.584,1.907-.8.311v.539l.645-.251.512-.2.332-.4,1.584-1.907.331-.4-.179-.2-.858-.954-.18-.2Z" transform="translate(0 -72.012)" fill="#1c1c1b"/>
    <path id="Path_5435" data-name="Path 5435" d="M231.11,207.153l-.794.309V208l.642-.25.858.954-1.5,1.806v.608l.275-.107.332-.4,1.584-1.907.331-.4-.179-.2-.858-.954-.18-.2Z" transform="translate(0 -94.527)" fill="#1c1c1b"/>
    <path id="Path_5436" data-name="Path 5436" d="M231.987,181.225l-1.67.651v.539l1.518-.592.858.954-1.584,1.907-.792.308v.539l.639-.249.512-.2.332-.4,1.584-1.907.331-.4-.179-.2-.858-.954-.18-.2Z" transform="translate(-0.001 -72.058)" fill="#1c1c1b"/>
    <path id="Path_5437" data-name="Path 5437" d="M258.069,104.508l.858.954-1.584,1.907-2.445.953-.859-.954,1.583-1.907Zm.663-.8-.511.2-2.447.954-.511.2-.332.4-1.583,1.907-.331.4.18.2.859.954.18.2.511-.2,2.445-.953.512-.2.332-.4,1.584-1.907.331-.4-.18-.2-.858-.954Z" transform="translate(-19.672 -5.059)" fill="#1c1c1b"/>
    <path id="Path_5438" data-name="Path 5438" d="M230.369,107.368l1.583-1.907,2.447-.954.858.954-1.584,1.907-2.445.953Zm4.182-3.459-2.447.954-.512.2-.332.4-.945,1.138v2.244l.069.077.179.2.511-.2,2.445-.953.512-.2.332-.4,1.584-1.907.331-.4-.179-.2-.858-.954-.18-.2Z" transform="translate(0 -5.059)" fill="#1c1c1b"/>
    <path id="Path_5439" data-name="Path 5439" d="M264.616,97.872l-.812.979-2.445.953-.859-.954.812-.977h-.691l-.812.977-.331.4.18.2.859.954.18.2.511-.2,2.445-.953.512-.2.332-.4.812-.979Z" transform="translate(-25.27)" fill="#1c1c1b"/>
    <path id="Path_5440" data-name="Path 5440" d="M233.675,129.759l-2.447.954-.512.2-.332.4-.069.083v.832l.76-.915,2.447-.954.858.954L232.8,133.22l-2.445.953-.036-.04v.593l2.329-.907.512-.2.332-.4,1.584-1.907.331-.4-.179-.2-.858-.954-.18-.2Z" transform="translate(0 -27.46)" fill="#1c1c1b"/>
    <path id="Path_5441" data-name="Path 5441" d="M288.034,104.508l.858.954-1.584,1.907-2.445.953-.859-.954,1.583-1.907Zm.663-.8-.511.2-2.447.954-.512.2-.332.4-1.583,1.907-.331.4.18.2.859.954.18.2.511-.2,2.445-.953.512-.2.332-.4,1.584-1.907.331-.4-.179-.2-.858-.954Z" transform="translate(-45.639 -5.059)" fill="#1c1c1b"/>
    <path id="Path_5442" data-name="Path 5442" d="M294.688,97.872l-.813.979-2.445.953-.859-.954.812-.978h-.691l-.812.978-.331.4.18.2.859.954.18.2.511-.2,2.445-.953.512-.2.332-.4.813-.979Z" transform="translate(-51.329)" fill="#1c1c1b"/>
    <path id="Path_5443" data-name="Path 5443" d="M251.611,130.358l.858.954-1.584,1.907-2.445.953-.859-.954,1.583-1.907Zm.663-.8-.511.2-2.447.954-.512.2-.332.4-1.583,1.907-.331.4.18.2.859.954.18.2.511-.2,2.445-.953.512-.2.332-.4,1.584-1.907.331-.4-.179-.2-.858-.954Z" transform="translate(-14.076 -27.46)" fill="#1c1c1b"/>
    <path id="Path_5444" data-name="Path 5444" d="M409.107,251.774h.143V251.6Z" transform="translate(-154.934 -133.217)" fill="#1c1c1b"/>
    <path id="Path_5445" data-name="Path 5445" d="M383.137,236.176h.146V236Zm.141-2.572-2.447.954-.512.2-.331.4-.847,1.02h.691l.847-1.02,2.447-.954.157.175V233.6Z" transform="translate(-128.967 -117.619)" fill="#1c1c1b"/>
    <path id="Path_5446" data-name="Path 5446" d="M407.9,233.474l-.331.4.18.2.169.188v-.807Z" transform="translate(-153.6 -117.49)" fill="#1c1c1b"/>
    <path id="Path_5447" data-name="Path 5447" d="M407.595,233.522l-.331.4.18.2.21.233v-.9Z" transform="translate(-153.337 -117.489)" fill="#1c1c1b"/>
    <path id="Path_5448" data-name="Path 5448" d="M353.259,232.5l-2.447.954-.512.2-.331.4-.827,1h.691l.827-1,2.447-.954.858.954-.826,1h.691l.826-1,.331-.4-.179-.2-.858-.954-.18-.2Z" transform="translate(-102.971 -116.495)" fill="#1c1c1b"/>
    <path id="Path_5449" data-name="Path 5449" d="M323.294,232.5l-2.447.954-.512.2-.332.4-.827,1h.691l.827-1,2.447-.954.858.954-.826,1h.691l.826-1,.331-.4-.179-.2-.858-.954-.18-.2Z" transform="translate(-77.004 -116.495)" fill="#1c1c1b"/>
    <path id="Path_5450" data-name="Path 5450" d="M352.5,207.174l.858.954-1.584,1.907-2.445.953-.859-.954,1.583-1.907Zm.663-.8-.511.2-2.447.954-.511.2-.332.4-1.583,1.907-.331.4.18.2.859.954.18.2.511-.2,2.445-.953.512-.2.332-.4,1.584-1.907.331-.4-.179-.2-.858-.954Z" transform="translate(-101.506 -94.026)" fill="#1c1c1b"/>
    <path id="Path_5451" data-name="Path 5451" d="M383.1,236.271h.15v-.181Zm.121-2.548-2.447.954-.512.2-.332.4-.827,1h.691l.827-1,2.447-.954.181.2v-.812Z" transform="translate(-128.938 -117.714)" fill="#1c1c1b"/>
    <path id="Path_5452" data-name="Path 5452" d="M380.281,210.966l-.512.2-.332.4-1.583,1.907-.331.4.18.2.859.954.18.2.511-.2,2.445-.953.184-.072v-.565l-.031.038-2.445.953-.859-.954,1.583-1.907,1.752-.683v-.539Z" transform="translate(-127.565 -97.463)" fill="#1c1c1b"/>
    <path id="Path_5453" data-name="Path 5453" d="M386.435,187.56l-.512.2-.332.4-1.583,1.907-.331.4.18.2.859.954.18.2.511-.2,1.807-.7v-.539l-1.655.645-.859-.954,1.583-1.907.931-.363v-.54Z" transform="translate(-132.898 -77.458)" fill="#1c1c1b"/>
    <path id="Path_5454" data-name="Path 5454" d="M358.764,181.69l.858.954-1.584,1.907-2.445.953-.859-.954,1.583-1.907Zm.663-.8-.511.2-2.447.954-.512.2-.332.4-1.583,1.907-.331.4.18.2.859.954.18.2.511-.2,2.445-.953.512-.2.332-.4,1.584-1.907.331-.4-.179-.2-.858-.954Z" transform="translate(-106.931 -71.942)" fill="#1c1c1b"/>
    <path id="Path_5455" data-name="Path 5455" d="M392.385,164.013l-.332.4-1.583,1.907-.331.4.18.2.859.954.18.2.511-.2.945-.368v-.539l-.793.309-.859-.954,1.583-1.907.069-.027v-.539Z" transform="translate(-138.497 -57.171)" fill="#1c1c1b"/>
    <path id="Path_5456" data-name="Path 5456" d="M352.2,207.54l.858.954-1.584,1.907-2.445.953-.859-.954,1.583-1.907Zm.663-.8-.511.2-2.447.954-.512.2-.332.4-1.583,1.907-.331.4.18.2.859.954.18.2.511-.2,2.445-.953.512-.2.332-.4,1.584-1.907.331-.4-.179-.2-.858-.954Z" transform="translate(-101.243 -94.343)" fill="#1c1c1b"/>
    <path id="Path_5457" data-name="Path 5457" d="M379.978,211.23l-.512.2-.332.4-1.583,1.907-.331.4.18.2.859.954.18.2.511-.2,2.445-.953.224-.087v-.6l-.072.086-2.445.953-.859-.954,1.583-1.907,1.793-.7v-.539Z" transform="translate(-127.303 -97.678)" fill="#1c1c1b"/>
    <path id="Path_5458" data-name="Path 5458" d="M231.309,97.872l-.764.92-.229.089v.539l.076-.03.512-.2.332-.4.764-.92Z" transform="translate(-0.001)" fill="#1c1c1b"/>
    <path id="Path_5459" data-name="Path 5459" d="M235.307,97.872l-.764.92-2.445.953-.859-.954.763-.919h-.691l-.763.919-.232.28V99.3l.081.09.859.954.179.2.511-.2,2.445-.953.512-.2.332-.4.764-.92Z" transform="translate(0)" fill="#1c1c1b"/>
    <path id="Path_5460" data-name="Path 5460" d="M230.561,103.389l-.245.1v.539l.093-.036.858.954-.951,1.145v.832l.058-.07,1.584-1.907.331-.4-.179-.2-.858-.954-.18-.2Z" transform="translate(0 -4.609)" fill="#1c1c1b"/>
    <path id="Path_5461" data-name="Path 5461" d="M230.316,131.756l.069.077-.069.083v.832l.76-.915.331-.4-.179-.2-.858-.954-.054-.06Z" transform="translate(0 -28.032)" fill="#1c1c1b"/>
    <path id="Path_5462" data-name="Path 5462" d="M230.555,103.442l-.239.093v.539l.087-.034.858.954-.945,1.138v.832l.052-.063L231.952,105l.331-.4-.179-.2-.858-.954-.18-.2Z" transform="translate(0 -4.655)" fill="#1c1c1b"/>
  </g>
</svg> -->
<!-- <svg xmlns="http://www.w3.org/2000/svg" xmlns:xlink="http://www.w3.org/1999/xlink" width="26.8" height="15" viewBox="0 0 26.8 15">
  <defs>
    <clipPath id="clip-path">
      <rect width="26.8" height="15" fill="none"/>
    </clipPath>
  </defs>
  <g id="Repeat_Grid_62" data-name="Repeat Grid 62" clip-path="url(#clip-path)">
    <g id="Group_9589" data-name="Group 9589" transform="translate(-1178 -383.74)">
      <path id="Path_5775" data-name="Path 5775" d="M4.409,0,0,7.638H8.819Z" transform="translate(1178 383.74)"/>
      <path id="Path_5776" data-name="Path 5776" d="M4.409,0,0,7.638H8.819Z" transform="translate(1178 391.102)"/>
      <path id="Path_5777" data-name="Path 5777" d="M4.409,0,0,7.638H8.819Z" transform="translate(1186.797 383.74)"/>
      <path id="Path_5778" data-name="Path 5778" d="M4.409,0,0,7.638H8.819Z" transform="translate(1186.797 391.102)"/>
    </g>
    <g id="Group_9589-2" data-name="Group 9589" transform="translate(-1160 -383.74)">
      <path id="Path_5775-2" data-name="Path 5775" d="M4.409,0,0,7.638H8.819Z" transform="translate(1178 383.74)"/>
      <path id="Path_5776-2" data-name="Path 5776" d="M4.409,0,0,7.638H8.819Z" transform="translate(1178 391.102)"/>
      <path id="Path_5777-2" data-name="Path 5777" d="M4.409,0,0,7.638H8.819Z" transform="translate(1186.797 383.74)"/>
      <path id="Path_5778-2" data-name="Path 5778" d="M4.409,0,0,7.638H8.819Z" transform="translate(1186.797 391.102)"/>
    </g>
  </g>
</svg> -->
<!-- <svg xmlns="http://www.w3.org/2000/svg" width="15" height="13" viewBox="0 0 15 13">
  <rect id="Rectangle_23587" data-name="Rectangle 23587" width="7.5" height="7" transform="translate(7.5 -0.5)" fill="#fff"/>
  <rect id="Rectangle_23586" data-name="Rectangle 23586" width="7.5" height="7" transform="translate(0 6.5)" fill="#fff"/>
</svg> -->

<svg xmlns="http://www.w3.org/2000/svg" width="15" height="13" viewBox="0 0 15 13">
  <rect width="7.5" height="7" x="7.5" y="-0.25" fill="#fff"/>
  <rect width="7.5" height="7" x="0" y="6.75" fill="#fff"/>
</svg>
