<!-- <svg xmlns="http://www.w3.org/2000/svg" width="24" height="20.685" viewBox="0 0 24 20.685">
  <g id="Group_9509" data-name="Group 9509" transform="translate(-17.527 -20.271)">
    <path id="Path_5267" data-name="Path 5267" d="M92.276,78.139l1.65.954V81l-1.654.953L90.621,81V79.093Zm0-.8-.346.2-1.655.954-.346.2v2.7l.345.2,1.651.954.345.2.345-.2,1.654-.953.346-.2V78.694l-.345-.2-1.65-.954Z" transform="translate(-62.742 -49.455)" fill="#1c1c1b"/>
    <path id="Path_5268" data-name="Path 5268" d="M62.311,78.139l1.65.954V81l-1.654.953L60.656,81V79.093Zm0-.8-.346.2-1.655.954-.346.2v2.7l.345.2,1.651.954.345.2.345-.2,1.654-.953.346-.2V78.694l-.345-.2-1.65-.954Z" transform="translate(-36.775 -49.455)" fill="#1c1c1b"/>
    <path id="Path_5269" data-name="Path 5269" d="M77.209,52.21l1.65.954v1.907l-1.654.953-1.651-.954V53.164Zm0-.8-.346.2-1.655.954-.346.2v2.7l.345.2,1.651.954.345.2.345-.2L79.2,55.67l.346-.2V52.765l-.345-.2-1.65-.954Z" transform="translate(-49.685 -26.986)" fill="#1c1c1b"/>
    <path id="Path_5270" data-name="Path 5270" d="M77.209,103.988l1.65.954v1.907L77.2,107.8l-1.651-.954v-1.907Zm0-.8-.346.2-1.655.954-.346.2v2.7l.345.2,1.651.954.345.2.345-.2,1.654-.953.346-.2v-2.706l-.345-.2-1.65-.954Z" transform="translate(-49.685 -71.855)" fill="#1c1c1b"/>
    <path id="Path_5271" data-name="Path 5271" d="M122.242,78.139l1.65.954V81l-1.654.953L120.587,81V79.093Zm0-.8-.346.2-1.655.954-.346.2v2.7l.345.2,1.651.954.345.2.345-.2,1.654-.953.346-.2V78.694l-.345-.2-1.65-.954Z" transform="translate(-88.71 -49.455)" fill="#1c1c1b"/>
    <path id="Path_5272" data-name="Path 5272" d="M107.281,52.211l1.65.954v1.907l-1.654.953-1.651-.954V53.165Zm0-.8-.346.2-1.655.954-.346.2v2.7l.345.2,1.651.954.345.2.345-.2,1.654-.953.346-.2V52.766l-.345-.2-1.65-.954Z" transform="translate(-75.745 -26.987)" fill="#1c1c1b"/>
    <path id="Path_5273" data-name="Path 5273" d="M107.281,103.988l1.65.954v1.907l-1.654.953-1.651-.954v-1.907Zm0-.8-.346.2-1.655.954-.346.2v2.7l.345.2,1.651.954.345.2.345-.2,1.654-.953.346-.2v-2.706l-.345-.2-1.65-.954Z" transform="translate(-75.745 -71.855)" fill="#1c1c1b"/>
    <path id="Path_5274" data-name="Path 5274" d="M92.276,129.969l1.65.954v1.907l-1.654.953-1.651-.954v-1.907Zm0-.8-.346.2-1.655.954-.346.2v2.7l.345.2,1.651.954.345.2.345-.2,1.654-.953.346-.2v-2.706l-.345-.2-1.65-.954Z" transform="translate(-62.742 -94.369)" fill="#1c1c1b"/>
    <path id="Path_5275" data-name="Path 5275" d="M62.311,129.969l1.65.954v1.907l-1.654.953-1.651-.954v-1.907Zm0-.8-.346.2-1.655.954-.346.2v2.7l.345.2,1.651.954.345.2.345-.2,1.654-.953.346-.2v-2.706l-.345-.2-1.65-.954Z" transform="translate(-36.775 -94.369)" fill="#1c1c1b"/>
    <path id="Path_5276" data-name="Path 5276" d="M77.209,104.041l1.65.954V106.9l-1.654.953-1.651-.954v-1.907Zm0-.8-.346.2-1.655.954-.346.2v2.7l.345.2,1.651.954.345.2.345-.2L79.2,107.5l.346-.2V104.6l-.345-.2-1.65-.954Z" transform="translate(-49.685 -71.901)" fill="#1c1c1b"/>
    <path id="Path_5277" data-name="Path 5277" d="M76.863,155.22l-1.655.954-.346.2v1.353h.691v-.953l1.655-.954,1.65.954v.953h.691v-1.352l-.345-.2-1.65-.954-.345-.2Z" transform="translate(-49.684 -116.77)" fill="#1c1c1b"/>
    <path id="Path_5278" data-name="Path 5278" d="M122.242,129.969l1.65.954v1.907l-1.654.953-1.651-.954v-1.907Zm0-.8-.346.2-1.655.954-.346.2v2.7l.345.2,1.651.954.345.2.345-.2,1.654-.953.346-.2v-2.706l-.345-.2-1.65-.954Z" transform="translate(-88.71 -94.369)" fill="#1c1c1b"/>
    <path id="Path_5279" data-name="Path 5279" d="M107.281,104.041l1.65.954V106.9l-1.654.953-1.651-.954v-1.907Zm0-.8-.346.2-1.655.954-.346.2v2.7l.345.2,1.651.954.345.2.345-.2,1.654-.953.346-.2V104.6l-.345-.2-1.65-.954Z" transform="translate(-75.745 -71.901)" fill="#1c1c1b"/>
    <path id="Path_5280" data-name="Path 5280" d="M106.935,155.22l-1.655.954-.346.2v1.353h.691v-.953l1.655-.954,1.65.954v.953h.691v-1.352l-.345-.2-1.65-.954-.345-.2Z" transform="translate(-75.744 -116.77)" fill="#1c1c1b"/>
    <path id="Path_5281" data-name="Path 5281" d="M92.276,26.726l1.65.954v1.907l-1.654.953-1.651-.954V27.68Zm0-.8-.346.2-1.655.954-.346.2v2.7l.345.2,1.651.954.345.2.345-.2,1.654-.953.346-.2V27.281l-.345-.2-1.65-.954Z" transform="translate(-62.742 -4.902)" fill="#1c1c1b"/>
    <path id="Path_5282" data-name="Path 5282" d="M62.311,26.726l1.65.954v1.907l-1.654.953-1.651-.954V27.68Zm0-.8-.346.2-1.655.954-.346.2v2.7l.345.2,1.651.954.345.2.345-.2,1.654-.953.346-.2V27.281l-.345-.2-1.65-.954Z" transform="translate(-36.775 -4.902)" fill="#1c1c1b"/>
    <path id="Path_5283" data-name="Path 5283" d="M78.858,20.271v.954l-1.654.953-1.651-.954v-.953h-.691v1.352l.345.2,1.651.954.345.2.345-.2,1.654-.953.346-.2V20.271Z" transform="translate(-49.684)" fill="#1c1c1b"/>
    <path id="Path_5284" data-name="Path 5284" d="M77.209,52.575l1.65.954v1.907l-1.654.953-1.651-.954V53.529Zm0-.8-.346.2-1.655.954-.346.2v2.7l.345.2,1.651.954.345.2.345-.2,1.654-.953.346-.2V53.13l-.345-.2-1.65-.954Z" transform="translate(-49.685 -27.302)" fill="#1c1c1b"/>
    <path id="Path_5285" data-name="Path 5285" d="M122.242,26.726l1.65.954v1.907l-1.654.953-1.651-.954V27.68Zm0-.8-.346.2-1.655.954-.346.2v2.7l.345.2,1.651.954.345.2.345-.2,1.654-.953.346-.2V27.281l-.345-.2-1.65-.954Z" transform="translate(-88.71 -4.902)" fill="#1c1c1b"/>
    <path id="Path_5286" data-name="Path 5286" d="M108.931,20.271v.955l-1.654.953-1.651-.954v-.953h-.691v1.352l.345.2,1.651.954.345.2.345-.2,1.654-.953.346-.2V20.271Z" transform="translate(-75.745)" fill="#1c1c1b"/>
    <path id="Path_5287" data-name="Path 5287" d="M107.281,52.575l1.65.954v1.907l-1.654.953-1.651-.954V53.529Zm0-.8-.346.2-1.655.954-.346.2v2.7l.345.2,1.651.954.345.2.345-.2,1.654-.953.346-.2V53.13l-.345-.2-1.65-.954Z" transform="translate(-75.745 -27.302)" fill="#1c1c1b"/>
    <path id="Path_5288" data-name="Path 5288" d="M152.208,78.139l1.65.954V81l-1.654.953L150.553,81V79.093Zm0-.8-.346.2-1.655.954-.346.2v2.7l.345.2,1.651.954.345.2.345-.2L154.2,81.6l.346-.2V78.694l-.345-.2-1.65-.954Z" transform="translate(-114.677 -49.455)" fill="#1c1c1b"/>
    <path id="Path_5289" data-name="Path 5289" d="M122.242,78.139l1.65.954V81l-1.654.953L120.587,81V79.093Zm0-.8-.346.2-1.655.954-.346.2v2.7l.345.2,1.651.954.345.2.345-.2,1.654-.953.346-.2V78.694l-.345-.2-1.65-.954Z" transform="translate(-88.71 -49.455)" fill="#1c1c1b"/>
    <path id="Path_5290" data-name="Path 5290" d="M137.14,52.21l1.65.954v1.907l-1.654.953-1.651-.954V53.164Zm0-.8-.346.2-1.655.954-.346.2v2.7l.345.2,1.651.954.345.2.345-.2,1.654-.953.346-.2V52.765l-.345-.2-1.65-.954Z" transform="translate(-101.62 -26.986)" fill="#1c1c1b"/>
    <path id="Path_5291" data-name="Path 5291" d="M137.14,103.988l1.65.954v1.907l-1.654.953-1.651-.954v-1.907Zm0-.8-.346.2-1.655.954-.346.2v2.7l.345.2,1.651.954.345.2.345-.2,1.654-.953.346-.2v-2.706l-.345-.2-1.65-.954Z" transform="translate(-101.62 -71.855)" fill="#1c1c1b"/>
    <path id="Path_5292" data-name="Path 5292" d="M181.828,77.552l-1.655.954-.346.2v2.7l.345.2,1.651.954.345.2h0v-.8h0l-1.651-.954V79.1l1.652-.952v-.8Z" transform="translate(-140.644 -49.467)" fill="#1c1c1b"/>
    <path id="Path_5293" data-name="Path 5293" d="M165.557,55.071V53.164l1.655-.954,1.65.954v1.907l-1.654.952Zm1.31-3.459-1.655.954-.346.2v2.7l.345.2,1.651.954.345.2.345-.2,1.653-.952V52.565l-1.648-.953-.345-.2Z" transform="translate(-127.679 -26.987)" fill="#1c1c1b"/>
    <path id="Path_5294" data-name="Path 5294" d="M165.557,106.848v-1.907l1.655-.954,1.65.954v1.907l-1.654.953Zm1.31-3.459-1.655.954-.346.2v2.7l.345.2,1.651.954.345.2.345-.2,1.653-.952v-3.106l-1.648-.953-.345-.2Z" transform="translate(-127.679 -71.855)" fill="#1c1c1b"/>
    <path id="Path_5295" data-name="Path 5295" d="M152.208,129.969l1.65.954v1.907l-1.654.953-1.651-.954v-1.907Zm0-.8-.346.2-1.655.954-.346.2v2.7l.345.2,1.651.954.345.2.345-.2,1.654-.953.346-.2v-2.706l-.345-.2-1.65-.954Z" transform="translate(-114.677 -94.369)" fill="#1c1c1b"/>
    <path id="Path_5296" data-name="Path 5296" d="M122.242,129.969l1.65.954v1.907l-1.654.953-1.651-.954v-1.907Zm0-.8-.346.2-1.655.954-.346.2v2.7l.345.2,1.651.954.345.2.345-.2,1.654-.953.346-.2v-2.706l-.345-.2-1.65-.954Z" transform="translate(-88.71 -94.369)" fill="#1c1c1b"/>
    <path id="Path_5297" data-name="Path 5297" d="M137.14,104.041l1.65.954V106.9l-1.654.953-1.651-.954v-1.907Zm0-.8-.346.2-1.655.954-.346.2v2.7l.345.2,1.651.954.345.2.345-.2,1.654-.953.346-.2V104.6l-.345-.2-1.65-.954Z" transform="translate(-101.62 -71.901)" fill="#1c1c1b"/>
    <path id="Path_5298" data-name="Path 5298" d="M136.795,155.22l-1.655.954-.346.2v1.353h.691v-.953l1.655-.954,1.65.954v.953h.691v-1.352l-.345-.2-1.65-.954-.345-.2Z" transform="translate(-101.619 -116.77)" fill="#1c1c1b"/>
    <path id="Path_5299" data-name="Path 5299" d="M181.828,129.383l-1.655.954-.346.2v2.7l.345.2,1.651.954.345.2h0v-.8h0l-1.651-.954v-1.907l1.652-.952v-.8Z" transform="translate(-140.644 -94.381)" fill="#1c1c1b"/>
    <path id="Path_5300" data-name="Path 5300" d="M165.557,106.9v-1.907l1.655-.954,1.65.954V106.9l-1.654.953Zm1.31-3.459-1.655.954-.346.2v2.7l.345.2,1.651.954.345.2.345-.2,1.653-.952V104.4l-1.648-.953-.345-.2Z" transform="translate(-127.679 -71.901)" fill="#1c1c1b"/>
    <path id="Path_5301" data-name="Path 5301" d="M166.867,155.22l-1.655.954-.346.2v1.353h.691v-.953l1.655-.954,1.65.954v.953h.344v-1.552l-1.648-.953-.345-.2Z" transform="translate(-127.679 -116.77)" fill="#1c1c1b"/>
    <path id="Path_5302" data-name="Path 5302" d="M152.208,26.726l1.65.954v1.907l-1.654.953-1.651-.954V27.68Zm0-.8-.346.2-1.655.954-.346.2v2.7l.345.2,1.651.954.345.2.345-.2,1.654-.953.346-.2V27.281l-.345-.2-1.65-.954Z" transform="translate(-114.677 -4.902)" fill="#1c1c1b"/>
    <path id="Path_5303" data-name="Path 5303" d="M122.242,26.726l1.65.954v1.907l-1.654.953-1.651-.954V27.68Zm0-.8-.346.2-1.655.954-.346.2v2.7l.345.2,1.651.954.345.2.345-.2,1.654-.953.346-.2V27.281l-.345-.2-1.65-.954Z" transform="translate(-88.71 -4.902)" fill="#1c1c1b"/>
    <path id="Path_5304" data-name="Path 5304" d="M138.79,20.271v.954l-1.654.953-1.651-.954v-.953h-.691v1.352l.345.2,1.651.954.345.2.345-.2,1.654-.953.346-.2V20.271Z" transform="translate(-101.62)" fill="#1c1c1b"/>
    <path id="Path_5305" data-name="Path 5305" d="M137.14,52.575l1.65.954v1.907l-1.654.953-1.651-.954V53.529Zm0-.8-.346.2-1.655.954-.346.2v2.7l.345.2,1.651.954.345.2.345-.2,1.654-.953.346-.2V53.13l-.345-.2-1.65-.954Z" transform="translate(-101.62 -27.302)" fill="#1c1c1b"/>
    <path id="Path_5306" data-name="Path 5306" d="M181.828,26.14l-1.655.954-.346.2V30l.345.2,1.651.954.345.2h0v-.8h0l-1.651-.954V27.692l1.652-.952v-.8Z" transform="translate(-140.644 -4.915)" fill="#1c1c1b"/>
    <path id="Path_5307" data-name="Path 5307" d="M168.863,20.271v.955l-1.654.953-1.651-.954v-.953h-.691v1.352l.345.2,1.651.954.345.2.345-.2,1.653-.952V20.271Z" transform="translate(-127.68)" fill="#1c1c1b"/>
    <path id="Path_5308" data-name="Path 5308" d="M165.557,55.436V53.53l1.655-.954,1.65.954v1.907l-1.654.953Zm1.31-3.459-1.655.954-.346.2v2.7l.345.2,1.651.954.345.2.345-.2,1.653-.952V52.93l-1.648-.953-.345-.2Z" transform="translate(-127.679 -27.303)" fill="#1c1c1b"/>
    <path id="Path_5309" data-name="Path 5309" d="M32.312,78.32l1.65.954v1.907l-1.654.953-1.651-.954V79.274Zm0-.8-.346.2-1.655.954-.346.2v2.7l.345.2,1.651.954.345.2.345-.2,1.654-.953.346-.2V78.875l-.345-.2-1.65-.954Z" transform="translate(-10.779 -49.612)" fill="#1c1c1b"/>
    <path id="Path_5310" data-name="Path 5310" d="M17.528,77.527v.8l.007,0,1.65.954v1.907l-1.654.953,0,0v.8h0l.345-.2,1.654-.953.346-.2V78.875l-.345-.2-1.65-.954-.345-.2Z" transform="translate(0 -49.612)" fill="#1c1c1b"/>
    <path id="Path_5311" data-name="Path 5311" d="M17.867,55.252V53.345l1.655-.954,1.65.954v1.907l-1.654.953Zm1.31-3.459-1.65.951v3.11l1.645.951.345.2.345-.2,1.654-.953.346-.2V52.947l-.345-.2-1.65-.954-.345-.2Z" transform="translate(0 -27.143)" fill="#1c1c1b"/>
    <path id="Path_5312" data-name="Path 5312" d="M17.867,107.029v-1.907l1.655-.954,1.65.954v1.907l-1.654.953Zm1.31-3.459-1.65.951v3.11l1.645.951.345.2.345-.2,1.654-.953.346-.2v-2.706l-.345-.2-1.65-.954-.345-.2Z" transform="translate(0 -72.012)" fill="#1c1c1b"/>
    <path id="Path_5313" data-name="Path 5313" d="M62.278,78.32l1.65.954v1.907l-1.654.953-1.651-.954V79.274Zm0-.8-.346.2-1.655.954-.346.2v2.7l.345.2,1.651.954.345.2.345-.2,1.654-.953.346-.2V78.875l-.345-.2-1.65-.954Z" transform="translate(-36.747 -49.612)" fill="#1c1c1b"/>
    <path id="Path_5314" data-name="Path 5314" d="M47.316,52.392l1.65.954v1.907l-1.654.953-1.651-.954V53.346Zm0-.8-.346.2-1.655.954-.346.2v2.7l.345.2,1.651.954.345.2.345-.2,1.654-.953.346-.2V52.947l-.345-.2-1.65-.954Z" transform="translate(-23.781 -27.143)" fill="#1c1c1b"/>
    <path id="Path_5315" data-name="Path 5315" d="M47.316,104.169l1.65.954v1.907l-1.654.953-1.651-.954v-1.907Zm0-.8-.346.2-1.655.954-.346.2v2.7l.345.2,1.651.954.345.2.345-.2,1.654-.953.346-.2v-2.706l-.345-.2-1.65-.954Z" transform="translate(-23.781 -72.012)" fill="#1c1c1b"/>
    <path id="Path_5316" data-name="Path 5316" d="M32.312,130.151l1.65.954v1.907l-1.654.953-1.651-.954V131.1Zm0-.8-.346.2-1.655.954-.346.2v2.7l.345.2,1.651.954.345.2.345-.2,1.654-.953.346-.2v-2.706l-.345-.2-1.65-.954Z" transform="translate(-10.779 -94.527)" fill="#1c1c1b"/>
    <path id="Path_5317" data-name="Path 5317" d="M17.528,129.358v.8l.007,0,1.65.954v1.907l-1.654.952,0,0v.8h0l.345-.2,1.654-.953.346-.2v-2.706l-.345-.2-1.65-.954-.345-.2Z" transform="translate(0 -94.527)" fill="#1c1c1b"/>
    <path id="Path_5318" data-name="Path 5318" d="M17.867,107.082v-1.907l1.655-.954,1.65.954v1.907l-1.654.953Zm1.31-3.459-1.65.951v3.11l1.645.951.345.2.345-.2,1.654-.953.346-.2v-2.706l-.345-.2-1.65-.954-.345-.2Z" transform="translate(0 -72.057)" fill="#1c1c1b"/>
    <path id="Path_5319" data-name="Path 5319" d="M19.178,155.4l-1.65.951v1.531h.34v-.929L19.523,156l1.65.954v.929h.691v-1.327l-.345-.2-1.65-.954-.345-.2Z" transform="translate(0 -116.927)" fill="#1c1c1b"/>
    <path id="Path_5320" data-name="Path 5320" d="M62.278,130.151l1.65.954v1.907l-1.654.953-1.651-.954V131.1Zm0-.8-.346.2-1.655.954-.346.2v2.7l.345.2,1.651.954.345.2.345-.2,1.654-.953.346-.2v-2.706l-.345-.2-1.65-.954Z" transform="translate(-36.747 -94.527)" fill="#1c1c1b"/>
    <path id="Path_5321" data-name="Path 5321" d="M47.316,104.222l1.65.954v1.907l-1.654.953-1.651-.954v-1.907Zm0-.8-.346.2-1.655.954-.346.2v2.7l.345.2,1.651.954.345.2.345-.2,1.654-.953.346-.2v-2.706l-.345-.2-1.65-.954Z" transform="translate(-23.781 -72.057)" fill="#1c1c1b"/>
    <path id="Path_5322" data-name="Path 5322" d="M46.971,155.4l-1.655.954-.346.2v1.328h.691v-.929L47.316,156l1.65.954v.929h.691v-1.327l-.345-.2-1.65-.954-.345-.2Z" transform="translate(-23.781 -116.927)" fill="#1c1c1b"/>
    <path id="Path_5323" data-name="Path 5323" d="M32.312,26.907l1.65.954v1.907l-1.654.953-1.651-.954V27.861Zm0-.8-.346.2-1.655.954-.346.2v2.7l.345.2,1.651.954.345.2.345-.2,1.654-.953.346-.2V27.462l-.345-.2-1.65-.954Z" transform="translate(-10.779 -5.059)" fill="#1c1c1b"/>
    <path id="Path_5324" data-name="Path 5324" d="M17.528,26.114v.8l.007,0,1.65.954v1.907l-1.654.953,0,0v.8h0l.345-.2,1.654-.953.346-.2V27.463l-.345-.2-1.65-.954-.345-.2Z" transform="translate(0 -5.059)" fill="#1c1c1b"/>
    <path id="Path_5325" data-name="Path 5325" d="M21.172,20.271v.979l-1.654.953-1.651-.954v-.977h-.34V21.85l1.645.951.345.2.345-.2,1.654-.953.346-.2V20.271Z" transform="translate(0)" fill="#1c1c1b"/>
    <path id="Path_5326" data-name="Path 5326" d="M17.867,55.616V53.71l1.655-.954,1.65.954v1.907l-1.654.953Zm1.31-3.459-1.65.951v3.11l1.645.951.345.2.345-.2,1.654-.953.346-.2V53.311l-.345-.2-1.65-.954-.345-.2Z" transform="translate(0 -27.459)" fill="#1c1c1b"/>
    <path id="Path_5327" data-name="Path 5327" d="M62.278,26.907l1.65.954v1.907l-1.654.953-1.651-.954V27.861Zm0-.8-.346.2-1.655.954-.346.2v2.7l.345.2,1.651.954.345.2.345-.2,1.654-.953.346-.2V27.462l-.345-.2-1.65-.954Z" transform="translate(-36.747 -5.059)" fill="#1c1c1b"/>
    <path id="Path_5328" data-name="Path 5328" d="M48.967,20.271v.979l-1.654.953-1.651-.954v-.978h-.691v1.376l.345.2,1.651.954.345.2.345-.2,1.654-.953.346-.2V20.271Z" transform="translate(-23.782)" fill="#1c1c1b"/>
    <path id="Path_5329" data-name="Path 5329" d="M47.316,52.757l1.65.954v1.907l-1.654.953-1.651-.954V53.711Zm0-.8-.346.2-1.655.954-.346.2v2.7l.345.2,1.651.954.345.2.345-.2,1.654-.953.346-.2V53.312l-.345-.2-1.65-.954Z" transform="translate(-23.781 -27.46)" fill="#1c1c1b"/>
  </g>
</svg> -->
<!-- <svg xmlns="http://www.w3.org/2000/svg" width="28" height="13.738" viewBox="0 0 28 13.738">
  <path id="Path_5912" data-name="Path 5912" d="M5.961,0,0,3.434V10.3l5.946,3.436L11.9,10.306V3.436Z" transform="translate(0 0.001)"/>
  <path id="Path_5912" data-name="Path 5912" d="M5.961,0,0,3.434V10.3l5.946,3.436L11.9,10.306V3.436Z" transform="translate(14 0.001)"/>
</svg> -->
<!-- <svg xmlns="http://www.w3.org/2000/svg" width="15" height="13" viewBox="0 0 15 13">
  <path id="Path_5912" data-name="Path 5912" d="M5.064,0,0,2.917V8.751L5.051,11.67l5.061-2.915V2.919Z" transform="translate(10 1)" fill="#fff"/>
  <path id="Path_5912" data-name="Path 5912" d="M5.064,0,0,2.917V8.751L5.051,11.67l5.061-2.915V2.919Z" transform="translate(-5 1)" fill="#fff"/>
</svg> -->

<svg xmlns="http://www.w3.org/2000/svg" width="15" height="13" viewBox="0 0 15 13">
  <polygon  points="11.25,3.75 11.25,8.75 7.5,10.5 3.75,8.75 3.75,3.75 7.5,2" fill="#fff"></polygon>
</svg>


