<!-- <svg id="Group_9497" data-name="Group 9497" xmlns="http://www.w3.org/2000/svg" xmlns:xlink="http://www.w3.org/1999/xlink" width="24" height="20.667" viewBox="0 0 24 20.667">
  <defs>
    <clipPath id="clip-path">
      <rect id="Rectangle_23528" data-name="Rectangle 23528" width="23.889" height="20.544" fill="none"/>
    </clipPath>
  </defs>
  <path id="Path_5247" data-name="Path 5247" d="M89.431,89.183,112.92,109.41v.44h-.511L88.92,89.623v-.44h.511Z" transform="translate(-88.92 -89.183)" fill="#1c1c1b"/>
  <path id="Path_5248" data-name="Path 5248" d="M125.956,121.075h-1.022l-20.973-18.06v-.88Z" transform="translate(-103.962 -100.409)" fill="#1c1c1b"/>
  <path id="Path_5249" data-name="Path 5249" d="M89.942,89.183l20.971,18.058v.88L88.92,89.183Z" transform="translate(-86.913 -89.183)" fill="#1c1c1b"/>
  <path id="Path_5250" data-name="Path 5250" d="M159.09,149.607h-1.022l-15.875-13.67v-.88Z" transform="translate(-142.193 -128.94)" fill="#1c1c1b"/>
  <path id="Path_5251" data-name="Path 5251" d="M175.448,163.693h-1.022l-13.359-11.5v-.88Z" transform="translate(-161.067 -143.026)" fill="#1c1c1b"/>
  <path id="Path_5252" data-name="Path 5252" d="M142.725,135.515H141.7l-18.393-15.838v-.88Z" transform="translate(-123.311 -114.848)" fill="#1c1c1b"/>
  <path id="Path_5253" data-name="Path 5253" d="M208.233,191.925h-1.022l-8.315-7.16v-.88Z" transform="translate(-198.896 -171.258)" fill="#1c1c1b"/>
  <path id="Path_5254" data-name="Path 5254" d="M224.591,206.011H223.57l-5.8-4.993v-.88Z" transform="translate(-217.771 -185.344)" fill="#1c1c1b"/>
  <path id="Path_5255" data-name="Path 5255" d="M191.868,177.833h-1.022L180.014,168.5v-.88Z" transform="translate(-180.014 -157.166)" fill="#1c1c1b"/>
  <path id="Path_5256" data-name="Path 5256" d="M89.942,89.183l15.949,13.734v.88L88.92,89.183Z" transform="translate(-81.891 -89.183)" fill="#1c1c1b"/>
  <path id="Path_5257" data-name="Path 5257" d="M89.942,89.183l18.466,15.9v.88L88.92,89.183Z" transform="translate(-84.408 -89.183)" fill="#1c1c1b"/>
  <path id="Path_5258" data-name="Path 5258" d="M89.941,89.183l13.432,11.566v.88L88.92,89.183Z" transform="translate(-79.373 -89.183)" fill="#1c1c1b"/>
  <path id="Path_5259" data-name="Path 5259" d="M89.942,89.183l8.359,7.2v.88L88.92,89.183Z" transform="translate(-74.301 -89.183)" fill="#1c1c1b"/>
  <path id="Path_5260" data-name="Path 5260" d="M89.942,89.183l10.876,9.365v.88L88.92,89.183Z" transform="translate(-76.818 -89.183)" fill="#1c1c1b"/>
  <path id="Path_5261" data-name="Path 5261" d="M89.942,89.183l5.842,5.03v.88l-6.863-5.91Z" transform="translate(-71.783 -89.183)" fill="#1c1c1b"/>
  <path id="Path_5262" data-name="Path 5262" d="M89.941,89.183l.853.734v.88L88.92,89.183Z" transform="translate(-66.794 -89.183)" fill="#1c1c1b"/>
  <path id="Path_5263" data-name="Path 5263" d="M89.942,89.183l3.369,2.9v.88L88.92,89.183Z" transform="translate(-69.311 -89.183)" fill="#1c1c1b"/>
  <g id="Group_9494" data-name="Group 9494" transform="translate(0.056 0.061)">
    <g id="Group_9493" data-name="Group 9493" transform="translate(0 0)" clip-path="url(#clip-path)">
      <rect id="Rectangle_23527" data-name="Rectangle 23527" width="31.672" height="0.667" transform="matrix(-0.758, -0.653, 0.653, -0.758, 35.365, 9.22)" fill="#1c1c1b"/>
    </g>
  </g>
  <path id="Path_5264" data-name="Path 5264" d="M257.412,234.273H256.39l-.749-.645v-.88Z" transform="translate(-255.641 -213.606)" fill="#1c1c1b"/>
  <g id="Group_9496" data-name="Group 9496" transform="translate(0.056 0.061)">
    <g id="Group_9495" data-name="Group 9495" transform="translate(0 0)" clip-path="url(#clip-path)">
      <rect id="Rectangle_23529" data-name="Rectangle 23529" width="31.672" height="0.667" transform="translate(12.04 32.544) rotate(-139.266)" fill="#1c1c1b"/>
    </g>
  </g>
  <path id="Path_5265" data-name="Path 5265" d="M241.047,220.181h-1.022l-3.267-2.813v-.88Z" transform="translate(-236.758 -199.514)" fill="#1c1c1b"/>
</svg> -->
<!-- <svg xmlns="http://www.w3.org/2000/svg" xmlns:xlink="http://www.w3.org/1999/xlink" width="15" height="15" viewBox="0 0 15 15">
  <defs>
    <clipPath id="clip-path">
      <rect id="Rectangle_23669" data-name="Rectangle 23669" width="15" height="15" />
    </clipPath>
  </defs>
  <g id="a" clip-path="url(#clip-path)">
    <rect id="Rectangle_23668" data-name="Rectangle 23668" width="15" height="15" fill="transparent"/>
    <g id="Group_9689" data-name="Group 9689" transform="translate(0.734)">
      <g id="Group_9688" data-name="Group 9688" transform="translate(-4.5 -0.24)">
        <g id="Group_9687" data-name="Group 9687">
          <g id="Group_9685" data-name="Group 9685" transform="translate(7.481)">
            <g id="Group_9684" data-name="Group 9684">
              <path id="Path_5926" data-name="Path 5926" d="M3.766-.2a.2.2,0,0,1,.18.112l3.766,7.74a.2.2,0,0,1-.18.287H0a.2.2,0,0,1-.17-.094.2.2,0,0,1-.01-.194L3.586-.087A.2.2,0,0,1,3.766-.2ZM7.212,7.54,3.766.457.319,7.541Z" transform="translate(3.766)"/>
              <path id="Path_5927" data-name="Path 5927" d="M3.766-.2a.2.2,0,0,1,.18.112l3.766,7.74a.2.2,0,0,1-.18.287H0a.2.2,0,0,1-.17-.094.2.2,0,0,1-.01-.194L3.586-.087A.2.2,0,0,1,3.766-.2ZM7.212,7.54,3.766.457.319,7.541Z" transform="translate(7.533 7.74)"/>
              <path id="Path_5928" data-name="Path 5928" d="M3.766-.2a.2.2,0,0,1,.18.112l3.766,7.74a.2.2,0,0,1-.18.287H0a.2.2,0,0,1-.17-.094.2.2,0,0,1-.01-.194L3.586-.087A.2.2,0,0,1,3.766-.2ZM7.212,7.54,3.766.457.319,7.541Z" transform="translate(0 7.74)"/>
            </g>
            <path id="Path_5929" data-name="Path 5929" d="M3.766-.2a.2.2,0,0,1,.18.112l3.766,7.74a.2.2,0,0,1-.18.287H0a.2.2,0,0,1-.17-.094.2.2,0,0,1-.01-.194L3.586-.087A.2.2,0,0,1,3.766-.2ZM7.212,7.54,3.766.457.32,7.54Z" transform="translate(11.298 15.481) rotate(180)"/>
          </g>
          <g id="Group_9686" data-name="Group 9686" transform="translate(15.064 15.481) rotate(180)">
            <path id="Path_5930" data-name="Path 5930" d="M3.766-.2a.2.2,0,0,1,.18.112l3.766,7.74a.2.2,0,0,1-.18.287H0a.2.2,0,0,1-.17-.094.2.2,0,0,1-.01-.194L3.586-.087A.2.2,0,0,1,3.766-.2ZM7.212,7.54,3.766.457.32,7.54Z" transform="translate(3.766)"/>
            <path id="Path_5931" data-name="Path 5931" d="M3.766-.2a.2.2,0,0,1,.18.112l3.766,7.74a.2.2,0,0,1-.18.287H0a.2.2,0,0,1-.17-.094.2.2,0,0,1-.01-.194L3.586-.087A.2.2,0,0,1,3.766-.2ZM7.212,7.54,3.766.457.32,7.54Z" transform="translate(7.532 7.74)"/>
            <path id="Path_5932" data-name="Path 5932" d="M3.766-.2a.2.2,0,0,1,.18.112l3.766,7.74a.2.2,0,0,1-.18.287H0a.2.2,0,0,1-.17-.094.2.2,0,0,1-.01-.194L3.586-.087A.2.2,0,0,1,3.766-.2ZM7.212,7.54,3.766.457.32,7.54Z" transform="translate(0 7.74)"/>
            <path id="Path_5933" data-name="Path 5933" d="M3.766-.2a.2.2,0,0,1,.18.112l3.766,7.74a.2.2,0,0,1-.18.287H0a.2.2,0,0,1-.17-.094.2.2,0,0,1-.01-.194L3.586-.087A.2.2,0,0,1,3.766-.2ZM7.212,7.54,3.766.457.32,7.54Z" transform="translate(11.298 15.481) rotate(180)"/>
          </g>
        </g>
      </g>
    </g>
  </g>
</svg> -->
<svg xmlns="http://www.w3.org/2000/svg" width="15" height="13" viewBox="0 0 15 13">
  <path id="Path_5863" data-name="Path 5863" d="M7.508,0,0,13.006H15.018Z" fill="#fff"/>
</svg>
