<!-- <svg xmlns="http://www.w3.org/2000/svg" width="23.111" height="21" viewBox="0 0 23.111 21">
  <g id="Group_9534" data-name="Group 9534" transform="translate(-0.191 0)">
    <path id="Path_5595" data-name="Path 5595" d="M4.024,0,.191,6.6v.042H7.885Z" fill="#1c1c1b"/>
    <path id="Path_5596" data-name="Path 5596" d="M63.993,0,60.137,6.646h7.718Z" transform="translate(-52.249)" fill="#1c1c1b"/>
    <path id="Path_5597" data-name="Path 5597" d="M124.129,0l-3.857,6.646h7.693V6.6Z" transform="translate(-104.664)" fill="#1c1c1b"/>
    <path id="Path_5598" data-name="Path 5598" d="M.192,58.223v.042H7.885L4.024,51.619Z" transform="translate(0 -44.442)" fill="#1c1c1b"/>
    <path id="Path_5599" data-name="Path 5599" d="M63.993,51.619l-3.857,6.646h7.718Z" transform="translate(-52.248 -44.441)" fill="#1c1c1b"/>
    <path id="Path_5600" data-name="Path 5600" d="M120.272,58.264h7.693v-.042l-3.837-6.6Z" transform="translate(-104.663 -44.441)" fill="#1c1c1b"/>
    <path id="Path_5601" data-name="Path 5601" d="M.192,109.841v.042H7.885l-3.861-6.646Z" transform="translate(0 -88.883)" fill="#1c1c1b"/>
    <path id="Path_5602" data-name="Path 5602" d="M60.136,109.883h7.718l-3.861-6.646Z" transform="translate(-52.248 -88.883)" fill="#1c1c1b"/>
    <path id="Path_5603" data-name="Path 5603" d="M120.272,109.883h7.693v-.042l-3.837-6.6Z" transform="translate(-104.663 -88.883)" fill="#1c1c1b"/>
  </g>
</svg> -->
<!-- <svg xmlns="http://www.w3.org/2000/svg" xmlns:xlink="http://www.w3.org/1999/xlink" width="29.8" height="15" viewBox="0 0 29.8 15">
  <defs>
    <clipPath id="clip-path">
      <rect width="29.8" height="15" fill="none"/>
    </clipPath>
  </defs>
  <g id="Repeat_Grid_67" data-name="Repeat Grid 67" clip-path="url(#clip-path)">
    <g id="Group_9640" data-name="Group 9640" transform="translate(-1307.75 -413.018)">
      <g id="Group_9636" data-name="Group 9636" transform="translate(1307.75 413.018)">
        <rect id="Rectangle_23587" data-name="Rectangle 23587" width="7.426" height="7.426" transform="translate(7.44)"/>
        <rect id="Rectangle_23591" data-name="Rectangle 23591" width="7.426" height="7.426" transform="translate(22.321)"/>
        <rect id="Rectangle_23586" data-name="Rectangle 23586" width="7.426" height="7.426" transform="translate(0 7.574)"/>
        <rect id="Rectangle_23590" data-name="Rectangle 23590" width="7.426" height="7.426" transform="translate(14.881 7.574)"/>
      </g>
    </g>
  </g>
</svg> -->
<svg xmlns="http://www.w3.org/2000/svg" width="15" height="13" viewBox="0 0 15 13">
  <ellipse id="Ellipse_798" data-name="Ellipse 798" cx="5.5" cy="4" rx="4" ry="4" transform="translate(2 2)" fill="#fff"/>
</svg>

