<!-- <svg xmlns="http://www.w3.org/2000/svg" width="23.574" height="20.3" viewBox="0 0 23.574 20.3">
  <g id="Group_9506" data-name="Group 9506" transform="translate(-1.831 -1.576)">
    <rect id="Rectangle_23531" data-name="Rectangle 23531" width="2.985" height="2.57" transform="translate(4.663 4.015)"/>
    <rect id="Rectangle_23532" data-name="Rectangle 23532" width="2.985" height="2.57" transform="translate(10.633 4.015)"/>
    <rect id="Rectangle_23533" data-name="Rectangle 23533" width="2.985" height="2.57" transform="translate(16.603 4.015)"/>
    <rect id="Rectangle_23534" data-name="Rectangle 23534" width="2.985" height="2.57" transform="translate(7.648 6.585)"/>
    <rect id="Rectangle_23535" data-name="Rectangle 23535" width="2.985" height="2.57" transform="translate(13.618 6.585)"/>
    <rect id="Rectangle_23536" data-name="Rectangle 23536" width="2.985" height="2.57" transform="translate(19.588 6.585)"/>
    <rect id="Rectangle_23537" data-name="Rectangle 23537" width="2.985" height="2.57" transform="translate(4.663 9.156)"/>
    <rect id="Rectangle_23538" data-name="Rectangle 23538" width="2.985" height="2.57" transform="translate(10.633 9.156)"/>
    <rect id="Rectangle_23539" data-name="Rectangle 23539" width="2.985" height="2.57" transform="translate(16.603 9.156)"/>
    <rect id="Rectangle_23540" data-name="Rectangle 23540" width="2.985" height="2.57" transform="translate(7.648 11.726)"/>
    <rect id="Rectangle_23541" data-name="Rectangle 23541" width="2.985" height="2.57" transform="translate(13.618 11.726)"/>
    <rect id="Rectangle_23542" data-name="Rectangle 23542" width="2.985" height="2.57" transform="translate(19.588 11.726)"/>
    <rect id="Rectangle_23543" data-name="Rectangle 23543" width="2.985" height="2.57" transform="translate(4.663 14.296)"/>
    <rect id="Rectangle_23544" data-name="Rectangle 23544" width="2.985" height="2.57" transform="translate(10.633 14.296)"/>
    <rect id="Rectangle_23545" data-name="Rectangle 23545" width="2.985" height="2.57" transform="translate(16.603 14.296)"/>
    <rect id="Rectangle_23546" data-name="Rectangle 23546" width="2.985" height="2.57" transform="translate(7.648 16.867)"/>
    <rect id="Rectangle_23547" data-name="Rectangle 23547" width="2.985" height="2.57" transform="translate(13.618 16.867)"/>
    <rect id="Rectangle_23548" data-name="Rectangle 23548" width="2.985" height="2.57" transform="translate(19.588 16.867)"/>
    <path id="Path_5266" data-name="Path 5266" d="M4.663,21.876H7.648V19.437H4.663Zm5.97,0h2.985V19.437H10.633Zm5.97,0h2.985V19.437H16.6Zm5.97,0h2.832V19.437H22.573ZM1.831,19.437H4.663v-2.57H1.831Zm20.742-2.57h2.832V14.3H22.573ZM1.831,14.3H4.663v-2.57H1.831Zm20.742-2.57h2.832V9.156H22.573ZM1.831,9.156H4.663V6.585H1.831Zm20.742-2.57h2.832V4.015H22.573ZM1.831,4.015H4.663V1.576H1.831Zm5.817,0h2.985V1.576H7.648Zm5.97,0H16.6V1.576H13.618Zm5.97,0h2.985V1.576H19.588Z"/>
  </g>
</svg> -->
<!-- <svg xmlns="http://www.w3.org/2000/svg" width="14" height="15" viewBox="0 0 14 15">
  <path id="Path_5944" data-name="Path 5944" d="M.683,6.27V2.616L3.855.789,7.016,2.617V6.272L3.846,8.1ZM3.855,0,3.513.2.342,2.024,0,2.221V6.664l.341.2L3.5,8.689l.341.2.342-.2,3.17-1.825.342-.2V2.223l-.341-.2L4.2.2Z" transform="translate(3.424)"/>
  <path id="Path_5945" data-name="Path 5945" d="M.683,6.27V2.616L3.855.789,7.016,2.617V6.272L3.846,8.1ZM3.855,0,3.513.2.342,2.024,0,2.221V6.664l.341.2L3.5,8.689l.341.2.342-.2,3.17-1.825.342-.2V2.223l-.341-.2L4.2.2Z" transform="translate(7 6.114)"/>
  <path id="Path_5944" data-name="Path 5944" d="M.683,6.27V2.616L3.855.789,7.016,2.617V6.272L3.846,8.1ZM3.855,0,3.513.2.342,2.024,0,2.221V6.664l.341.2L3.5,8.689l.341.2.342-.2,3.17-1.825.342-.2V2.223l-.341-.2L4.2.2Z" transform="translate(-3.824)"/>
  <path id="Path_5945" data-name="Path 5945" d="M.683,6.27V2.616L3.855.789,7.016,2.617V6.272L3.846,8.1ZM3.855,0,3.513.2.342,2.024,0,2.221V6.664l.341.2L3.5,8.689l.341.2.342-.2,3.17-1.825.342-.2V2.223l-.341-.2L4.2.2Z" transform="translate(0 6.124)"/>
  <path id="Path_5944" data-name="Path 5944" d="M.683,6.27V2.616L3.855.789,7.016,2.617V6.272L3.846,8.1ZM3.855,0,3.513.2.342,2.024,0,2.221V6.664l.341.2L3.5,8.689l.341.2.342-.2,3.17-1.825.342-.2V2.223l-.341-.2L4.2.2Z" transform="translate(10.524)"/>
</svg> -->
<!-- <svg xmlns="http://www.w3.org/2000/svg" width="15" height="13" viewBox="0 0 15 13">
  <path id="Path_5949" data-name="Path 5949" d="M1.325,7.034V3.364L4.511,1.528,7.686,3.365V7.036L4.5,8.87ZM4.512,0,3.848.382.663,2.218,0,2.6V7.8l.661.382,3.177,1.836L4.5,10.4l.663-.382L8.348,8.182,9.011,7.8V2.6L8.35,2.22,5.174.383Z" transform="translate(0 1)" fill="#fff"/>
  <path id="Path_5949" data-name="Path 5949" d="M1.325,7.034V3.364L4.511,1.528,7.686,3.365V7.036L4.5,8.87ZM4.512,0,3.848.382.663,2.218,0,2.6V7.8l.661.382,3.177,1.836L4.5,10.4l.663-.382L8.348,8.182,9.011,7.8V2.6L8.35,2.22,5.174.383Z" transform="translate(7.524 1)" fill="#fff"/>
</svg> -->

<svg xmlns="http://www.w3.org/2000/svg" width="15" height="13" viewBox="0 0 15 13">
  <polygon  points="7.5,3.75 7.5,8.75 3.75,10.5 0,8.75 0,3.75 3.75,2" stroke="#fff" fill="none" stroke-width="1.5"></polygon>
  <polygon  points="15,3.75 15,8.75 11.25,10.5 7.5,8.75 7.5,3.75 11.25,2" stroke="#fff" fill="none" stroke-width="1.5"></polygon>
</svg>

