<!-- <svg xmlns="http://www.w3.org/2000/svg" xmlns:xlink="http://www.w3.org/1999/xlink" width="24" height="21" viewBox="0 0 24 21">
  <defs>
    <clipPath id="clip-path">
      <rect id="Rectangle_23549" data-name="Rectangle 23549" width="24" height="21" transform="translate(0 0)" fill="none"/>
    </clipPath>
  </defs>
  <g id="Group_9524" data-name="Group 9524" transform="translate(-27.257 -36.765)">
    <g id="Group_9521" data-name="Group 9521" transform="translate(27.257 36.765)" clip-path="url(#clip-path)">
      <path id="Path_5529" data-name="Path 5529" d="M33.218,30.392a1.531,1.531,0,1,1-1.528-1.627,1.58,1.58,0,0,1,1.528,1.627" transform="translate(-29.649 -30.106)" fill="#1c1c1b"/>
      <path id="Path_5530" data-name="Path 5530" d="M63.381,30.392a1.531,1.531,0,1,1-1.528-1.627,1.58,1.58,0,0,1,1.528,1.627" transform="translate(-55.847 -30.106)" fill="#1c1c1b"/>
      <path id="Path_5531" data-name="Path 5531" d="M93.543,30.392a1.531,1.531,0,1,1-1.528-1.627,1.58,1.58,0,0,1,1.528,1.627" transform="translate(-82.043 -30.106)" fill="#1c1c1b"/>
      <path id="Path_5532" data-name="Path 5532" d="M123.7,30.392a1.531,1.531,0,1,1-1.528-1.627,1.58,1.58,0,0,1,1.528,1.627" transform="translate(-108.24 -30.106)" fill="#1c1c1b"/>
      <path id="Path_5533" data-name="Path 5533" d="M153.868,30.392a1.531,1.531,0,1,1-1.528-1.627,1.58,1.58,0,0,1,1.528,1.627" transform="translate(-134.437 -30.106)" fill="#1c1c1b"/>
      <path id="Path_5534" data-name="Path 5534" d="M184.03,30.392a1.531,1.531,0,1,1-1.528-1.627,1.58,1.58,0,0,1,1.528,1.627" transform="translate(-160.634 -30.106)" fill="#1c1c1b"/>
      <path id="Path_5535" data-name="Path 5535" d="M33.218,87.923A1.531,1.531,0,1,1,31.69,86.3a1.58,1.58,0,0,1,1.528,1.627" transform="translate(-29.649 -79.695)" fill="#1c1c1b"/>
      <path id="Path_5536" data-name="Path 5536" d="M63.381,87.923A1.531,1.531,0,1,1,61.853,86.3a1.58,1.58,0,0,1,1.528,1.627" transform="translate(-55.847 -79.695)" fill="#1c1c1b"/>
      <path id="Path_5537" data-name="Path 5537" d="M93.543,87.923A1.531,1.531,0,1,1,92.015,86.3a1.58,1.58,0,0,1,1.528,1.627" transform="translate(-82.043 -79.695)" fill="#1c1c1b"/>
      <path id="Path_5538" data-name="Path 5538" d="M123.7,87.923a1.531,1.531,0,1,1-1.528-1.627,1.58,1.58,0,0,1,1.528,1.627" transform="translate(-108.24 -79.695)" fill="#1c1c1b"/>
      <path id="Path_5539" data-name="Path 5539" d="M153.868,87.923A1.531,1.531,0,1,1,152.34,86.3a1.58,1.58,0,0,1,1.528,1.627" transform="translate(-134.437 -79.695)" fill="#1c1c1b"/>
      <path id="Path_5540" data-name="Path 5540" d="M184.03,87.923A1.531,1.531,0,1,1,182.5,86.3a1.58,1.58,0,0,1,1.528,1.627" transform="translate(-160.634 -79.695)" fill="#1c1c1b"/>
      <path id="Path_5541" data-name="Path 5541" d="M48.538,59.158a1.531,1.531,0,1,1-1.528-1.627,1.58,1.58,0,0,1,1.528,1.627" transform="translate(-42.955 -54.901)" fill="#1c1c1b"/>
      <path id="Path_5542" data-name="Path 5542" d="M78.7,59.158a1.531,1.531,0,1,1-1.528-1.627A1.58,1.58,0,0,1,78.7,59.158" transform="translate(-69.153 -54.901)" fill="#1c1c1b"/>
      <path id="Path_5543" data-name="Path 5543" d="M108.863,59.158a1.531,1.531,0,1,1-1.528-1.627,1.58,1.58,0,0,1,1.528,1.627" transform="translate(-95.349 -54.901)" fill="#1c1c1b"/>
      <path id="Path_5544" data-name="Path 5544" d="M139.026,59.158a1.531,1.531,0,1,1-1.528-1.627,1.58,1.58,0,0,1,1.528,1.627" transform="translate(-121.547 -54.901)" fill="#1c1c1b"/>
      <path id="Path_5545" data-name="Path 5545" d="M169.188,59.158a1.531,1.531,0,1,1-1.528-1.627,1.58,1.58,0,0,1,1.528,1.627" transform="translate(-147.743 -54.901)" fill="#1c1c1b"/>
      <path id="Path_5546" data-name="Path 5546" d="M199.35,59.158a1.531,1.531,0,1,1-1.528-1.627,1.58,1.58,0,0,1,1.528,1.627" transform="translate(-173.94 -54.901)" fill="#1c1c1b"/>
      <path id="Path_5547" data-name="Path 5547" d="M18.376,59.158a1.531,1.531,0,1,1-1.528-1.627,1.58,1.58,0,0,1,1.528,1.627" transform="translate(-16.758 -54.901)" fill="#1c1c1b"/>
      <path id="Path_5548" data-name="Path 5548" d="M33.218,145.454a1.531,1.531,0,1,1-1.528-1.627,1.58,1.58,0,0,1,1.528,1.627" transform="translate(-29.649 -129.285)" fill="#1c1c1b"/>
      <path id="Path_5549" data-name="Path 5549" d="M63.381,145.454a1.531,1.531,0,1,1-1.528-1.627,1.58,1.58,0,0,1,1.528,1.627" transform="translate(-55.847 -129.285)" fill="#1c1c1b"/>
      <path id="Path_5550" data-name="Path 5550" d="M93.543,145.454a1.531,1.531,0,1,1-1.528-1.627,1.58,1.58,0,0,1,1.528,1.627" transform="translate(-82.043 -129.285)" fill="#1c1c1b"/>
      <path id="Path_5551" data-name="Path 5551" d="M123.7,145.454a1.531,1.531,0,1,1-1.528-1.627,1.58,1.58,0,0,1,1.528,1.627" transform="translate(-108.24 -129.285)" fill="#1c1c1b"/>
      <path id="Path_5552" data-name="Path 5552" d="M153.868,145.454a1.531,1.531,0,1,1-1.528-1.627,1.58,1.58,0,0,1,1.528,1.627" transform="translate(-134.437 -129.285)" fill="#1c1c1b"/>
      <path id="Path_5553" data-name="Path 5553" d="M184.03,145.454a1.531,1.531,0,1,1-1.528-1.627,1.58,1.58,0,0,1,1.528,1.627" transform="translate(-160.634 -129.285)" fill="#1c1c1b"/>
      <path id="Path_5554" data-name="Path 5554" d="M48.538,116.689a1.531,1.531,0,1,1-1.528-1.627,1.58,1.58,0,0,1,1.528,1.627" transform="translate(-42.955 -104.49)" fill="#1c1c1b"/>
      <path id="Path_5555" data-name="Path 5555" d="M78.7,116.689a1.531,1.531,0,1,1-1.528-1.627,1.58,1.58,0,0,1,1.528,1.627" transform="translate(-69.153 -104.49)" fill="#1c1c1b"/>
      <path id="Path_5556" data-name="Path 5556" d="M108.863,116.689a1.531,1.531,0,1,1-1.528-1.627,1.58,1.58,0,0,1,1.528,1.627" transform="translate(-95.349 -104.49)" fill="#1c1c1b"/>
      <path id="Path_5557" data-name="Path 5557" d="M139.026,116.689a1.531,1.531,0,1,1-1.528-1.627,1.58,1.58,0,0,1,1.528,1.627" transform="translate(-121.547 -104.49)" fill="#1c1c1b"/>
      <path id="Path_5558" data-name="Path 5558" d="M169.188,116.689a1.531,1.531,0,1,1-1.528-1.627,1.58,1.58,0,0,1,1.528,1.627" transform="translate(-147.743 -104.49)" fill="#1c1c1b"/>
      <path id="Path_5559" data-name="Path 5559" d="M199.35,116.689a1.531,1.531,0,1,1-1.528-1.627,1.58,1.58,0,0,1,1.528,1.627" transform="translate(-173.94 -104.49)" fill="#1c1c1b"/>
      <path id="Path_5560" data-name="Path 5560" d="M18.376,116.689a1.531,1.531,0,1,1-1.528-1.627,1.58,1.58,0,0,1,1.528,1.627" transform="translate(-16.758 -104.49)" fill="#1c1c1b"/>
      <path id="Path_5561" data-name="Path 5561" d="M48.538,174.22a1.531,1.531,0,1,1-1.528-1.627,1.58,1.58,0,0,1,1.528,1.627" transform="translate(-42.955 -154.08)" fill="#1c1c1b"/>
      <path id="Path_5562" data-name="Path 5562" d="M78.7,174.22a1.531,1.531,0,1,1-1.528-1.627A1.58,1.58,0,0,1,78.7,174.22" transform="translate(-69.153 -154.08)" fill="#1c1c1b"/>
      <path id="Path_5563" data-name="Path 5563" d="M108.863,174.22a1.531,1.531,0,1,1-1.528-1.627,1.58,1.58,0,0,1,1.528,1.627" transform="translate(-95.349 -154.08)" fill="#1c1c1b"/>
      <path id="Path_5564" data-name="Path 5564" d="M139.026,174.22a1.531,1.531,0,1,1-1.528-1.627,1.58,1.58,0,0,1,1.528,1.627" transform="translate(-121.547 -154.08)" fill="#1c1c1b"/>
      <path id="Path_5565" data-name="Path 5565" d="M169.188,174.22a1.531,1.531,0,1,1-1.528-1.627,1.58,1.58,0,0,1,1.528,1.627" transform="translate(-147.743 -154.08)" fill="#1c1c1b"/>
      <path id="Path_5566" data-name="Path 5566" d="M199.35,174.22a1.531,1.531,0,1,1-1.528-1.627,1.58,1.58,0,0,1,1.528,1.627" transform="translate(-173.94 -154.08)" fill="#1c1c1b"/>
      <path id="Path_5567" data-name="Path 5567" d="M18.376,174.22a1.531,1.531,0,1,1-1.528-1.627,1.58,1.58,0,0,1,1.528,1.627" transform="translate(-16.758 -154.08)" fill="#1c1c1b"/>
    </g>
  </g>
</svg> -->
<!-- <svg xmlns="http://www.w3.org/2000/svg" xmlns:xlink="http://www.w3.org/1999/xlink" width="24.158" height="15" viewBox="0 0 24.158 15">
  <defs>
    <clipPath id="clip-path">
      <rect width="24.158" height="15" fill="none"/>
    </clipPath>
  </defs>
  <g id="Repeat_Grid_61" data-name="Repeat Grid 61" clip-path="url(#clip-path)">
    <g transform="translate(-812.901 -361.982)">
      <g id="Group_9591" data-name="Group 9591" transform="translate(1985.359 760.722) rotate(180)">
        <g id="Group_9588" data-name="Group 9588" transform="translate(0 -0.26)">
          <path id="Path_5769" data-name="Path 5769" d="M2.993,0,0,5.185H5.987Z" transform="translate(1160.5 384)"/>
          <path id="Path_5779" data-name="Path 5779" d="M2.993,0,0,5.185H5.987Z" transform="translate(1154.55 384)"/>
          <path id="Path_5770" data-name="Path 5770" d="M2.993,0,0,5.185H5.987Z" transform="translate(1160.5 388.908)"/>
          <path id="Path_5780" data-name="Path 5780" d="M2.993,0,0,5.185H5.987Z" transform="translate(1154.55 388.908)"/>
          <path id="Path_5773" data-name="Path 5773" d="M2.993,0,0,5.185H5.987Z" transform="translate(1160.5 393.815)"/>
          <path id="Path_5781" data-name="Path 5781" d="M2.993,0,0,5.185H5.987Z" transform="translate(1154.55 393.815)"/>
          <path id="Path_5771" data-name="Path 5771" d="M2.993,0,0,5.185H5.987Z" transform="translate(1166.472 384)"/>
          <path id="Path_5772" data-name="Path 5772" d="M2.993,0,0,5.185H5.987Z" transform="translate(1166.472 388.908)"/>
          <path id="Path_5774" data-name="Path 5774" d="M2.993,0,0,5.185H5.987Z" transform="translate(1166.472 393.815)"/>
        </g>
      </g>
    </g>
    <g transform="translate(-794.901 -361.982)">
      <g id="Group_9591-2" data-name="Group 9591" transform="translate(1985.359 760.722) rotate(180)">
        <g id="Group_9588-2" data-name="Group 9588" transform="translate(0 -0.26)">
          <path id="Path_5769-2" data-name="Path 5769" d="M2.993,0,0,5.185H5.987Z" transform="translate(1160.5 384)"/>
          <path id="Path_5779-2" data-name="Path 5779" d="M2.993,0,0,5.185H5.987Z" transform="translate(1154.55 384)"/>
          <path id="Path_5770-2" data-name="Path 5770" d="M2.993,0,0,5.185H5.987Z" transform="translate(1160.5 388.908)"/>
          <path id="Path_5780-2" data-name="Path 5780" d="M2.993,0,0,5.185H5.987Z" transform="translate(1154.55 388.908)"/>
          <path id="Path_5773-2" data-name="Path 5773" d="M2.993,0,0,5.185H5.987Z" transform="translate(1160.5 393.815)"/>
          <path id="Path_5781-2" data-name="Path 5781" d="M2.993,0,0,5.185H5.987Z" transform="translate(1154.55 393.815)"/>
          <path id="Path_5771-2" data-name="Path 5771" d="M2.993,0,0,5.185H5.987Z" transform="translate(1166.472 384)"/>
          <path id="Path_5772-2" data-name="Path 5772" d="M2.993,0,0,5.185H5.987Z" transform="translate(1166.472 388.908)"/>
          <path id="Path_5774-2" data-name="Path 5774" d="M2.993,0,0,5.185H5.987Z" transform="translate(1166.472 393.815)"/>
        </g>
      </g>
    </g>
  </g>
</svg> -->

<!-- <svg xmlns="http://www.w3.org/2000/svg" width="15" height="13" viewBox="0 0 15 13">
  <path id="Path_5768" data-name="Path 5768" d="M49.607,61.54l-4.325-5,4.325-5,4.325,5Z" transform="translate(-38.282 -50.535)" fill="#fff"/>
  <path id="Path_5768" data-name="Path 5768" d="M49.607,61.54l-4.325-5,4.325-5,4.325,5Z" transform="translate(-45.882 -50.535)" fill="#fff"/>
</svg> -->

<svg xmlns="http://www.w3.org/2000/svg" width="15" height="13" viewBox="0 0 15 13">
  <polygon  points="7.5,0 15,6.5 7.5,13 0,6.5"  fill="#fff"></polygon>
</svg>

