<!-- <svg xmlns="http://www.w3.org/2000/svg" xmlns:xlink="http://www.w3.org/1999/xlink" width="22" height="15" viewBox="0 0 22 15">
  <defs>
    <clipPath id="clip-path">
      <rect width="22" height="15" fill="none"/>
    </clipPath>
    <clipPath id="clip-path-2">
      <rect id="Rectangle_23600" data-name="Rectangle 23600" width="15" height="15"/>
    </clipPath>
  </defs>
  <g id="Repeat_Grid_71" data-name="Repeat Grid 71" clip-path="url(#clip-path)">
    <g transform="translate(-814 -745)">
      <g id="a" transform="translate(814 745)" clip-path="url(#clip-path-2)">
        <rect id="Rectangle_23599" data-name="Rectangle 23599" width="15" height="15" fill="none"/>
        <g id="Group_9634" data-name="Group 9634" transform="translate(-1104.287 -416.539)">
          <g id="Group_9633" data-name="Group 9633" transform="translate(0.137 0.637)">
            <circle id="Ellipse_798" data-name="Ellipse 798" cx="2.601" cy="2.601" r="2.601" transform="translate(1112.631 417.095)"/>
            <circle id="Ellipse_799" data-name="Ellipse 799" cx="2.601" cy="2.601" r="2.601" transform="translate(1105.345 417.095)"/>
            <circle id="Ellipse_800" data-name="Ellipse 800" cx="2.601" cy="2.601" r="2.601" transform="translate(1112.631 424.382)"/>
            <circle id="Ellipse_801" data-name="Ellipse 801" cx="2.601" cy="2.601" r="2.601" transform="translate(1105.345 424.382)"/>
          </g>
        </g>
      </g>
    </g>
    <g transform="translate(-799 -745)">
      <g id="a-2" data-name="a" transform="translate(814 745)" clip-path="url(#clip-path-2)">
        <rect id="Rectangle_23599-2" data-name="Rectangle 23599" width="15" height="15" fill="none"/>
        <g id="Group_9634-2" data-name="Group 9634" transform="translate(-1104.287 -416.539)">
          <g id="Group_9633-2" data-name="Group 9633" transform="translate(0.137 0.637)">
            <circle id="Ellipse_798-2" data-name="Ellipse 798" cx="2.601" cy="2.601" r="2.601" transform="translate(1112.631 417.095)"/>
            <circle id="Ellipse_799-2" data-name="Ellipse 799" cx="2.601" cy="2.601" r="2.601" transform="translate(1105.345 417.095)"/>
            <circle id="Ellipse_800-2" data-name="Ellipse 800" cx="2.601" cy="2.601" r="2.601" transform="translate(1112.631 424.382)"/>
            <circle id="Ellipse_801-2" data-name="Ellipse 801" cx="2.601" cy="2.601" r="2.601" transform="translate(1105.345 424.382)"/>
          </g>
        </g>
      </g>
    </g>
  </g>
</svg> -->
<svg xmlns="http://www.w3.org/2000/svg" width="15" height="13" viewBox="0 0 15 13">
  <path id="Path_5945" data-name="Path 5945" d="M6.827,5.978a6.042,6.042,0,0,1,5.132,5.979A6.042,6.042,0,0,1,5.979,6.826,6.042,6.042,0,0,1,0,11.958,6.042,6.042,0,0,1,5.132,5.978,6.042,6.042,0,0,1,0,0,6.042,6.042,0,0,1,5.979,5.131,6.042,6.042,0,0,1,11.959,0,6.042,6.042,0,0,1,6.827,5.978" transform="translate(2 1)" fill="#fff"/>
</svg>


