<!-- <svg id="Group_9528" data-name="Group 9528" xmlns="http://www.w3.org/2000/svg" xmlns:xlink="http://www.w3.org/1999/xlink" width="24" height="21.411" viewBox="0 0 24 21.411">
  <defs>
    <clipPath id="clip-path">
      <rect id="Rectangle_23550" data-name="Rectangle 23550" width="24" height="21.411" fill="none"/>
    </clipPath>
  </defs>
  <g id="Group_9525" data-name="Group 9525" clip-path="url(#clip-path)">
    <path id="Path_5568" data-name="Path 5568" d="M110.887,7.2c-.121-.556-.649-2.846-2.418-3.6,1.769-.753,2.3-3.044,2.418-3.6.121.556.649,2.846,2.418,3.6-1.769.753-2.3,3.044-2.418,3.6" transform="translate(-94.024)"/>
    <path id="Path_5569" data-name="Path 5569" d="M146.813,7.2c-.121-.556-.649-2.846-2.418-3.6,1.769-.753,2.3-3.044,2.418-3.6.121.556.649,2.846,2.418,3.6-1.769.753-2.3,3.044-2.418,3.6" transform="translate(-125.166)"/>
    <path id="Path_5570" data-name="Path 5570" d="M110.887,58.67c-.121-.556-.649-2.846-2.418-3.6,1.769-.753,2.3-3.044,2.418-3.6.121.556.649,2.846,2.418,3.6-1.769.753-2.3,3.044-2.418,3.6" transform="translate(-94.024 -44.365)"/>
    <path id="Path_5571" data-name="Path 5571" d="M146.813,58.67c-.121-.556-.649-2.846-2.418-3.6,1.769-.753,2.3-3.044,2.418-3.6.121.556.649,2.846,2.418,3.6-1.769.753-2.3,3.044-2.418,3.6" transform="translate(-125.166 -44.365)"/>
    <path id="Path_5572" data-name="Path 5572" d="M110.887,110.142c-.121-.556-.649-2.846-2.418-3.6,1.769-.753,2.3-3.044,2.418-3.6.121.556.649,2.846,2.418,3.6-1.769.753-2.3,3.044-2.418,3.6" transform="translate(-94.024 -88.731)"/>
    <path id="Path_5573" data-name="Path 5573" d="M146.813,110.142c-.121-.556-.649-2.846-2.418-3.6,1.769-.753,2.3-3.044,2.418-3.6.121.556.649,2.846,2.418,3.6-1.769.753-2.3,3.044-2.418,3.6" transform="translate(-125.166 -88.731)"/>
    <path id="Path_5574" data-name="Path 5574" d="M2.518,7.2C2.4,6.643,1.869,4.353.1,3.6,1.869,2.846,2.4.556,2.518,0c.121.556.649,2.846,2.418,3.6-1.769.753-2.3,3.044-2.418,3.6" transform="translate(-0.087)"/>
    <path id="Path_5575" data-name="Path 5575" d="M38.444,7.2c-.121-.556-.649-2.846-2.418-3.6,1.769-.753,2.3-3.044,2.418-3.6.121.556.649,2.846,2.418,3.6-1.769.753-2.3,3.044-2.418,3.6" transform="translate(-31.228)"/>
    <path id="Path_5576" data-name="Path 5576" d="M74.37,7.2c-.121-.556-.649-2.846-2.418-3.6,1.769-.753,2.3-3.044,2.418-3.6.121.556.649,2.846,2.418,3.6-1.769.753-2.3,3.044-2.418,3.6" transform="translate(-62.37)"/>
    <path id="Path_5577" data-name="Path 5577" d="M2.518,58.67C2.4,58.114,1.869,55.824.1,55.07c1.769-.753,2.3-3.044,2.418-3.6.121.556.649,2.846,2.418,3.6-1.769.753-2.3,3.044-2.418,3.6" transform="translate(-0.087 -44.365)"/>
    <path id="Path_5578" data-name="Path 5578" d="M38.444,58.67c-.121-.556-.649-2.846-2.418-3.6,1.769-.753,2.3-3.044,2.418-3.6.121.556.649,2.846,2.418,3.6-1.769.753-2.3,3.044-2.418,3.6" transform="translate(-31.228 -44.365)"/>
    <path id="Path_5579" data-name="Path 5579" d="M74.37,58.67c-.121-.556-.649-2.846-2.418-3.6,1.769-.753,2.3-3.044,2.418-3.6.121.556.649,2.846,2.418,3.6-1.769.753-2.3,3.044-2.418,3.6" transform="translate(-62.37 -44.365)"/>
    <path id="Path_5580" data-name="Path 5580" d="M2.518,110.142c-.121-.556-.649-2.846-2.418-3.6,1.769-.753,2.3-3.044,2.418-3.6.121.556.649,2.846,2.418,3.6-1.769.753-2.3,3.044-2.418,3.6" transform="translate(-0.087 -88.731)"/>
    <path id="Path_5581" data-name="Path 5581" d="M38.444,110.142c-.121-.556-.649-2.846-2.418-3.6,1.769-.753,2.3-3.044,2.418-3.6.121.556.649,2.846,2.418,3.6-1.769.753-2.3,3.044-2.418,3.6" transform="translate(-31.228 -88.731)"/>
    <path id="Path_5582" data-name="Path 5582" d="M74.37,110.142c-.121-.556-.649-2.846-2.418-3.6,1.769-.753,2.3-3.044,2.418-3.6.121.556.649,2.846,2.418,3.6-1.769.753-2.3,3.044-2.418,3.6" transform="translate(-62.37 -88.731)"/>
  </g>
</svg> -->
<!-- <svg xmlns="http://www.w3.org/2000/svg" xmlns:xlink="http://www.w3.org/1999/xlink" width="19.9" height="15" viewBox="0 0 19.9 15">
  <defs>
    <clipPath id="clip-path">
      <rect width="19.9" height="15" fill="none"/>
    </clipPath>
  </defs>
  <g id="Repeat_Grid_66" data-name="Repeat Grid 66" clip-path="url(#clip-path)">
    <g id="Group_9637" data-name="Group 9637" transform="translate(-1307.75 -413.018)">
      <g id="Group_9636" data-name="Group 9636" transform="translate(1307.75 413.018)">
        <rect id="Rectangle_23587" data-name="Rectangle 23587" width="4.972" height="4.972" transform="translate(4.971)"/>
        <rect id="Rectangle_23591" data-name="Rectangle 23591" width="4.972" height="4.972" transform="translate(14.914)"/>
        <rect id="Rectangle_23586" data-name="Rectangle 23586" width="4.972" height="4.972" transform="translate(0 5.055)"/>
        <rect id="Rectangle_23590" data-name="Rectangle 23590" width="4.972" height="4.972" transform="translate(9.943 5.055)"/>
        <rect id="Rectangle_23585" data-name="Rectangle 23585" width="4.972" height="4.972" transform="translate(4.971 10.028)"/>
        <rect id="Rectangle_23589" data-name="Rectangle 23589" width="4.972" height="4.972" transform="translate(14.914 10.028)"/>
      </g>
    </g>
  </g>
</svg> -->
<svg xmlns="http://www.w3.org/2000/svg" width="15" height="13" viewBox="0 0 15 13">
  <circle id="Ellipse_799" data-name="Ellipse 799" cx="2.827" cy="2.827" r="2.827" transform="translate(0 1)" fill="#fff"/>
  <circle id="Ellipse_800" data-name="Ellipse 800" cx="2.827" cy="2.827" r="2.827" transform="translate(7.4 6)" fill="#fff"/>
</svg>

