<svg xmlns="http://www.w3.org/2000/svg" xmlns:xlink="http://www.w3.org/1999/xlink" width="23.04" height="19.536" viewBox="0 0 23.04 19.536">
  <defs>
    <clipPath id="clip-path">
      <rect id="Rectangle_15829" data-name="Rectangle 15829" width="23.04" height="19.536" fill="none"/>
    </clipPath>
  </defs>
  <g id="Group_4371" data-name="Group 4371" clip-path="url(#clip-path)">
    <path id="Path_1822" data-name="Path 1822" d="M22.461,8.991c-9.981,0-16.006,0-18.794.046l-1.249.02.91-.856c.744-.7,2.485-2.341,7.112-6.824a.416.416,0,0,0,.167-.345c0-.074-.083-.174-.163-.271L9.909.151C9.8.041,9.731,0,9.643,0c-.03,0-.121.036-.257.173L.195,9.356h0a.672.672,0,0,0,.005.95l9.113,9.071a.676.676,0,0,0,.3.159c.1,0,.163-.048.351-.238l.494-.526a.641.641,0,0,0,.118-.3c0-.133-.1-.282-.33-.482-3.182-3.089-5.49-5.273-6.878-6.505l-.963-.856,1.289.01c2.834.023,8.535.023,18.885.023a.437.437,0,0,0,.46-.495V9.456c0-.139,0-.465-.578-.465" transform="translate(23 20) rotate(180)" fill="#858585"/>
  </g>
</svg>
