<svg id="Group_4394" data-name="Group 4394" xmlns="http://www.w3.org/2000/svg" xmlns:xlink="http://www.w3.org/1999/xlink" width="10.147" height="6.565" viewBox="0 0 10.147 6.565">
  <defs>
    <clipPath id="clip-path">
      <path id="Path_758" data-name="Path 758" d="M0-1.161H10.147V-7.726H0Z" transform="translate(0 7.726)" fill="#82a7e2"/>
    </clipPath>
  </defs>
  <g id="Group_305" data-name="Group 305" clip-path="url(#clip-path)">
    <g id="Group_304" data-name="Group 304" transform="translate(0 0)">
      <path id="Path_757" data-name="Path 757" d="M-.02-.174,4.466,5.205a.537.537,0,0,0,.459.2h.051a.537.537,0,0,0,.459-.2L9.9-.174a.622.622,0,0,0,.115-.408.43.43,0,0,0-.217-.357l-.153-.1a.725.725,0,0,0-.433-.115.5.5,0,0,0-.382.217L4.951,3.65,1.076-.939a.5.5,0,0,0-.382-.217A.725.725,0,0,0,.26-1.04l-.178.1a.43.43,0,0,0-.217.357A.622.622,0,0,0-.02-.174" transform="translate(0.136 1.156)" fill="#82a7e2"/>
    </g>
  </g>
</svg>
