<svg xmlns="http://www.w3.org/2000/svg" xmlns:xlink="http://www.w3.org/1999/xlink" width="10.147" height="6.565" viewBox="0 0 10.147 6.565">
  <defs>
    <clipPath id="clip-path">
      <path id="Path_758" data-name="Path 758" d="M0,6.565H10.147V0H0Z" fill="#82a7e2"/>
    </clipPath>
  </defs>
  <g id="Group_4393" data-name="Group 4393" transform="translate(10.147 6.565) rotate(180)">
    <g id="Group_305" data-name="Group 305" clip-path="url(#clip-path)">
      <g id="Group_304" data-name="Group 304" transform="translate(0 0)">
        <path id="Path_757" data-name="Path 757" d="M.116.983,4.6,6.362a.537.537,0,0,0,.459.2h.051a.537.537,0,0,0,.459-.2L10.033.983a.622.622,0,0,0,.115-.408A.43.43,0,0,0,9.931.218l-.153-.1A.725.725,0,0,0,9.344,0a.5.5,0,0,0-.382.217L5.087,4.807,1.212.218A.5.5,0,0,0,.83,0,.725.725,0,0,0,.4.116l-.178.1A.43.43,0,0,0,0,.575.622.622,0,0,0,.116.983" transform="translate(0 0)" fill="#82a7e2"/>
      </g>
    </g>
  </g>
</svg>
