<svg xmlns="http://www.w3.org/2000/svg" width="22.587" height="16.776" viewBox="0 0 22.587 16.776">
  <g id="Group_9371" data-name="Group 9371" transform="translate(0.719 0)">
    <path id="Path_5132" data-name="Path 5132" d="M15.4,3.666,12.962,1.339l-1.48-.12L14.66,4.247Z" transform="translate(-6.795 -0.722)" fill="#ff8787"/>
    <rect id="Rectangle_23427" data-name="Rectangle 23427" width="1.004" height="3.195" transform="translate(9.698 0)" fill="#ff8787"/>
    <path id="Path_5133" data-name="Path 5133" d="M32.779,1.189l-1.462.128L28.89,3.656l.748.578Z" transform="translate(-17.096 -0.704)" fill="#ff8787"/>
    <path id="Path_5134" data-name="Path 5134" d="M30.5,33.921l2.442,2.072,1.48.107-3.178-2.7Z" transform="translate(-18.05 -19.767)" fill="#ff8787"/>
    <rect id="Rectangle_23428" data-name="Rectangle 23428" width="1.004" height="2.889" transform="translate(10.361 13.886)" fill="#ff8787"/>
    <path id="Path_5135" data-name="Path 5135" d="M13.175,36.106l1.462-.114,2.427-2.082-.748-.514Z" transform="translate(-7.796 -19.762)" fill="#ff8787"/>
    <path id="Path_5136" data-name="Path 5136" d="M30.023,10.947l1.663,2.708H30.023l1.663,2.715H30.023l1.663,2.742h7.949V10.946Z" transform="translate(-17.766 -6.478)" fill="#fff"/>
    <path id="Path_5137" data-name="Path 5137" d="M0,10.946v8.165H9.514L7.758,16.369H9.514L7.758,13.654H9.514L7.758,10.946Z" transform="translate(-0.719 -6.478)" fill="#fff"/>
  </g>
</svg>
