<svg xmlns="http://www.w3.org/2000/svg" xmlns:xlink="http://www.w3.org/1999/xlink" width="23.033" height="19.53" viewBox="0 0 23.033 19.53">
  <defs>
    <clipPath id="clip-path">
      <rect id="Rectangle_15829" data-name="Rectangle 15829" width="23.033" height="19.53" fill="none"/>
    </clipPath>
  </defs>
  <g id="Group_4371" data-name="Group 4371" clip-path="url(#clip-path)">
    <path id="Path_1822" data-name="Path 1822" d="M22.454,8.988c-9.978,0-16,0-18.788.046l-1.249.02L3.327,8.2c.743-.7,2.484-2.341,7.11-6.822a.416.416,0,0,0,.167-.345c0-.074-.083-.174-.163-.271L9.906.151C9.8.041,9.728,0,9.64,0c-.03,0-.121.036-.257.173L.195,9.353h0A.672.672,0,0,0,.2,10.3L9.31,19.372a.676.676,0,0,0,.3.159c.1,0,.163-.048.351-.238l.494-.526a.641.641,0,0,0,.118-.3c0-.133-.1-.282-.33-.482-3.181-3.088-5.488-5.271-6.875-6.5L2.4,10.629l1.288.01c2.833.023,8.533.023,18.879.023a.436.436,0,0,0,.46-.495V9.453c0-.139,0-.465-.578-.465" transform="translate(0 0)" fill="#858585"/>
  </g>
</svg>
