<svg xmlns="http://www.w3.org/2000/svg" width="19.864" height="15.291" viewBox="0 0 19.864 15.291">
  <g id="Group_8679" data-name="Group 8679" transform="translate(-728.233 -222.5)">
    <g id="Group_8678" data-name="Group 8678">
      <rect id="Rectangle_23323" data-name="Rectangle 23323" width="13.893" height="1.297" transform="translate(728.233 222.5)" fill="#fff"/>
      <rect id="Rectangle_23324" data-name="Rectangle 23324" width="8.911" height="1.297" transform="translate(728.233 232.734)" fill="#fff"/>
      <rect id="Rectangle_23325" data-name="Rectangle 23325" width="8.911" height="1.297" transform="translate(728.233 229.32)" fill="#fff"/>
      <rect id="Rectangle_23326" data-name="Rectangle 23326" width="13.893" height="1.297" transform="translate(728.233 225.905)" fill="#fff"/>
    </g>
    <path id="Path_5086" data-name="Path 5086" d="M23.665,14.809c-3.442,0-4.767,0-5.77.011.326-.3.856-.793,2.05-1.937a.559.559,0,0,0,.187-.423.567.567,0,0,0-.161-.368l-.228-.255a.509.509,0,0,0-.787,0l-3.3,3.259a.552.552,0,0,0-.2.453.525.525,0,0,0,.176.424l3.306,3.249a.615.615,0,0,0,.39.167.582.582,0,0,0,.43-.217l.226-.241a.648.648,0,0,0,.134-.364.666.666,0,0,0-.262-.486c-1.092-1.049-1.608-1.521-1.935-1.81,1,.006,2.286.006,5.788.006a.573.573,0,0,0,.587-.6v-.284a.579.579,0,0,0-.635-.585" transform="translate(723.798 218.404)" fill="#ff8787"/>
  </g>
</svg>
