<svg id="Bocka_av_icon" data-name="Bocka av icon" xmlns="http://www.w3.org/2000/svg" xmlns:xlink="http://www.w3.org/1999/xlink" width="15" height="15" viewBox="0 0 15 15">
  <defs>
    <clipPath id="clip-path">
      <rect id="Rectangle_60" data-name="Rectangle 60" width="15" height="15" fill="none"/>
    </clipPath>
  </defs>
  <g id="Mask_Group_301" data-name="Mask Group 301" clip-path="url(#clip-path)">
    <path id="Path_745" data-name="Path 745" d="M14.869,7.434A7.437,7.437,0,1,1,7.432,0a7.435,7.435,0,0,1,7.436,7.436" transform="translate(0.069 0.066)" fill="#ffffff"/>
    <path id="Path_746" data-name="Path 746" d="M20.194,19.48l-.224-.227a.683.683,0,0,0-.483-.215.783.783,0,0,0-.547.251l-4.986,4.937-1.633-1.689v0l-.517-.522a.7.7,0,0,0-.493-.217.734.734,0,0,0-.51.224l-.224.227a.7.7,0,0,0,.037,1.032l3.353,3.38,5.811-5.747.425-.427a.689.689,0,0,0-.007-1.005" transform="translate(-8.245 -15.199)" fill="#44484c"/>
  </g>
</svg>
