<svg id="Group_6109" data-name="Group 6109" xmlns="http://www.w3.org/2000/svg" xmlns:xlink="http://www.w3.org/1999/xlink" width="15" height="15" viewBox="0 0 15 15">
  <defs>
    <clipPath id="clip-path">
      <path id="Path_736" data-name="Path 736" d="M0,8.951H15v-15H0Z" transform="translate(0 6.049)" fill="#858585"/>
    </clipPath>
  </defs>
  <g id="X_icon" data-name="X icon">
    <g id="X_icon-2" data-name="X icon">
      <g id="Group_291" data-name="Group 291" clip-path="url(#clip-path)">
        <g id="Group_289" data-name="Group 289" transform="translate(-0.001 0.002)">
          <path id="Path_734" data-name="Path 734" d="M8.951,4.475a7.5,7.5,0,1,1-7.5-7.5,7.5,7.5,0,0,1,7.5,7.5" transform="translate(6.049 3.024)" fill="#858585"/>
        </g>
        <g id="Group_290" data-name="Group 290" transform="translate(3.106 3.118)">
          <path id="Path_735" data-name="Path 735" d="M5.109,4.435,2.037,1.362,5.114-1.722a.59.59,0,0,0,0-.865L4.9-2.808a.59.59,0,0,0-.888.05L.961.286l-3.107-3.1a.6.6,0,0,0-.883.015l-.231.228a.6.6,0,0,0,.03.908L-.158,1.407S-3.133,4.4-3.235,4.5a.59.59,0,0,0,0,.865l.221.221a.59.59,0,0,0,.888-.05L.916,2.483l3.11,3.1a.6.6,0,0,0,.885-.015l.231-.228a.6.6,0,0,0-.032-.908" transform="translate(3.453 2.997)" fill="#44484c"/>
        </g>
      </g>
    </g>
  </g>
</svg>
