<svg id="Component_72_67" data-name="Component 72 – 67" xmlns="http://www.w3.org/2000/svg" width="21.72" height="19.23" viewBox="0 0 21.72 19.23">
  <path id="Path_771" data-name="Path 771" d="M30.7,16.736H19.362a4.647,4.647,0,0,0-4.842,4.412v6.886a8.877,8.877,0,0,0,.349,2.295c.577,1.846-.65,4.685-1.032,5.433a.135.135,0,0,0,.062.183.172.172,0,0,0,.082.022.161.161,0,0,0,.125-.058c.49-.584,2.929-2.6,5.256-2.6H30.7a4.646,4.646,0,0,0,4.842-4.412V21.148A4.647,4.647,0,0,0,30.7,16.736Z" transform="translate(-13.821 -16.736)" fill="#e37831"/>
  <g id="Group_322" data-name="Group 322" transform="translate(4.523 3.363)">
    <rect id="Rectangle_225" data-name="Rectangle 225" width="13.959" height="1.164" transform="translate(0 5.605)" fill="#fff"/>
    <rect id="Rectangle_226" data-name="Rectangle 226" width="8.423" height="1.164" transform="translate(0 8.408)" fill="#fff"/>
    <rect id="Rectangle_227" data-name="Rectangle 227" width="13.959" height="1.164" transform="translate(0 2.803)" fill="#fff"/>
    <rect id="Rectangle_228" data-name="Rectangle 228" width="13.959" height="1.164" fill="#fff"/>
  </g>
</svg>
