 <svg xmlns="http://www.w3.org/2000/svg" width="18" height="18" viewBox="0 0 15.741 23">
              <g id="Group_461" data-name="Group 461" transform="translate(-21.973 -15.119)">
                <path id="Path_800" data-name="Path 800"
                  d="M37.7,16.858a.4.4,0,0,0-.409-.4H33.048v-.947a.4.4,0,0,0-.409-.4H27.072a.4.4,0,0,0-.409.4v.947H22.382a.4.4,0,0,0-.409.4v1.165H37.7Z"
                  fill="#fcf4ec" />
                <path id="Path_801" data-name="Path 801"
                  d="M21.973,23.209l1.924,18.6c.049.275.183.415.409.415H35.38c.226,0,.361-.14.409-.415l1.924-18.6Zm3.612,17.662L24.253,26.877h1.776l.712,13.994Zm5.115,0H28.835l-.263-13.994h2.355Zm3.248,0H32.791L33.5,26.877h1.776Z"
                  transform="translate(0 -4.105)" fill="#fcf4ec" />
              </g>
            </svg>
