<svg id="Component_72_190" data-name="Component 72 – 190" xmlns="http://www.w3.org/2000/svg" width="24" height="24" viewBox="0 0 32.755 29">
  <path id="Path_771" data-name="Path 771" d="M39.274,16.736h-17.1c-4.026,0-7.3,2.984-7.3,6.653V33.773a13.386,13.386,0,0,0,.526,3.461c.871,2.784-.98,7.066-1.557,8.193a.2.2,0,0,0,.093.276.259.259,0,0,0,.124.032.243.243,0,0,0,.189-.088c.739-.881,4.417-3.925,7.927-3.925h17.1c4.027,0,7.3-2.984,7.3-6.653V23.389C46.576,19.72,43.3,16.736,39.274,16.736Z" transform="translate(-13.821 -16.736)" fill="#e37831"/>
  <g id="Group_322" data-name="Group 322" transform="translate(6.821 5.071)">
    <rect id="Rectangle_225" data-name="Rectangle 225" width="21.051" height="1.755" transform="translate(0 8.453)" fill="#fff"/>
    <rect id="Rectangle_226" data-name="Rectangle 226" width="12.702" height="1.755" transform="translate(0 12.679)" fill="#fff"/>
    <rect id="Rectangle_227" data-name="Rectangle 227" width="21.051" height="1.755" transform="translate(0 4.226)" fill="#fff"/>
    <rect id="Rectangle_228" data-name="Rectangle 228" width="21.051" height="1.755" fill="#fff"/>
  </g>
</svg>
