<svg id="Group_304" data-name="Group 304" xmlns="http://www.w3.org/2000/svg" width="11" height="6" viewBox="0 0 11 6">
  <path id="Path_757" data-name="Path 757" d="M-.011-.258,4.852,4.657a.631.631,0,0,0,.5.186h.055a.631.631,0,0,0,.5-.186L10.738-.258a.506.506,0,0,0,.124-.373.39.39,0,0,0-.235-.326l-.166-.093a.9.9,0,0,0-.47-.1.57.57,0,0,0-.414.2l-4.2,4.193L1.177-.957a.57.57,0,0,0-.414-.2.9.9,0,0,0-.47.1L.1-.957a.39.39,0,0,0-.235.326.506.506,0,0,0,.124.373" transform="translate(0.136 1.156)" fill="#fcf4ec"/>
</svg>
