<svg id="Group_6934" data-name="Group 6934" xmlns="http://www.w3.org/2000/svg" width="20" height="20" viewBox="0 0 20 20">
  <path id="Path_1723" data-name="Path 1723" d="M10,0A10,10,0,1,1,0,10,10,10,0,0,1,10,0Z" fill="#e67314"/>
  <path id="Path_1724" data-name="Path 1724" d="M26.021,20.633l-.192-.194a.508.508,0,0,0-.767.031l-.354.355h0l-5.667,5.708-2.373-2.408h0l-.21-.212-.117-.118h0l-.058-.058a.5.5,0,0,0-.743.007l-.193.193a.514.514,0,0,0,.031.771l.353.356h0l3.32,3.327,6.61-6.646.365-.366A.507.507,0,0,0,26.021,20.633Z" transform="translate(-10.78 -13.757)" fill="#fff" stroke="#fff" stroke-width="0.75"/>
</svg>
