<svg xmlns="http://www.w3.org/2000/svg" viewBox="0 0 64 64"><defs><style>.cls-1{fill:#858585;}.cls-2{fill:#44484C;}</style></defs><g id="Polygon_2" data-name="Polygon 2"><polygon class="cls-1" points="47.79 4.6 16.21 4.6 0.42 32.1 16.21 59.6 47.79 59.6 63.58 32.1 47.79 4.6"/></g><g id="Polygon_Grey" data-name="Polygon Grey"><g id="röd"><path class="cls-1" d="M47.18,5.56,62.36,32,47.18,58.44H16.82L1.64,32,16.82,5.56H47.18m.72-1.25H16.1L.2,32,16.1,59.69H47.9L63.8,32,47.9,4.31Z"/></g></g><g id="analysis_grey" data-name="analysis grey"><path class="cls-2" d="M45.88,41.25l-.16-.16h0l-6.51-6.51A10.71,10.71,0,0,0,30,18.5H30a10.71,10.71,0,0,0-.07,21.42H30a10.58,10.58,0,0,0,5.39-1.46L41.84,45h0l.16.16a1.26,1.26,0,0,0,1.78,0L45.88,43A1.27,1.27,0,0,0,45.88,41.25Zm-16-4.06a8,8,0,0,1,.05-16H30a8,8,0,0,1-.05,16Z"/></g></svg>
