<!-- <svg viewBox="0 0 95.272 102.47" xmlns="http://www.w3.org/2000/svg">
<g transform="matrix(8.9613 0 0 8.9613 -1651.8 -2518.5)">
<clipPath>
<path transform="matrix(1 0 0 -1 0 595.28)" d="m185.27 305.76h8.462v6.507h-8.462z"/>
</clipPath>
<g clip-path="url(#cp24)">
<path transform="matrix(1 0 0 -1 187.69 285.36)" d="m0 0c0.489 0 0.887 0.398 0.887 0.887s-0.398 0.887-0.887 0.887-0.887-0.398-0.887-0.887 0.398-0.887 0.887-0.887m4.51 0.88c0 0.489-0.398 0.887-0.887 0.887s-0.887-0.398-0.887-0.887 0.398-0.887 0.887-0.887 0.887 0.398 0.887 0.887m-6.927-4.621c0.125 0.978 0.373 1.747 0.781 2.422 0.236 0.389 0.552 0.671 0.915 0.814l0.127 0.05-0.119 0.067c-0.462 0.258-0.749 0.747-0.749 1.275 0 0.806 0.656 1.462 1.462 1.462s1.462-0.656 1.462-1.462c0-0.598-0.375-1.146-0.933-1.363l-0.124-0.049 0.114-0.067c0.408-0.241 0.686-0.694 0.764-1.243l0.204-1.484c0.021-0.138 0.064-0.189 0.076-0.201 0 0 0.071-0.094 0.253-0.094 0.187 0 0.244 0.087 0.244 0.087 0.012 0.012 0.055 0.062 0.076 0.201l0.204 1.484c0.078 0.549 0.356 1.002 0.764 1.243l0.114 0.067-0.124 0.049c-0.558 0.217-0.933 0.765-0.933 1.363 0 0.806 0.656 1.462 1.462 1.462s1.462-0.656 1.462-1.462c0-0.528-0.287-1.017-0.749-1.275l-0.119-0.067 0.127-0.05c0.363-0.143 0.679-0.425 0.915-0.814 0.408-0.675 0.657-1.444 0.781-2.422l3e-3 -0.02-0.017-0.011-0.451-0.297-0.043-0.028-7e-3 0.051c-0.119 0.911-0.417 1.865-0.758 2.429-0.243 0.401-0.603 0.641-0.962 0.641-0.055 0-0.11-6e-3 -0.164-0.017-0.387-0.079-0.66-0.424-0.731-0.923 0 0-0.204-1.481-0.205-1.487-0.06-0.406-0.262-0.578-0.421-0.652-0.087-0.04-0.273-0.096-0.472-0.096-0.198 0-0.386 0.063-0.472 0.103-0.16 0.074-0.362 0.246-0.422 0.652-1e-3 6e-3 -0.205 1.487-0.205 1.487-0.07 0.499-0.344 0.844-0.731 0.923-0.054 0.011-0.109 0.017-0.164 0.017-0.359 0-0.719-0.24-0.962-0.641-0.341-0.564-0.639-1.518-0.758-2.429l-7e-3 -0.051-0.043 0.028-0.451 0.297-0.017 0.011z" fill="#ea7928"/>
</g>
</g>
</svg> -->


<svg xmlns="http://www.w3.org/2000/svg" viewBox="0 0 64 64"><defs><style>.cls-1{fill:#858585;}.cls-2{fill:#e67314;}</style></defs><g id="Polygon_Grey" data-name="Polygon Grey"><g id="röd"><path class="cls-1" d="M47.18,5.56,62.36,32,47.18,58.44H16.82L1.64,32,16.82,5.56H47.18m.72-1.25H16.1L.2,32,16.1,59.69H47.9L63.8,32,47.9,4.31Z"/></g></g><g id="customers_kopia" data-name="customers kopia"><path class="cls-2" d="M48.8,42.33a24,24,0,0,0-3.1-9.67,7.62,7.62,0,0,0-3.64-3.26l-.5-.2.47-.26a5.8,5.8,0,1,0-4.93.35l.49.19-.46.27a6.79,6.79,0,0,0-3,5l-.81,5.93a1.4,1.4,0,0,1-.3.8,1.24,1.24,0,0,1-1,.38,1.13,1.13,0,0,1-1-.35,1.4,1.4,0,0,1-.3-.8l-.81-5.93a6.75,6.75,0,0,0-3-5l-.46-.27.49-.19a5.89,5.89,0,0,0,3.71-5.45A5.81,5.81,0,1,0,22,29l.47.26-.5.2a7.65,7.65,0,0,0-3.64,3.25,24.07,24.07,0,0,0-3.1,9.68v.08l.06.05L17,43.67l.17.12,0-.21a27.52,27.52,0,0,1,3-9.7,4.68,4.68,0,0,1,3.82-2.56,3.49,3.49,0,0,1,.65.06c1.54.32,2.62,1.7,2.91,3.69L28.45,41a3.14,3.14,0,0,0,1.67,2.61,4.67,4.67,0,0,0,3.76,0A3.14,3.14,0,0,0,35.55,41s.81-5.94.81-5.94c.29-2,1.37-3.37,2.91-3.69a3.49,3.49,0,0,1,.65-.06,4.68,4.68,0,0,1,3.82,2.56,27.52,27.52,0,0,1,3,9.7l0,.21.17-.12,1.79-1.18.06-.05ZM21.28,23.87a3.53,3.53,0,1,1,3.52,3.54A3.54,3.54,0,0,1,21.28,23.87ZM39.2,27.39a3.55,3.55,0,1,1,3.52-3.55A3.55,3.55,0,0,1,39.2,27.39Z"/></g></svg>


