<svg xmlns="http://www.w3.org/2000/svg" viewBox="0 0 64 64"><defs><style>.cls-1{fill:#858585;}.cls-2{fill:#44484C;}</style></defs><g id="Polygon_2" data-name="Polygon 2"><polygon class="cls-1" points="47.79 4.6 16.21 4.6 0.42 32.1 16.21 59.6 47.79 59.6 63.58 32.1 47.79 4.6"/></g><g id="Polygon_Grey" data-name="Polygon Grey"><g id="röd"><path class="cls-1" d="M47.18,5.56,62.36,32,47.18,58.44H16.82L1.64,32,16.82,5.56H47.18m.72-1.25H16.1L.2,32,16.1,59.69H47.9L63.8,32,47.9,4.31Z"/></g></g><g id="customers_kopia_2" data-name="customers kopia 2"><path class="cls-2" d="M48.71,42.05a24,24,0,0,0-3.11-9.68A7.58,7.58,0,0,0,42,29.12l-.51-.2.47-.27A5.79,5.79,0,1,0,37,29l.49.19-.45.27a6.73,6.73,0,0,0-3,5l-.81,5.93a1.41,1.41,0,0,1-.3.81,1.26,1.26,0,0,1-1,.37c-.74,0-1-.34-1-.34a1.46,1.46,0,0,1-.31-.81l-.81-5.93a6.72,6.72,0,0,0-3-5l-.46-.27.5-.2a5.82,5.82,0,1,0-4.94-.35l.47.27-.5.2A7.65,7.65,0,0,0,18.2,32.4a24,24,0,0,0-3.1,9.68v.08l.06,0L17,43.39l.17.11,0-.2a27.64,27.64,0,0,1,3-9.71A4.7,4.7,0,0,1,24,31a2.81,2.81,0,0,1,.65.07c1.54.31,2.63,1.69,2.91,3.69l.81,5.94A3.09,3.09,0,0,0,30,43.33a4.54,4.54,0,0,0,3.75,0,3.11,3.11,0,0,0,1.67-2.6s.82-5.94.82-5.94c.28-2,1.37-3.37,2.9-3.69a3.69,3.69,0,0,1,.65-.07,4.73,4.73,0,0,1,3.83,2.56,27.65,27.65,0,0,1,3,9.71l0,.2.17-.11,1.79-1.19.07,0ZM21.18,23.59a3.53,3.53,0,1,1,3.52,3.54A3.54,3.54,0,0,1,21.18,23.59ZM39.1,27.1a3.54,3.54,0,1,1,3.53-3.54A3.54,3.54,0,0,1,39.1,27.1Z"/></g></svg>
