<!-- <svg viewBox="0 0 95.272 102.47" xmlns="http://www.w3.org/2000/svg">
<g transform="matrix(8.9662 0 0 8.9662 -1650.7 -3382.8)">
<clipPath>
<path transform="matrix(1 0 0 -1 0 595.28)" d="m187.37 208.45h4.259v8.658h-4.259z"/>
</clipPath>
<g clip-path="url(#cp14)" fill="#ea7928">
<path transform="matrix(1 0 0 -1 189.05 385.22)" d="m0 0c-0.487 0-0.777-0.304-0.777-0.813 0-0.501 0.283-0.789 0.777-0.789 0.509 0 0.789 0.281 0.789 0.789 0 0.547-0.258 0.813-0.789 0.813"/>
<path transform="matrix(1 0 0 -1 191.16 378.73)" d="m0 0c-0.372 0.377-0.957 0.56-1.788 0.56-0.62 0-1.27-0.1-1.738-0.268l-8e-3 -3e-3c-0.209-0.093-0.252-0.242-0.252-0.351 0-0.093 0.041-0.263 0.077-0.384 0.049-0.147 0.159-0.228 0.308-0.228 0.099 0 0.205 0.027 0.258 0.04 0.399 0.107 0.764 0.15 1.26 0.15 0.821 0 1.204-0.329 1.204-1.037 0-0.683-0.244-1.076-0.965-1.557-0.718-0.479-0.96-0.917-0.96-1.736 0-0.17 0-0.346 0.011-0.62 2e-3 -0.182 0.144-0.3 0.363-0.3h0.26c0.185 0 0.336 0.134 0.339 0.299 4e-3 0.069 6e-3 0.132 9e-3 0.195 5e-3 0.12 0.011 0.244 0.026 0.431 0.032 0.554 0.187 0.786 0.828 1.24 0.985 0.685 1.24 1.13 1.24 2.166 0 0.622-0.155 1.081-0.472 1.403"/>
</g>
</g>
</svg> -->

<svg xmlns="http://www.w3.org/2000/svg" viewBox="0 0 64 64"><defs><style>.cls-1{fill:#858585;}.cls-2{fill:#e67314;}</style></defs><g id="Polygon_Grey" data-name="Polygon Grey"><g id="röd"><path class="cls-1" d="M47.18,5.56,62.36,32,47.18,58.44H16.82L1.64,32,16.82,5.56H47.18m.72-1.25H16.1L.2,32,16.1,59.69H47.9L63.8,32,47.9,4.31Z"/></g></g><g id="help"><path class="cls-2" d="M30.74,42.71a2.86,2.86,0,0,0-3,3.19,2.8,2.8,0,0,0,3,3.1,2.79,2.79,0,0,0,3.08-3.1C33.82,43.75,32.81,42.71,30.74,42.71Z"/><path class="cls-2" d="M39,17.2c-1.45-1.48-3.73-2.2-7-2.2a21.28,21.28,0,0,0-6.79,1.05l0,0a1.45,1.45,0,0,0-1,1.38,6.8,6.8,0,0,0,.31,1.5,1.21,1.21,0,0,0,1.2.9,4.54,4.54,0,0,0,1-.16,17.75,17.75,0,0,1,4.92-.59c3.21,0,4.7,1.3,4.7,4.07s-1,4.23-3.77,6.12-3.75,3.6-3.75,6.82c0,.66,0,1.35.05,2.43,0,.72.56,1.18,1.41,1.18h1a1.27,1.27,0,0,0,1.32-1.18c0-.27,0-.51,0-.76,0-.47,0-1,.1-1.69.12-2.18.73-3.09,3.23-4.87,3.85-2.69,4.85-4.44,4.85-8.51A7.49,7.49,0,0,0,39,17.2Z"/></g></svg>
