<!-- <svg viewBox="0 0 95.272 102.47" xmlns="http://www.w3.org/2000/svg">
<g transform="matrix(11.84 0 0 11.84 -2196.7 -3697.1)">
<path transform="matrix(1 0 0 -1 189.73 315.12)" d="m0 0h2.097l-2.097 2.097z" fill="#ea7928"/>
<clipPath>
<path transform="matrix(1 0 0 -1 0 595.28)" d="m187.14 275.11h4.728v7.145h-4.728z"/>
</clipPath>
<g clip-path="url(#cp20)" fill="#ea7928">
<path transform="matrix(1 0 0 -1 190.33 319.08)" d="m0 0c-0.236-0.062-0.43-0.086-0.718-0.086-0.684 0-1.008 0.279-1.078 0.93h-0.281c-0.068 0-0.103 0.03-0.103 0.09v0.042c0 0.039 0.018 0.086 0.103 0.086h0.266v0.077c0 0.061 0 0.119 3e-3 0.175h-0.269c-0.028 0-0.103 0-0.103 0.083v0.046c0 0.039 0.018 0.086 0.103 0.086h0.286c0.082 0.647 0.427 0.912 1.185 0.912 0.206 0 0.39-0.013 0.548-0.039 0.033-6e-3 0.108-0.021 0.108-0.093 0-0.035-0.024-0.107-0.036-0.14-0.014-0.029-0.05-0.049-0.085-0.049-0.022 0-0.056 5e-3 -0.095 0.011-0.018 2e-3 -0.036 5e-3 -0.054 7e-3 -0.131 0.018-0.22 0.018-0.434 0.018-0.602 0-0.732-0.312-0.772-0.627h0.918c0.085 0 0.103-0.047 0.103-0.086v-0.046c0-0.083-0.075-0.083-0.103-0.083h-0.934v-0.252h0.934c0.085 0 0.103-0.047 0.103-0.086v-0.042c0-0.06-0.034-0.09-0.103-0.09h-0.923c0.037-0.323 0.16-0.644 0.735-0.644 0.271 0 0.406 0.019 0.546 0.052 0.063 0.016 0.103 0.025 0.135 0.025 0.038 0 0.067-0.018 0.087-0.056 0.019-0.037 0.038-0.095 0.038-0.129 0-0.057-0.059-0.079-0.11-0.092"/>
<path transform="matrix(1 0 0 -1 189.5 319.76)" d="m0 0c-1.021 0-1.852 0.831-1.852 1.852s0.831 1.851 1.852 1.851 1.852-0.83 1.852-1.851-0.831-1.852-1.852-1.852m-0.206 4.204v2.528h-2.158v-7.145h4.728v4.617z"/>
</g>
</g>
</svg> -->
<svg xmlns="http://www.w3.org/2000/svg" viewBox="0 0 64 64"><defs><style>.cls-1{fill:#858585;}.cls-2{fill:#e67314;}</style></defs><g id="Polygon_Grey" data-name="Polygon Grey"><g id="röd"><path class="cls-1" d="M47.18,5.56,62.36,32,47.18,58.44H16.82L1.64,32,16.82,5.56H47.18m.72-1.25H16.1L.2,32,16.1,59.69H47.9L63.8,32,47.9,4.31Z"/></g></g><g id="invoice"><polygon class="cls-2" points="33.44 17 33.44 25.81 42.19 25.81 33.44 17"/><path class="cls-2" d="M36,42.42a10.42,10.42,0,0,1-3,.36c-2.86,0-4.21-1.17-4.5-3.9H27.29c-.28,0-.43-.13-.43-.38v-.17c0-.17.08-.37.43-.37H28.4v-.32c0-.25,0-.5,0-.73H27.29c-.11,0-.43,0-.43-.35v-.19c0-.17.08-.37.43-.37h1.2c.34-2.71,1.78-3.83,4.94-3.83a14.09,14.09,0,0,1,2.29.17c.14,0,.45.09.45.39a2.56,2.56,0,0,1-.15.59.39.39,0,0,1-.35.2l-.4,0-.22,0a11.32,11.32,0,0,0-1.81-.08c-2.52,0-3.06,1.31-3.23,2.63h3.83c.36,0,.44.2.44.37v.19c0,.35-.32.35-.44.35h-3.9V38h3.9c.36,0,.44.2.44.37v.17c0,.25-.15.38-.44.38H30c.15,1.36.67,2.71,3.07,2.71a9.4,9.4,0,0,0,2.28-.22,2.41,2.41,0,0,1,.56-.11.42.42,0,0,1,.37.23,1.68,1.68,0,0,1,.15.55C36.42,42.28,36.18,42.37,36,42.42Z"/><path class="cls-2" d="M31.64,27.61V17h-9V47H42.37V27.61Zm.86,17.65a7.78,7.78,0,1,1,7.73-7.77A7.76,7.76,0,0,1,32.5,45.26Z"/></g></svg>
