
<svg version="1.1" id="Lager_3" xmlns="http://www.w3.org/2000/svg" xmlns:xlink="http://www.w3.org/1999/xlink" x="0px" y="0px"
	 viewBox="0 0 1050 153" style="enable-background:new 0 0 1050 153;" xml:space="preserve">
<style type="text/css">
	.st0{fill:#808080;}
	.st1{fill:#808080;stroke:#808080;stroke-width:0.5549;stroke-miterlimit:10;}
</style>
<g>
	<path class="st0" d="M80.3,7.5c38,0,69,30.9,69,69s-30.9,69-69,69s-69-30.9-69-69S42.2,7.5,80.3,7.5 M80.3,1.5
		c-41.4,0-75,33.6-75,75s33.6,75,75,75s75-33.6,75-75S121.7,1.5,80.3,1.5L80.3,1.5z"/>
</g>
<path class="st0" d="M34.8,106l24.6,14.2L80.5,108l21.1,12.2l24.6-14.2V77.6L105,65.4V40.9L80.6,26.8L56,40.9v24.5L34.8,77.6V106z
	 M101.6,112.2L84,102V81.6l17.7-10.2l17.6,10.2V102L101.6,112.2z M59.4,112.2L41.7,102V81.6l17.7-10.2l17.6,10.2V102L59.4,112.2z
	 M80.5,75.6L62.9,65.3V45l17.7-10.2L98.2,45v20.4L80.5,75.6z"/>
<path class="st1" d="M182.8,107.7h-2.1c-0.9,0-1.2-0.3-1.2-1.3V66.9c-0.1-0.9,0-1.8,0.3-2.7c0.4-0.8,1.1-1.4,1.9-1.7
	c3.9-1.6,8.1-2.4,12.3-2.4c8.6,0,12.3,4,12.3,16.1c0,14.1-4.9,17.4-15.1,17.4c-2.5,0-4.9-0.4-7.2-1.3v14.1
	C184.2,107.3,183.8,107.7,182.8,107.7z M185.3,88.5c1.9,0.7,4,1,6,1c8.6,0,10.7-3,10.7-13.1c0-8.3-1.4-12.1-8.3-12.1
	c-2.7,0-5.4,0.4-7.9,1.3c-0.5,0.2-1,0.6-1.2,1.1c-0.2,0.6-0.3,1.3-0.3,2v17.5C184.2,87.7,184.5,88.2,185.3,88.5z"/>
<path class="st1" d="M218.1,92.8H216c-0.9,0-1.2-0.4-1.2-1.3V66.9c-0.2-1.4,0.3-2.8,1.4-3.7c1.6-1.4,7-3.1,11.2-3.1
	c1,0,2.1,0.1,3.1,0.3c0.5,0,0.9,0.5,0.8,1c0,0.8-0.1,1.6-0.2,2.4c-0.1,0.5-0.6,0.9-1.1,0.8c-0.4,0-2-0.1-2.7-0.1
	c-2.3-0.1-4.6,0.4-6.7,1.4c-0.5,0.2-0.8,0.6-1.1,1c-0.3,0.6-0.4,1.2-0.3,1.9v22.9C219.3,92.3,219.1,92.8,218.1,92.8z"/>
<path class="st1" d="M248.4,93.6c-9.5,0-13.8-3.3-13.8-16.8c0-13.9,5.9-16.8,14.2-16.8c9.4,0,13.8,2.2,13.8,16.6
	C262.6,90,258.3,93.6,248.4,93.6z M248.7,64.1c-6,0-9.5,2.1-9.5,12.4c0,11.1,2.7,12.9,9.3,12.9c6.2,0,9.4-1.4,9.4-12.7
	C257.9,66,255.5,64.1,248.7,64.1L248.7,64.1z"/>
<path class="st1" d="M289.6,92.8h-2.2c-0.8,0-1.2-0.3-1.2-1.3V65h-4.1c-0.8,0-1.2-0.4-1.2-1.2v-1.7c0-0.8,0.3-1.3,1.2-1.3h4v-3.3
	c0-5.1,1.5-7.8,3.3-9.4c2.2-2.1,5.2-3.5,13.8-3.5c1.6,0,3.1,0.1,4.7,0.3c1,0.1,1.4,0.4,1.4,1.5v37.3c-0.1,1.3,0.2,2.6,0.8,3.8
	c0.9,0.9,2.2,1.5,3.5,1.5c0.5,0,1,0.3,1,0.9c0,0.1,0,0.1,0,0.2c0,0.6-0.1,1.3-0.3,1.9c-0.1,0.5-0.5,0.8-1.3,0.8
	c-4.3,0-6.3-1.5-7.3-3.2c-0.8-1.7-1.1-3.5-1-5.3V49c-0.8,0-2.4-0.1-3.3-0.1c-5.5,0-7.5,1-9,2.6c-1.3,1.8-1.9,4-1.7,6.2v3.3h7.4
	c0.6-0.1,1.1,0.3,1.2,0.9c0,0.1,0,0.2,0,0.3v1.9c0,0.6-0.3,1.1-1.2,1.1h-7.4v26.6c0.1,0.6-0.3,1.2-1,1.3
	C289.7,92.8,289.6,92.9,289.6,92.8z"/>
<path class="st1" d="M332.5,93.6c-9.5,0-13.8-3.3-13.8-16.8c0-13.9,5.9-16.8,14.2-16.8c9.4,0,13.8,2.2,13.8,16.6
	C346.7,90,342.4,93.6,332.5,93.6z M332.8,64.1c-6,0-9.5,2.1-9.5,12.4c0,11.1,2.7,12.9,9.3,12.9c6.2,0,9.4-1.4,9.4-12.7
	C342,66,339.7,64.1,332.8,64.1z"/>
<path class="st1" d="M365.8,90.5c-0.2,1.5-1.5,2.5-3,2.4h-1c-1.5,0.2-2.8-0.8-3-2.3l-7.9-27.2c-0.2-0.5-0.3-1-0.3-1.5
	c-0.1-0.5,0.3-1,0.8-1c0,0,0,0,0.1,0c0.9-0.1,1.8-0.2,2.8-0.2c0.7,0,1,0.3,1.3,1.5c4.9,17.5,5.9,21.2,7.1,26
	c1.3-4.5,2.2-7.9,7.2-23.2c0.6-2,1.3-2.6,2.8-2.6h0.7c1.5,0,2.2,0.4,2.9,2.5c5.3,15.5,6.4,18.8,7.7,23.4c1.1-4.6,2.1-8.8,6.6-25.8
	c0.3-1.2,0.6-1.7,1.4-1.7c0.9,0,1.8,0,2.6,0.2c0.4,0.1,0.8,0.4,0.8,0.9c-0.1,0.6-0.2,1.2-0.4,1.8l-7.5,26.9c-0.4,1.5-1.2,2.5-3,2.5
	h-1.1c-1.9,0-2.5-0.8-3-2.4c-6.1-18.2-6.8-20.2-7.5-22.9C372.3,70.3,371.5,72.5,365.8,90.5z"/>
<path class="st1" d="M418.3,92.8h-2.1c-0.9,0-1.2-0.4-1.2-1.3V66.5c-0.2-1.5,0.6-3,1.9-3.6c4.4-1.8,9-2.8,13.8-2.8
	c4.8,0,6.8,1.5,7.8,3.2c2.6-2.2,7.8-3.2,12.7-3.2c5.5,0,7.5,1.4,8.4,3.9c0.5,2,0.7,4.2,0.6,6.3v21.3c0,0.8-0.2,1.3-1.2,1.3h-2.2
	c-0.9,0-1.2-0.4-1.2-1.3V71.1c0.1-1.5-0.1-3-0.4-4.4c-0.6-1.6-1.5-2.4-5.4-2.4c-2.9-0.1-5.7,0.5-8.3,1.7c-0.5,0.2-0.9,0.5-1.2,1
	c-0.2,0.5-0.4,1-0.3,1.5c0,0.4,0,2.1,0,2.6v20.6c0,0.8-0.3,1.3-1.2,1.3h-2.2c-0.9,0-1.2-0.4-1.2-1.3V70.8c0.1-1.4-0.1-2.8-0.4-4.2
	c-0.6-1.6-1.5-2.4-5.4-2.4c-2.9-0.1-5.7,0.4-8.3,1.5c-0.5,0.2-0.9,0.6-1.3,1c-0.3,0.6-0.5,1.3-0.4,2.1v22.8
	C419.5,92.3,419.2,92.8,418.3,92.8z"/>
<path class="st1" d="M492.7,90c-0.4,0.7-1,1.2-1.7,1.5c-3.7,1.5-7.7,2.2-11.7,2.1c-9.2,0-11.1-4.8-11.1-10.2c0-3.8,1.2-6,3.7-7.5
	c3.1-1.4,6.5-2,9.9-1.8c2.3,0,4.7,0.1,7,0.3v-3.2c0.1-1.5-0.1-3-0.5-4.4c-0.6-1.5-1.9-2.7-6.8-2.7c-2.3,0-4.6,0.3-6.9,0.8
	c-0.8,0.2-1.7,0.4-2.6,0.5c-0.4,0-0.8-0.3-0.9-0.8c-0.2-0.6-0.4-1.3-0.4-2c0-0.6,0.4-1.1,1-1.2c3.4-1,6.9-1.5,10.5-1.5
	c4.8,0,7.4,0.6,9,2.3c1.6,1.6,2,4.2,2,8.3v16.7C493.3,88.3,493.1,89.2,492.7,90z M482.2,77.7c-3.9,0-6.3,0.4-7.8,1.3
	c-1.3,1-2,2.6-1.7,4.2c0,3.6,1.2,6.4,7.4,6.4c2.4,0.1,4.9-0.3,7.2-1.1c0.6-0.2,1-0.6,1.3-1.1c0.2-0.7,0.4-1.4,0.3-2.2V78
	C487.2,77.9,484.4,77.7,482.2,77.7L482.2,77.7z"/>
<path class="st1" d="M506.7,92.8h-2.1c-0.9,0-1.2-0.4-1.2-1.3v-25c0-2.2,0.8-3.2,2-3.7c4.5-1.8,9.4-2.8,14.3-2.8
	c5.8,0,7.9,1.4,8.9,3.9c0.5,2.1,0.7,4.2,0.6,6.3v21.3c0,0.8-0.2,1.3-1.2,1.3h-2.2c-0.9,0-1.2-0.4-1.2-1.3V71.1c0-1.5-0.1-3-0.4-4.4
	c-0.6-1.6-1.9-2.4-5.8-2.4c-3-0.1-6,0.4-8.8,1.5c-0.5,0.2-0.9,0.6-1.2,1c-0.3,0.6-0.4,1.3-0.4,1.9v22.9
	C507.9,92.3,507.7,92.8,506.7,92.8z"/>
<path class="st1" d="M550.3,93.5c-8.8,0-12.9-4-12.9-16c0-13.5,4.6-17.5,14.8-17.5c3.4-0.1,6.8,0.3,10,1.2c1.2,0.2,2.1,1.4,1.9,2.6
	v27.6c0.1,2.7-0.2,5.4-1,8c-1.9,5.9-9.3,8.2-19.7,8.2c-1,0-1.5-0.2-1.6-0.9c-0.1-0.7,0-1.4,0-1.9c0-0.8,0.4-1.3,1.2-1.3
	c10.9-0.3,14-2.1,15.4-4.9c0.8-1.7,1.1-3.7,1-5.6v-1.4C557.4,93,554.2,93.5,550.3,93.5z M559.5,66.8c0-1.2-0.4-1.7-1.1-1.9
	c-2.1-0.5-4.2-0.8-6.3-0.7c-8.5,0-10.2,3.8-10.2,13c0,8.2,1.8,12.3,8.5,12.3c2.5,0.1,5.1-0.3,7.5-1.2c0.6-0.2,1.1-0.6,1.3-1.2
	c0.1-0.5,0.2-1,0.2-1.5L559.5,66.8z"/>
<path class="st1" d="M587.3,89.5c2.5,0,5.1-0.3,7.5-1c0.5-0.2,1.1-0.3,1.7-0.3c0.4,0,0.8,0.3,0.9,0.6c0.3,0.6,0.4,1.3,0.5,2
	c0,0.5-0.3,0.8-1,1.2c-3.2,1.1-6.6,1.7-10,1.6c-10.8,0-14.6-5.1-14.6-16.7c0-12.1,5.1-16.9,14.5-16.9c10.9,0,12,6.5,12,15.8
	c0,1.1,0,1.6-0.4,1.9c-0.4,0.3-0.8,0.4-1.3,0.4h-20C577,87.5,580.7,89.5,587.3,89.5z M594.1,74.3c0-0.5,0-1.1,0-1.6
	c0-5.3-1.3-8.7-7.8-8.7c-7.2,0-9.2,4.1-9.4,10.3H594.1z"/>
<path class="st1" d="M610,92.8h-2.1c-0.9,0-1.2-0.4-1.2-1.3V66.5c-0.2-1.5,0.5-3,1.9-3.6c4.4-1.8,9-2.8,13.8-2.8
	c4.8,0,6.8,1.5,7.8,3.2c2.6-2.2,7.7-3.2,12.7-3.2c5.5,0,7.5,1.4,8.4,3.9c0.5,2,0.7,4.2,0.6,6.3v21.3c0,0.8-0.2,1.3-1.2,1.3h-2.2
	c-0.9,0-1.2-0.4-1.2-1.3V71.1c0.1-1.5-0.1-3-0.4-4.4c-0.6-1.6-1.5-2.4-5.4-2.4c-2.9-0.1-5.7,0.5-8.3,1.7c-0.5,0.2-0.9,0.5-1.2,1
	c-0.2,0.5-0.3,1-0.3,1.5c0,0.4,0,2.1,0,2.6v20.6c0,0.8-0.3,1.3-1.2,1.3h-2.2c-0.9,0-1.2-0.4-1.2-1.3V70.8c0.1-1.4-0.1-2.8-0.4-4.2
	c-0.6-1.6-1.5-2.4-5.4-2.4c-2.8-0.1-5.7,0.4-8.3,1.5c-0.5,0.2-1,0.6-1.3,1c-0.3,0.6-0.5,1.3-0.4,2.1v22.8
	C611.2,92.3,610.9,92.8,610,92.8z"/>
<path class="st1" d="M675,89.5c2.5,0,5.1-0.3,7.5-1c0.5-0.2,1.1-0.3,1.7-0.3c0.4,0,0.8,0.3,0.9,0.6c0.3,0.6,0.4,1.3,0.5,2
	c0,0.5-0.3,0.8-1,1.2c-3.2,1.1-6.6,1.7-10,1.6c-10.8,0-14.6-5.1-14.6-16.7c0-12.1,5.1-16.9,14.5-16.9c10.9,0,12,6.5,12,15.8
	c0,1.1,0,1.6-0.4,1.9c-0.4,0.3-0.8,0.4-1.3,0.3h-20C664.7,87.5,668.4,89.5,675,89.5z M681.8,74.3c0.1-0.5,0.1-1.1,0.1-1.6
	c0-5.3-1.3-8.7-7.8-8.7c-7.2,0-9.2,4.1-9.4,10.3H681.8z"/>
<path class="st1" d="M697.7,92.8h-2.1c-0.9,0-1.2-0.4-1.2-1.3v-25c-0.2-1.5,0.6-3,2-3.7c4.5-1.8,9.4-2.8,14.3-2.8
	c5.8,0,7.9,1.4,8.9,3.9c0.5,2.1,0.7,4.2,0.6,6.3v21.3c0,0.8-0.2,1.3-1.2,1.3h-2.1c-0.9,0-1.2-0.4-1.2-1.3V71.1c0-1.5-0.1-3-0.4-4.4
	c-0.6-1.6-1.9-2.4-5.8-2.4c-3-0.1-6,0.4-8.8,1.5c-0.5,0.2-0.9,0.5-1.2,1c-0.3,0.6-0.4,1.3-0.4,1.9v22.9
	C698.9,92.3,698.6,92.8,697.7,92.8z"/>
<path class="st1" d="M737.4,86.7c1,1.7,3.1,2.3,7.2,2.5c0.8,0,1.1,0.4,1.1,1.2c0,0.5-0.1,1.3-0.1,1.9c-0.1,0.6-0.4,1-1.3,1
	c-5.2,0-8.3-0.6-10.4-3.1c-1.5-1.9-2-4.6-2-9.5V65h-4.2c-0.6,0-1.1-0.4-1.1-1c0-0.1,0-0.1,0-0.2v-1.7c-0.1-0.6,0.4-1.2,1-1.3
	c0.1,0,0.1,0,0.2,0h4.1c0,0,0-2,0.2-7.3c0-0.8,0.4-1.4,1.1-1.4h2.2c0.8,0,1.1,0.4,1.1,1.4v7.3h7.2c0.8,0,1.3,0.4,1.3,1.2v1.6
	c0,0.9-0.6,1.2-1.3,1.2h-7.2v15.9C736.4,84.1,736.8,85.7,737.4,86.7z"/>
<path class="st1" d="M764.5,46.2c0-0.8,0.4-1.3,1.2-1.3h2.2c1,0,1.2,0.4,1.2,1.3V63c2.4-1.9,6.8-2.9,11.2-2.9
	c7.6,0,11.1,4.7,11.1,16.3c0,14.1-5,17.2-15.2,17.2c-3.1,0-6.1-0.4-9.1-1.3c-0.9-0.2-1.7-0.8-2.2-1.6c-0.4-0.9-0.5-1.9-0.4-2.8V46.2
	z M769.4,88c0.4,0.4,0.9,0.7,1.4,0.8c1.8,0.4,3.7,0.6,5.5,0.6c8.8,0,10.4-3.4,10.4-12.7c0-8.3-1-12.5-8.1-12.5
	c-2.6,0-6.5,0.4-8.4,1.7c-0.4,0.2-0.7,0.5-1,0.9c-0.2,0.5-0.2,0.9-0.2,1.4v18C769,86.9,769.1,87.5,769.4,88z"/>
<path class="st1" d="M799.6,62.1c0-0.8,0.2-1.3,1.2-1.3h2.1c0.9,0,1.2,0.5,1.2,1.3v20.4c-0.1,1.5,0.1,3,0.5,4.5
	c0.6,1.6,2.1,2.5,6.1,2.5c4.8,0,6.9-0.8,8.4-1.6c0.5-0.2,0.9-0.5,1.2-0.9c0.3-0.6,0.4-1.2,0.4-1.9V62.1c0-0.8,0.3-1.3,1.2-1.3h2.2
	c0.9,0,1.2,0.4,1.2,1.3v29.7c0.1,2.6-0.2,5.3-1,7.8c-1.9,5.9-8.8,8.1-19.3,8.1c-1,0-1.5-0.2-1.6-1c-0.1-0.6-0.1-1.2-0.1-1.9
	c-0.1-0.7,0.4-1.3,1.1-1.4c0.1,0,0.1,0,0.2,0c11.1-0.3,13.9-2.1,15.2-5.1c0.7-1.8,1-3.6,0.9-5.5v-1.8c-3.5,1.7-7.3,2.5-11.2,2.4
	c-5.6,0-8.1-1.5-9.1-4.1c-0.6-2-0.9-4.2-0.8-6.3L799.6,62.1z"/>
<path class="st1" d="M861.9,90.4c-0.3,1.6-1.7,2.7-3.3,2.5h-1.3c-1.5,0.1-2.8-1-3-2.5l-9.9-40.1c-0.2-0.6-0.3-1.2-0.3-1.8
	c0-0.5,0.4-0.9,0.8-1c0.9-0.1,1.9-0.2,2.8-0.2c0.8,0,1.2,0.4,1.4,1.3c6.9,28.3,8,33.1,9.2,38.6c1.3-5.2,2.6-9.6,10.6-35.7
	c0.5-1.6,1.2-2.5,2.9-2.5h1.1c1.7,0,2.3,0.8,2.8,2.4c7.9,26.4,9.2,30.6,10.5,35.8c1-5.3,2.3-10.4,9.1-38.4c0.3-1.1,0.6-1.6,1.4-1.6
	c0.9,0,1.9,0.1,2.8,0.2c0.4,0.1,0.7,0.5,0.7,1c0,0.6-0.2,1.3-0.3,1.9l-10,40c-0.2,1.5-1.5,2.7-3.1,2.5h-1.2c-1.6,0.1-3-1-3.2-2.5
	c-7-24.1-8.6-29.4-10.2-35.6C870.8,60.7,869.1,66.7,861.9,90.4z"/>
<path class="st1" d="M923.3,93.6c-12.1,0-18-4.9-18-23.7c0-19.1,7.9-23.2,18.6-23.2c12.1,0,18,3.4,18,23.1
	C941.9,88.5,936,93.6,923.3,93.6z M923.6,51c-8.6,0-13.4,3.2-13.4,18.9c0,16.6,4.5,19.4,13.2,19.4c8.7,0,13.5-2.5,13.5-19.3
	C936.9,53.7,933.2,51,923.6,51z"/>
<path class="st1" d="M955.7,92.8h-2.2c-0.8,0-1.2-0.4-1.2-1.3v-38c0-3.9,1.2-6,5.7-6h5.6c3.9-0.2,7.7,0.3,11.4,1.4
	c4.8,2,6.5,6.1,6.5,11.5c0,6.3-2.9,10.5-8.5,12.1c-3,0.7-6,1-9.1,1H957v18c0.1,0.7-0.4,1.3-1,1.3C955.9,92.9,955.8,92.9,955.7,92.8z
	 M964.4,69.4c2.7,0.2,5.4-0.2,8-1c2.5-1.1,4.2-3.8,4.2-7.7c0-4.9-1.7-6.9-4.2-7.9c-2.7-0.8-5.6-1.2-8.4-1h-4.7
	c-1.5,0-2.2,0.6-2.2,2.5v15.2L964.4,69.4z"/>
<path class="st1" d="M1002.9,66c0,4.8-2.6,7.1-8.3,7.1c-1.8,0-3.5-0.2-5.2-0.6c-0.6-0.2-0.8-0.4-0.8-0.8c0.1-0.4,0.2-0.8,0.3-1.2
	c0.1-0.2,0.3-0.4,0.6-0.3c0.4,0,0.8,0.1,1.2,0.3c1.3,0.3,2.7,0.5,4,0.4c4.9,0,5.8-2.1,5.8-4.7c0-3-1.4-4.4-6.1-4.5
	c-0.8,0-1.2-0.2-1.2-1.2s0.5-1.2,1.2-1.2c4.4,0,5.5-1.7,5.5-4c0-3-1.2-4.2-5.1-4.2c-1.2,0-2.5,0.2-3.6,0.5c-0.4,0.2-0.8,0.3-1.2,0.3
	c-0.2,0-0.4-0.1-0.4-0.3c-0.2-0.4-0.3-0.8-0.3-1.2c0-0.4,0.2-0.6,0.8-0.8c1.7-0.6,3.5-0.9,5.3-0.9c5.8,0,7.2,2.2,7.2,6.3
	c0,2.6-1.9,4.9-4.5,5.2C1000.9,60.4,1002.9,62.3,1002.9,66z"/>
<path class="st1" d="M1016.4,57.9c4.8,0,6.9,2.1,6.9,7.4c0,4.9-2.4,7.8-7.9,7.8c-4.8,0-7.9-2.5-7.9-10.7s1.4-13.6,9.7-13.6
	c1.4,0,2.8,0.1,4.2,0.5c0.2,0.1,0.4,0.3,0.4,0.6c-0.1,0.4-0.2,0.9-0.3,1.3c-0.1,0.2-0.2,0.3-0.4,0.3c-0.3,0-0.7-0.1-1-0.1
	c-0.9-0.2-1.9-0.2-2.8-0.2c-6.2,0-6.8,3.1-7.3,9.2C1011.8,58.5,1014.1,57.7,1016.4,57.9z M1010.4,66.1c0.1,2.7,2.4,4.8,5.1,4.7
	c0.1,0,0.1,0,0.2,0c3.6,0,5.2-1.8,5.2-5.6c0-3.1-1.2-5.1-4.8-5.1c-2.7,0-4.7,0.8-5.6,2.1c-0.2,0.5-0.4,1-0.3,1.5
	C1010.2,64.5,1010.2,65.3,1010.4,66.1L1010.4,66.1z"/>
<path class="st1" d="M1034.2,73.1c-5.5,0-8.1-2.4-8.1-12.1c0-10.2,3.5-12.2,8.4-12.2c5.6,0,8,1.8,8,12S1040.1,73.1,1034.2,73.1z
	 M1034.4,51c-3.7,0-5.7,1.8-5.7,9.9c0,8.4,1.8,9.9,5.5,9.9s5.6-1.5,5.6-10.1C1039.9,52.7,1038.4,51,1034.4,51z"/>
</svg>




