<svg id="Lager_1" data-name="Lager 1" xmlns="http://www.w3.org/2000/svg" viewBox="0 0 27 31.67"><defs><style>.cls-1{fill:#EA7928;}</style></defs><path class="cls-1" d="M9.12,24.26l-.24,0H8.5l-.15,0a.18.18,0,0,0-.11.1l0,.09L7,29.77l-.9-4.47a.36.36,0,0,0,0-.11.2.2,0,0,0-.11-.09l-.21,0H5l-.16,0a.24.24,0,0,0-.11.09.36.36,0,0,0,0,.11L3.6,29.8l-1-3.46,0-.11a.2.2,0,0,0-.11-.09.57.57,0,0,0-.16,0H1.69a.38.38,0,0,0-.17.06.17.17,0,0,0-.07.17.81.81,0,0,0,0,.19l1.45,4.28A.31.31,0,0,0,3,31a.28.28,0,0,0,.14.09.5.5,0,0,0,.19,0H4a.48.48,0,0,0,.18,0A.3.3,0,0,0,4.32,31a.3.3,0,0,0,.06-.14l1-4.33.93,4.33a.3.3,0,0,0,.06.14.34.34,0,0,0,.14.09.54.54,0,0,0,.19,0h.66a.48.48,0,0,0,.18,0A.28.28,0,0,0,7.65,31a.27.27,0,0,0,.08-.14l1.59-6a2.32,2.32,0,0,0,0-.29h0a.18.18,0,0,0-.06-.16A.38.38,0,0,0,9.12,24.26Z"/><path class="cls-1" d="M15.35,25.47a2.53,2.53,0,0,0-1-.62A4,4,0,0,0,13,24.64a4.06,4.06,0,0,0-1.42.23,2.75,2.75,0,0,0-1,.67,2.63,2.63,0,0,0-.61,1,4.4,4.4,0,0,0-.2,1.35,4.79,4.79,0,0,0,.18,1.37,2.58,2.58,0,0,0,.58,1,2.42,2.42,0,0,0,1,.62,4.14,4.14,0,0,0,1.39.22,3.91,3.91,0,0,0,1.42-.24,2.67,2.67,0,0,0,1-.67,2.88,2.88,0,0,0,.61-1,4.44,4.44,0,0,0,.2-1.37,4.36,4.36,0,0,0-.19-1.35A2.61,2.61,0,0,0,15.35,25.47Zm-2.4,0a2.25,2.25,0,0,1,1,.18,1.57,1.57,0,0,1,.62.48,2.32,2.32,0,0,1,.33.75,4.22,4.22,0,0,1,.1,1,4,4,0,0,1-.1.93,2.07,2.07,0,0,1-.35.75,1.7,1.7,0,0,1-.63.52,2.29,2.29,0,0,1-1,.19,2.27,2.27,0,0,1-1-.18,1.54,1.54,0,0,1-.61-.48,2.19,2.19,0,0,1-.33-.76,5,5,0,0,1-.1-1A3.93,3.93,0,0,1,11,27a2,2,0,0,1,.35-.74A1.77,1.77,0,0,1,12,25.7,2.11,2.11,0,0,1,13,25.51Z"/><path class="cls-1" d="M22.75,26h0a1.74,1.74,0,0,0-.33-.54A2.08,2.08,0,0,0,21.9,25a2.39,2.39,0,0,0-.6-.21,3.71,3.71,0,0,0-.5-.07l-.43,0H17.78a.47.47,0,0,0-.3.1.38.38,0,0,0-.15.34v5.68a.15.15,0,0,0,0,.11.18.18,0,0,0,.12.08l.16,0h.47l.15,0a.35.35,0,0,0,.12-.07.19.19,0,0,0,0-.12V29.64h1.8a4.2,4.2,0,0,0,1.13-.14,2.39,2.39,0,0,0,.81-.42,2,2,0,0,0,.52-.67,6,6,0,0,0,.17-1.47A3.87,3.87,0,0,0,22.75,26Zm-1,1.05a5.81,5.81,0,0,1-.09,1.08,1.12,1.12,0,0,1-.26.38,1.27,1.27,0,0,1-.43.24,2.06,2.06,0,0,1-.66.09H18.43V25.58h1.86l.47,0a1.26,1.26,0,0,1,.45.15,1,1,0,0,1,.36.34A2.85,2.85,0,0,1,21.71,27Z"/><path class="cls-1" d="M25.21,26a.57.57,0,0,0,.52.34c.43,0,.72-.15.72-.88a2,2,0,0,0-.1-.62c0-.07-.05-.14-.13-.14a.38.38,0,0,0-.13,0h0a.12.12,0,0,0-.08.12.29.29,0,0,0,0,.09.08.08,0,0,1,0,0,1.41,1.41,0,0,1,.05.4c0,.44-.12.51-.37.51s-.35-.06-.36-.56a.18.18,0,0,0-.18-.2c-.16,0-.18.11-.18.2h0c0,.41-.08.63-.41.63s-.44-.1-.44-.59a1.37,1.37,0,0,1,0-.39v0a.52.52,0,0,0,0-.11.13.13,0,0,0-.07-.12h0l-.15,0c-.09,0-.12.07-.14.14a2.12,2.12,0,0,0-.06.56c0,.68.26,1,.8,1A.61.61,0,0,0,25.21,26Z"/><path class="cls-1" d="M25.49,27.87a1.23,1.23,0,0,0-.15-.65c.54.05.75.17.75.76a1.67,1.67,0,0,1,0,.31h0v0s0,.06,0,.09a.11.11,0,0,0,.08.1h0l.13,0a.11.11,0,0,0,.11-.09,1.9,1.9,0,0,0,.06-.5c0-1.1-.73-1.19-1.48-1.19s-1.17.31-1.17,1,.3,1,.87,1S25.49,28.46,25.49,27.87Zm-1.34-.09a.49.49,0,0,1,.44-.55h0l.25,0a.25.25,0,0,1,.12,0,.76.76,0,0,1,.18.59c0,.33-.14.49-.47.49S24.15,28.15,24.15,27.78Z"/><path class="cls-1" d="M26.2,30.86a.91.91,0,0,0,.25-.75c0-.74-.39-1-1.33-1s-1.32.26-1.32,1,.35,1,1.35,1A1.66,1.66,0,0,0,26.2,30.86Zm-2.05-.78c0-.35.07-.58,1-.58s1,.27,1,.59-.09.57-.94.57S24.15,30.44,24.15,30.08Z"/><path class="cls-1" d="M13.55,22.52a11,11,0,1,1,11-11A11,11,0,0,1,13.55,22.52Zm0-20.88a9.88,9.88,0,1,0,9.89,9.88A9.89,9.89,0,0,0,13.55,1.64Z"/><path class="cls-1" d="M6.9,15.76l3.58,2.07,3.07-1.78,3.07,1.78,3.58-2.07V11.63L17.13,9.85V6.29L13.56,4.23,10,6.29V9.86L6.9,11.63Zm9.72.91-2.56-1.49v-3l2.57-1.48,2.57,1.48v3Zm-6.14,0L7.91,15.18v-3l2.57-1.48,2.57,1.48v3Zm3.07-5.34L11,9.84v-3l2.58-1.48,2.56,1.48v3Z"/></svg>
