<!-- <svg viewBox="0 0 95.272 102.47" xmlns="http://www.w3.org/2000/svg">
<g transform="matrix(13.285 0 0 13.285 -2469.4 -2781.8)">
<path transform="matrix(1 0 0 -1 0 595.28)" d="m188.28 384.23h4.766v0.761h-4.766z" fill="#ea7928"/>
<path transform="matrix(1 0 0 -1 0 595.28)" d="m188.28 381.9h4.766v0.76199h-4.766z" fill="#ea7928"/>
<path transform="matrix(1 0 0 -1 0 595.28)" d="m188.28 379.57h4.766v0.762h-4.766z" fill="#ea7928"/>
<clipPath>
<path transform="matrix(1 0 0 -1 0 595.28)" d="m185.98 379.12h7.063v6.3h-7.063z"/>
</clipPath>
<g clip-path="url(#cp18)" fill="#ea7928">
<path transform="matrix(1 0 0 -1 186.67 214.48)" d="m0 0c-0.417 0-0.664-0.211-0.664-0.566h0.46c0 0.139 0.069 0.22 0.204 0.22 0.114 0 0.178-0.062 0.178-0.154 0-0.099-0.086-0.164-0.226-0.164h-0.054v-0.336h0.041c0.175 0 0.253-0.057 0.253-0.171 0-0.095-0.071-0.156-0.187-0.156-0.14 0-0.218 0.078-0.218 0.232h-0.474c0-0.374 0.246-0.578 0.694-0.578 0.398 0 0.654 0.189 0.654 0.49 0 0.192-0.09 0.309-0.296 0.375v4e-3c0.195 0.072 0.275 0.176 0.275 0.351 0 0.276-0.242 0.453-0.64 0.453"/>
<path transform="matrix(1 0 0 -1 186.68 212.19)" d="m0 0c-0.41 0-0.649-0.203-0.652-0.569h0.467c2e-3 0.148 0.074 0.223 0.19 0.223 0.095 0 0.152-0.057 0.152-0.142 0-0.135-0.148-0.214-0.37-0.327-0.354-0.183-0.46-0.386-0.46-0.728 0-0.033 2e-3 -0.066 4e-3 -0.092h1.347v0.369h-0.804c0.01 0.076 0.057 0.131 0.332 0.257 0.252 0.109 0.427 0.241 0.427 0.516 0 0.284-0.239 0.493-0.633 0.493"/>
<path transform="matrix(1 0 0 -1 187 211.45)" d="m0 0v1.598h-0.421c-0.032-0.199-0.157-0.282-0.44-0.282v-0.337h0.39v-0.979z"/>
</g>
</g>
</svg> -->


<svg xmlns="http://www.w3.org/2000/svg" viewBox="0 0 64 64"><defs><style>.cls-1{fill:#858585;}.cls-2{fill:#e67314;}</style></defs><g id="Polygon_Grey" data-name="Polygon Grey"><g id="röd"><path class="cls-1" d="M47.18,5.56,62.36,32,47.18,58.44H16.82L1.64,32,16.82,5.56H47.18m.72-1.25H16.1L.2,32,16.1,59.69H47.9L63.8,32,47.9,4.31Z"/></g></g><g id="planing_123" data-name="planing 123"><polygon class="cls-2" points="27.13 24.24 27.13 21.22 45.94 21.22 45.94 24.24 27.13 24.24 27.13 24.24"/><polygon class="cls-2" points="27.13 33.48 27.13 30.45 45.94 30.45 45.94 33.48 27.13 33.48 27.13 33.48"/><polygon class="cls-2" points="27.13 42.71 27.13 39.69 45.94 39.69 45.94 42.71 27.13 42.71 27.13 42.71"/><path class="cls-2" d="M20.77,37.86c-1.64,0-2.62.84-2.62,2.25H20c0-.56.27-.88.8-.88s.7.25.7.61-.34.65-.89.65h-.21v1.34h.16c.69,0,1,.22,1,.67s-.28.63-.74.63-.86-.31-.86-.92H18.06c0,1.48,1,2.29,2.74,2.29,1.57,0,2.58-.75,2.58-2a1.42,1.42,0,0,0-1.17-1.48v0a1.38,1.38,0,0,0,1.09-1.39c0-1.1-1-1.8-2.53-1.8"/><path class="cls-2" d="M20.79,28.76c-1.62,0-2.56.8-2.57,2.25h1.84c0-.58.29-.88.75-.88a.55.55,0,0,1,.6.56c0,.54-.58.85-1.46,1.3a2.84,2.84,0,0,0-1.82,2.89c0,.13,0,.26,0,.36h5.32V33.78H20.29c0-.3.23-.52,1.32-1s1.68-1,1.68-2-.95-1.95-2.5-1.95"/><path class="cls-2" d="M22.06,25.84V19.5H20.4c-.13.79-.62,1.12-1.73,1.12V22H20.2v3.88Z"/></g></svg>
