<!-- <svg viewBox="0 0 95.272 102.47" xmlns="http://www.w3.org/2000/svg">
<g transform="matrix(10.251 0 0 10.251 -1897.8 -2738)">
<clipPath>
<path transform="matrix(1 0 0 -1 0 595.28)" d="m185.85 319.93h7.411v6.639h-7.411z"/>
</clipPath>
<g clip-path="url(#cp23)" fill="#ea7928">
<path transform="matrix(1 0 0 -1 193.05 269.72)" d="m0 0c-0.084 0.036-0.154 0.04-0.214 0.014-0.093-0.04-0.128-0.136-0.169-0.246-0.012-0.032-0.024-0.066-0.04-0.103-0.082-0.199-0.158-0.371-0.284-0.657-0.062-0.142-0.136-0.311-0.229-0.524-0.148-0.34-0.257-0.59-0.299-0.68h-1.612c-0.994 0-1.428 0-1.575 4e-3 -0.075 0.335-0.317 1.411-0.464 2.071-0.054 0.24-0.091 0.407-0.098 0.436-0.058 0.261-0.078 0.326-0.157 0.43-0.081 0.106-0.217 0.198-0.355 0.239-0.057 0.017-0.093 0.018-0.769 0.02-0.693 1e-3 -0.719-1e-3 -0.759-0.015-0.093-0.034-0.157-0.117-0.168-0.216-0.011-0.1 0.035-0.195 0.119-0.247l0.053-0.033 1.387-8e-3 0.02-0.01c0.031-0.015 0.063-0.048 0.072-0.063 0.047-0.195 0.846-3.754 0.978-4.352-0.247-0.099-0.437-0.321-0.503-0.588-0.028-0.113-0.026-0.277 4e-3 -0.391 0.041-0.156 0.112-0.28 0.224-0.391 0.317-0.314 0.825-0.323 1.155-0.021 0.112 0.102 0.203 0.255 0.243 0.409 0.03 0.111 0.033 0.272 9e-3 0.38-0.01 0.041-0.023 0.084-0.039 0.125 0.172 0 0.473 1e-3 0.853 1e-3s0.68-1e-3 0.852-2e-3c-0.029-0.081-0.048-0.171-0.054-0.241-0.031-0.374 0.221-0.742 0.586-0.856 0.08-0.025 0.164-0.038 0.247-0.038 0.15 0 0.299 0.041 0.431 0.12 0.207 0.125 0.351 0.332 0.395 0.569 0.014 0.074 0.014 0.227 0 0.297-0.027 0.132-0.081 0.253-0.163 0.361-0.173 0.23-0.464 0.356-0.743 0.32-0.056-7e-3 -0.59-9e-3 -1.556-9e-3 -0.712 0-1.231 2e-3 -1.418 3e-3 -0.019 0.084-0.054 0.234-0.096 0.422l-0.167 0.746 3.163 7e-3 0.066 0.023c0.113 0.038 0.225 0.125 0.278 0.217 0.034 0.057 0.881 2 0.898 2.058 4e-3 0.017 0.01 0.033 0.015 0.049 0.032 0.099 0.091 0.282-0.117 0.37"/>
<path transform="matrix(1 0 0 -1 190.61 268.91)" d="m0 0v-0.928h0.889v-0.475h-0.889v-0.937h-0.493v0.937h-0.888v0.475h0.888v0.928z"/>
</g>
</g>
</svg> -->
<svg xmlns="http://www.w3.org/2000/svg" viewBox="0 0 64 64"><defs><style>.cls-1{fill:#858585;}.cls-2{fill:#e67314;}</style></defs><g id="Polygon_Grey" data-name="Polygon Grey"><g id="röd"><path class="cls-1" d="M47.18,5.56,62.36,32,47.18,58.44H16.82L1.64,32,16.82,5.56H47.18m.72-1.25H16.1L.2,32,16.1,59.69H47.9L63.8,32,47.9,4.31Z"/></g></g><g id="products_kopia" data-name="products kopia"><path class="cls-2" d="M44.75,23a1.23,1.23,0,0,0-1-.05c-.43.18-.58.6-.75,1.05l-.16.39c-.33.78-.64,1.45-1.14,2.58l-.06.12c-.23.53-.52,1.15-.87,1.93-.56,1.26-1,2.19-1.17,2.59H27c-.33-1.41-2.22-9.63-2.24-9.74a3.67,3.67,0,0,0-.66-1.74,3,3,0,0,0-1.5-1A16.77,16.77,0,0,0,19.45,19a15.24,15.24,0,0,0-3.11.07,1.14,1.14,0,0,0-.76.95,1.11,1.11,0,0,0,.54,1.1,1.29,1.29,0,0,0,.47.15l5.37,0c.18,0,.26.15.28.21.23.94,3.3,14.26,3.91,17a3.37,3.37,0,0,0-2,4A3.32,3.32,0,0,0,25.11,44,3.51,3.51,0,0,0,31,42.43a3.74,3.74,0,0,0,0-1.56c0-.1-.06-.22-.1-.33h6.5a3.79,3.79,0,0,0-.17.81,3.48,3.48,0,0,0,2.46,3.5,3.6,3.6,0,0,0,2.84-.34,3.41,3.41,0,0,0,1.65-2.32,4.09,4.09,0,0,0,0-1.21,3.53,3.53,0,0,0-.68-1.47,3.76,3.76,0,0,0-3.12-1.31c-.22,0-2.46,0-6.25,0H28.52c-.08-.34-.21-.89-.37-1.55l-.63-2.77,12.58,0a1.69,1.69,0,0,0,1.5-1c.11-.24,3.56-7.88,3.63-8.11l.06-.19A1.12,1.12,0,0,0,44.75,23Z"/><polygon class="cls-2" points="34.93 23.48 34.93 19.84 32.77 19.84 32.77 23.48 29.19 23.48 29.19 25.52 32.77 25.52 32.77 29.2 34.93 29.2 34.93 25.52 38.51 25.52 38.51 23.48 34.93 23.48"/></g></svg>
