<svg xmlns="http://www.w3.org/2000/svg" viewBox="0 0 64 64"><defs><style>.cls-1{fill:#858585;}.cls-2{fill:#444;}</style></defs><g id="Polygon_2" data-name="Polygon 2"><polygon class="cls-1" points="47.79 4.6 16.21 4.6 0.42 32.1 16.21 59.6 47.79 59.6 63.58 32.1 47.79 4.6"/></g><g id="Polygon_Grey" data-name="Polygon Grey"><g id="röd"><path class="cls-1" d="M47.18,5.56,62.36,32,47.18,58.44H16.82L1.64,32,16.82,5.56H47.18m.72-1.25H16.1L.2,32,16.1,59.69H47.9L63.8,32,47.9,4.31Z"/></g></g><g id="products_kopia_2" data-name="products kopia 2"><path class="cls-2" d="M44.75,23a1.23,1.23,0,0,0-1-.05c-.43.18-.58.6-.75,1.05l-.16.39c-.33.78-.64,1.45-1.14,2.58l-.06.12c-.23.53-.52,1.15-.87,1.93-.56,1.26-1,2.19-1.17,2.59H27c-.33-1.41-2.22-9.63-2.24-9.74a3.67,3.67,0,0,0-.66-1.74,3,3,0,0,0-1.5-1A16.77,16.77,0,0,0,19.45,19a15.24,15.24,0,0,0-3.11.07,1.14,1.14,0,0,0-.76.95,1.11,1.11,0,0,0,.54,1.1,1.29,1.29,0,0,0,.47.15l5.37,0c.18,0,.26.15.28.21.23.94,3.3,14.26,3.91,17a3.37,3.37,0,0,0-2,4A3.32,3.32,0,0,0,25.11,44,3.51,3.51,0,0,0,31,42.43a3.74,3.74,0,0,0,0-1.56c0-.1-.06-.22-.1-.33h6.5a3.79,3.79,0,0,0-.17.81,3.48,3.48,0,0,0,2.46,3.5,3.6,3.6,0,0,0,2.84-.34,3.41,3.41,0,0,0,1.65-2.32,4.09,4.09,0,0,0,0-1.21,3.53,3.53,0,0,0-.68-1.47,3.76,3.76,0,0,0-3.12-1.31c-.22,0-2.46,0-6.25,0H28.52c-.08-.34-.21-.89-.37-1.55l-.63-2.77,12.58,0a1.69,1.69,0,0,0,1.5-1c.11-.24,3.56-7.88,3.63-8.11l.06-.19A1.12,1.12,0,0,0,44.75,23Z"/><polygon class="cls-2" points="34.93 23.48 34.93 19.84 32.77 19.84 32.77 23.48 29.19 23.48 29.19 25.52 32.77 25.52 32.77 29.2 34.93 29.2 34.93 25.52 38.51 25.52 38.51 23.48 34.93 23.48"/></g></svg>
