<svg xmlns="http://www.w3.org/2000/svg" viewBox="0 0 64 64"><defs><style>.cls-1{fill:#858585;}.cls-2{fill:#444;}</style></defs><g id="Polygon_2" data-name="Polygon 2"><polygon class="cls-1" points="47.79 4.6 16.21 4.6 0.42 32.1 16.21 59.6 47.79 59.6 63.58 32.1 47.79 4.6"/></g><g id="Polygon_Grey" data-name="Polygon Grey"><g id="röd"><path class="cls-1" d="M47.18,5.56,62.36,32,47.18,58.44H16.82L1.64,32,16.82,5.56H47.18m.72-1.25H16.1L.2,32,16.1,59.69H47.9L63.8,32,47.9,4.31Z"/></g></g><g id="settings_kopia" data-name="settings kopia"><circle class="cls-2" cx="32" cy="32" r="3.08"/><path class="cls-2" d="M22.55,32A9.45,9.45,0,1,1,32,41.45,9.45,9.45,0,0,1,22.55,32ZM33.44,15.5H30.56l-.94,4.21A12.37,12.37,0,0,0,25,21.63l-3.63-2.31-2,2L21.62,25a12.72,12.72,0,0,0-1.92,4.64l-4.2.93v2.88l4.21.94A12.37,12.37,0,0,0,21.63,39l-2.31,3.63,2,2L25,42.38a12.72,12.72,0,0,0,4.64,1.92l.93,4.2h2.88l.94-4.21A12.37,12.37,0,0,0,39,42.37l3.63,2.31,2-2L42.38,39a12.72,12.72,0,0,0,1.92-4.64l4.2-.93V30.56l-4.21-.94A12.37,12.37,0,0,0,42.37,25l2.31-3.63-2-2L39,21.62a12.72,12.72,0,0,0-4.64-1.92Z"/></g></svg>