<!-- <svg viewBox="0 0 95.272 102.47" xmlns="http://www.w3.org/2000/svg">
<g transform="matrix(8.9213 0 0 8.9213 -1642.7 -3492.5)">
<clipPath>
<path transform="matrix(1 0 0 -1 0 595.28)" d="m185.29 194.16h8.418v8.418h-8.418z"/>
</clipPath>
<g clip-path="url(#cp15)" fill="#ea7928">
<path transform="matrix(1 0 0 -1 189.5 397.69)" d="m0 0c-0.434 0-0.786 0.352-0.786 0.786 0 0.435 0.352 0.787 0.786 0.787s0.786-0.352 0.786-0.787c0-0.434-0.352-0.786-0.786-0.786"/>
<path transform="matrix(1 0 0 -1 189.14 392.69)" d="m0 0h0.732l0.242-1.073c0.415-0.081 0.819-0.244 1.182-0.49l0.927 0.589 0.518-0.518-0.588-0.929c0.237-0.35 0.407-0.752 0.49-1.182l1.072-0.24v-0.732l-1.073-0.241c-0.081-0.415-0.244-0.82-0.49-1.182l0.589-0.928-0.518-0.518-0.929 0.588c-0.35-0.236-0.752-0.407-1.182-0.489l-0.24-1.072h-0.732l-0.241 1.072c-0.415 0.081-0.82 0.244-1.183 0.49l-0.927-0.589-0.518 0.518 0.588 0.929c-0.236 0.351-0.407 0.752-0.489 1.183l-1.073 0.239v0.732l1.073 0.242c0.081 0.415 0.244 0.819 0.49 1.182l-0.589 0.927 0.518 0.518 0.929-0.588c0.351 0.237 0.752 0.407 1.183 0.49zm2.776-4.209c0 1.331-1.079 2.41-2.41 2.41s-2.409-1.079-2.409-2.41c0-1.33 1.078-2.409 2.409-2.409s2.41 1.079 2.41 2.409"/>
</g>
</g>
</svg> -->
<svg xmlns="http://www.w3.org/2000/svg" viewBox="0 0 64 64"><defs><style>.cls-1{fill:#858585;}.cls-2{fill:#e67314;}</style></defs><g id="Polygon_Grey" data-name="Polygon Grey"><g id="röd"><path class="cls-1" d="M47.18,5.56,62.36,32,47.18,58.44H16.82L1.64,32,16.82,5.56H47.18m.72-1.25H16.1L.2,32,16.1,59.69H47.9L63.8,32,47.9,4.31Z"/></g></g><g id="settings"><circle class="cls-2" cx="32" cy="32" r="3.08"/><path class="cls-2" d="M22.55,32A9.45,9.45,0,1,1,32,41.45,9.45,9.45,0,0,1,22.55,32ZM33.44,15.5H30.56l-.94,4.21A12.37,12.37,0,0,0,25,21.63l-3.63-2.31-2,2L21.62,25a12.72,12.72,0,0,0-1.92,4.64l-4.2.93v2.88l4.21.94A12.37,12.37,0,0,0,21.63,39l-2.31,3.63,2,2L25,42.38a12.72,12.72,0,0,0,4.64,1.92l.93,4.2h2.88l.94-4.21A12.37,12.37,0,0,0,39,42.37l3.63,2.31,2-2L42.38,39a12.72,12.72,0,0,0,1.92-4.64l4.2-.93V30.56l-4.21-.94A12.37,12.37,0,0,0,42.37,25l2.31-3.63-2-2L39,21.62a12.72,12.72,0,0,0-4.64-1.92Z"/></g></svg>
