<!-- <svg viewBox="0 0 95.272 102.47" xmlns="http://www.w3.org/2000/svg">
<g transform="matrix(10.057 0 0 10.057 -1857.7 -2979.1)">
<clipPath>
<path transform="matrix(1 0 0 -1 0 595.28)" d="m185.93 291.38h7.147v5.44h-7.147z"/>
</clipPath>
<g clip-path="url(#cp25)">
<path transform="matrix(1 0 0 -1 192.53 301.36)" d="m0 0h-1.799v1.453h1.178c0.342 0 0.621-0.281 0.621-0.627zm-0.636-1.952c-0.118-0.119-0.276-0.184-0.444-0.184-0.346 0-0.628 0.282-0.628 0.628 0 0.168 0.065 0.326 0.184 0.445 0.118 0.118 0.276 0.184 0.444 0.184s0.326-0.066 0.444-0.184c0.119-0.119 0.184-0.277 0.184-0.445s-0.065-0.325-0.184-0.444m-1.596 1.952h-4.009v2.516h4.009zm-2.304-1.952c-0.119-0.119-0.277-0.184-0.445-0.184-0.346 0-0.628 0.282-0.628 0.628 0 0.168 0.065 0.326 0.184 0.445 0.119 0.118 0.277 0.184 0.444 0.184 0.168 0 0.326-0.066 0.445-0.184 0.118-0.119 0.184-0.277 0.184-0.445s-0.066-0.325-0.184-0.444m3.844 3.947h-1.124v0.903h-4.78v-4.515h0.604c0.055-0.519 0.495-0.924 1.028-0.924 0.276 0 0.536 0.107 0.731 0.302 0.169 0.17 0.273 0.387 0.297 0.622h1.828c0.055-0.519 0.495-0.924 1.028-0.924 0.276 0 0.536 0.107 0.731 0.302 0.169 0.17 0.273 0.387 0.297 0.622h0.602v2.355c0 0.681-0.568 1.257-1.242 1.257" fill="#ea7928"/>
</g>
</g>
</svg> -->

<svg xmlns="http://www.w3.org/2000/svg" viewBox="0 0 64 64"><defs><style>.cls-1{fill:#858585;}.cls-2{fill:#e67314;}</style></defs><g id="Polygon_Grey" data-name="Polygon Grey"><g id="röd"><path class="cls-1" d="M47.18,5.56,62.36,32,47.18,58.44H16.82L1.64,32,16.82,5.56H47.18m.72-1.25H16.1L.2,32,16.1,59.69H47.9L63.8,32,47.9,4.31Z"/></g></g><g id="transport_2" data-name="transport 2"><path class="cls-2" d="M42.61,24.58H37.74V20.64H17V40.33h2.62a4.5,4.5,0,0,0,4.46,4A4.43,4.43,0,0,0,27.25,43a4.49,4.49,0,0,0,1.29-2.71h7.93a4.5,4.5,0,0,0,4.46,4A4.45,4.45,0,0,0,44.1,43a4.54,4.54,0,0,0,1.29-2.71H48V30.06A5.51,5.51,0,0,0,42.61,24.58ZM25.94,41.79a2.7,2.7,0,0,1-1.93.8,2.74,2.74,0,0,1-1.93-4.67,2.72,2.72,0,0,1,4.65,1.93A2.74,2.74,0,0,1,25.94,41.79Zm10-8.51H18.54v-11H35.93Zm6.93,8.51a2.7,2.7,0,0,1-1.93.8A2.74,2.74,0,0,1,39,37.92a2.72,2.72,0,0,1,4.65,1.93A2.74,2.74,0,0,1,42.86,41.79Zm2.75-8.51h-7.8V26.94h5.11a2.72,2.72,0,0,1,2.69,2.74Z"/></g></svg>
