<svg xmlns="http://www.w3.org/2000/svg" viewBox="0 0 64 64"><defs><style>.cls-1{fill:#858585;}.cls-2{fill:#444;}</style></defs><g id="Polygon_2" data-name="Polygon 2"><polygon class="cls-1" points="47.79 4.6 16.21 4.6 0.42 32.1 16.21 59.6 47.79 59.6 63.58 32.1 47.79 4.6"/></g><g id="Polygon_Grey" data-name="Polygon Grey"><g id="röd"><path class="cls-1" d="M47.18,5.56,62.36,32,47.18,58.44H16.82L1.64,32,16.82,5.56H47.18m.72-1.25H16.1L.2,32,16.1,59.69H47.9L63.8,32,47.9,4.31Z"/></g></g><g id="timeraports_kopia" data-name="timeraports kopia"><path class="cls-2" d="M43.58,22.46a15,15,0,1,0-13,24.47A14.46,14.46,0,0,0,32,47,15,15,0,0,0,43.58,22.46Zm.84,10.74A12.47,12.47,0,1,1,32,19.52c.41,0,.81,0,1.22.06A12.49,12.49,0,0,1,44.42,33.2Z"/><path class="cls-2" d="M39.79,36.07l-.29-1.34a.17.17,0,0,0-.09-.11L32.92,31.3V22.5a.19.19,0,0,0-.07-.13l-1.07-.88a.17.17,0,0,0-.21,0l-1.09.88a.16.16,0,0,0-.06.13V32.74a.16.16,0,0,0,.09.15l7.79,4,.07,0,.08,0,1.25-.62A.17.17,0,0,0,39.79,36.07Z"/></g></svg>
