<!-- <svg viewBox="0 0 95.272 102.47" xmlns="http://www.w3.org/2000/svg">
<g transform="matrix(10.955 0 0 10.955 -2030.5 -2771.3)">
<clipPath>
<path transform="matrix(1 0 0 -1 0 595.28)" d="m186.86 334.83h6.018v6.464h-6.018z"/>
</clipPath>
<g clip-path="url(#cp22)">
<path transform="matrix(1 0 0 -1 189.28 256.33)" d="m0 0c-0.489 0-0.887 0.398-0.887 0.887s0.398 0.887 0.887 0.887 0.887-0.398 0.887-0.887-0.398-0.887-0.887-0.887m0 2.349c-0.806 0-1.462-0.656-1.462-1.462 0-0.528 0.287-1.017 0.749-1.275l0.119-0.067-0.127-0.05c-0.363-0.143-0.679-0.425-0.915-0.814-0.408-0.675-0.657-1.444-0.781-2.422l-3e-3 -0.02 0.017-0.011 0.451-0.297 0.043-0.028 7e-3 0.051c0.119 0.911 0.417 1.865 0.758 2.429 0.243 0.401 0.603 0.641 0.962 0.641 0.055 0 0.11-6e-3 0.164-0.017 0.387-0.079 0.66-0.424 0.731-0.923 0 0 0.204-1.481 0.205-1.487 0.06-0.406 0.262-0.578 0.422-0.652 0.086-0.04 0.179-0.06 0.278-0.06 0.167 0 0.345 0.059 0.53 0.174l1.423 0.895 0.027 0.018-0.289 0.459-0.017 0.028-0.028-0.018-1.422-0.894c-0.118-0.074-0.192-0.085-0.225-0.085-7e-3 0-0.013 0-0.018 1e-3l-0.021 3e-3 -0.015 0.014c-0.012 0.012-0.055 0.063-0.076 0.201l-0.204 1.484c-0.078 0.549-0.356 1.002-0.764 1.243l-0.114 0.067 0.124 0.049c0.558 0.217 0.933 0.765 0.933 1.363 0 0.806-0.656 1.462-1.462 1.462" fill="#ea7928"/>
</g>
</g>
</svg> -->
<svg xmlns="http://www.w3.org/2000/svg" viewBox="0 0 64 64"><defs><style>.cls-1{fill:#858585;}.cls-2{fill:#e67314;}</style></defs><g id="Polygon_Grey" data-name="Polygon Grey"><g id="röd"><path class="cls-1" d="M47.18,5.56,62.36,32,47.18,58.44H16.82L1.64,32,16.82,5.56H47.18m.72-1.25H16.1L.2,32,16.1,59.69H47.9L63.8,32,47.9,4.31Z"/></g></g><g id="user"><path class="cls-2" d="M31.64,18a5.87,5.87,0,0,1,5.85,5.88,5.94,5.94,0,0,1-3.73,5.49l-.5.19.46.27a6.81,6.81,0,0,1,3.06,5l.81,6a1.38,1.38,0,0,0,.31.81l.06.06h.15a1.75,1.75,0,0,0,.9-.34l5.69-3.6.11-.07.07.11L46,39.52l.07.11-.11.07-5.7,3.6a4,4,0,0,1-2.12.7A2.64,2.64,0,0,1,37,43.76a3.16,3.16,0,0,1-1.69-2.62s-.81-6-.81-6c-.29-2-1.38-3.39-2.93-3.71a3.68,3.68,0,0,0-.66-.06A4.74,4.74,0,0,0,27.07,34a27.71,27.71,0,0,0-3,9.77l0,.21-.18-.11L22,42.62l-.07,0V42.5a24.16,24.16,0,0,1,3.13-9.75,7.69,7.69,0,0,1,3.66-3.27l.51-.2L28.79,29a5.88,5.88,0,0,1,2.85-11m0,9.45a3.57,3.57,0,1,0-3.55-3.57,3.56,3.56,0,0,0,3.55,3.57"/></g></svg>
