<svg xmlns="http://www.w3.org/2000/svg" viewBox="0 0 64 64"><defs><style>.cls-1{fill:#858585;}.cls-2{fill:#444;}</style></defs><g id="Polygon_2" data-name="Polygon 2"><polygon class="cls-1" points="47.79 4.6 16.21 4.6 0.42 32.1 16.21 59.6 47.79 59.6 63.58 32.1 47.79 4.6"/></g><g id="Polygon_Grey" data-name="Polygon Grey"><g id="röd"><path class="cls-1" d="M47.18,5.56,62.36,32,47.18,58.44H16.82L1.64,32,16.82,5.56H47.18m.72-1.25H16.1L.2,32,16.1,59.69H47.9L63.8,32,47.9,4.31Z"/></g></g><g id="user_kopia_3" data-name="user kopia 3"><path class="cls-2" d="M31.64,18a5.87,5.87,0,0,1,5.85,5.88,5.94,5.94,0,0,1-3.73,5.49l-.5.19.46.27a6.81,6.81,0,0,1,3.06,5l.81,6a1.38,1.38,0,0,0,.31.81l.06.06h.15a1.75,1.75,0,0,0,.9-.34l5.69-3.6.11-.07.07.11L46,39.52l.07.11-.11.07-5.7,3.6a4,4,0,0,1-2.12.7A2.64,2.64,0,0,1,37,43.76a3.16,3.16,0,0,1-1.69-2.62s-.81-6-.81-6c-.29-2-1.38-3.39-2.93-3.71a3.68,3.68,0,0,0-.66-.06A4.74,4.74,0,0,0,27.07,34a27.71,27.71,0,0,0-3,9.77l0,.21-.18-.11L22,42.62l-.07,0V42.5a24.16,24.16,0,0,1,3.13-9.75,7.69,7.69,0,0,1,3.66-3.27l.51-.2L28.79,29a5.88,5.88,0,0,1,2.85-11m0,9.45a3.57,3.57,0,1,0-3.55-3.57,3.56,3.56,0,0,0,3.55,3.57"/></g></svg>
