

<svg id="user_login" data-name="user login" xmlns="http://www.w3.org/2000/svg" viewBox="0 0 75 75"><defs><style>.cls-1{fill:#7a7e7f;}</style></defs><path class="cls-1" d="M37.39,40l-.82.78C34.28,43,31.18,46,27.34,49.69a2.05,2.05,0,0,0-.67,1.52,2,2,0,0,0,.57,1.3l.86,1a1.79,1.79,0,0,0,2.82,0L45.47,39a2,2,0,0,0,.66-1.6,1.94,1.94,0,0,0-.66-1.54L31,21.42a2.19,2.19,0,0,0-1.4-.61,2.06,2.06,0,0,0-1.53.78l-.84.91a2.33,2.33,0,0,0-.51,1.34,2.5,2.5,0,0,0,1,1.79C31.35,29.17,34.29,32,36.47,34l.83.77-29.72,0a2,2,0,0,0-2.09,2.14V38a2,2,0,0,0,2.27,2.09c12.86,0,23,0,28.5,0Z"/><path class="cls-1" d="M37.92,5.93A31.41,31.41,0,0,0,11.24,20.68l-.07.11h0a2,2,0,0,0-.3,1.05,2,2,0,0,0,2,2,2,2,0,0,0,1.32-.51l.07.05.23-.38a27.56,27.56,0,1,1,.15,29.23l-.23-.37-.05,0a2,2,0,0,0-1.41-.6,2,2,0,0,0-2,2,1.83,1.83,0,0,0,.17.8l0,0,.16.26A31.56,31.56,0,1,0,37.92,5.93Z"/></svg>
