<svg id="user_logout_2_kopia" data-name="user logout 2 kopia" xmlns="http://www.w3.org/2000/svg" viewBox="0 0 75 75"><defs><style>.cls-1{fill:#7a7e7f;}</style></defs><path class="cls-1" d="M41.93,49.55a2.51,2.51,0,0,0-1,1.8,2.42,2.42,0,0,0,.56,1.42l.81.87a2.06,2.06,0,0,0,1.54.78,2.32,2.32,0,0,0,1.46-.65L60,39.17a2,2,0,0,0,.64-1.55A2.06,2.06,0,0,0,59.93,36L45.19,21.26a2,2,0,0,0-1.39-.68,2,2,0,0,0-1.48.73l-.86,1a2.08,2.08,0,0,0-.57,1.31,2.05,2.05,0,0,0,.68,1.54c3.89,3.77,7,6.8,9.36,9l.82.79H50.61c-5.56,0-15.85,0-28.89,0A2.07,2.07,0,0,0,19.42,37v1.14a2,2,0,0,0,2.11,2.17l30.14,0-.85.78C48.63,43.08,45.65,45.93,41.93,49.55Z"/><path class="cls-1" d="M62.15,51.35a2,2,0,0,0-1.35.52l-.07,0-.23.37a27.94,27.94,0,1,1-.15-29.63l.23.34,0,0a2,2,0,0,0,1.46.63,2,2,0,0,0,2-2,2.13,2.13,0,0,0-.18-.83l0-.09-.22-.22a32,32,0,1,0,0,34.2l.06-.09-.37-.26h0l.37.25h0a2,2,0,0,0-1.72-3.09Z"/></svg>
